g pCone1
v 0.35355335 -1 -0.35355335
v -0 1 0
v -0 -1 -0.49999994
v -0 -1 -0.49999994
v -0 1 0
v -0.35355335 -1 -0.35355335
v -0.35355335 -1 -0.35355335
v -0 1 0
v -0.49999994 -1 0
v -0.49999994 -1 0
v -0 1 0
v -0.35355335 -1 0.35355335
v -0.35355335 -1 0.35355335
v -0 1 0
v -0 -1 0.49999997
v -0 -1 0.49999997
v -0 1 0
v 0.35355338 -1 0.35355338
v 0.35355338 -1 0.35355338
v -0 1 0
v 0.5 -1 0
v 0.5 -1 0
v -0 1 0
v 0.35355335 -1 -0.35355335
v 0.35355335 -1 -0.35355335
v -0 -1 -0.49999994
v -0.35355335 -1 -0.35355335
v 0.5 -1 0
v -0.49999994 -1 0
v 0.35355338 -1 0.35355338
v -0.35355335 -1 0.35355335
v -0 -1 0.49999997
vt 0.25 0.5
vt 0.5 1
vt 0.3125 0.5
vt 0.3125 0.5
vt 0.5 1
vt 0.375 0.5
vt 0.375 0.5
vt 0.5 1
vt 0.4375 0.5
vt 0.4375 0.5
vt 0.5 1
vt 0.5 0.5
vt 0.5 0.5
vt 0.5 1
vt 0.5625 0.5
vt 0.5625 0.5
vt 0.5 1
vt 0.625 0.5
vt 0.625 0.5
vt 0.5 1
vt 0.6875 0.5
vt 0.6875 0.5
vt 0.5 1
vt 0.75 0.5
vt 0.6767578 0.07324219
vt 0.5 5.9604645E-08
vt 0.3232422 0.07324219
vt 0.75 0.25
vt 0.25 0.25
vt 0.6767578 0.4267578
vt 0.3232422 0.4267578
vt 0.5 0.5
vn 0.37280273 0.22509766 -0.9003906
vn 0.37280273 0.22509766 -0.9003906
vn 0.37280273 0.22509766 -0.9003906
vn -0.37280273 0.22509766 -0.9003906
vn -0.37280273 0.22509766 -0.9003906
vn -0.37280273 0.22509766 -0.9003906
vn -0.9003906 0.22509766 -0.37280273
vn -0.9003906 0.22509766 -0.37280273
vn -0.9003906 0.22509766 -0.37280273
vn -0.9003906 0.22509766 0.37280273
vn -0.9003906 0.22509766 0.37280273
vn -0.9003906 0.22509766 0.37280273
vn -0.37280273 0.22509766 0.9003906
vn -0.37280273 0.22509766 0.9003906
vn -0.37280273 0.22509766 0.9003906
vn 0.37280273 0.22509766 0.9003906
vn 0.37280273 0.22509766 0.9003906
vn 0.37280273 0.22509766 0.9003906
vn 0.9003906 0.22509766 0.37280273
vn 0.9003906 0.22509766 0.37280273
vn 0.9003906 0.22509766 0.37280273
vn 0.9003906 0.22509766 -0.37280273
vn 0.9003906 0.22509766 -0.37280273
vn 0.9003906 0.22509766 -0.37280273
vn -0 -1 0
vn -0 -1 0
vn -0 -1 0
vn -0 -1 0
vn -0 -1 0
vn -0 -1 0
vn -0 -1 0
vn -0 -1 0
g pCone1_0
f 3/3/3 2/2/2 1/1/1
f 6/6/6 5/5/5 4/4/4
f 9/9/9 8/8/8 7/7/7
f 12/12/12 11/11/11 10/10/10
f 15/15/15 14/14/14 13/13/13
f 18/18/18 17/17/17 16/16/16
f 21/21/21 20/20/20 19/19/19
f 24/24/24 23/23/23 22/22/22
f 27/27/27 26/26/26 25/25/25
f 25/25/25 28/28/28 27/27/27
f 28/28/28 29/29/29 27/27/27
f 28/28/28 30/30/30 29/29/29
f 30/30/30 31/31/31 29/29/29
f 30/30/30 32/32/32 31/31/31
