g pCube3
v -0.125 0.625 0.97518635
v -0.125 0.625 0.72518635
v 0.125 0.625 0.72518635
v 0.125 0.625 0.97518635
v -0.125 -0.62499994 0.97518635
v 0.125 0.37499997 0.97518635
v 0.125 -0.62499994 0.97518635
v -0.125 0.37499997 0.97518635
v 0.125 0.625 0.97518635
v -0.125 0.625 0.97518635
v 0.125 -0.62499994 0.97518635
v 0.125 0.37499997 0.72518635
v 0.125 -0.62499994 0.72518635
v 0.125 0.37499997 0.97518635
v 0.125 0.625 0.72518635
v 0.125 0.625 0.97518635
v 0.125 0.37499997 -0.72518635
v 0.125 0.625 -0.72518635
v 0.125 0.625 -0.97518635
v 0.125 0.37499997 -0.97518635
v 0.125 -0.62499994 -0.72518635
v 0.125 -0.62499994 -0.97518635
v 0.125 -0.62499994 0.72518635
v 0.125 0.37499997 0.72518635
v -0.125 0.37499997 0.72518635
v -0.125 -0.62499994 0.72518635
v -0.125 -0.62499994 0.72518635
v -0.125 0.37499997 0.97518635
v -0.125 -0.62499994 0.97518635
v -0.125 0.37499997 0.72518635
v -0.125 0.625 0.97518635
v -0.125 0.625 0.72518635
v -0.125 0.625 -0.72518635
v -0.125 0.37499997 -0.72518635
v -0.125 0.37499997 -0.97518635
v -0.125 0.625 -0.97518635
v -0.125 -0.62499994 -0.97518635
v -0.125 -0.62499994 -0.72518635
v 0.125 -0.62499994 0.97518635
v 0.125 -0.62499994 0.72518635
v -0.125 -0.62499994 0.72518635
v -0.125 -0.62499994 0.97518635
v -0.125 0.625 -0.72518635
v -0.125 0.625 -0.97518635
v 0.125 0.625 -0.97518635
v 0.125 0.625 -0.72518635
v -0.125 -0.62499994 -0.72518635
v -0.125 0.37499997 -0.72518635
v 0.125 0.37499997 -0.72518635
v 0.125 -0.62499994 -0.72518635
v 0.125 -0.62499994 -0.97518635
v -0.125 0.37499997 -0.97518635
v -0.125 -0.62499994 -0.97518635
v 0.125 0.37499997 -0.97518635
v -0.125 0.625 -0.97518635
v 0.125 0.625 -0.97518635
v 0.125 -0.62499994 -0.72518635
v 0.125 -0.62499994 -0.97518635
v -0.125 -0.62499994 -0.97518635
v -0.125 -0.62499994 -0.72518635
v 0.125 0.37499997 0.72518635
v 0.125 0.37499997 -0.72518635
v -0.125 0.37499997 -0.72518635
v -0.125 0.37499997 0.72518635
v -0.125 0.625 0.72518635
v -0.125 0.625 -0.72518635
v 0.125 0.625 -0.72518635
v 0.125 0.625 0.72518635
vt 0.375 0.25
vt 0.375 0.5
vt 0.625 0.5
vt 0.625 0.25
vt 0.375 0.25
vt 0.625 0.25
vt 0.625 0.25
vt 0.375 0.25
vt 0.625 0.25
vt 0.375 0.25
vt 0.625 0.25
vt 0.625 0.5
vt 0.625 0.5
vt 0.625 0.25
vt 0.625 0.5
vt 0.625 0.25
vt 0.625 0.25
vt 0.625 0.25
vt 0.625 0.5
vt 0.625 0.5
vt 0.625 0.25
vt 0.625 0.5
vt 0.625 0.5
vt 0.625 0.5
vt 0.375 0.5
vt 0.375 0.5
vt 0.375 0.5
vt 0.375 0.25
vt 0.375 0.25
vt 0.375 0.5
vt 0.375 0.25
vt 0.375 0.5
vt 0.375 0.25
vt 0.375 0.25
vt 0.375 0.5
vt 0.375 0.5
vt 0.375 0.5
vt 0.375 0.25
vt 0.625 0.25
vt 0.625 0.5
vt 0.375 0.5
vt 0.375 0.25
vt 0.375 0.25
vt 0.375 0.5
vt 0.625 0.5
vt 0.625 0.25
vt 0.375 0.25
vt 0.375 0.25
vt 0.625 0.25
vt 0.625 0.25
vt 0.625 0.5
vt 0.375 0.5
vt 0.375 0.5
vt 0.625 0.5
vt 0.375 0.5
vt 0.625 0.5
vt 0.625 0.25
vt 0.625 0.5
vt 0.375 0.5
vt 0.375 0.25
vt 0.625 0.5
vt 0.625 0.25
vt 0.375 0.25
vt 0.375 0.5
vt 0.375 0.5
vt 0.375 0.25
vt 0.625 0.25
vt 0.625 0.5
vn -0 1 0
vn -0 1 0
vn -0 1 0
vn -0 1 0
vn -0 0 1
vn -0 0 1
vn -0 0 1
vn -0 0 1
vn -0 0 1
vn -0 0 1
vn 1 0 0
vn 1 0 0
vn 1 0 0
vn 1 0 0
vn 1 0 0
vn 1 0 0
vn 1 0 0
vn 1 0 0
vn 1 0 0
vn 1 0 0
vn 1 0 0
vn 1 0 0
vn -0 0 -1
vn -0 0 -1
vn -0 0 -1
vn -0 0 -1
vn -1 0 0
vn -1 0 0
vn -1 0 0
vn -1 0 0
vn -1 0 0
vn -1 0 0
vn -1 0 0
vn -1 0 0
vn -1 0 0
vn -1 0 0
vn -1 0 0
vn -1 0 0
vn -0 -1 0
vn -0 -1 0
vn -0 -1 0
vn -0 -1 0
vn -0 1 0
vn -0 1 0
vn -0 1 0
vn -0 1 0
vn -0 0 1
vn -0 0 1
vn -0 0 1
vn -0 0 1
vn -0 0 -1
vn -0 0 -1
vn -0 0 -1
vn -0 0 -1
vn -0 0 -1
vn -0 0 -1
vn -0 -1 0
vn -0 -1 0
vn -0 -1 0
vn -0 -1 0
vn -0 -1 0
vn -0 -1 0
vn -0 -1 0
vn -0 -1 0
vn -0 1 0
vn -0 1 0
vn -0 1 0
vn -0 1 0
g pCube3_0
f 3/3/3 2/2/2 1/1/1
f 4/4/4 3/3/3 1/1/1
f 7/7/7 6/6/6 5/5/5
f 6/6/6 8/8/8 5/5/5
f 6/6/6 9/9/9 8/8/8
f 9/9/9 10/10/10 8/8/8
f 13/13/13 12/12/12 11/11/11
f 12/12/12 14/14/14 11/11/11
f 12/12/12 15/15/15 14/14/14
f 15/15/15 16/16/16 14/14/14
f 12/12/12 17/17/17 15/15/15
f 17/17/17 18/18/18 15/15/15
f 19/19/19 18/18/18 17/17/17
f 20/20/20 19/19/19 17/17/17
f 20/20/20 17/17/17 21/21/21
f 22/22/22 20/20/20 21/21/21
f 25/25/25 24/24/24 23/23/23
f 26/26/26 25/25/25 23/23/23
f 29/29/29 28/28/28 27/27/27
f 28/28/28 30/30/30 27/27/27
f 28/28/28 31/31/31 30/30/30
f 31/31/31 32/32/32 30/30/30
f 32/32/32 33/33/33 30/30/30
f 33/33/33 34/34/34 30/30/30
f 34/34/34 33/33/33 35/35/35
f 33/33/33 36/36/36 35/35/35
f 34/34/34 35/35/35 37/37/37
f 38/38/38 34/34/34 37/37/37
f 41/41/41 40/40/40 39/39/39
f 42/42/42 41/41/41 39/39/39
f 45/45/45 44/44/44 43/43/43
f 46/46/46 45/45/45 43/43/43
f 49/49/49 48/48/48 47/47/47
f 50/50/50 49/49/49 47/47/47
f 53/53/53 52/52/52 51/51/51
f 52/52/52 54/54/54 51/51/51
f 52/52/52 55/55/55 54/54/54
f 55/55/55 56/56/56 54/54/54
f 59/59/59 58/58/58 57/57/57
f 60/60/60 59/59/59 57/57/57
f 63/63/63 62/62/62 61/61/61
f 64/64/64 63/63/63 61/61/61
f 67/67/67 66/66/66 65/65/65
f 68/68/68 67/67/67 65/65/65
