g pCube1
v 0.075 -0.5 -0.5
v 0.075 0.5 0.5
v 0.075 0.5 -0.5
v -0.075 -0.5 -0.5
v -0.075 0.5 -0.5
v -0.075 0.5 0.5
v -0.075 -0.5 -0.5
v -0.075 0.5 0.5
v 0.075 0.5 0.5
v 0.075 -0.5 -0.5
v -0.075 0.5 0.5
v -0.075 0.5 -0.5
v 0.075 0.5 -0.5
v 0.075 0.5 0.5
v -0.075 0.5 -0.5
v -0.075 -0.5 -0.5
v 0.075 -0.5 -0.5
v 0.075 0.5 -0.5
vt 0.81396484 9.119511E-06
vt 0.625 0.25
vt 0.875 0.25
vt 0.125 9.357929E-06
vt 0.125 0.25
vt 0.375 0.25
vt 0.125 9.357929E-06
vt 0.375 0.25
vt 0.625 0.25
vt 0.81396484 9.119511E-06
vt 0.375 0.25
vt 0.375 0.5
vt 0.625 0.5
vt 0.625 0.25
vt 0.375 0.5
vt 0.37548828 0.75
vt 0.6245117 0.75
vt 0.625 0.5
vn 1 0 0
vn 1 0 0
vn 1 0 0
vn -1 0 0
vn -1 0 0
vn -1 0 0
vn -0 -0.70703125 0.70703125
vn -0 -0.70703125 0.70703125
vn -0 -0.70703125 0.70703125
vn -0 -0.70703125 0.70703125
vn -0 1 0
vn -0 1 0
vn -0 1 0
vn -0 1 0
vn -0 0 -1
vn -0 0 -1
vn -0 0 -1
vn -0 0 -1
g pCube1_0
f 3/3/3 2/2/2 1/1/1
f 6/6/6 5/5/5 4/4/4
f 9/9/9 8/8/8 7/7/7
f 10/10/10 9/9/9 7/7/7
f 13/13/13 12/12/12 11/11/11
f 14/14/14 13/13/13 11/11/11
f 17/17/17 16/16/16 15/15/15
f 18/18/18 17/17/17 15/15/15
