g pCylinder3
v 1.3090172 -1 -0.95105696
v 1 -1 -0.9938881
v 1 -1 0
v 1.5877855 -1 -0.8090173
v 1.8090172 -1 -0.5877854
v 1.9510567 -1 -0.30901706
v 2.0000002 -1 0
v 1.9510567 -1 0.30901706
v 1.8090172 -1 0.58778536
v 1.5877854 -1 0.8090171
v 1.3090171 -1 0.95105666
v 1 -1 0.9938877
v 0.5 -1 0.81129175
v 0.5 -1 0
v -2.9802322E-08 -1 0.7592071
v -2.9802322E-08 -1 0
v -0.5 -1 0.81129164
v -0.5 -1 0
v -1 -1 0.9938877
v -1 -1 0
v -1.3090171 -1 0.95105666
v -1.5877854 -1 0.8090171
v -1.8090172 -1 0.58778536
v -1.9510567 -1 0.30901706
v -2.0000002 -1 0
v -1.9510567 -1 -0.30901706
v -1.8090172 -1 -0.5877854
v -1.5877855 -1 -0.8090173
v -1.3090172 -1 -0.95105696
v -1 -1 -0.9938881
v -0.5 -1 -0.81129193
v -1 -1 -0.9938881
v -2.9802322E-08 -1 -0.7592072
v 0.5 -1 -0.81129193
v 1 -1 -0.9938881
v 1 -1 0
v 0.5 1 -0.81129193
v -2.9802322E-08 1 -0.7592072
v -2.9802322E-08 -1 -0.7592072
v 0.5 -1 -0.81129193
v 1 1 -0.9938881
v 1 -1 -0.9938881
v 1.3090172 1 -0.95105696
v 1.3090172 -1 -0.95105696
v 1.5877855 1 -0.8090173
v 1.5877855 -1 -0.8090173
v 1.8090172 1 -0.5877854
v 1.8090172 -1 -0.5877854
v 1.9510567 1 -0.30901706
v 1.9510567 -1 -0.30901706
v 2.0000002 1 0
v 2.0000002 -1 0
v 1.9510567 1 0.30901706
v 1.9510567 -1 0.30901706
v 1.8090172 1 0.58778536
v 1.8090172 -1 0.58778536
v 1.5877854 1 0.8090171
v 1.5877854 -1 0.8090171
v 1.3090171 1 0.95105666
v 1.3090171 -1 0.95105666
v 1 1 0.9938877
v 1 -1 0.9938877
v 0.5 1 0.81129175
v 0.5 -1 0.81129175
v -2.9802322E-08 1 0.7592071
v -2.9802322E-08 -1 0.7592071
v -0.5 1 0.81129164
v -0.5 -1 0.81129164
v -1 1 0.9938877
v -1 -1 0.9938877
v -1.3090171 -1 0.95105666
v -1.3090171 1 0.95105666
v -1.5877854 -1 0.8090171
v -1.5877854 1 0.8090171
v -1.8090172 -1 0.58778536
v -1.8090172 1 0.58778536
v -1.9510567 -1 0.30901706
v -1.9510567 1 0.30901706
v -2.0000002 -1 0
v -2.0000002 1 0
v -1.9510567 -1 -0.30901706
v -1.9510567 1 -0.30901706
v -1.8090172 -1 -0.5877854
v -1.8090172 1 -0.5877854
v -1.5877855 -1 -0.8090173
v -1.5877855 1 -0.8090173
v -1.3090172 -1 -0.95105696
v -1.3090172 1 -0.95105696
v -1 -1 -0.9938881
v -1 1 -0.9938881
v -0.5 1 -0.81129193
v -0.5 -1 -0.81129193
v -2.9802322E-08 1 -0.7592072
v -2.9802322E-08 -1 -0.7592072
v -1.3090171 1 0.95105666
v -1 1 0
v -1 1 0.9938877
v -1.5877854 1 0.8090171
v -1.8090172 1 0.58778536
v -1.9510567 1 0.30901706
v -2.0000002 1 0
v -1.9510567 1 -0.30901706
v -1.8090172 1 -0.5877854
v -1.5877855 1 -0.8090173
v -1.3090172 1 -0.95105696
v -0.5 1 0.81129164
v -1 1 -0.9938881
v -0.5 1 0
v -2.9802322E-08 1 0.7592071
v -0.5 1 -0.81129193
v -2.9802322E-08 1 0
v 0.5 1 0.81129175
v -2.9802322E-08 1 -0.7592072
v 0.5 1 0
v 1 1 0.9938877
v 0.5 1 -0.81129193
v 1 1 0
v 1.3090171 1 0.95105666
v 1 1 -0.9938881
v 1.5877854 1 0.8090171
v 1.3090172 1 -0.95105696
v 1.8090172 1 0.58778536
v 1.5877855 1 -0.8090173
v 1.9510567 1 0.30901706
v 1.8090172 1 -0.5877854
v 2.0000002 1 0
v 1.9510567 1 -0.30901706
vt 0.45166016 0.007648468
vt 0.5 -5.9604645E-08
vt 0.5 0.15625
vt 0.40820312 0.029846191
vt 0.37353516 0.06439209
vt 0.35131836 0.10797119
vt 0.34375 0.15625
vt 0.35131836 0.20458984
vt 0.37353516 0.24804688
vt 0.40820312 0.28271484
vt 0.45166016 0.30493164
vt 0.5 0.3125
vt 0.5 0.3125
vt 0.5 0.15625
vt 0.5 0.3125
vt 0.5 0.15625
vt 0.5 0.3125
vt 0.5 0.15625
vt 0.5 0.3125
vt 0.5 0.15625
vt 0.45166016 0.30493164
vt 0.40820312 0.28271484
vt 0.37353516 0.24804688
vt 0.35131836 0.20458984
vt 0.34375 0.15625
vt 0.35131836 0.10797119
vt 0.37353516 0.06439209
vt 0.40820312 0.029846191
vt 0.45166016 0.007648468
vt 0.5 -5.9604645E-08
vt 0.5 -5.9604645E-08
vt 0.5 -5.9604645E-08
vt 0.5 -5.9604645E-08
vt 0.5 -5.9604645E-08
vt 0.5 -5.9604645E-08
vt 0.5 0.15625
vt 0.42504883 0.6875
vt 0.42504883 0.6875
vt 0.42504883 0.3125
vt 0.42504883 0.3125
vt 0.42504883 0.6875
vt 0.42504883 0.3125
vt 0.4375 0.6875
vt 0.4375 0.3125
vt 0.44995117 0.6875
vt 0.44995117 0.3125
vt 0.46240234 0.6875
vt 0.46240234 0.3125
vt 0.47509766 0.6875
vt 0.47509766 0.3125
vt 0.48754883 0.6875
vt 0.48754883 0.3125
vt 0.5 0.6875
vt 0.5 0.3125
vt 0.5126953 0.6875
vt 0.5126953 0.3125
vt 0.52490234 0.6875
vt 0.52490234 0.3125
vt 0.53759766 0.6875
vt 0.53759766 0.3125
vt 0.5498047 0.6875
vt 0.5498047 0.3125
vt 0.5498047 0.6875
vt 0.5498047 0.3125
vt 0.5498047 0.6875
vt 0.5498047 0.3125
vt 0.5498047 0.6875
vt 0.5498047 0.3125
vt 0.5498047 0.6875
vt 0.5498047 0.3125
vt 0.53759766 0.3125
vt 0.53759766 0.6875
vt 0.52490234 0.3125
vt 0.52490234 0.6875
vt 0.5126953 0.3125
vt 0.5126953 0.6875
vt 0.5 0.3125
vt 0.5 0.6875
vt 0.48754883 0.3125
vt 0.48754883 0.6875
vt 0.47509766 0.3125
vt 0.47509766 0.6875
vt 0.46240234 0.3125
vt 0.46240234 0.6875
vt 0.44995117 0.3125
vt 0.44995117 0.6875
vt 0.4375 0.3125
vt 0.4375 0.6875
vt 0.42504883 0.3125
vt 0.42504883 0.6875
vt 0.42504883 0.6875
vt 0.42504883 0.3125
vt 0.42504883 0.6875
vt 0.42504883 0.3125
vt 0.45166016 0.6953125
vt 0.5 0.84375
vt 0.5 0.6875
vt 0.40820312 0.71728516
vt 0.37353516 0.7519531
vt 0.35131836 0.79541016
vt 0.34375 0.84375
vt 0.35131836 0.89208984
vt 0.37353516 0.9355469
vt 0.40820312 0.97021484
vt 0.45166016 0.9921875
vt 0.5 0.6875
vt 0.5 1
vt 0.5 0.84375
vt 0.5 0.6875
vt 0.5 1
vt 0.5 0.84375
vt 0.5 0.6875
vt 0.5 1
vt 0.5 0.84375
vt 0.5 0.6875
vt 0.5 1
vt 0.5 0.84375
vt 0.45166016 0.6953125
vt 0.5 1
vt 0.40820312 0.71728516
vt 0.45166016 0.9921875
vt 0.37353516 0.7519531
vt 0.40820312 0.97021484
vt 0.35131836 0.79541016
vt 0.37353516 0.9355469
vt 0.34375 0.84375
vt 0.35131836 0.89208984
vn -0 -1 0
vn -0 -1 0
vn -0 -1 0
vn -0 -1 0
vn -0 -1 0
vn -0 -1 0
vn -0 -1 0
vn -0 -1 0
vn -0 -1 0
vn -0 -1 0
vn -0 -1 0
vn -0 -1 0
vn -0 -1 0
vn -0 -1 0
vn -0 -1 0
vn -0 -1 0
vn -0 -1 0
vn -0 -1 0
vn -0 -1 0
vn -0 -1 0
vn -0 -1 0
vn -0 -1 0
vn -0 -1 0
vn -0 -1 0
vn -0 -1 0
vn -0 -1 0
vn -0 -1 0
vn -0 -1 0
vn -0 -1 0
vn -0 -1 0
vn -0 -1 0
vn -0 -1 0
vn -0 -1 0
vn -0 -1 0
vn -0 -1 0
vn -0 -1 0
vn -0.22851562 0 -0.9736328
vn -0 0 -1
vn -0 0 -1
vn -0.22851562 0 -0.9736328
vn -0.17028809 0 -0.98535156
vn -0.17028809 0 -0.98535156
vn 0.30004883 0 -0.95410156
vn 0.30004883 0 -0.95410156
vn 0.5878906 0 -0.80908203
vn 0.5878906 0 -0.80908203
vn 0.80908203 0 -0.5878906
vn 0.80908203 0 -0.5878906
vn 0.9511719 0 -0.30908203
vn 0.9511719 0 -0.30908203
vn 1 0 0
vn 1 0 0
vn 0.9511719 0 0.30908203
vn 0.9511719 0 0.30908203
vn 0.80908203 0 0.5878906
vn 0.80908203 0 0.5878906
vn 0.5878906 0 0.80908203
vn 0.5878906 0 0.80908203
vn 0.30004883 0 0.95410156
vn 0.30004883 0 0.95410156
vn -0.17028809 0 0.98535156
vn -0.17028809 0 0.98535156
vn -0.22851562 0 0.9736328
vn -0.22851562 0 0.9736328
vn -0 0 1
vn -0 0 1
vn 0.22851562 0 0.9736328
vn 0.22851562 0 0.9736328
vn 0.17028809 0 0.98535156
vn 0.17028809 0 0.98535156
vn -0.30004883 0 0.95410156
vn -0.30004883 0 0.95410156
vn -0.5878906 0 0.80908203
vn -0.5878906 0 0.80908203
vn -0.80908203 0 0.5878906
vn -0.80908203 0 0.5878906
vn -0.9511719 0 0.30908203
vn -0.9511719 0 0.30908203
vn -1 0 0
vn -1 0 0
vn -0.9511719 0 -0.30908203
vn -0.9511719 0 -0.30908203
vn -0.80908203 0 -0.5878906
vn -0.80908203 0 -0.5878906
vn -0.5878906 0 -0.80908203
vn -0.5878906 0 -0.80908203
vn -0.30004883 0 -0.95410156
vn -0.30004883 0 -0.95410156
vn 0.17028809 0 -0.98535156
vn 0.17028809 0 -0.98535156
vn 0.22851562 0 -0.9736328
vn 0.22851562 0 -0.9736328
vn -0 0 -1
vn -0 0 -1
vn -0 1 0
vn -0 1 0
vn -0 1 0
vn -0 1 0
vn -0 1 0
vn -0 1 0
vn -0 1 0
vn -0 1 0
vn -0 1 0
vn -0 1 0
vn -0 1 0
vn -0 1 0
vn -0 1 0
vn -0 1 0
vn -0 1 0
vn -0 1 0
vn -0 1 0
vn -0 1 0
vn -0 1 0
vn -0 1 0
vn -0 1 0
vn -0 1 0
vn -0 1 0
vn -0 1 0
vn -0 1 0
vn -0 1 0
vn -0 1 0
vn -0 1 0
vn -0 1 0
vn -0 1 0
vn -0 1 0
vn -0 1 0
vn -0 1 0
g pCylinder3_0
f 3/3/3 2/2/2 1/1/1
f 3/3/3 1/1/1 4/4/4
f 3/3/3 4/4/4 5/5/5
f 3/3/3 5/5/5 6/6/6
f 3/3/3 6/6/6 7/7/7
f 3/3/3 7/7/7 8/8/8
f 3/3/3 8/8/8 9/9/9
f 3/3/3 9/9/9 10/10/10
f 3/3/3 10/10/10 11/11/11
f 3/3/3 11/11/11 12/12/12
f 12/12/12 13/13/13 3/3/3
f 13/13/13 14/14/14 3/3/3
f 13/13/13 15/15/15 14/14/14
f 15/15/15 16/16/16 14/14/14
f 15/15/15 17/17/17 16/16/16
f 17/17/17 18/18/18 16/16/16
f 17/17/17 19/19/19 18/18/18
f 19/19/19 20/20/20 18/18/18
f 21/21/21 20/20/20 19/19/19
f 22/22/22 20/20/20 21/21/21
f 23/23/23 20/20/20 22/22/22
f 24/24/24 20/20/20 23/23/23
f 25/25/25 20/20/20 24/24/24
f 26/26/26 20/20/20 25/25/25
f 27/27/27 20/20/20 26/26/26
f 28/28/28 20/20/20 27/27/27
f 29/29/29 20/20/20 28/28/28
f 30/30/30 20/20/20 29/29/29
f 18/18/18 20/20/20 31/31/31
f 20/20/20 32/32/32 31/31/31
f 18/18/18 31/31/31 33/33/33
f 16/16/16 18/18/18 33/33/33
f 16/16/16 33/33/33 34/34/34
f 14/14/14 16/16/16 34/34/34
f 14/14/14 34/34/34 35/35/35
f 36/36/36 14/14/14 35/35/35
f 39/39/39 38/38/38 37/37/37
f 40/40/40 39/39/39 37/37/37
f 40/40/40 37/37/37 41/41/41
f 42/42/42 40/40/40 41/41/41
f 41/41/41 43/43/43 42/42/42
f 43/43/43 44/44/44 42/42/42
f 43/43/43 45/45/45 44/44/44
f 45/45/45 46/46/46 44/44/44
f 45/45/45 47/47/47 46/46/46
f 47/47/47 48/48/48 46/46/46
f 47/47/47 49/49/49 48/48/48
f 49/49/49 50/50/50 48/48/48
f 49/49/49 51/51/51 50/50/50
f 51/51/51 52/52/52 50/50/50
f 51/51/51 53/53/53 52/52/52
f 53/53/53 54/54/54 52/52/52
f 53/53/53 55/55/55 54/54/54
f 55/55/55 56/56/56 54/54/54
f 55/55/55 57/57/57 56/56/56
f 57/57/57 58/58/58 56/56/56
f 57/57/57 59/59/59 58/58/58
f 59/59/59 60/60/60 58/58/58
f 59/59/59 61/61/61 60/60/60
f 61/61/61 62/62/62 60/60/60
f 61/61/61 63/63/63 62/62/62
f 63/63/63 64/64/64 62/62/62
f 63/63/63 65/65/65 64/64/64
f 65/65/65 66/66/66 64/64/64
f 65/65/65 67/67/67 66/66/66
f 67/67/67 68/68/68 66/66/66
f 67/67/67 69/69/69 68/68/68
f 69/69/69 70/70/70 68/68/68
f 70/70/70 69/69/69 71/71/71
f 69/69/69 72/72/72 71/71/71
f 71/71/71 72/72/72 73/73/73
f 72/72/72 74/74/74 73/73/73
f 73/73/73 74/74/74 75/75/75
f 74/74/74 76/76/76 75/75/75
f 75/75/75 76/76/76 77/77/77
f 76/76/76 78/78/78 77/77/77
f 77/77/77 78/78/78 79/79/79
f 78/78/78 80/80/80 79/79/79
f 79/79/79 80/80/80 81/81/81
f 80/80/80 82/82/82 81/81/81
f 81/81/81 82/82/82 83/83/83
f 82/82/82 84/84/84 83/83/83
f 83/83/83 84/84/84 85/85/85
f 84/84/84 86/86/86 85/85/85
f 85/85/85 86/86/86 87/87/87
f 86/86/86 88/88/88 87/87/87
f 87/87/87 88/88/88 89/89/89
f 88/88/88 90/90/90 89/89/89
f 89/89/89 90/90/90 91/91/91
f 92/92/92 89/89/89 91/91/91
f 92/92/92 91/91/91 93/93/93
f 94/94/94 92/92/92 93/93/93
f 97/97/97 96/96/96 95/95/95
f 95/95/95 96/96/96 98/98/98
f 98/98/98 96/96/96 99/99/99
f 99/99/99 96/96/96 100/100/100
f 100/100/100 96/96/96 101/101/101
f 101/101/101 96/96/96 102/102/102
f 102/102/102 96/96/96 103/103/103
f 103/103/103 96/96/96 104/104/104
f 104/104/104 96/96/96 105/105/105
f 96/96/96 97/97/97 106/106/106
f 105/105/105 96/96/96 107/107/107
f 108/108/108 96/96/96 106/106/106
f 107/107/107 96/96/96 108/108/108
f 108/108/108 106/106/106 109/109/109
f 110/110/110 107/107/107 108/108/108
f 111/111/111 108/108/108 109/109/109
f 110/110/110 108/108/108 111/111/111
f 111/111/111 109/109/109 112/112/112
f 113/113/113 110/110/110 111/111/111
f 114/114/114 111/111/111 112/112/112
f 113/113/113 111/111/111 114/114/114
f 114/114/114 112/112/112 115/115/115
f 116/116/116 113/113/113 114/114/114
f 117/117/117 114/114/114 115/115/115
f 116/116/116 114/114/114 117/117/117
f 117/117/117 115/115/115 118/118/118
f 119/119/119 116/116/116 117/117/117
f 117/117/117 118/118/118 120/120/120
f 117/117/117 121/121/121 119/119/119
f 117/117/117 120/120/120 122/122/122
f 117/117/117 123/123/123 121/121/121
f 117/117/117 122/122/122 124/124/124
f 117/117/117 125/125/125 123/123/123
f 117/117/117 124/124/124 126/126/126
f 117/117/117 127/127/127 125/125/125
f 117/117/117 126/126/126 127/127/127
