g pCylinder1
v 0.100000046 -4 -0.17320506
v -0.16256198 -2.051566 -0.1732051
v -0.09999997 -4 -0.1732051
v 0.036872573 -2.0665948 -0.17320506
v 0.14323363 0.05401203 -0.13168186
v 0.33842283 0.014740352 -0.11273657
v 0.5166203 2.0335639 -0.2847105
v 0.70545363 1.9772688 -0.250464
v 1.1301948 3.9195004 -0.5755842
v 1.319028 3.9194999 -0.5413377
v -0.09999997 -4 -0.1732051
v -0.2622793 -2.0440514 -2.9802322E-08
v -0.2 -4 -2.9802322E-08
v -0.16256198 -2.051566 -0.1732051
v 0.032166436 0.08963197 0.030784484
v 0.14323363 0.05401203 -0.13168186
v 0.40139717 2.094594 -0.13305625
v 0.5166203 2.0335639 -0.2847105
v 1.0149717 3.919501 -0.42392993
v 1.1301948 3.9195004 -0.5755842
v -0.2 -4 -2.9802322E-08
v -0.16256204 -2.051566 0.17320508
v -0.100000024 -4 0.17320508
v -0.2622793 -2.0440514 -2.9802322E-08
v 0.11628845 0.08598024 0.21219608
v 0.032166436 0.08963197 0.030784484
v 0.4750077 2.0993292 0.052844428
v 0.40139717 2.094594 -0.13305625
v 1.0885823 3.919501 -0.23802933
v 1.0149717 3.919501 -0.42392993
v -0.100000024 -4 0.17320508
v 0.03687252 -2.0665948 0.17320509
v 0.099999994 -4 0.17320509
v -0.16256204 -2.051566 0.17320508
v 0.31147763 0.046708573 0.23114128
v 0.11628845 0.08598024 0.21219608
v 0.66384125 2.0430343 0.087090895
v 0.4750077 2.0993292 0.052844428
v 1.2774156 3.9195004 -0.20378275
v 1.0885823 3.919501 -0.23802933
v 0.099999994 -4 0.17320509
v 0.1365898 -2.0741093 0
v 0.2 -4 0
v 0.03687252 -2.0665948 0.17320509
v 0.42254478 0.011088643 0.06867492
v 0.31147763 0.046708573 0.23114128
v 0.779064 1.9820042 -0.06456335
v 0.66384125 2.0430343 0.087090895
v 1.3926387 3.9194999 -0.35543707
v 1.2774156 3.9195004 -0.20378275
v 0.2 -4 0
v 0.036872573 -2.0665948 -0.17320506
v 0.100000046 -4 -0.17320506
v 0.1365898 -2.0741093 0
v 0.33842283 0.014740352 -0.11273657
v 0.42254478 0.011088643 0.06867492
v 0.70545363 1.9772688 -0.250464
v 0.779064 1.9820042 -0.06456335
v 1.319028 3.9194999 -0.5413377
v 1.3926387 3.9194999 -0.35543707
v 1.2774156 3.9195004 -0.20378275
v 1.2038052 3.9195006 -0.3896835
v 1.3926387 3.9194999 -0.35543707
v 1.0885823 3.919501 -0.23802933
v 1.319028 3.9194999 -0.5413377
v 1.0149717 3.919501 -0.42392993
v 1.1301948 3.9195004 -0.5755842
v 0.2 -4 0
v -0 -4 0
v 0.099999994 -4 0.17320509
v 0.100000046 -4 -0.17320506
v -0.100000024 -4 0.17320508
v -0.09999997 -4 -0.1732051
v -0.2 -4 -2.9802322E-08
vt 0.375 0.3125
vt 0.41674805 0.40625
vt 0.41674805 0.3125
vt 0.375 0.40625
vt 0.41674805 0.5
vt 0.375 0.5
vt 0.41674805 0.59375
vt 0.375 0.59375
vt 0.41674805 0.6875
vt 0.375 0.6875
vt 0.41674805 0.3125
vt 0.45825195 0.40625
vt 0.45825195 0.3125
vt 0.41674805 0.40625
vt 0.45825195 0.5
vt 0.41674805 0.5
vt 0.45825195 0.59375
vt 0.41674805 0.59375
vt 0.45825195 0.6875
vt 0.41674805 0.6875
vt 0.45825195 0.3125
vt 0.5 0.40625
vt 0.5 0.3125
vt 0.45825195 0.40625
vt 0.5 0.5
vt 0.45825195 0.5
vt 0.5 0.59375
vt 0.45825195 0.59375
vt 0.5 0.6875
vt 0.45825195 0.6875
vt 0.5 0.3125
vt 0.5415039 0.40625
vt 0.5415039 0.3125
vt 0.5 0.40625
vt 0.5415039 0.5
vt 0.5 0.5
vt 0.5415039 0.59375
vt 0.5 0.59375
vt 0.5415039 0.6875
vt 0.5 0.6875
vt 0.5415039 0.3125
vt 0.5834961 0.40625
vt 0.5834961 0.3125
vt 0.5415039 0.40625
vt 0.5834961 0.5
vt 0.5415039 0.5
vt 0.5834961 0.59375
vt 0.5415039 0.59375
vt 0.5834961 0.6875
vt 0.5415039 0.6875
vt 0.5834961 0.3125
vt 0.625 0.40625
vt 0.625 0.3125
vt 0.5834961 0.40625
vt 0.625 0.5
vt 0.5834961 0.5
vt 0.625 0.59375
vt 0.5834961 0.59375
vt 0.625 0.6875
vt 0.5834961 0.6875
vt 0.578125 0.7084961
vt 0.5 0.84375
vt 0.65625 0.84375
vt 0.421875 0.7084961
vt 0.578125 0.9790039
vt 0.34375 0.84375
vt 0.421875 0.9790039
vt 0.65625 0.15625
vt 0.5 0.15625
vt 0.578125 0.2915039
vt 0.578125 0.020935059
vt 0.421875 0.2915039
vt 0.421875 0.020935059
vt 0.34375 0.15625
vn -0 0 -1
vn 0.026550293 0.008995056 -0.9995117
vn -0 0 -1
vn 0.025939941 0.008781433 -0.9995117
vn 0.081970215 -0.0385437 -0.99609375
vn 0.080566406 -0.035980225 -0.99609375
vn 0.13085938 -0.14587402 -0.98046875
vn 0.1295166 -0.14208984 -0.9814453
vn 0.14685059 -0.19445801 -0.96972656
vn 0.14685059 -0.19445801 -0.96972656
vn -0.86621094 -0.027694702 -0.4987793
vn -0.8515625 0.0541687 -0.52197266
vn -0.86621094 -0.027694702 -0.4987793
vn -0.8515625 0.05239868 -0.5214844
vn -0.8129883 0.113342285 -0.57128906
vn -0.8144531 0.11444092 -0.56884766
vn -0.7817383 0.12927246 -0.6098633
vn -0.78271484 0.12683105 -0.609375
vn -0.7705078 0.15808105 -0.6171875
vn -0.7705078 0.15808105 -0.6171875
vn -0.86621094 -0.027694702 0.4987793
vn -0.87597656 0.04473877 0.47998047
vn -0.86621094 -0.027694702 0.4987793
vn -0.87646484 0.045196533 0.47973633
vn -0.8925781 0.15234375 0.42456055
vn -0.89208984 0.15124512 0.42529297
vn -0.890625 0.27075195 0.36572266
vn -0.890625 0.27001953 0.36572266
vn -0.8730469 0.34838867 0.3413086
vn -0.8730469 0.34838867 0.3413086
vn -0 0 1
vn -0.025924683 -0.008392334 0.9995117
vn -0 0 1
vn -0.026779175 -0.008666992 0.9995117
vn -0.080200195 0.036315918 0.99609375
vn -0.082092285 0.039764404 0.99560547
vn -0.12854004 0.14416504 0.98095703
vn -0.12976074 0.14819336 0.98046875
vn -0.14575195 0.20080566 0.96875
vn -0.14575195 0.20080566 0.96875
vn 0.86621094 0.028396606 0.4987793
vn 0.8515625 -0.051879883 0.5214844
vn 0.86621094 0.028396606 0.4987793
vn 0.8510742 -0.05441284 0.52197266
vn 0.8144531 -0.11456299 0.56884766
vn 0.8125 -0.113220215 0.57177734
vn 0.7832031 -0.12512207 0.609375
vn 0.78222656 -0.12768555 0.6098633
vn 0.7714844 -0.15405273 0.6171875
vn 0.7714844 -0.15405273 0.6171875
vn 0.86621094 0.028396606 -0.4987793
vn 0.87597656 -0.043670654 -0.47998047
vn 0.86621094 0.028396606 -0.4987793
vn 0.87646484 -0.043914795 -0.47998047
vn 0.8925781 -0.1496582 -0.42578125
vn 0.8930664 -0.15136719 -0.4243164
vn 0.8930664 -0.2619629 -0.36621094
vn 0.8925781 -0.2631836 -0.36572266
vn 0.87939453 -0.32958984 -0.34399414
vn 0.87939453 -0.32958984 -0.34399414
vn -0 1 0
vn -0 1 0
vn -0 1 0
vn -0 1 0
vn -0 1 0
vn -0 1 0
vn -0 1 0
vn -0 -1 0
vn -0 -1 0
vn -0 -1 0
vn -0 -1 0
vn -0 -1 0
vn -0 -1 0
vn -0 -1 0
g pCylinder1_0
f 3/3/3 2/2/2 1/1/1
f 2/2/2 4/4/4 1/1/1
f 2/2/2 5/5/5 4/4/4
f 5/5/5 6/6/6 4/4/4
f 5/5/5 7/7/7 6/6/6
f 7/7/7 8/8/8 6/6/6
f 7/7/7 9/9/9 8/8/8
f 9/9/9 10/10/10 8/8/8
f 13/13/13 12/12/12 11/11/11
f 12/12/12 14/14/14 11/11/11
f 12/12/12 15/15/15 14/14/14
f 15/15/15 16/16/16 14/14/14
f 15/15/15 17/17/17 16/16/16
f 17/17/17 18/18/18 16/16/16
f 17/17/17 19/19/19 18/18/18
f 19/19/19 20/20/20 18/18/18
f 23/23/23 22/22/22 21/21/21
f 22/22/22 24/24/24 21/21/21
f 22/22/22 25/25/25 24/24/24
f 25/25/25 26/26/26 24/24/24
f 25/25/25 27/27/27 26/26/26
f 27/27/27 28/28/28 26/26/26
f 27/27/27 29/29/29 28/28/28
f 29/29/29 30/30/30 28/28/28
f 33/33/33 32/32/32 31/31/31
f 32/32/32 34/34/34 31/31/31
f 32/32/32 35/35/35 34/34/34
f 35/35/35 36/36/36 34/34/34
f 35/35/35 37/37/37 36/36/36
f 37/37/37 38/38/38 36/36/36
f 37/37/37 39/39/39 38/38/38
f 39/39/39 40/40/40 38/38/38
f 43/43/43 42/42/42 41/41/41
f 42/42/42 44/44/44 41/41/41
f 42/42/42 45/45/45 44/44/44
f 45/45/45 46/46/46 44/44/44
f 45/45/45 47/47/47 46/46/46
f 47/47/47 48/48/48 46/46/46
f 47/47/47 49/49/49 48/48/48
f 49/49/49 50/50/50 48/48/48
f 53/53/53 52/52/52 51/51/51
f 52/52/52 54/54/54 51/51/51
f 52/52/52 55/55/55 54/54/54
f 55/55/55 56/56/56 54/54/54
f 55/55/55 57/57/57 56/56/56
f 57/57/57 58/58/58 56/56/56
f 57/57/57 59/59/59 58/58/58
f 59/59/59 60/60/60 58/58/58
f 63/63/63 62/62/62 61/61/61
f 61/61/61 62/62/62 64/64/64
f 65/65/65 62/62/62 63/63/63
f 64/64/64 62/62/62 66/66/66
f 67/67/67 62/62/62 65/65/65
f 66/66/66 62/62/62 67/67/67
f 70/70/70 69/69/69 68/68/68
f 68/68/68 69/69/69 71/71/71
f 72/72/72 69/69/69 70/70/70
f 71/71/71 69/69/69 73/73/73
f 74/74/74 69/69/69 72/72/72
f 73/73/73 69/69/69 74/74/74
