g pCylinder1
v 0.80901706 -0.125 -0.5877854
v 0.80901706 0.125 -0.5877854
v 0.30901694 0.125 -0.9510567
v 0.30901694 -0.125 -0.9510567
v 0.30901694 -0.125 -0.9510567
v 0.30901694 0.125 -0.9510567
v -0.30901715 0.12500015 -0.9510566
v -0.30901715 -0.12499988 -0.9510566
v -0.30901715 -0.12499988 -0.9510566
v -0.30901715 0.12500015 -0.9510566
v -0.8090172 0.12500015 -0.58778524
v -0.8090172 -0.12499988 -0.58778524
v -0.8090172 -0.12499988 -0.58778524
v -0.8090172 0.12500015 -0.58778524
v -1.0000001 0.12500015 5.9604645E-08
v -1.0000001 -0.12499988 5.9604645E-08
v -1.0000001 -0.12499988 5.9604645E-08
v -1.0000001 0.12500015 5.9604645E-08
v -0.80901706 0.12500015 0.58778536
v -0.80901706 -0.12499988 0.58778536
v -0.80901706 -0.12499988 0.58778536
v -0.80901706 0.12500015 0.58778536
v -0.30901697 0.12500015 0.9510566
v -0.30901697 -0.12499988 0.9510566
v -0.30901697 -0.12499988 0.9510566
v -0.30901697 0.12500015 0.9510566
v 0.30901703 0.125 0.95105654
v 0.30901703 -0.125 0.95105654
v 0.30901703 -0.125 0.95105654
v 0.30901703 0.125 0.95105654
v 0.809017 0.125 0.58778524
v 0.809017 -0.125 0.58778524
v 0.809017 -0.125 0.58778524
v 0.809017 0.125 0.58778524
v 1 0.125 0
v 1 -0.125 0
v 1 -0.125 0
v 1 0.125 0
v 0.80901706 0.125 -0.5877854
v 0.80901706 -0.125 -0.5877854
v 0.30901694 0.125 -0.9510567
v -0.26686272 0.12500015 -0.8213186
v -0.30901715 0.12500015 -0.9510566
v 0.2668626 0.125 -0.821319
v 0.80901706 0.125 -0.5877854
v 2.1671381E-08 0.125 2.1671381E-08
v -0.69865537 0.12500015 -0.5076028
v -0.86358553 0.12500015 7.31451E-08
v -0.69865525 0.12500015 0.50760293
v -0.26686257 0.12500015 0.82131857
v 0.69865537 0.125 -0.50760293
v 1 0.125 0
v 0.86358553 0.125 2.1671381E-08
v 0.809017 0.125 0.58778524
v 0.69865525 0.125 0.5076028
v 0.30901703 0.125 0.95105654
v 0.26686266 0.125 0.8213186
v -0.30901697 0.12500015 0.9510566
v -0.30901715 1.1250001 -0.9510566
v -0.26686272 1.1250001 -0.8213186
v -0.69865537 1.3584958 -0.5076028
v -0.8090172 1.3584958 -0.58778524
v -0.86358553 1.4069706 7.31451E-08
v -1.0000001 1.4069706 5.9604645E-08
v -0.69865525 1.3584958 0.50760293
v -0.80901706 1.3584958 0.58778536
v -0.26686257 1.1250001 0.82131857
v -0.30901697 1.1250001 0.9510566
v -0.30901715 0.12500015 -0.9510566
v -0.30901715 1.1250001 -0.9510566
v -0.8090172 1.3584958 -0.58778524
v -0.8090172 0.12500015 -0.58778524
v -0.69865537 0.12500015 -0.5076028
v -0.69865537 1.3584958 -0.5076028
v -0.26686272 1.1250001 -0.8213186
v -0.26686272 0.12500015 -0.8213186
v -0.26686272 0.12500015 -0.8213186
v -0.26686272 1.1250001 -0.8213186
v -0.30901715 1.1250001 -0.9510566
v -0.30901715 0.12500015 -0.9510566
v -0.8090172 0.12500015 -0.58778524
v -0.8090172 1.3584958 -0.58778524
v -1.0000001 1.4069706 5.9604645E-08
v -1.0000001 0.12500015 5.9604645E-08
v -0.86358553 0.12500015 7.31451E-08
v -0.86358553 1.4069706 7.31451E-08
v -0.69865537 1.3584958 -0.5076028
v -0.69865537 0.12500015 -0.5076028
v -1.0000001 0.12500015 5.9604645E-08
v -1.0000001 1.4069706 5.9604645E-08
v -0.80901706 1.3584958 0.58778536
v -0.80901706 0.12500015 0.58778536
v -0.69865525 0.12500015 0.50760293
v -0.69865525 1.3584958 0.50760293
v -0.86358553 1.4069706 7.31451E-08
v -0.86358553 0.12500015 7.31451E-08
v -0.80901706 0.12500015 0.58778536
v -0.80901706 1.3584958 0.58778536
v -0.30901697 1.1250001 0.9510566
v -0.30901697 0.12500015 0.9510566
v -0.30901697 0.12500015 0.9510566
v -0.30901697 1.1250001 0.9510566
v -0.26686257 1.1250001 0.82131857
v -0.26686257 0.12500015 0.82131857
v -0.26686257 0.12500015 0.82131857
v -0.26686257 1.1250001 0.82131857
v -0.69865525 1.3584958 0.50760293
v -0.69865525 0.12500015 0.50760293
v 1 -0.125 0
v 2.1671381E-08 -0.125 2.1671381E-08
v 0.809017 -0.125 0.58778524
v 0.80901706 -0.125 -0.5877854
v 0.30901703 -0.125 0.95105654
v 0.30901694 -0.125 -0.9510567
v -0.30901697 -0.12499988 0.9510566
v -0.30901715 -0.12499988 -0.9510566
v -0.80901706 -0.12499988 0.58778536
v -0.8090172 -0.12499988 -0.58778524
v -1.0000001 -0.12499988 5.9604645E-08
vt 0.375 0.31274414
vt 0.375 0.6875
vt 0.39990234 0.6875
vt 0.39990234 0.31274414
vt 0.39990234 0.31274414
vt 0.39990234 0.6875
vt 0.42504883 0.6875
vt 0.42504883 0.31274414
vt 0.42504883 0.31274414
vt 0.42504883 0.6875
vt 0.44995117 0.6875
vt 0.44995117 0.31274414
vt 0.44995117 0.31274414
vt 0.44995117 0.6875
vt 0.47509766 0.6875
vt 0.47509766 0.31274414
vt 0.47509766 0.31274414
vt 0.47509766 0.6875
vt 0.5 0.6875
vt 0.5 0.31274414
vt 0.5 0.31274414
vt 0.5 0.6875
vt 0.52490234 0.6875
vt 0.52490234 0.31274414
vt 0.52490234 0.31274414
vt 0.52490234 0.6875
vt 0.5498047 0.6875
vt 0.5498047 0.31274414
vt 0.5498047 0.31274414
vt 0.5498047 0.6875
vt 0.5751953 0.6875
vt 0.5751953 0.31274414
vt 0.5751953 0.31274414
vt 0.5751953 0.6875
vt 0.60009766 0.6875
vt 0.60009766 0.31274414
vt 0.60009766 0.31274414
vt 0.60009766 0.6875
vt 0.625 0.6875
vt 0.625 0.31274414
vt 0.54833984 0.9921875
vt 0.47583008 0.91796875
vt 0.45166016 0.9921875
vt 0.5239258 0.91796875
vt 0.62646484 0.9355469
vt 0.5 0.84375
vt 0.43676758 0.88964844
vt 0.421875 0.84375
vt 0.43676758 0.79785156
vt 0.47583008 0.76953125
vt 0.5629883 0.88964844
vt 0.65625 0.84375
vt 0.578125 0.84375
vt 0.62646484 0.7519531
vt 0.5629883 0.79785156
vt 0.54833984 0.6953125
vt 0.5239258 0.76953125
vt 0.45166016 0.6953125
vt 0.45166016 0.9921875
vt 0.47583008 0.91796875
vt 0.43676758 0.88964844
vt 0.37353516 0.9355469
vt 0.421875 0.84375
vt 0.34375 0.84375
vt 0.43676758 0.79785156
vt 0.37353516 0.7519531
vt 0.47583008 0.76953125
vt 0.45166016 0.6953125
vt 0.45166016 0.9921875
vt 0.45166016 0.9921875
vt 0.37353516 0.9355469
vt 0.37353516 0.9355469
vt 0.43676758 0.88964844
vt 0.43676758 0.88964844
vt 0.47583008 0.91796875
vt 0.47583008 0.91796875
vt 0.47583008 0.91796875
vt 0.47583008 0.91796875
vt 0.45166016 0.9921875
vt 0.45166016 0.9921875
vt 0.37353516 0.9355469
vt 0.37353516 0.9355469
vt 0.34375 0.84375
vt 0.34375 0.84375
vt 0.421875 0.84375
vt 0.421875 0.84375
vt 0.43676758 0.88964844
vt 0.43676758 0.88964844
vt 0.34375 0.84375
vt 0.34375 0.84375
vt 0.37353516 0.7519531
vt 0.37353516 0.7519531
vt 0.43676758 0.79785156
vt 0.43676758 0.79785156
vt 0.421875 0.84375
vt 0.421875 0.84375
vt 0.37353516 0.7519531
vt 0.37353516 0.7519531
vt 0.45166016 0.6953125
vt 0.45166016 0.6953125
vt 0.45166016 0.6953125
vt 0.45166016 0.6953125
vt 0.47583008 0.76953125
vt 0.47583008 0.76953125
vt 0.47583008 0.76953125
vt 0.47583008 0.76953125
vt 0.43676758 0.79785156
vt 0.43676758 0.79785156
vt 0.6347656 0.15490723
vt 0.5 0.15625
vt 0.60839844 0.23486328
vt 0.60839844 0.075805664
vt 0.5419922 0.2854004
vt 0.54052734 0.02746582
vt 0.45947266 0.2849121
vt 0.45703125 0.028305054
vt 0.39160156 0.23669434
vt 0.38989258 0.07800293
vt 0.36499023 0.15759277
vn 0.5878906 0 -0.80908203
vn 0.5878906 0 -0.80908203
vn 0.5878906 0 -0.80908203
vn 0.5878906 0 -0.80908203
vn -0 0 -1
vn -0 0 -1
vn -0 0 -1
vn -0 0 -1
vn -0.5878906 0 -0.80908203
vn -0.5878906 0 -0.80908203
vn -0.5878906 0 -0.80908203
vn -0.5878906 0 -0.80908203
vn -0.9511719 0 -0.30908203
vn -0.9511719 0 -0.30908203
vn -0.9511719 0 -0.30908203
vn -0.9511719 0 -0.30908203
vn -0.9511719 0 0.30908203
vn -0.9511719 0 0.30908203
vn -0.9511719 0 0.30908203
vn -0.9511719 0 0.30908203
vn -0.5878906 0 0.80908203
vn -0.5878906 0 0.80908203
vn -0.5878906 0 0.80908203
vn -0.5878906 0 0.80908203
vn -0 0 1
vn -0 0 1
vn -0 0 1
vn -0 0 1
vn 0.5878906 0 0.80908203
vn 0.5878906 0 0.80908203
vn 0.5878906 0 0.80908203
vn 0.5878906 0 0.80908203
vn 0.9511719 0 0.30908203
vn 0.9511719 0 0.30908203
vn 0.9511719 0 0.30908203
vn 0.9511719 0 0.30908203
vn 0.9511719 0 -0.30908203
vn 0.9511719 0 -0.30908203
vn 0.9511719 0 -0.30908203
vn 0.9511719 0 -0.30908203
vn -0 1 0
vn -0 1 0
vn -0 1 0
vn -0 1 0
vn -0 1 0
vn -0 1 0
vn -0 1 0
vn -0 1 0
vn -0 1 0
vn -0 1 0
vn -0 1 0
vn -0 1 0
vn -0 1 0
vn -0 1 0
vn -0 1 0
vn -0 1 0
vn -0 1 0
vn -0 1 0
vn 0.30395508 0.9267578 -0.2208252
vn 0.30395508 0.9267578 -0.2208252
vn 0.17126465 0.97314453 -0.15441895
vn 0.17333984 0.97265625 -0.15539551
vn 0.026000977 0.9995117 0
vn 0.026000977 0.9995117 0
vn 0.17126465 0.97314453 0.15441895
vn 0.17333984 0.97265625 0.15539551
vn 0.30395508 0.9267578 0.2208252
vn 0.30395508 0.9267578 0.2208252
vn -0.5878906 0 -0.80908203
vn -0.5878906 0 -0.80908203
vn -0.5878906 0 -0.80908203
vn -0.5878906 0 -0.80908203
vn 0.5878906 0 0.80908203
vn 0.5878906 0 0.80908203
vn 0.5878906 0 0.80908203
vn 0.5878906 0 0.80908203
vn 0.9511719 0 -0.30908203
vn 0.9511719 0 -0.30908203
vn 0.9511719 0 -0.30908203
vn 0.9511719 0 -0.30908203
vn -0.9511719 0 -0.30908203
vn -0.9511719 0 -0.30908203
vn -0.9511719 0 -0.30908203
vn -0.9511719 0 -0.30908203
vn 0.9511719 0 0.30908203
vn 0.9511719 0 0.30908203
vn 0.9511719 0 0.30908203
vn 0.9511719 0 0.30908203
vn -0.9511719 0 0.30908203
vn -0.9511719 0 0.30908203
vn -0.9511719 0 0.30908203
vn -0.9511719 0 0.30908203
vn 0.9511719 0 -0.30908203
vn 0.9511719 0 -0.30908203
vn 0.9511719 0 -0.30908203
vn 0.9511719 0 -0.30908203
vn -0.5878906 0 0.80908203
vn -0.5878906 0 0.80908203
vn -0.5878906 0 0.80908203
vn -0.5878906 0 0.80908203
vn 0.9511719 0 0.30908203
vn 0.9511719 0 0.30908203
vn 0.9511719 0 0.30908203
vn 0.9511719 0 0.30908203
vn 0.5878906 0 -0.80908203
vn 0.5878906 0 -0.80908203
vn 0.5878906 0 -0.80908203
vn 0.5878906 0 -0.80908203
vn -0 -1 0
vn -0 -1 0
vn -0 -1 0
vn -0 -1 0
vn -0 -1 0
vn -0 -1 0
vn -0 -1 0
vn -0 -1 0
vn -0 -1 0
vn -0 -1 0
vn -0 -1 0
g pCylinder1_0
f 3/3/3 2/2/2 1/1/1
f 4/4/4 3/3/3 1/1/1
f 7/7/7 6/6/6 5/5/5
f 8/8/8 7/7/7 5/5/5
f 11/11/11 10/10/10 9/9/9
f 12/12/12 11/11/11 9/9/9
f 15/15/15 14/14/14 13/13/13
f 16/16/16 15/15/15 13/13/13
f 19/19/19 18/18/18 17/17/17
f 20/20/20 19/19/19 17/17/17
f 23/23/23 22/22/22 21/21/21
f 24/24/24 23/23/23 21/21/21
f 27/27/27 26/26/26 25/25/25
f 28/28/28 27/27/27 25/25/25
f 31/31/31 30/30/30 29/29/29
f 32/32/32 31/31/31 29/29/29
f 35/35/35 34/34/34 33/33/33
f 36/36/36 35/35/35 33/33/33
f 39/39/39 38/38/38 37/37/37
f 40/40/40 39/39/39 37/37/37
f 43/43/43 42/42/42 41/41/41
f 42/42/42 44/44/44 41/41/41
f 41/41/41 44/44/44 45/45/45
f 42/42/42 46/46/46 44/44/44
f 47/47/47 46/46/46 42/42/42
f 48/48/48 46/46/46 47/47/47
f 49/49/49 46/46/46 48/48/48
f 50/50/50 46/46/46 49/49/49
f 44/44/44 51/51/51 45/45/45
f 44/44/44 46/46/46 51/51/51
f 45/45/45 51/51/51 52/52/52
f 51/51/51 53/53/53 52/52/52
f 51/51/51 46/46/46 53/53/53
f 52/52/52 53/53/53 54/54/54
f 53/53/53 55/55/55 54/54/54
f 53/53/53 46/46/46 55/55/55
f 54/54/54 55/55/55 56/56/56
f 57/57/57 46/46/46 50/50/50
f 55/55/55 46/46/46 57/57/57
f 55/55/55 57/57/57 56/56/56
f 57/57/57 50/50/50 58/58/58
f 56/56/56 57/57/57 58/58/58
f 61/61/61 60/60/60 59/59/59
f 62/62/62 61/61/61 59/59/59
f 63/63/63 61/61/61 62/62/62
f 64/64/64 63/63/63 62/62/62
f 65/65/65 63/63/63 64/64/64
f 66/66/66 65/65/65 64/64/64
f 67/67/67 65/65/65 66/66/66
f 68/68/68 67/67/67 66/66/66
f 71/71/71 70/70/70 69/69/69
f 72/72/72 71/71/71 69/69/69
f 75/75/75 74/74/74 73/73/73
f 76/76/76 75/75/75 73/73/73
f 79/79/79 78/78/78 77/77/77
f 80/80/80 79/79/79 77/77/77
f 83/83/83 82/82/82 81/81/81
f 84/84/84 83/83/83 81/81/81
f 87/87/87 86/86/86 85/85/85
f 88/88/88 87/87/87 85/85/85
f 91/91/91 90/90/90 89/89/89
f 92/92/92 91/91/91 89/89/89
f 95/95/95 94/94/94 93/93/93
f 96/96/96 95/95/95 93/93/93
f 99/99/99 98/98/98 97/97/97
f 100/100/100 99/99/99 97/97/97
f 103/103/103 102/102/102 101/101/101
f 104/104/104 103/103/103 101/101/101
f 107/107/107 106/106/106 105/105/105
f 108/108/108 107/107/107 105/105/105
f 111/111/111 110/110/110 109/109/109
f 109/109/109 110/110/110 112/112/112
f 113/113/113 110/110/110 111/111/111
f 112/112/112 110/110/110 114/114/114
f 115/115/115 110/110/110 113/113/113
f 114/114/114 110/110/110 116/116/116
f 117/117/117 110/110/110 115/115/115
f 116/116/116 110/110/110 118/118/118
f 119/119/119 110/110/110 117/117/117
f 118/118/118 110/110/110 119/119/119
