g pCylinder1
v -1.2100414 0.8310616 -0.5719669
v -0.3855537 0.8310616 -1.2631211
v 0.62119627 0.8310616 -1.0691992
v 1.3315284 0.8310616 -0.1853212
v -1.3682063 0.8310616 0.40165925
v 1.1837517 0.8310616 0.7687679
v -0.6488471 0.8310616 1.2387229
v 0.32809055 0.8310616 1.4105989
v 3.016102 0.5 -0.67278564
v 2.6613827 0.5 1.6173853
v 1.499028 0.5 -2.5605056
v 0.32809055 0.8310616 1.4105989
v 0.62119627 0.8310616 -1.0691992
v 0.73396975 0.5 3.0631366
v -0.8265859 0.5 -3.0084693
v -0.6488471 0.8310616 1.2387229
v -0.3855537 0.8310616 -1.2631211
v -1.4843266 0.5 2.6728644
v -2.68631 0.5 -1.4494939
v -1.3682063 0.8310616 0.40165925
v -1.2100414 0.8310616 -0.5719669
v -3.0584311 0.5 0.84119797
v 3.5635543 -0.5 -1.1578691
v 3.7469401 -0.5 -2.4939692E-07
v 4 -0.2500557 0
v 3.8042285 -0.2500557 -1.2360687
v 3.8042285 -0.2500557 -1.2360687
v 3.2360702 -0.2500557 -2.3511424
v 3.0313404 -0.5 -2.2023976
v 3.5635543 -0.5 -1.1578691
v 3.2360702 -0.2500557 -2.3511424
v 2.3511424 -0.2500557 -3.23607
v 2.2023976 -0.5 -3.0313401
v 3.0313404 -0.5 -2.2023976
v 2.3511424 -0.2500557 -3.23607
v 1.1578689 -0.5 -3.5635538
v 2.2023976 -0.5 -3.0313401
v 1.2360686 -0.2500557 -3.804228
v 2.3808425E-08 -0.5 -3.746942
v -0 -0.2500557 -4.000002
v -1.1578687 -0.5 -3.5635536
v -1.2360686 -0.2500557 -3.8042278
v -2.202397 -0.5 -3.0313394
v -2.351142 -0.2500557 -3.2360692
v -3.0313392 -0.5 -2.2023969
v -3.236069 -0.2500557 -2.3511417
v -3.5635529 -0.5 -1.1578685
v -3.804227 -0.2500557 -1.2360682
v -3.746941 -0.5 6.3214397E-16
v -4.000001 -0.2500557 0
v -3.5635529 -0.5 1.1578684
v -3.804227 -0.2500557 1.2360682
v -3.031339 -0.5 2.2023966
v -3.2360687 -0.2500557 2.3511415
v -2.2023966 -0.5 3.0313387
v -2.3511415 -0.2500557 3.2360685
v -1.1578685 -0.5 3.5635524
v -1.2360682 -0.2500557 3.8042266
v -1.4490317E-07 -0.5 3.7469406
v -1.1920929E-07 -0.2500557 4.0000005
v 1.157868 -0.5 3.5635521
v 1.2360679 -0.2500557 3.8042264
v 2.2023962 -0.5 3.0313385
v 2.351141 -0.2500557 3.2360682
v 3.0313382 -0.5 2.2023964
v 3.236068 -0.2500557 2.3511412
v 3.563552 -0.5 1.1578683
v 3.8042262 -0.2500557 1.236068
v 3.7469401 -0.5 -2.4939692E-07
v 4 -0.2500557 0
v 3.5635543 0.5 -1.1578691
v 3.2360702 0.25004852 -2.3511424
v 3.8042285 0.2500557 -1.2360687
v 3.0295866 0.5 -2.2044601
v 2.3511424 0.2500557 -3.23607
v 2.2023976 0.5 -3.0313401
v 1.2360686 0.2500557 -3.804228
v 1.1578689 0.5 -3.5635538
v -0 0.2500557 -4.000002
v 2.3808424E-08 0.5 -3.746942
v -1.2360686 0.2500557 -3.8042278
v -1.1578687 0.5 -3.5635536
v -2.351142 0.2500557 -3.2360692
v -2.202397 0.5 -3.0313394
v -3.236069 0.2500557 -2.3511417
v -3.0313392 0.5 -2.2023969
v -3.804227 0.2500557 -1.2360682
v -3.5635529 0.5 -1.1578685
v -4.000001 0.2500557 0
v -3.746941 0.5 -1.09843636E-16
v -3.804227 0.2500557 1.2360682
v -3.5635529 0.5 1.1578684
v -3.2360687 0.2499217 2.3511415
v -3.0314488 0.5 2.2024763
v -2.3511415 0.2500557 3.2360685
v -2.2023966 0.5 3.0313387
v -1.2360682 0.2500557 3.8042266
v -1.1578685 0.5 3.5635524
v -1.1920929E-07 0.24995236 4.0000005
v -1.4489254E-07 0.5 3.7470453
v 1.2360679 0.2500557 3.8042264
v 1.157868 0.5 3.5635521
v 2.351141 0.250025 3.2360682
v 2.2024143 0.5 3.0313637
v 3.236068 0.2500557 2.3511412
v 3.0313382 0.5 2.2023964
v 3.8042262 0.2500557 1.236068
v 3.563552 0.5 1.1578683
v 4 0.2500557 0
v 3.7469401 0.5 -2.4939692E-07
v 3.8042285 0.2500557 -1.2360687
v 4 0.2500557 0
v 3.7469401 0.5 -2.4939692E-07
v 3.5635543 0.5 -1.1578691
v 3.8042285 -0.2500557 -1.2360687
v 3.8042285 0.2500557 -1.2360687
v 3.2360702 0.25004852 -2.3511424
v 3.2360702 -0.2500557 -2.3511424
v 2.3511424 0.2500557 -3.23607
v 2.3511424 -0.2500557 -3.23607
v 1.2360686 0.2500557 -3.804228
v 1.2360686 -0.2500557 -3.804228
v -0 0.2500557 -4.000002
v -0 -0.2500557 -4.000002
v -1.2360686 0.2500557 -3.8042278
v -1.2360686 -0.2500557 -3.8042278
v -2.351142 0.2500557 -3.2360692
v -2.351142 -0.2500557 -3.2360692
v -3.236069 0.2500557 -2.3511417
v -3.236069 -0.2500557 -2.3511417
v -3.804227 0.2500557 -1.2360682
v -3.804227 -0.2500557 -1.2360682
v -4.000001 0.2500557 0
v -4.000001 -0.2500557 0
v -3.804227 0.2500557 1.2360682
v -3.804227 -0.2500557 1.2360682
v -3.2360687 0.2499217 2.3511415
v -3.2360687 -0.2500557 2.3511415
v -2.3511415 0.2500557 3.2360685
v -2.3511415 -0.2500557 3.2360685
v -1.2360682 0.2500557 3.8042266
v -1.2360682 -0.2500557 3.8042266
v -1.1920929E-07 0.24995236 4.0000005
v -1.1920929E-07 -0.2500557 4.0000005
v 1.2360679 0.2500557 3.8042264
v 1.2360679 -0.2500557 3.8042264
v 2.351141 0.250025 3.2360682
v 2.351141 -0.2500557 3.2360682
v 3.236068 0.2500557 2.3511412
v 3.236068 -0.2500557 2.3511412
v 3.8042262 0.2500557 1.236068
v 3.8042262 -0.2500557 1.236068
v 4 0.2500557 0
v 4 -0.2500557 0
v 3.8042285 0.2500557 -1.2360687
v 3.8042285 -0.2500557 -1.2360687
v 1.1578689 -0.5 -3.5635538
v 2.3808425E-08 -0.5 -3.746942
v -1.1578687 -0.5 -3.5635536
v 2.2023976 -0.5 -3.0313401
v -2.202397 -0.5 -3.0313394
v 3.0313404 -0.5 -2.2023976
v -3.0313392 -0.5 -2.2023969
v 3.5635543 -0.5 -1.1578691
v -3.5635529 -0.5 -1.1578685
v 3.7469401 -0.5 -2.4939692E-07
v -3.746941 -0.5 6.3214397E-16
v 3.563552 -0.5 1.1578683
v -3.5635529 -0.5 1.1578684
v 3.0313382 -0.5 2.2023964
v -3.031339 -0.5 2.2023966
v 2.2023962 -0.5 3.0313385
v -2.2023966 -0.5 3.0313387
v 1.157868 -0.5 3.5635521
v -1.1578685 -0.5 3.5635524
v -1.4490317E-07 -0.5 3.7469406
v -3.5635529 0.5 1.1578684
v -3.0584311 0.5 0.84119797
v -1.4843266 0.5 2.6728644
v -3.0314488 0.5 2.2024763
v -2.2023966 0.5 3.0313387
v 0.73396975 0.5 3.0631366
v -1.1578685 0.5 3.5635524
v 1.157868 0.5 3.5635521
v -1.4489254E-07 0.5 3.7470453
v 2.2024143 0.5 3.0313637
v 3.0313382 0.5 2.2023964
v 2.6613827 0.5 1.6173853
v 3.563552 0.5 1.1578683
v 3.7469401 0.5 -2.4939692E-07
v 3.016102 0.5 -0.67278564
v 3.5635543 0.5 -1.1578691
v 3.0295866 0.5 -2.2044601
v 1.499028 0.5 -2.5605056
v 2.2023976 0.5 -3.0313401
v -0.8265859 0.5 -3.0084693
v -2.202397 0.5 -3.0313394
v -3.0313392 0.5 -2.2023969
v -2.68631 0.5 -1.4494939
v -3.5635529 0.5 -1.1578685
v -3.0584311 0.5 0.84119797
v -3.746941 0.5 -1.09843636E-16
v -3.5635529 0.5 1.1578684
v -1.1578687 0.5 -3.5635536
v 2.3808424E-08 0.5 -3.746942
v 1.1578689 0.5 -3.5635538
v 2.2023976 0.5 -3.0313401
v -2.202397 0.5 -3.0313394
vt 0.45239258 0.6875
vt 0.43652344 0.6875
vt 0.42407227 0.6875
vt 0.42016602 0.6875
vt 0.46484375 0.6875
vt 0.4387207 0.6875
vt 0.4675293 0.6875
vt 0.45947266 0.6875
vt 0.41967773 0.6875
vt 0.51708984 0.6875
vt 0.40722656 0.6875
vt 0.45947266 0.6875
vt 0.42407227 0.6875
vt 0.5205078 0.6875
vt 0.4333496 0.6875
vt 0.4675293 0.6875
vt 0.43652344 0.6875
vt 0.5048828 0.6875
vt 0.45996094 0.6875
vt 0.46484375 0.6875
vt 0.45239258 0.6875
vt 0.4855957 0.6875
vt 0.5698242 0.3125
vt 0.5839844 0.3125
vt 0.6123047 0.40625
vt 0.625 0.40625
vt 0.375 0.40625
vt 0.38745117 0.40625
vt 0.38720703 0.3125
vt 0.37548828 0.3125
vt 0.38745117 0.40625
vt 0.39990234 0.40625
vt 0.40405273 0.3125
vt 0.50097656 0.3125
vt 0.39990234 0.40625
vt 0.41259766 0.3125
vt 0.40405273 0.3125
vt 0.41259766 0.40625
vt 0.4248047 0.3125
vt 0.42504883 0.40625
vt 0.43701172 0.3125
vt 0.4375 0.40625
vt 0.44921875 0.3125
vt 0.44995117 0.40625
vt 0.46118164 0.3125
vt 0.46240234 0.40625
vt 0.47338867 0.3125
vt 0.47509766 0.40625
vt 0.4855957 0.3125
vt 0.48754883 0.40625
vt 0.4975586 0.3125
vt 0.5 0.40625
vt 0.50927734 0.3125
vt 0.5126953 0.40625
vt 0.5209961 0.3125
vt 0.52490234 0.40625
vt 0.53271484 0.3125
vt 0.53759766 0.40625
vt 0.5444336 0.3125
vt 0.5498047 0.40625
vt 0.5551758 0.3125
vt 0.5625 0.40625
vt 0.56591797 0.3125
vt 0.5751953 0.40625
vt 0.5751953 0.3125
vt 0.58740234 0.40625
vt 0.58203125 0.3125
vt 0.60009766 0.40625
vt 0.5839844 0.3125
vt 0.6123047 0.40625
vt 0.38671875 0.6875
vt 0.38745117 0.59375
vt 0.375 0.59375
vt 0.3955078 0.6875
vt 0.39990234 0.59375
vt 0.40185547 0.6875
vt 0.41259766 0.59375
vt 0.41259766 0.6875
vt 0.42504883 0.59375
vt 0.42456055 0.6875
vt 0.4375 0.59375
vt 0.43652344 0.6875
vt 0.44995117 0.59375
vt 0.44873047 0.6875
vt 0.46240234 0.59375
vt 0.46069336 0.6875
vt 0.47509766 0.59375
vt 0.47265625 0.6875
vt 0.48754883 0.59375
vt 0.48461914 0.6875
vt 0.5 0.59375
vt 0.49609375 0.6875
vt 0.5126953 0.59375
vt 0.5083008 0.6875
vt 0.52490234 0.59375
vt 0.51904297 0.6875
vt 0.53759766 0.59375
vt 0.5307617 0.6875
vt 0.5498047 0.59375
vt 0.5410156 0.6875
vt 0.5625 0.59375
vt 0.55126953 0.6875
vt 0.5751953 0.59375
vt 0.5620117 0.6875
vt 0.58740234 0.59375
vt 0.56884766 0.6875
vt 0.60009766 0.59375
vt 0.5830078 0.6875
vt 0.6123047 0.59375
vt 0.5761719 0.6875
vt 0.625 0.59375
vt 0.6123047 0.59375
vt 0.61279297 0.6875
vt 0.6245117 0.6875
vt 0.375 0.40625
vt 0.375 0.59375
vt 0.38745117 0.59375
vt 0.38745117 0.40625
vt 0.39990234 0.59375
vt 0.39990234 0.40625
vt 0.41259766 0.59375
vt 0.41259766 0.40625
vt 0.42504883 0.59375
vt 0.42504883 0.40625
vt 0.4375 0.59375
vt 0.4375 0.40625
vt 0.44995117 0.59375
vt 0.44995117 0.40625
vt 0.46240234 0.59375
vt 0.46240234 0.40625
vt 0.47509766 0.59375
vt 0.47509766 0.40625
vt 0.48754883 0.59375
vt 0.48754883 0.40625
vt 0.5 0.59375
vt 0.5 0.40625
vt 0.5126953 0.59375
vt 0.5126953 0.40625
vt 0.52490234 0.59375
vt 0.52490234 0.40625
vt 0.53759766 0.59375
vt 0.53759766 0.40625
vt 0.5498047 0.59375
vt 0.5498047 0.40625
vt 0.5625 0.59375
vt 0.5625 0.40625
vt 0.5751953 0.59375
vt 0.5751953 0.40625
vt 0.58740234 0.59375
vt 0.58740234 0.40625
vt 0.60009766 0.59375
vt 0.60009766 0.40625
vt 0.6123047 0.59375
vt 0.6123047 0.40625
vt 0.625 0.59375
vt 0.625 0.40625
vt 0.41259766 0.3125
vt 0.4248047 0.3125
vt 0.43701172 0.3125
vt 0.40405273 0.3125
vt 0.44921875 0.3125
vt 0.50097656 0.3125
vt 0.46118164 0.3125
vt 0.5698242 0.3125
vt 0.47338867 0.3125
vt 0.5839844 0.3125
vt 0.4855957 0.3125
vt 0.58203125 0.3125
vt 0.4975586 0.3125
vt 0.5751953 0.3125
vt 0.50927734 0.3125
vt 0.56591797 0.3125
vt 0.5209961 0.3125
vt 0.5551758 0.3125
vt 0.53271484 0.3125
vt 0.5444336 0.3125
vt 0.49609375 0.6875
vt 0.4855957 0.6875
vt 0.5048828 0.6875
vt 0.5083008 0.6875
vt 0.51904297 0.6875
vt 0.5205078 0.6875
vt 0.5307617 0.6875
vt 0.55126953 0.6875
vt 0.5410156 0.6875
vt 0.5620117 0.6875
vt 0.56884766 0.6875
vt 0.51708984 0.6875
vt 0.5830078 0.6875
vt 0.5761719 0.6875
vt 0.41967773 0.6875
vt 0.38671875 0.6875
vt 0.3955078 0.6875
vt 0.40722656 0.6875
vt 0.40185547 0.6875
vt 0.4333496 0.6875
vt 0.44873047 0.6875
vt 0.46069336 0.6875
vt 0.45996094 0.6875
vt 0.47265625 0.6875
vt 0.4855957 0.6875
vt 0.48461914 0.6875
vt 0.49609375 0.6875
vt 0.43652344 0.6875
vt 0.42456055 0.6875
vt 0.41259766 0.6875
vt 0.40185547 0.6875
vt 0.44873047 0.6875
vn -0 1 0
vn -0 1 0
vn -0 1 0
vn 0.08544922 0.99609375 -0.024093628
vn -0 1 0
vn 0.07495117 0.99609375 0.046569824
vn -0 1 0
vn -0 1 0
vn 0.17797852 0.9824219 -0.052459717
vn 0.16308594 0.9814453 0.09906006
vn 0.097839355 0.9824219 -0.16040039
vn 0.046966553 0.9814453 0.1850586
vn 0.09863281 0.9824219 -0.16003418
vn 0.04763794 0.9814453 0.18493652
vn -0.04626465 0.98339844 -0.17480469
vn -0.09893799 0.98046875 0.16870117
vn -0.046966553 0.98339844 -0.17468262
vn -0.099731445 0.98046875 0.16833496
vn -0.16296387 0.9819336 -0.09625244
vn -0.1784668 0.9824219 0.053894043
vn -0.16394043 0.9819336 -0.09472656
vn -0.17895508 0.9824219 0.051635742
vn 0.66845703 -0.7114258 -0.21716309
vn 0.7026367 -0.7114258 0
vn 0.7026367 -0.7114258 0
vn 0.66845703 -0.7114258 -0.21716309
vn 0.66845703 -0.7114258 -0.21716309
vn 0.5683594 -0.7114258 -0.41308594
vn 0.5683594 -0.7114258 -0.41308594
vn 0.66845703 -0.7114258 -0.21716309
vn 0.5683594 -0.7114258 -0.41308594
vn 0.41308594 -0.7114258 -0.5683594
vn 0.41308594 -0.7114258 -0.5683594
vn 0.5683594 -0.7114258 -0.41308594
vn 0.41308594 -0.7114258 -0.5683594
vn 0.21716309 -0.7114258 -0.66845703
vn 0.41308594 -0.7114258 -0.5683594
vn 0.21716309 -0.7114258 -0.66845703
vn -0 -0.7114258 -0.7026367
vn -0 -0.7114258 -0.7026367
vn -0.21716309 -0.7114258 -0.66845703
vn -0.21716309 -0.7114258 -0.66845703
vn -0.41308594 -0.7114258 -0.5683594
vn -0.41308594 -0.7114258 -0.5683594
vn -0.5683594 -0.7114258 -0.41308594
vn -0.5683594 -0.7114258 -0.41308594
vn -0.66845703 -0.7114258 -0.21716309
vn -0.66845703 -0.7114258 -0.21716309
vn -0.7026367 -0.7114258 0
vn -0.7026367 -0.7114258 0
vn -0.66845703 -0.7114258 0.21716309
vn -0.66845703 -0.7114258 0.21716309
vn -0.5683594 -0.7114258 0.41308594
vn -0.5683594 -0.7114258 0.41308594
vn -0.41308594 -0.7114258 0.5683594
vn -0.41308594 -0.7114258 0.5683594
vn -0.21716309 -0.7114258 0.66845703
vn -0.21716309 -0.7114258 0.66845703
vn -0 -0.7114258 0.7026367
vn -0 -0.7114258 0.7026367
vn 0.21716309 -0.7114258 0.66845703
vn 0.21716309 -0.7114258 0.66845703
vn 0.41308594 -0.7114258 0.5683594
vn 0.41308594 -0.7114258 0.5683594
vn 0.5683594 -0.7114258 0.41308594
vn 0.5683594 -0.7114258 0.41308594
vn 0.66845703 -0.7114258 0.21716309
vn 0.66845703 -0.7114258 0.21716309
vn 0.7026367 -0.7114258 0
vn 0.7026367 -0.7114258 0
vn 0.66796875 0.71191406 -0.21728516
vn 0.56884766 0.7114258 -0.41259766
vn 0.66796875 0.71191406 -0.21728516
vn 0.5678711 0.7114258 -0.41333008
vn 0.41308594 0.7114258 -0.56884766
vn 0.41308594 0.7114258 -0.56884766
vn 0.21716309 0.7114258 -0.66845703
vn 0.21716309 0.7114258 -0.66845703
vn -0 0.7114258 -0.7026367
vn -0 0.7114258 -0.7026367
vn -0.21716309 0.7114258 -0.66845703
vn -0.21716309 0.7114258 -0.66845703
vn -0.41308594 0.7114258 -0.5683594
vn -0.41308594 0.7114258 -0.5683594
vn -0.5683594 0.7114258 -0.41308594
vn -0.5683594 0.7114258 -0.41308594
vn -0.66845703 0.7114258 -0.21716309
vn -0.66845703 0.7114258 -0.21716309
vn -0.7026367 0.7114258 0
vn -0.7026367 0.7114258 0
vn -0.66845703 0.7114258 0.21716309
vn -0.66845703 0.7114258 0.21716309
vn -0.56884766 0.7114258 0.41308594
vn -0.56884766 0.7114258 0.41308594
vn -0.41308594 0.7114258 0.5683594
vn -0.41308594 0.7114258 0.5683594
vn -0.21716309 0.7114258 0.66845703
vn -0.21716309 0.7114258 0.66845703
vn -0 0.7114258 0.7026367
vn -0 0.7114258 0.7026367
vn 0.21716309 0.7114258 0.66845703
vn 0.21716309 0.7114258 0.66845703
vn 0.41308594 0.7114258 0.5683594
vn 0.41308594 0.7114258 0.5683594
vn 0.5683594 0.7114258 0.41308594
vn 0.5683594 0.7114258 0.41308594
vn 0.66845703 0.7114258 0.21716309
vn 0.66845703 0.7114258 0.21716309
vn 0.7026367 0.7114258 0
vn 0.7026367 0.7114258 0
vn 0.66796875 0.71191406 -0.21728516
vn 0.7026367 0.7114258 0
vn 0.7026367 0.7114258 0
vn 0.66796875 0.71191406 -0.21728516
vn 0.9511719 0 -0.30908203
vn 0.9511719 0 -0.30908203
vn 0.80908203 0 -0.5878906
vn 0.80908203 0 -0.5878906
vn 0.5878906 0 -0.80908203
vn 0.5878906 0 -0.80908203
vn 0.30908203 0 -0.9511719
vn 0.30908203 0 -0.9511719
vn -0 0 -1
vn -0 0 -1
vn -0.30908203 0 -0.9511719
vn -0.30908203 0 -0.9511719
vn -0.5878906 0 -0.80908203
vn -0.5878906 0 -0.80908203
vn -0.80908203 0 -0.5878906
vn -0.80908203 0 -0.5878906
vn -0.9511719 0 -0.30908203
vn -0.9511719 0 -0.30908203
vn -1 0 0
vn -1 0 0
vn -0.9511719 0 0.30908203
vn -0.9511719 0 0.30908203
vn -0.80908203 0 0.5878906
vn -0.80908203 0 0.5878906
vn -0.5878906 0 0.80908203
vn -0.5878906 0 0.80908203
vn -0.30908203 0 0.9511719
vn -0.30908203 0 0.9511719
vn -0 0 1
vn -0 0 1
vn 0.30908203 0 0.9511719
vn 0.30908203 0 0.9511719
vn 0.5878906 0 0.80908203
vn 0.5878906 0 0.80908203
vn 0.80908203 0 0.5878906
vn 0.80908203 0 0.5878906
vn 0.9511719 0 0.30908203
vn 0.9511719 0 0.30908203
vn 1 0 0
vn 1 0 0
vn 0.9511719 0 -0.30908203
vn 0.9511719 0 -0.30908203
vn -0 -1 0
vn -0 -1 0
vn -0 -1 0
vn -0 -1 0
vn -0 -1 0
vn -0 -1 0
vn -0 -1 0
vn -0 -1 0
vn -0 -1 0
vn -0 -1 0
vn -0 -1 0
vn -0 -1 0
vn -0 -1 0
vn -0 -1 0
vn -0 -1 0
vn -0 -1 0
vn -0 -1 0
vn -0 -1 0
vn -0 -1 0
vn -0 -1 0
vn -0 1 0
vn -0 1 0
vn -0 1 0
vn -0 1 0
vn -0 1 0
vn -0 1 0
vn -0 1 0
vn -0 1 0
vn -0 1 0
vn -0 1 0
vn -0 1 0
vn -0 1 0
vn -0 1 0
vn -0 1 0
vn -0 1 0
vn -0 1 0
vn -0 1 0
vn -0 1 0
vn -0 1 0
vn -0 1 0
vn -0 1 0
vn -0 1 0
vn -0 1 0
vn -0 1 0
vn -0 1 0
vn -0 1 0
vn -0 1 0
vn -0 1 0
vn -0 1 0
vn -0 1 0
vn -0 1 0
vn -0 1 0
g pCylinder1_0
f 3/3/3 2/2/2 1/1/1
f 1/1/1 4/4/4 3/3/3
f 1/1/1 5/5/5 4/4/4
f 5/5/5 6/6/6 4/4/4
f 5/5/5 7/7/7 6/6/6
f 7/7/7 8/8/8 6/6/6
f 9/9/9 4/4/4 6/6/6
f 10/10/10 9/9/9 6/6/6
f 9/9/9 11/11/11 4/4/4
f 10/10/10 6/6/6 12/12/12
f 11/11/11 13/13/13 4/4/4
f 14/14/14 10/10/10 12/12/12
f 11/11/11 15/15/15 13/13/13
f 14/14/14 12/12/12 16/16/16
f 15/15/15 17/17/17 13/13/13
f 18/18/18 14/14/14 16/16/16
f 15/15/15 19/19/19 17/17/17
f 18/18/18 16/16/16 20/20/20
f 19/19/19 21/21/21 17/17/17
f 22/22/22 18/18/18 20/20/20
f 21/21/21 19/19/19 22/22/22
f 20/20/20 21/21/21 22/22/22
f 25/25/25 24/24/24 23/23/23
f 26/26/26 25/25/25 23/23/23
f 29/29/29 28/28/28 27/27/27
f 30/30/30 29/29/29 27/27/27
f 33/33/33 32/32/32 31/31/31
f 34/34/34 33/33/33 31/31/31
f 37/37/37 36/36/36 35/35/35
f 36/36/36 38/38/38 35/35/35
f 36/36/36 39/39/39 38/38/38
f 39/39/39 40/40/40 38/38/38
f 39/39/39 41/41/41 40/40/40
f 41/41/41 42/42/42 40/40/40
f 41/41/41 43/43/43 42/42/42
f 43/43/43 44/44/44 42/42/42
f 43/43/43 45/45/45 44/44/44
f 45/45/45 46/46/46 44/44/44
f 45/45/45 47/47/47 46/46/46
f 47/47/47 48/48/48 46/46/46
f 47/47/47 49/49/49 48/48/48
f 49/49/49 50/50/50 48/48/48
f 49/49/49 51/51/51 50/50/50
f 51/51/51 52/52/52 50/50/50
f 51/51/51 53/53/53 52/52/52
f 53/53/53 54/54/54 52/52/52
f 53/53/53 55/55/55 54/54/54
f 55/55/55 56/56/56 54/54/54
f 55/55/55 57/57/57 56/56/56
f 57/57/57 58/58/58 56/56/56
f 57/57/57 59/59/59 58/58/58
f 59/59/59 60/60/60 58/58/58
f 59/59/59 61/61/61 60/60/60
f 61/61/61 62/62/62 60/60/60
f 61/61/61 63/63/63 62/62/62
f 63/63/63 64/64/64 62/62/62
f 63/63/63 65/65/65 64/64/64
f 65/65/65 66/66/66 64/64/64
f 65/65/65 67/67/67 66/66/66
f 67/67/67 68/68/68 66/66/66
f 67/67/67 69/69/69 68/68/68
f 69/69/69 70/70/70 68/68/68
f 73/73/73 72/72/72 71/71/71
f 72/72/72 74/74/74 71/71/71
f 72/72/72 75/75/75 74/74/74
f 75/75/75 76/76/76 74/74/74
f 75/75/75 77/77/77 76/76/76
f 77/77/77 78/78/78 76/76/76
f 77/77/77 79/79/79 78/78/78
f 79/79/79 80/80/80 78/78/78
f 79/79/79 81/81/81 80/80/80
f 81/81/81 82/82/82 80/80/80
f 81/81/81 83/83/83 82/82/82
f 83/83/83 84/84/84 82/82/82
f 83/83/83 85/85/85 84/84/84
f 85/85/85 86/86/86 84/84/84
f 85/85/85 87/87/87 86/86/86
f 87/87/87 88/88/88 86/86/86
f 87/87/87 89/89/89 88/88/88
f 89/89/89 90/90/90 88/88/88
f 89/89/89 91/91/91 90/90/90
f 91/91/91 92/92/92 90/90/90
f 91/91/91 93/93/93 92/92/92
f 93/93/93 94/94/94 92/92/92
f 93/93/93 95/95/95 94/94/94
f 95/95/95 96/96/96 94/94/94
f 95/95/95 97/97/97 96/96/96
f 97/97/97 98/98/98 96/96/96
f 97/97/97 99/99/99 98/98/98
f 99/99/99 100/100/100 98/98/98
f 99/99/99 101/101/101 100/100/100
f 101/101/101 102/102/102 100/100/100
f 101/101/101 103/103/103 102/102/102
f 103/103/103 104/104/104 102/102/102
f 103/103/103 105/105/105 104/104/104
f 105/105/105 106/106/106 104/104/104
f 105/105/105 107/107/107 106/106/106
f 107/107/107 108/108/108 106/106/106
f 107/107/107 109/109/109 108/108/108
f 109/109/109 110/110/110 108/108/108
f 113/113/113 112/112/112 111/111/111
f 114/114/114 113/113/113 111/111/111
f 117/117/117 116/116/116 115/115/115
f 118/118/118 117/117/117 115/115/115
f 119/119/119 117/117/117 118/118/118
f 120/120/120 119/119/119 118/118/118
f 121/121/121 119/119/119 120/120/120
f 122/122/122 121/121/121 120/120/120
f 123/123/123 121/121/121 122/122/122
f 124/124/124 123/123/123 122/122/122
f 125/125/125 123/123/123 124/124/124
f 126/126/126 125/125/125 124/124/124
f 127/127/127 125/125/125 126/126/126
f 128/128/128 127/127/127 126/126/126
f 129/129/129 127/127/127 128/128/128
f 130/130/130 129/129/129 128/128/128
f 131/131/131 129/129/129 130/130/130
f 132/132/132 131/131/131 130/130/130
f 133/133/133 131/131/131 132/132/132
f 134/134/134 133/133/133 132/132/132
f 135/135/135 133/133/133 134/134/134
f 136/136/136 135/135/135 134/134/134
f 137/137/137 135/135/135 136/136/136
f 138/138/138 137/137/137 136/136/136
f 139/139/139 137/137/137 138/138/138
f 140/140/140 139/139/139 138/138/138
f 141/141/141 139/139/139 140/140/140
f 142/142/142 141/141/141 140/140/140
f 143/143/143 141/141/141 142/142/142
f 144/144/144 143/143/143 142/142/142
f 145/145/145 143/143/143 144/144/144
f 146/146/146 145/145/145 144/144/144
f 147/147/147 145/145/145 146/146/146
f 148/148/148 147/147/147 146/146/146
f 149/149/149 147/147/147 148/148/148
f 150/150/150 149/149/149 148/148/148
f 151/151/151 149/149/149 150/150/150
f 152/152/152 151/151/151 150/150/150
f 153/153/153 151/151/151 152/152/152
f 154/154/154 153/153/153 152/152/152
f 155/155/155 153/153/153 154/154/154
f 156/156/156 155/155/155 154/154/154
f 159/159/159 158/158/158 157/157/157
f 157/157/157 160/160/160 159/159/159
f 160/160/160 161/161/161 159/159/159
f 160/160/160 162/162/162 161/161/161
f 162/162/162 163/163/163 161/161/161
f 162/162/162 164/164/164 163/163/163
f 164/164/164 165/165/165 163/163/163
f 164/164/164 166/166/166 165/165/165
f 166/166/166 167/167/167 165/165/165
f 166/166/166 168/168/168 167/167/167
f 168/168/168 169/169/169 167/167/167
f 168/168/168 170/170/170 169/169/169
f 170/170/170 171/171/171 169/169/169
f 170/170/170 172/172/172 171/171/171
f 172/172/172 173/173/173 171/171/171
f 172/172/172 174/174/174 173/173/173
f 174/174/174 175/175/175 173/173/173
f 174/174/174 176/176/176 175/175/175
f 179/179/179 178/178/178 177/177/177
f 177/177/177 180/180/180 179/179/179
f 180/180/180 181/181/181 179/179/179
f 181/181/181 182/182/182 179/179/179
f 181/181/181 183/183/183 182/182/182
f 183/183/183 184/184/184 182/182/182
f 183/183/183 185/185/185 184/184/184
f 182/182/182 184/184/184 186/186/186
f 182/182/182 186/186/186 187/187/187
f 188/188/188 182/182/182 187/187/187
f 188/188/188 187/187/187 189/189/189
f 188/188/188 189/189/189 190/190/190
f 191/191/191 188/188/188 190/190/190
f 191/191/191 190/190/190 192/192/192
f 191/191/191 192/192/192 193/193/193
f 194/194/194 191/191/191 193/193/193
f 194/194/194 193/193/193 195/195/195
f 196/196/196 194/194/194 195/195/195
f 197/197/197 196/196/196 195/195/195
f 196/196/196 197/197/197 198/198/198
f 198/198/198 199/199/199 196/196/196
f 199/199/199 198/198/198 200/200/200
f 200/200/200 201/201/201 199/199/199
f 200/200/200 202/202/202 201/201/201
f 202/202/202 203/203/203 201/201/201
f 206/206/206 205/205/205 204/204/204
f 204/204/204 207/207/207 206/206/206
f 204/204/204 208/208/208 207/207/207
