g pCylinder1
v -10.112716 -0.5 -7.3473177
v -11.888209 -0.49995 -3.8627133
v 11.888214 -0.5 -3.8627148
v -12.500003 -0.5 0
v -11.888209 -0.49995 3.8627133
v 11.8882065 -0.5 3.8627126
v -10.112715 -0.5 7.347317
v 7.347316 -0.49995 10.112713
v 10.112713 -0.5 7.3473163
v 12.007984 0.71839964 -3.1065073
v 11.622771 0.5 -4.3836765
v 11.888214 5E-05 -3.8627148
v 10.11272 -0.49995 -7.34732
v 11.888214 -0.5 -3.8627148
v 11.888214 5E-05 -3.8627148
v 10.566682 0.5 -6.4563684
v 11.622771 0.5 -4.3836765
v 9.371382 0.8956583 -8.088657
v 7.34732 0.8956583 -10.112719
v 7.34732 -0.5 -10.112719
v 3.8627143 0.8956583 -11.888213
v 3.8627143 -0.5 -11.888213
v -0 0.8956583 -12.500006
v -0 -0.5 -12.500006
v -3.8627143 0.8956583 -11.888212
v -3.8627143 -0.5 -11.888212
v -7.3473186 0.8956583 -10.112717
v -7.3473186 -0.5 -10.112717
v -10.112716 0.8956583 -7.3473177
v -10.112716 -0.5 -7.3473177
v -11.3320675 0.8956583 -4.9542046
v -11.888209 -0.49995 -3.8627133
v -12.052031 0.5 -2.8283854
v -12.500003 0.5 0
v -12.500003 -0.5 0
v -12.046012 0.5 2.8663886
v -11.888209 -0.49995 3.8627133
v -11.79879 1.0382748 3.8731413
v -11.384882 1.9688892 4.850549
v -10.112715 0.8594046 7.347317
v -10.692117 1.9688892 6.210177
v -10.112715 -0.5 7.347317
v -8.948846 2.2203712 8.511186
v -7.347317 -0.5 10.112714
v -7.347317 2.2203712 10.112714
v -3.8627133 2.2203712 11.888208
v -3.8627133 -0.5 11.888208
v -1.603553 2.2203712 12.246024
v -3.7252903E-07 -0.5 12.500002
v -3.7252903E-07 0.8594046 12.500002
v 1.2516123 1.9688892 12.301765
v 3.8627121 -0.5 11.888207
v 3.8627121 1.9688892 11.888207
v 6.31458 1.9688892 10.638918
v 7.347316 -0.49995 10.112713
v 7.256828 1.0382748 10.074805
v 8.071188 0.5 9.388841
v 9.695902 0.5 7.7641273
v 10.112713 -0.5 7.3473163
v 10.112713 5E-05 7.3473163
v 10.465738 0.71839964 6.654464
v 11.8882065 0.71839964 3.8627126
v 11.8882065 -0.5 3.8627126
v 12.5 0.71839964 0
v 12.5 -0.5 0
v 11.888214 5E-05 -3.8627148
v 11.888214 -0.5 -3.8627148
v 12.007984 0.71839964 -3.1065073
v 3.8627143 -0.5 -11.888213
v -0 -0.5 -12.500006
v -3.8627143 -0.5 -11.888212
v 7.34732 -0.5 -10.112719
v -7.3473186 -0.5 -10.112717
v 10.11272 -0.49995 -7.34732
v -10.112716 -0.5 -7.3473177
v 11.888214 -0.5 -3.8627148
v -11.888209 -0.49995 -3.8627133
v 12.5 -0.5 0
v 11.888214 -0.5 -3.8627148
v -12.500003 -0.5 0
v 11.8882065 -0.5 3.8627126
v -11.888209 -0.49995 3.8627133
v 10.112713 -0.5 7.3473163
v 11.8882065 -0.5 3.8627126
v -10.112715 -0.5 7.347317
v -10.112715 -0.5 7.347317
v -7.347317 -0.5 10.112714
v 7.347316 -0.49995 10.112713
v 3.8627121 -0.5 11.888207
v -3.8627133 -0.5 11.888208
v -3.7252903E-07 -0.5 12.500002
v -6.9577274 0.5 2.7413812
v -3.717383 0.5 0.010567844
v -2.7467232 0.5 2.840402
v -12.046012 0.5 2.8663886
v -7.284033 1.4351099 3.2860687
v -11.79879 1.0382748 3.8731413
v -6.9577274 0.5 2.7413812
v -1.6612108 1.2806455 4.664131
v -1.4533049 0.5 4.218642
v 2.2673748 1.2804885 6.3688684
v 2.579722 0.5 5.874402
v 7.256828 1.0382748 10.074805
v 8.071188 0.5 9.388841
v 2.2673748 1.2804885 6.3688684
v 6.31458 1.9688892 10.638918
v 1.8946763 1.9688892 7.3893747
v -1.6612108 1.2806455 4.664131
v -2.094833 1.9688892 6.117038
v -7.284033 1.4351099 3.2860687
v -7.197239 1.9688892 4.7476687
v -11.79879 1.0382748 3.8731413
v -11.384882 1.9688892 4.850549
v 9.695902 0.5 7.7641273
v 9.688374 0.71839964 3.2902691
v 10.465738 0.71839964 6.654464
v 8.288934 0.5 2.9680703
v 9.518191 0.71839964 -0.18795568
v 8.638009 0.5 -0.8995562
v 12.007984 0.71839964 -3.1065073
v 11.622771 0.5 -4.3836765
v 9.518191 0.71839964 -0.18795568
v 12.007984 0.71839964 -3.1065073
v 12.5 0.71839964 0
v 9.688374 0.71839964 3.2902691
v 11.8882065 0.71839964 3.8627126
v 10.465738 0.71839964 6.654464
v 10.566682 0.5 -6.4563684
v 4.9978685 0.8956583 -5.811705
v 9.371382 0.8956583 -8.088657
v 5.0864754 0.5 -3.6032455
v 1.1563287 0.8956583 -7.43502
v 0.7639592 0.5 -5.429806
v -3.8114274 0.7683534 -7.0810137
v -3.3594024 0.5 -5.374783
v -7.985052 0.8956583 -5.4418836
v -7.409938 0.5 -3.5047643
v -11.3320675 0.8956583 -4.9542046
v -12.052031 0.5 -2.8283854
v -3.8627143 0.8956583 -11.888212
v -0 0.8956583 -12.500006
v 3.8627143 0.8956583 -11.888213
v 7.34732 0.8956583 -10.112719
v -7.3473186 0.8956583 -10.112717
v 9.371382 0.8956583 -8.088657
v -10.112716 0.8956583 -7.3473177
v 1.1563287 0.8956583 -7.43502
v 4.9978685 0.8956583 -5.811705
v -3.8114274 0.7683534 -7.0810137
v -11.3320675 0.8956583 -4.9542046
v -7.985052 0.8956583 -5.4418836
v -1.603553 2.2203712 12.246024
v -1.5168804 1.9688891 8.74448
v 1.2516123 1.9688892 12.301765
v -3.0209756 2.2203712 10.424753
v -5.2368093 1.9688891 6.45965
v -5.910215 2.2203712 8.650144
v -10.692117 1.9688892 6.210177
v -8.948846 2.2203712 8.511186
v -7.347317 2.2203712 10.112714
v -8.948846 2.2203712 8.511186
v -5.910215 2.2203712 8.650144
v -3.0209756 2.2203712 10.424753
v -3.8627133 2.2203712 11.888208
v -1.603553 2.2203712 12.246024
v -11.384882 1.9688892 4.850549
v -7.197239 1.9688892 4.7476687
v -2.094833 1.9688892 6.117038
v -10.692117 1.9688892 6.210177
v -5.2368093 1.9688891 6.45965
v 1.8946763 1.9688892 7.3893747
v -1.5168804 1.9688891 8.74448
v 6.31458 1.9688892 10.638918
v 1.2516123 1.9688892 12.301765
v 3.8627121 1.9688892 11.888207
v -1.4678952 0.007864654 -1.7266128
v 0.27148393 0.007864654 -2.1051042
v 1.8213651 0.007864654 -1.5580226
v -1.968687 0.007864654 -0.039403845
v 2.7212775 0.007864654 -0.52243966
v 2.209858 0.007864654 1.3328753
v -1.5252271 0.007864654 1.2534463
v 0.65063363 0.007864654 2.0547116
v -3.3594024 0.5 -5.374783
v 0.7639592 0.5 -5.429806
v 5.0864754 0.5 -3.6032455
v 0.3617732 0.5 -4.1027694
v -7.409938 0.5 -3.5047643
v -2.6938303 0.5 -3.4378655
v -3.717383 0.5 0.010567844
v -12.052031 0.5 -2.8283854
v -12.500003 0.5 0
v -12.046012 0.5 2.8663886
v -6.9577274 0.5 2.7413812
v 2.6699805 0.5 -3.2880116
v 8.638009 0.5 -0.8995562
v 4.593909 0.5 -1.0740323
v 3.5224452 0.5 2.8129969
v 11.622771 0.5 -4.3836765
v 10.566682 0.5 -6.4563684
v 8.288934 0.5 2.9680703
v 0.7119957 0.5 4.1140823
v 9.695902 0.5 7.7641273
v -1.4533049 0.5 4.218642
v -2.7467232 0.5 2.840402
v -6.9577274 0.5 2.7413812
v 2.579722 0.5 5.874402
v 8.071188 0.5 9.388841
v -2.7467232 0.5 2.840402
v -3.717383 0.5 0.010567844
v -1.968687 0.007864654 -0.039403845
v -1.5252271 0.007864654 1.2534463
v -1.4678952 0.007864654 -1.7266128
v 0.7119957 0.5 4.1140823
v -2.6938303 0.5 -3.4378655
v 0.65063363 0.007864654 2.0547116
v 0.27148393 0.007864654 -2.1051042
v 3.5224452 0.5 2.8129969
v 0.3617732 0.5 -4.1027694
v 2.209858 0.007864654 1.3328753
v 1.8213651 0.007864654 -1.5580226
v 4.593909 0.5 -1.0740323
v 2.6699805 0.5 -3.2880116
v 2.7212775 0.007864654 -0.52243966
vt 0.46240234 0.3125
vt 0.47509766 0.3125
vt 0.625 0.3125
vt 0.48754883 0.3125
vt 0.5 0.3125
vt 0.60009766 0.3125
vt 0.5126953 0.3125
vt 0.5751953 0.3125
vt 0.58740234 0.3125
vt 0.42138672 0.6875
vt 0.37695312 0.6875
vt 0.375 0.5
vt 0.38745117 0.3125
vt 0.375 0.3125
vt 0.375 0.5
vt 0.38427734 0.6875
vt 0.37695312 0.6875
vt 0.39086914 0.6875
vt 0.39990234 0.6875
vt 0.39990234 0.3125
vt 0.41259766 0.6875
vt 0.41259766 0.3125
vt 0.42504883 0.6875
vt 0.42504883 0.3125
vt 0.4375 0.6875
vt 0.4375 0.3125
vt 0.44995117 0.6875
vt 0.44995117 0.3125
vt 0.46240234 0.6875
vt 0.46240234 0.3125
vt 0.4711914 0.6875
vt 0.47509766 0.3125
vt 0.47827148 0.6875
vt 0.48754883 0.6875
vt 0.48754883 0.3125
vt 0.49682617 0.6875
vt 0.5 0.3125
vt 0.5 0.6875
vt 0.50341797 0.6875
vt 0.5126953 0.51904297
vt 0.5083008 0.6875
vt 0.5126953 0.3125
vt 0.5175781 0.6875
vt 0.52490234 0.3125
vt 0.52490234 0.6875
vt 0.53759766 0.6875
vt 0.53759766 0.3125
vt 0.5449219 0.6875
vt 0.5498047 0.3125
vt 0.5498047 0.51904297
vt 0.5541992 0.6875
vt 0.5625 0.3125
vt 0.5625 0.6875
vt 0.57128906 0.6875
vt 0.5751953 0.3125
vt 0.5751953 0.6875
vt 0.578125 0.6875
vt 0.5854492 0.6875
vt 0.58740234 0.3125
vt 0.58740234 0.5
vt 0.58984375 0.6875
vt 0.60009766 0.6875
vt 0.60009766 0.3125
vt 0.6123047 0.6875
vt 0.6123047 0.3125
vt 0.625 0.5
vt 0.625 0.3125
vt 0.6225586 0.6875
vt 0.41259766 0.3125
vt 0.42504883 0.3125
vt 0.4375 0.3125
vt 0.39990234 0.3125
vt 0.44995117 0.3125
vt 0.38745117 0.3125
vt 0.46240234 0.3125
vt 0.625 0.3125
vt 0.47509766 0.3125
vt 0.6123047 0.3125
vt 0.625 0.3125
vt 0.48754883 0.3125
vt 0.60009766 0.3125
vt 0.5 0.3125
vt 0.58740234 0.3125
vt 0.60009766 0.3125
vt 0.5126953 0.3125
vt 0.5126953 0.3125
vt 0.52490234 0.3125
vt 0.5751953 0.3125
vt 0.5625 0.3125
vt 0.53759766 0.3125
vt 0.5498047 0.3125
vt 0.47973633 0.6875
vt 0.46801758 0.6875
vt 0.4724121 0.6875
vt 0.49682617 0.6875
vt 0.48242188 0.6875
vt 0.5 0.6875
vt 0.47973633 0.6875
vt 0.47509766 0.6875
vt 0.4716797 0.6875
vt 0.48583984 0.6875
vt 0.47705078 0.6875
vt 0.5751953 0.6875
vt 0.578125 0.6875
vt 0.48583984 0.6875
vt 0.57128906 0.6875
vt 0.49609375 0.6875
vt 0.47509766 0.6875
vt 0.48388672 0.6875
vt 0.48242188 0.6875
vt 0.4892578 0.6875
vt 0.5 0.6875
vt 0.50341797 0.6875
vt 0.5854492 0.6875
vt 0.56591797 0.6875
vt 0.58984375 0.6875
vt 0.55126953 0.6875
vt 0.5258789 0.6875
vt 0.4584961 0.6875
vt 0.42138672 0.6875
vt 0.37695312 0.6875
vt 0.5258789 0.6875
vt 0.42138672 0.6875
vt 0.6123047 0.6875
vt 0.56591797 0.6875
vt 0.60009766 0.6875
vt 0.58984375 0.6875
vt 0.38427734 0.6875
vt 0.41918945 0.6875
vt 0.39086914 0.6875
vt 0.42773438 0.6875
vt 0.4333496 0.6875
vt 0.43969727 0.6875
vt 0.44848633 0.6875
vt 0.45239258 0.6875
vt 0.46240234 0.6875
vt 0.4658203 0.6875
vt 0.4711914 0.6875
vt 0.47827148 0.6875
vt 0.4375 0.6875
vt 0.42504883 0.6875
vt 0.41259766 0.6875
vt 0.39990234 0.6875
vt 0.44995117 0.6875
vt 0.39086914 0.6875
vt 0.46240234 0.6875
vt 0.4333496 0.6875
vt 0.41918945 0.6875
vt 0.44848633 0.6875
vt 0.4711914 0.6875
vt 0.46240234 0.6875
vt 0.5449219 0.6875
vt 0.50878906 0.6875
vt 0.5541992 0.6875
vt 0.52490234 0.6875
vt 0.4951172 0.6875
vt 0.51220703 0.6875
vt 0.5083008 0.6875
vt 0.5175781 0.6875
vt 0.52490234 0.6875
vt 0.5175781 0.6875
vt 0.51220703 0.6875
vt 0.52490234 0.6875
vt 0.53759766 0.6875
vt 0.5449219 0.6875
vt 0.50341797 0.6875
vt 0.4892578 0.6875
vt 0.48388672 0.6875
vt 0.5083008 0.6875
vt 0.4951172 0.6875
vt 0.49609375 0.6875
vt 0.50878906 0.6875
vt 0.57128906 0.6875
vt 0.5541992 0.6875
vt 0.5625 0.6875
vt 0.45751953 0.6875
vt 0.45117188 0.6875
vt 0.44482422 0.6875
vt 0.46313477 0.6875
vt 0.44677734 0.6875
vt 0.45532227 0.6875
vt 0.4650879 0.6875
vt 0.46142578 0.6875
vt 0.45239258 0.6875
vt 0.43969727 0.6875
vt 0.42773438 0.6875
vt 0.44506836 0.6875
vt 0.4658203 0.6875
vt 0.45703125 0.6875
vt 0.46801758 0.6875
vt 0.47827148 0.6875
vt 0.48754883 0.6875
vt 0.49682617 0.6875
vt 0.47973633 0.6875
vt 0.43652344 0.6875
vt 0.4584961 0.6875
vt 0.44482422 0.6875
vt 0.47729492 0.6875
vt 0.37695312 0.6875
vt 0.38427734 0.6875
vt 0.55126953 0.6875
vt 0.46948242 0.6875
vt 0.5854492 0.6875
vt 0.4716797 0.6875
vt 0.4724121 0.6875
vt 0.47973633 0.6875
vt 0.47705078 0.6875
vt 0.578125 0.6875
vt 0.4724121 0.6875
vt 0.46801758 0.6875
vt 0.46313477 0.6875
vt 0.4650879 0.6875
vt 0.45751953 0.6875
vt 0.46948242 0.6875
vt 0.45703125 0.6875
vt 0.46142578 0.6875
vt 0.45117188 0.6875
vt 0.47729492 0.6875
vt 0.44506836 0.6875
vt 0.45532227 0.6875
vt 0.44482422 0.6875
vt 0.44482422 0.6875
vt 0.43652344 0.6875
vt 0.44677734 0.6875
vn -0 -1 0
vn -0 -1 0
vn -0 -1 0
vn -0 -1 0
vn -0 -1 0
vn -0 -1 0
vn -0 -1 0
vn -0 -1 0
vn -0 -1 0
vn 0.9873047 0.0038070679 -0.15991211
vn 0.89404297 0.007381439 -0.4482422
vn 0.9584961 0.0062446594 -0.2849121
vn 0.7915039 0.026641846 -0.61035156
vn 0.9584961 0 -0.28515625
vn 0.9584961 0.0062446594 -0.2849121
vn 0.8823242 0.018051147 -0.4699707
vn 0.89404297 0.007381439 -0.4482422
vn 0.7167969 0.010604858 -0.69677734
vn 0.5786133 0 -0.8154297
vn 0.5786133 0 -0.8154297
vn 0.30908203 0 -0.9511719
vn 0.30908203 0 -0.9511719
vn -0 0 -1
vn -0 0 -1
vn -0.30908203 0 -0.9511719
vn -0.30908203 0 -0.9511719
vn -0.5878906 0 -0.80908203
vn -0.5878906 0 -0.80908203
vn -0.80126953 0 -0.5986328
vn -0.80126953 0 -0.5986328
vn -0.89697266 0.011894226 -0.44189453
vn -0.94384766 0.03543091 -0.32910156
vn -0.984375 0.020217896 -0.17541504
vn -1 0 0.00044846535
vn -1 0 0.00044846535
vn -0.9868164 0.0061073303 0.16235352
vn -0.92578125 0.0042266846 0.37768555
vn -0.9511719 0.053222656 0.3046875
vn -0.89208984 0.0011587143 0.45166016
vn -0.7993164 0.013381958 0.60058594
vn -0.8857422 0.013412476 0.46435547
vn -0.79833984 0 0.6020508
vn -0.71191406 0.008201599 0.70214844
vn -0.5805664 0 0.81396484
vn -0.5805664 0 0.81396484
vn -0.31713867 0 0.9482422
vn -0.31713867 0 0.9482422
vn -0.1496582 0.008117676 0.98876953
vn -0.0049819946 0 1
vn -0.004184723 0.01210022 1
vn 0.14660645 0.0113220215 0.9892578
vn 0.30273438 0 0.953125
vn 0.30273438 0 0.953125
vn 0.4560547 0.0011072159 0.8901367
vn 0.5214844 0.0043754578 0.85302734
vn 0.5883789 0.054473877 0.8071289
vn 0.7026367 0.0066452026 0.7114258
vn 0.7114258 0.0075263977 0.7026367
vn 0.82373047 0 0.5673828
vn 0.82373047 0.006462097 0.56689453
vn 0.88916016 0.0038528442 0.4572754
vn 0.9526367 0 0.30444336
vn 0.9526367 0 0.30444336
vn 1 0 0.0047073364
vn 1 0 0.0047073364
vn 0.9584961 0.0062446594 -0.2849121
vn 0.9584961 0 -0.28515625
vn 0.9873047 0.0038070679 -0.15991211
vn -0 -1 0
vn -0 -1 0
vn -0 -1 0
vn -0 -1 0
vn -0 -1 0
vn -0 -1 0
vn -0 -1 0
vn -0 -1 0
vn -0 -1 0
vn -0 -1 0
vn -0 -1 0
vn -0 -1 0
vn -0 -1 0
vn -0 -1 0
vn -0 -1 0
vn -0 -1 0
vn -0 -1 0
vn -0 -1 0
vn -0 -1 0
vn -0 -1 0
vn -0 -1 0
vn -0 -1 0
vn -0 -1 0
vn -0 1 0
vn -0 1 0
vn -0 1 0
vn -0.08081055 0.7207031 -0.68847656
vn 0.05645752 0.6479492 -0.7597656
vn -0.08081055 0.7207031 -0.68847656
vn 0.10131836 0.6201172 -0.7783203
vn 0.2578125 0.5493164 -0.7949219
vn 0.2619629 0.55029297 -0.79296875
vn 0.3557129 0.7011719 -0.6176758
vn 0.3569336 0.70703125 -0.61083984
vn 0.37060547 0.77490234 -0.51220703
vn 0.37060547 0.77490234 -0.51220703
vn 0.2758789 0.84033203 -0.46655273
vn 0.3803711 0.7861328 -0.4873047
vn 0.29223633 0.8330078 -0.4699707
vn 0.13183594 0.9067383 -0.40014648
vn 0.13220215 0.9067383 -0.40063477
vn 0.022949219 0.9003906 -0.43481445
vn 0.03955078 0.90527344 -0.42333984
vn -0.07904053 0.8618164 -0.50097656
vn -0.07904053 0.8618164 -0.50097656
vn -0.18029785 0.9824219 0.04824829
vn -0.18249512 0.98291016 0.029296875
vn -0.18029785 0.9824219 0.04824829
vn -0.18383789 0.98291016 0.01751709
vn -0.16821289 0.9838867 -0.057006836
vn -0.16003418 0.9838867 -0.0803833
vn -0.14453125 0.9819336 -0.12359619
vn -0.14453125 0.9819336 -0.12359619
vn -0 1 0
vn -0 1 0
vn -0 1 0
vn -0 1 0
vn -0 1 0
vn -0 1 0
vn 0.08959961 0.98095703 0.17211914
vn 0.01638794 0.984375 0.17565918
vn 0.08959961 0.98095703 0.17211914
vn 0.01638794 0.984375 0.17565918
vn -0.04244995 0.98339844 0.1776123
vn -0.041625977 0.98339844 0.1776123
vn 0.0390625 0.98535156 0.1661377
vn 0.037078857 0.98535156 0.16662598
vn 0.05496216 0.98339844 0.1743164
vn 0.05545044 0.98339844 0.1739502
vn 0.02798462 0.98095703 0.1920166
vn 0.02798462 0.98095703 0.1920166
vn 0.0014839172 1 0.00680542
vn 0.0014839172 1 0.00680542
vn 0.0014839172 1 0.00680542
vn 0.0014839172 1 0.00680542
vn 0.0014839172 1 0.00680542
vn 0.0014839172 1 0.00680542
vn 0.0014839172 1 0.00680542
vn 0.0014839172 1 0.00680542
vn 0.0014839172 1 0.00680542
vn 0.0014839172 1 0.00680542
vn 0.0014839172 1 0.00680542
vn 0.0014839172 1 0.00680542
vn 0.08886719 0.99365234 -0.06915283
vn 0.07293701 0.99365234 -0.08343506
vn 0.08886719 0.99365234 -0.06915283
vn 0.07293701 0.99365234 -0.08343506
vn 0.030822754 0.9941406 -0.10467529
vn 0.030822754 0.9941406 -0.10467529
vn 0.0051460266 0.99365234 -0.11248779
vn 0.0051460266 0.99365234 -0.11248779
vn -0 1 0
vn -0 1 0
vn -0 1 0
vn -0 1 0
vn -0 1 0
vn -0 1 0
vn -0 1 0
vn -0 1 0
vn -0 1 0
vn -0 1 0
vn -0 1 0
vn -0 1 0
vn -0 1 0
vn -0 1 0
vn -0 1 0
vn -0 1 0
vn -0 1 0
vn -0 1 0
vn -0 1 0
vn -0 1 0
vn -0 1 0
vn -0 1 0
vn -0 1 0
vn -0 1 0
vn -0 1 0
vn -0 1 0
vn -0 1 0
vn -0 1 0
vn -0 1 0
vn -0 1 0
vn -0 1 0
vn -0 1 0
vn -0 1 0
vn -0 1 0
vn -0 1 0
vn -0 1 0
vn -0 1 0
vn -0 1 0
vn -0 1 0
vn -0 1 0
vn -0 1 0
vn -0 1 0
vn -0 1 0
vn -0 1 0
vn -0 1 0
vn -0 1 0
vn -0 1 0
vn -0 1 0
vn -0 1 0
vn 0.14782715 0.9711914 -0.18737793
vn 0.2709961 0.96240234 0.002735138
vn 0.2709961 0.96240234 0.00356102
vn 0.16394043 0.9707031 -0.17492676
vn 0.1673584 0.97265625 0.15979004
vn 0.0020275116 0.97265625 -0.23254395
vn 0.14807129 0.9736328 0.1739502
vn 0.0007100105 0.97265625 -0.23242188
vn -0.009407043 0.9711914 0.23876953
vn -0.18481445 0.96972656 -0.15856934
vn -0.0079193115 0.9711914 0.2388916
vn -0.2006836 0.96875 -0.14416504
vn -0.14648438 0.9682617 0.20349121
vn -0.24267578 0.9692383 0.040740967
vn -0.13586426 0.9682617 0.2088623
vn -0.24572754 0.96875 0.030090332
g pCylinder1_0
f 3/3/3 2/2/2 1/1/1
f 6/6/6 5/5/5 4/4/4
f 9/9/9 8/8/8 7/7/7
f 12/12/12 11/11/11 10/10/10
f 15/15/15 14/14/14 13/13/13
f 13/13/13 16/16/16 15/15/15
f 16/16/16 17/17/17 15/15/15
f 13/13/13 18/18/18 16/16/16
f 19/19/19 18/18/18 13/13/13
f 20/20/20 19/19/19 13/13/13
f 21/21/21 19/19/19 20/20/20
f 22/22/22 21/21/21 20/20/20
f 23/23/23 21/21/21 22/22/22
f 24/24/24 23/23/23 22/22/22
f 25/25/25 23/23/23 24/24/24
f 26/26/26 25/25/25 24/24/24
f 27/27/27 25/25/25 26/26/26
f 28/28/28 27/27/27 26/26/26
f 29/29/29 27/27/27 28/28/28
f 30/30/30 29/29/29 28/28/28
f 31/31/31 29/29/29 30/30/30
f 32/32/32 31/31/31 30/30/30
f 32/32/32 33/33/33 31/31/31
f 34/34/34 33/33/33 32/32/32
f 35/35/35 34/34/34 32/32/32
f 36/36/36 34/34/34 35/35/35
f 37/37/37 36/36/36 35/35/35
f 38/38/38 36/36/36 37/37/37
f 39/39/39 38/38/38 37/37/37
f 40/40/40 39/39/39 37/37/37
f 40/40/40 41/41/41 39/39/39
f 37/37/37 42/42/42 40/40/40
f 40/40/40 43/43/43 41/41/41
f 43/43/43 40/40/40 42/42/42
f 43/43/43 42/42/42 44/44/44
f 44/44/44 45/45/45 43/43/43
f 46/46/46 45/45/45 44/44/44
f 47/47/47 46/46/46 44/44/44
f 48/48/48 46/46/46 47/47/47
f 48/48/48 47/47/47 49/49/49
f 49/49/49 50/50/50 48/48/48
f 50/50/50 51/51/51 48/48/48
f 51/51/51 50/50/50 49/49/49
f 51/51/51 49/49/49 52/52/52
f 52/52/52 53/53/53 51/51/51
f 54/54/54 53/53/53 52/52/52
f 55/55/55 54/54/54 52/52/52
f 56/56/56 54/54/54 55/55/55
f 57/57/57 56/56/56 55/55/55
f 58/58/58 57/57/57 55/55/55
f 58/58/58 55/55/55 59/59/59
f 59/59/59 60/60/60 58/58/58
f 60/60/60 61/61/61 58/58/58
f 62/62/62 61/61/61 60/60/60
f 62/62/62 60/60/60 59/59/59
f 59/59/59 63/63/63 62/62/62
f 64/64/64 62/62/62 63/63/63
f 65/65/65 64/64/64 63/63/63
f 66/66/66 64/64/64 65/65/65
f 65/65/65 67/67/67 66/66/66
f 66/66/66 68/68/68 64/64/64
f 71/71/71 70/70/70 69/69/69
f 69/69/69 72/72/72 71/71/71
f 72/72/72 73/73/73 71/71/71
f 72/72/72 74/74/74 73/73/73
f 74/74/74 75/75/75 73/73/73
f 74/74/74 76/76/76 75/75/75
f 79/79/79 78/78/78 77/77/77
f 78/78/78 80/80/80 77/77/77
f 78/78/78 81/81/81 80/80/80
f 84/84/84 83/83/83 82/82/82
f 83/83/83 85/85/85 82/82/82
f 88/88/88 87/87/87 86/86/86
f 88/88/88 89/89/89 87/87/87
f 89/89/89 90/90/90 87/87/87
f 89/89/89 91/91/91 90/90/90
g pCylinder1_1
f 94/94/94 93/93/93 92/92/92
f 97/97/97 96/96/96 95/95/95
f 96/96/96 98/98/98 95/95/95
f 96/96/96 99/99/99 98/98/98
f 99/99/99 100/100/100 98/98/98
f 99/99/99 101/101/101 100/100/100
f 101/101/101 102/102/102 100/100/100
f 101/101/101 103/103/103 102/102/102
f 103/103/103 104/104/104 102/102/102
f 106/106/106 103/103/103 105/105/105
f 107/107/107 106/106/106 105/105/105
f 107/107/107 105/105/105 108/108/108
f 109/109/109 107/107/107 108/108/108
f 109/109/109 108/108/108 110/110/110
f 111/111/111 109/109/109 110/110/110
f 111/111/111 110/110/110 112/112/112
f 113/113/113 111/111/111 112/112/112
f 116/116/116 115/115/115 114/114/114
f 115/115/115 117/117/117 114/114/114
f 115/115/115 118/118/118 117/117/117
f 118/118/118 119/119/119 117/117/117
f 118/118/118 120/120/120 119/119/119
f 120/120/120 121/121/121 119/119/119
f 124/124/124 123/123/123 122/122/122
f 122/122/122 125/125/125 124/124/124
f 125/125/125 126/126/126 124/124/124
f 125/125/125 127/127/127 126/126/126
f 130/130/130 129/129/129 128/128/128
f 129/129/129 131/131/131 128/128/128
f 129/129/129 132/132/132 131/131/131
f 132/132/132 133/133/133 131/131/131
f 132/132/132 134/134/134 133/133/133
f 134/134/134 135/135/135 133/133/133
f 134/134/134 136/136/136 135/135/135
f 136/136/136 137/137/137 135/135/135
f 136/136/136 138/138/138 137/137/137
f 138/138/138 139/139/139 137/137/137
f 142/142/142 141/141/141 140/140/140
f 140/140/140 143/143/143 142/142/142
f 140/140/140 144/144/144 143/143/143
f 144/144/144 145/145/145 143/143/143
f 144/144/144 146/146/146 145/145/145
f 146/146/146 147/147/147 145/145/145
f 145/145/145 147/147/147 148/148/148
f 146/146/146 149/149/149 147/147/147
f 146/146/146 150/150/150 149/149/149
f 150/150/150 151/151/151 149/149/149
f 154/154/154 153/153/153 152/152/152
f 153/153/153 155/155/155 152/152/152
f 153/153/153 156/156/156 155/155/155
f 156/156/156 157/157/157 155/155/155
f 156/156/156 158/158/158 157/157/157
f 158/158/158 159/159/159 157/157/157
f 162/162/162 161/161/161 160/160/160
f 160/160/160 163/163/163 162/162/162
f 160/160/160 164/164/164 163/163/163
f 164/164/164 165/165/165 163/163/163
f 168/168/168 167/167/167 166/166/166
f 166/166/166 169/169/169 168/168/168
f 169/169/169 170/170/170 168/168/168
f 170/170/170 171/171/171 168/168/168
f 170/170/170 172/172/172 171/171/171
f 172/172/172 173/173/173 171/171/171
f 172/172/172 174/174/174 173/173/173
f 174/174/174 175/175/175 173/173/173
f 178/178/178 177/177/177 176/176/176
f 176/176/176 179/179/179 178/178/178
f 179/179/179 180/180/180 178/178/178
f 179/179/179 181/181/181 180/180/180
f 179/179/179 182/182/182 181/181/181
f 182/182/182 183/183/183 181/181/181
f 186/186/186 185/185/185 184/184/184
f 184/184/184 187/187/187 186/186/186
f 187/187/187 184/184/184 188/188/188
f 188/188/188 189/189/189 187/187/187
f 188/188/188 190/190/190 189/189/189
f 190/190/190 188/188/188 191/191/191
f 191/191/191 192/192/192 190/190/190
f 192/192/192 193/193/193 190/190/190
f 193/193/193 194/194/194 190/190/190
f 187/187/187 195/195/195 186/186/186
f 186/186/186 195/195/195 196/196/196
f 195/195/195 197/197/197 196/196/196
f 197/197/197 198/198/198 196/196/196
f 186/186/186 196/196/196 199/199/199
f 199/199/199 200/200/200 186/186/186
f 198/198/198 201/201/201 196/196/196
f 198/198/198 202/202/202 201/201/201
f 202/202/202 203/203/203 201/201/201
f 202/202/202 204/204/204 203/203/203
f 202/202/202 205/205/205 204/204/204
f 206/206/206 204/204/204 205/205/205
f 204/204/204 207/207/207 203/203/203
f 207/207/207 208/208/208 203/203/203
f 211/211/211 210/210/210 209/209/209
f 212/212/212 211/211/211 209/209/209
f 210/210/210 211/211/211 213/213/213
f 209/209/209 214/214/214 212/212/212
f 215/215/215 210/210/210 213/213/213
f 214/214/214 216/216/216 212/212/212
f 215/215/215 213/213/213 217/217/217
f 214/214/214 218/218/218 216/216/216
f 219/219/219 215/215/215 217/217/217
f 218/218/218 220/220/220 216/216/216
f 219/219/219 217/217/217 221/221/221
f 218/218/218 222/222/222 220/220/220
f 223/223/223 219/219/219 221/221/221
f 222/222/222 224/224/224 220/220/220
f 223/223/223 221/221/221 224/224/224
f 222/222/222 223/223/223 224/224/224
