g pCylinder1
v 0.9350838 -1 -0.6793783
v 0.80901706 0.56247616 -0.5877854
v 0.30901694 0.56247616 -0.9510567
v 0.35717013 -1 -1.099257
v -0.30901715 0.56247616 -0.9510566
v -0.35717037 -1 -1.0992569
v -0.8090172 0.56247616 -0.58778524
v -0.9350839 -1 -0.67937803
v -1.0000001 0.56247616 5.9604645E-08
v -1.1558272 -1 7.8180676E-08
v -0.80901706 0.56247616 0.58778536
v -0.93508375 -1 0.6793782
v -0.30901697 0.56247616 0.9510566
v -0.35717016 -1 1.0992569
v 0.30901703 0.56247616 0.95105654
v 0.35717025 -1 1.0992569
v 0.809017 0.56247616 0.58778524
v 0.93508375 -1 0.6793781
v 1 0.56247616 0
v 1.155827 -1 9.288015E-09
v 0.80901706 0.56247616 -0.5877854
v 0.9350838 -1 -0.6793783
v 1.155827 -1 9.288015E-09
v -0 -1 0
v 0.93508375 -1 0.6793781
v 0.9350838 -1 -0.6793783
v 0.35717025 -1 1.0992569
v 0.35717013 -1 -1.099257
v -0.35717016 -1 1.0992569
v -0.35717037 -1 -1.0992569
v -0.93508375 -1 0.6793782
v -0.9350839 -1 -0.67937803
v -1.1558272 -1 7.8180676E-08
v 0.30901703 0.56247616 0.95105654
v 0.4045085 2.050264 0.30647928
v 0.809017 0.56247616 0.58778524
v 0.15450852 2.0891387 0.483906
v -0.30901697 0.56247616 0.9510566
v -0 2.1503 0.00032613208
v -0.15450849 2.0891387 0.48390603
v 0.5 1.9873626 0.019396847
v -0.80901706 0.56247616 0.58778536
v 1 0.56247616 0
v -0.40450853 2.050264 0.30647933
v -1.0000001 0.56247616 5.9604645E-08
v 0.40450853 1.9244616 -0.26768568
v 0.80901706 0.56247616 -0.5877854
v -0.50000006 1.9873626 0.019396877
v -0.8090172 0.56247616 -0.58778524
v 0.15450847 1.8855866 -0.4451124
v 0.30901694 0.56247616 -0.9510567
v -0.4045086 1.9244616 -0.2676856
v -0.30901715 0.56247616 -0.9510566
v -0.15450858 1.8855866 -0.44511235
vt 0.375 0.3125
vt 0.375 0.6875
vt 0.39990234 0.6875
vt 0.39990234 0.3125
vt 0.42504883 0.6875
vt 0.42504883 0.3125
vt 0.44995117 0.6875
vt 0.44995117 0.3125
vt 0.47509766 0.6875
vt 0.47509766 0.3125
vt 0.5 0.6875
vt 0.5 0.3125
vt 0.52490234 0.6875
vt 0.52490234 0.3125
vt 0.5498047 0.6875
vt 0.5498047 0.3125
vt 0.5751953 0.6875
vt 0.5751953 0.3125
vt 0.60009766 0.6875
vt 0.60009766 0.3125
vt 0.625 0.6875
vt 0.625 0.3125
vt 0.65625 0.15625
vt 0.5 0.15625
vt 0.62646484 0.24804688
vt 0.62646484 0.06439209
vt 0.54833984 0.30493164
vt 0.54833984 0.007648468
vt 0.45166016 0.30493164
vt 0.45166016 0.007648468
vt 0.37353516 0.24804688
vt 0.37353516 0.06439209
vt 0.34375 0.15625
vt 0.54833984 0.6953125
vt 0.5629883 0.79785156
vt 0.62646484 0.7519531
vt 0.5239258 0.76953125
vt 0.45166016 0.6953125
vt 0.5 0.84375
vt 0.47583008 0.76953125
vt 0.578125 0.84375
vt 0.37353516 0.7519531
vt 0.65625 0.84375
vt 0.43676758 0.79785156
vt 0.34375 0.84375
vt 0.5629883 0.88964844
vt 0.62646484 0.9355469
vt 0.421875 0.84375
vt 0.37353516 0.9355469
vt 0.5239258 0.91796875
vt 0.54833984 0.9921875
vt 0.43676758 0.88964844
vt 0.45166016 0.9921875
vt 0.47583008 0.91796875
vn 0.8051758 0.099243164 -0.58496094
vn 0.7890625 0.19470215 -0.58251953
vn 0.2998047 0.19921875 -0.93310547
vn 0.30737305 0.099243164 -0.94628906
vn -0.2998047 0.19921875 -0.93310547
vn -0.30737305 0.099243164 -0.94628906
vn -0.7890625 0.19470215 -0.58251953
vn -0.8051758 0.099243164 -0.58496094
vn -0.9819336 0.1887207 -0.006591797
vn -0.9951172 0.099243164 0
vn -0.7973633 0.18444824 0.57470703
vn -0.8051758 0.099243164 0.58496094
vn -0.3046875 0.18261719 0.9345703
vn -0.30737305 0.099243164 0.94628906
vn 0.3046875 0.18261719 0.9345703
vn 0.30737305 0.099243164 0.94628906
vn 0.7973633 0.18444824 0.57470703
vn 0.8051758 0.099243164 0.58496094
vn 0.9819336 0.1887207 -0.006591797
vn 0.9951172 0.099243164 0
vn 0.7890625 0.19470215 -0.58251953
vn 0.8051758 0.099243164 -0.58496094
vn -0 -1 0
vn -0 -1 0
vn -0 -1 0
vn -0 -1 0
vn -0 -1 0
vn -0 -1 0
vn -0 -1 0
vn -0 -1 0
vn -0 -1 0
vn -0 -1 0
vn -0 -1 0
vn 0.3046875 0.18261719 0.9345703
vn 0.7421875 0.38183594 0.55078125
vn 0.7973633 0.18444824 0.57470703
vn 0.28173828 0.37817383 0.88183594
vn -0.3046875 0.18261719 0.9345703
vn -0 0.97802734 -0.20922852
vn -0.28173828 0.37817383 0.88183594
vn 0.92041016 0.39135742 0.004802704
vn -0.7973633 0.18444824 0.57470703
vn 0.9819336 0.1887207 -0.006591797
vn -0.7421875 0.38183594 0.55078125
vn -0.9819336 0.1887207 -0.006591797
vn 0.73828125 0.40551758 -0.5390625
vn 0.7890625 0.19470215 -0.58251953
vn -0.92041016 0.39135742 0.004802704
vn -0.7890625 0.19470215 -0.58251953
vn 0.2788086 0.41674805 -0.8652344
vn 0.2998047 0.19921875 -0.93310547
vn -0.73828125 0.40551758 -0.5390625
vn -0.2998047 0.19921875 -0.93310547
vn -0.2788086 0.41674805 -0.8652344
g pCylinder1_0
f 3/3/3 2/2/2 1/1/1
f 4/4/4 3/3/3 1/1/1
f 5/5/5 3/3/3 4/4/4
f 6/6/6 5/5/5 4/4/4
f 7/7/7 5/5/5 6/6/6
f 8/8/8 7/7/7 6/6/6
f 9/9/9 7/7/7 8/8/8
f 10/10/10 9/9/9 8/8/8
f 11/11/11 9/9/9 10/10/10
f 12/12/12 11/11/11 10/10/10
f 13/13/13 11/11/11 12/12/12
f 14/14/14 13/13/13 12/12/12
f 15/15/15 13/13/13 14/14/14
f 16/16/16 15/15/15 14/14/14
f 17/17/17 15/15/15 16/16/16
f 18/18/18 17/17/17 16/16/16
f 19/19/19 17/17/17 18/18/18
f 20/20/20 19/19/19 18/18/18
f 21/21/21 19/19/19 20/20/20
f 22/22/22 21/21/21 20/20/20
f 25/25/25 24/24/24 23/23/23
f 23/23/23 24/24/24 26/26/26
f 27/27/27 24/24/24 25/25/25
f 26/26/26 24/24/24 28/28/28
f 29/29/29 24/24/24 27/27/27
f 28/28/28 24/24/24 30/30/30
f 31/31/31 24/24/24 29/29/29
f 30/30/30 24/24/24 32/32/32
f 33/33/33 24/24/24 31/31/31
f 32/32/32 24/24/24 33/33/33
f 36/36/36 35/35/35 34/34/34
f 35/35/35 37/37/37 34/34/34
f 34/34/34 37/37/37 38/38/38
f 35/35/35 39/39/39 37/37/37
f 37/37/37 39/39/39 40/40/40
f 37/37/37 40/40/40 38/38/38
f 41/41/41 39/39/39 35/35/35
f 41/41/41 35/35/35 36/36/36
f 38/38/38 40/40/40 42/42/42
f 43/43/43 41/41/41 36/36/36
f 40/40/40 44/44/44 42/42/42
f 40/40/40 39/39/39 44/44/44
f 42/42/42 44/44/44 45/45/45
f 46/46/46 41/41/41 43/43/43
f 46/46/46 39/39/39 41/41/41
f 47/47/47 46/46/46 43/43/43
f 44/44/44 48/48/48 45/45/45
f 44/44/44 39/39/39 48/48/48
f 45/45/45 48/48/48 49/49/49
f 50/50/50 46/46/46 47/47/47
f 50/50/50 39/39/39 46/46/46
f 51/51/51 50/50/50 47/47/47
f 48/48/48 52/52/52 49/49/49
f 48/48/48 39/39/39 52/52/52
f 49/49/49 52/52/52 53/53/53
f 54/54/54 39/39/39 50/50/50
f 54/54/54 50/50/50 51/51/51
f 53/53/53 54/54/54 51/51/51
f 52/52/52 39/39/39 54/54/54
f 52/52/52 54/54/54 53/53/53
