g pCylinder3
v 1.0000001 -1 -1
v 1.0000001 1 -1
v 0.80901706 1 -1.5877854
v 0.80901706 -1 -1.5877854
v 0.30901697 1 -1.9510566
v 0.30901697 -1 -1.9510566
v -0.30901703 1 -1.9510565
v -0.30901703 -1 -1.9510565
v -0.809017 1 -1.5877852
v -0.809017 -1 -1.5877852
v -1 1 -1
v -1 -1 -1
v -1.0000001 -1 1
v -1.0000001 1 1
v -0.80901706 1 1.5877854
v -0.80901706 -1 1.5877854
v -0.30901697 1 1.9510566
v -0.30901697 -1 1.9510566
v 0.30901703 1 1.9510565
v 0.30901703 -1 1.9510565
v 0.809017 1 1.5877852
v 0.809017 -1 1.5877852
v 1 1 1
v 1 -1 1
v -0.80901706 -1 1.5877854
v -0 -1 1
v -1.0000001 -1 1
v -0.30901697 -1 1.9510566
v 0.30901703 -1 1.9510565
v 0.809017 -1 1.5877852
v 1 -1 1
v 0.809017 1 1.5877852
v -0 1 1
v 1 1 1
v 0.30901703 1 1.9510565
v -0.30901697 1 1.9510566
v -0.80901706 1 1.5877854
v -1.0000001 1 1
v -0 1 -1
v -1 1 -1
v -0.809017 1 -1.5877852
v -0.30901703 1 -1.9510565
v 0.30901697 1 -1.9510566
v 0.80901706 1 -1.5877854
v 1.0000001 1 -1
v 1 1 1
v -1 1 -1
v -1.0000001 1 1
v -1.0000001 -1 1
v -1 -1 -1
v -1 -1 -1
v -1.0000001 -1 1
v -0 -1 1
v -0 -1 -1
v -0.809017 -1 -1.5877852
v 1 -1 1
v -0.30901703 -1 -1.9510565
v 1.0000001 -1 -1
v 0.30901697 -1 -1.9510566
v 0.80901706 -1 -1.5877854
v 1.0000001 -1 -1
v 1 -1 1
v 1 1 1
v 1.0000001 1 -1
vt 0.47509766 0.3125
vt 0.47509766 0.6875
vt 0.5 0.6875
vt 0.5 0.3125
vt 0.52490234 0.6875
vt 0.52490234 0.3125
vt 0.5498047 0.6875
vt 0.5498047 0.3125
vt 0.5751953 0.6875
vt 0.5751953 0.3125
vt 0.60009766 0.6875
vt 0.60009766 0.3125
vt 0.47509766 0.3125
vt 0.47509766 0.6875
vt 0.5 0.6875
vt 0.5 0.3125
vt 0.52490234 0.6875
vt 0.52490234 0.3125
vt 0.5498047 0.6875
vt 0.5498047 0.3125
vt 0.5751953 0.6875
vt 0.5751953 0.3125
vt 0.60009766 0.6875
vt 0.60009766 0.3125
vt 0.37353516 0.24804688
vt 0.5 0.15625
vt 0.34375 0.15625
vt 0.45166016 0.30493164
vt 0.54833984 0.30493164
vt 0.62646484 0.24804688
vt 0.65625 0.15625
vt 0.62646484 0.7519531
vt 0.5 0.84375
vt 0.65625 0.84375
vt 0.54833984 0.6953125
vt 0.45166016 0.6953125
vt 0.37353516 0.7519531
vt 0.34375 0.84375
vt 0.5 0.84375
vt 0.65625 0.84375
vt 0.62646484 0.7519531
vt 0.54833984 0.6953125
vt 0.45166016 0.6953125
vt 0.37353516 0.7519531
vt 0.34375 0.84375
vt 0.65625 0.84375
vt 0.60009766 0.6875
vt 0.47509766 0.6875
vt 0.47509766 0.3125
vt 0.60009766 0.3125
vt 0.65625 0.15625
vt 0.34375 0.15625
vt 0.5 0.15625
vt 0.5 0.15625
vt 0.62646484 0.24804688
vt 0.65625 0.15625
vt 0.54833984 0.30493164
vt 0.34375 0.15625
vt 0.45166016 0.30493164
vt 0.37353516 0.24804688
vt 0.47509766 0.3125
vt 0.60009766 0.3125
vt 0.60009766 0.6875
vt 0.47509766 0.6875
vn 0.9970703 0 -0.0736084
vn 0.9970703 0 -0.0736084
vn 0.80908203 0 -0.5878906
vn 0.80908203 0 -0.5878906
vn 0.30908203 0 -0.9511719
vn 0.30908203 0 -0.9511719
vn -0.30908203 0 -0.9511719
vn -0.30908203 0 -0.9511719
vn -0.80908203 0 -0.5878906
vn -0.80908203 0 -0.5878906
vn -0.9970703 0 -0.0736084
vn -0.9970703 0 -0.0736084
vn -0.9970703 0 0.0736084
vn -0.9970703 0 0.0736084
vn -0.80908203 0 0.5878906
vn -0.80908203 0 0.5878906
vn -0.30908203 0 0.9511719
vn -0.30908203 0 0.9511719
vn 0.30908203 0 0.9511719
vn 0.30908203 0 0.9511719
vn 0.80908203 0 0.5878906
vn 0.80908203 0 0.5878906
vn 0.9970703 0 0.0736084
vn 0.9970703 0 0.0736084
vn -0 -1 0
vn -0 -1 0
vn -0 -1 0
vn -0 -1 0
vn -0 -1 0
vn -0 -1 0
vn -0 -1 0
vn -0 1 0
vn -0 1 0
vn -0 1 0
vn -0 1 0
vn -0 1 0
vn -0 1 0
vn -0 1 0
vn -0 1 0
vn -0 1 0
vn -0 1 0
vn -0 1 0
vn -0 1 0
vn -0 1 0
vn -0 1 0
vn -0 1 0
vn -0.9970703 0 -0.0736084
vn -0.9970703 0 0.0736084
vn -0.9970703 0 0.0736084
vn -0.9970703 0 -0.0736084
vn -0 -1 0
vn -0 -1 0
vn -0 -1 0
vn -0 -1 0
vn -0 -1 0
vn -0 -1 0
vn -0 -1 0
vn -0 -1 0
vn -0 -1 0
vn -0 -1 0
vn 0.9970703 0 -0.0736084
vn 0.9970703 0 0.0736084
vn 0.9970703 0 0.0736084
vn 0.9970703 0 -0.0736084
g pCylinder3_0
f 3/3/3 2/2/2 1/1/1
f 4/4/4 3/3/3 1/1/1
f 5/5/5 3/3/3 4/4/4
f 6/6/6 5/5/5 4/4/4
f 7/7/7 5/5/5 6/6/6
f 8/8/8 7/7/7 6/6/6
f 9/9/9 7/7/7 8/8/8
f 10/10/10 9/9/9 8/8/8
f 11/11/11 9/9/9 10/10/10
f 12/12/12 11/11/11 10/10/10
f 15/15/15 14/14/14 13/13/13
f 16/16/16 15/15/15 13/13/13
f 17/17/17 15/15/15 16/16/16
f 18/18/18 17/17/17 16/16/16
f 19/19/19 17/17/17 18/18/18
f 20/20/20 19/19/19 18/18/18
f 21/21/21 19/19/19 20/20/20
f 22/22/22 21/21/21 20/20/20
f 23/23/23 21/21/21 22/22/22
f 24/24/24 23/23/23 22/22/22
f 27/27/27 26/26/26 25/25/25
f 25/25/25 26/26/26 28/28/28
f 28/28/28 26/26/26 29/29/29
f 29/29/29 26/26/26 30/30/30
f 30/30/30 26/26/26 31/31/31
f 34/34/34 33/33/33 32/32/32
f 32/32/32 33/33/33 35/35/35
f 35/35/35 33/33/33 36/36/36
f 36/36/36 33/33/33 37/37/37
f 37/37/37 33/33/33 38/38/38
f 38/38/38 33/33/33 39/39/39
f 40/40/40 38/38/38 39/39/39
f 40/40/40 39/39/39 41/41/41
f 41/41/41 39/39/39 42/42/42
f 42/42/42 39/39/39 43/43/43
f 43/43/43 39/39/39 44/44/44
f 44/44/44 39/39/39 45/45/45
f 39/39/39 33/33/33 45/45/45
f 33/33/33 46/46/46 45/45/45
f 49/49/49 48/48/48 47/47/47
f 50/50/50 49/49/49 47/47/47
f 53/53/53 52/52/52 51/51/51
f 54/54/54 53/53/53 51/51/51
f 55/55/55 54/54/54 51/51/51
f 56/56/56 53/53/53 54/54/54
f 57/57/57 54/54/54 55/55/55
f 58/58/58 56/56/56 54/54/54
f 59/59/59 54/54/54 57/57/57
f 58/58/58 54/54/54 60/60/60
f 60/60/60 54/54/54 59/59/59
f 63/63/63 62/62/62 61/61/61
f 64/64/64 63/63/63 61/61/61
