g pCylinder1
v 0.12500006 -15 -0.21650633
v -0.12499996 -10.714286 0.6933979
v -0.12499996 -15 -0.21650638
v 0.12500006 -10.714286 0.6933979
v -0.12499996 -6.4285717 1.2750646
v 0.12500006 -6.4285717 1.2750646
v -0.12499996 -2.1428576 1.6070975
v 0.12500006 -2.1428576 1.6070975
v -0.12499996 2.1428566 1.6070975
v 0.12500006 2.1428566 1.6070975
v -0.12499996 6.4285707 1.2750646
v 0.12500006 6.4285707 1.2750646
v -0.12499996 10.714285 0.6933979
v 0.12500006 10.714285 0.6933979
v -0.12499996 15 -0.21650638
v 0.12500006 15 -0.21650633
v -0.12499996 -15 -0.21650638
v -0.25 -10.714286 0.9108599
v -0.25 -15 -3.7252903E-08
v -0.12499996 -10.714286 0.6933979
v -0.25 -6.4285717 1.491571
v -0.12499996 -6.4285717 1.2750646
v -0.25 -2.1428576 1.8236039
v -0.12499996 -2.1428576 1.6070975
v -0.25 2.1428566 1.8236039
v -0.12499996 2.1428566 1.6070975
v -0.25 6.4285707 1.491571
v -0.12499996 6.4285707 1.2750646
v -0.25 10.714285 0.9108599
v -0.12499996 10.714285 0.6933979
v -0.25 15 -3.7252903E-08
v -0.12499996 15 -0.21650638
v -0.25 -15 -3.7252903E-08
v -0.12500003 -10.714286 1.1280402
v -0.12500003 -15 0.21650635
v -0.25 -10.714286 0.9108599
v -0.12500003 -6.4285717 1.7080773
v -0.25 -6.4285717 1.491571
v -0.12500003 -2.1428576 2.04011
v -0.25 -2.1428576 1.8236039
v -0.12500003 2.1428566 2.04011
v -0.25 2.1428566 1.8236039
v -0.12500003 6.4285707 1.7080773
v -0.25 6.4285707 1.491571
v -0.12500003 10.714285 1.1280402
v -0.25 10.714285 0.9108599
v -0.12500003 15 0.21650635
v -0.25 15 -3.7252903E-08
v -0.12500003 -15 0.21650635
v 0.12499999 -10.714286 1.1280403
v 0.12499999 -15 0.21650636
v -0.12500003 -10.714286 1.1280402
v 0.12499999 -6.4285717 1.7080773
v -0.12500003 -6.4285717 1.7080773
v 0.12499999 -2.1428576 2.04011
v -0.12500003 -2.1428576 2.04011
v 0.12499999 2.1428566 2.04011
v -0.12500003 2.1428566 2.04011
v 0.12499999 6.4285707 1.7080773
v -0.12500003 6.4285707 1.7080773
v 0.12499999 10.714285 1.1280403
v -0.12500003 10.714285 1.1280402
v 0.12499999 15 0.21650636
v -0.12500003 15 0.21650635
v 0.12499999 -15 0.21650636
v 0.25 -10.714286 0.91085994
v 0.25 -15 0
v 0.12499999 -10.714286 1.1280403
v 0.25 -6.4285717 1.491571
v 0.12499999 -6.4285717 1.7080773
v 0.25 -2.1428576 1.8236039
v 0.12499999 -2.1428576 2.04011
v 0.25 2.1428566 1.8236039
v 0.12499999 2.1428566 2.04011
v 0.25 6.4285707 1.491571
v 0.12499999 6.4285707 1.7080773
v 0.25 10.714285 0.91085994
v 0.12499999 10.714285 1.1280403
v 0.25 15 0
v 0.12499999 15 0.21650636
v 0.25 -15 0
v 0.12500006 -10.714286 0.6933979
v 0.12500006 -15 -0.21650633
v 0.25 -10.714286 0.91085994
v 0.12500006 -6.4285717 1.2750646
v 0.25 -6.4285717 1.491571
v 0.12500006 -2.1428576 1.6070975
v 0.25 -2.1428576 1.8236039
v 0.12500006 2.1428566 1.6070975
v 0.25 2.1428566 1.8236039
v 0.12500006 6.4285707 1.2750646
v 0.25 6.4285707 1.491571
v 0.12500006 10.714285 0.6933979
v 0.25 10.714285 0.91085994
v 0.12500006 15 -0.21650633
v 0.25 15 0
v 0.12499999 15 0.21650636
v -0 15 0
v 0.25 15 0
v -0.12500003 15 0.21650635
v 0.12500006 15 -0.21650633
v -0.25 15 -3.7252903E-08
v -0.12499996 15 -0.21650638
v 0.25 -15 0
v -0 -15 0
v 0.12499999 -15 0.21650636
v 0.12500006 -15 -0.21650633
v -0.12500003 -15 0.21650635
v -0.12499996 -15 -0.21650638
v -0.25 -15 -3.7252903E-08
vt 0.375 0.3125
vt 0.41674805 0.3659668
vt 0.41674805 0.3125
vt 0.375 0.3659668
vt 0.41674805 0.41967773
vt 0.375 0.41967773
vt 0.41674805 0.47314453
vt 0.375 0.47314453
vt 0.41674805 0.52685547
vt 0.375 0.52685547
vt 0.41674805 0.5805664
vt 0.375 0.5805664
vt 0.41674805 0.63378906
vt 0.375 0.63378906
vt 0.41674805 0.6875
vt 0.375 0.6875
vt 0.41674805 0.3125
vt 0.45825195 0.3659668
vt 0.45825195 0.3125
vt 0.41674805 0.3659668
vt 0.45825195 0.41967773
vt 0.41674805 0.41967773
vt 0.45825195 0.47314453
vt 0.41674805 0.47314453
vt 0.45825195 0.52685547
vt 0.41674805 0.52685547
vt 0.45825195 0.5805664
vt 0.41674805 0.5805664
vt 0.45825195 0.63378906
vt 0.41674805 0.63378906
vt 0.45825195 0.6875
vt 0.41674805 0.6875
vt 0.45825195 0.3125
vt 0.5 0.3659668
vt 0.5 0.3125
vt 0.45825195 0.3659668
vt 0.5 0.41967773
vt 0.45825195 0.41967773
vt 0.5 0.47314453
vt 0.45825195 0.47314453
vt 0.5 0.52685547
vt 0.45825195 0.52685547
vt 0.5 0.5805664
vt 0.45825195 0.5805664
vt 0.5 0.63378906
vt 0.45825195 0.63378906
vt 0.5 0.6875
vt 0.45825195 0.6875
vt 0.5 0.3125
vt 0.5415039 0.3659668
vt 0.5415039 0.3125
vt 0.5 0.3659668
vt 0.5415039 0.41967773
vt 0.5 0.41967773
vt 0.5415039 0.47314453
vt 0.5 0.47314453
vt 0.5415039 0.52685547
vt 0.5 0.52685547
vt 0.5415039 0.5805664
vt 0.5 0.5805664
vt 0.5415039 0.63378906
vt 0.5 0.63378906
vt 0.5415039 0.6875
vt 0.5 0.6875
vt 0.5415039 0.3125
vt 0.5834961 0.3659668
vt 0.5834961 0.3125
vt 0.5415039 0.3659668
vt 0.5834961 0.41967773
vt 0.5415039 0.41967773
vt 0.5834961 0.47314453
vt 0.5415039 0.47314453
vt 0.5834961 0.52685547
vt 0.5415039 0.52685547
vt 0.5834961 0.5805664
vt 0.5415039 0.5805664
vt 0.5834961 0.63378906
vt 0.5415039 0.63378906
vt 0.5834961 0.6875
vt 0.5415039 0.6875
vt 0.5834961 0.3125
vt 0.625 0.3659668
vt 0.625 0.3125
vt 0.5834961 0.3659668
vt 0.625 0.41967773
vt 0.5834961 0.41967773
vt 0.625 0.47314453
vt 0.5834961 0.47314453
vt 0.625 0.52685547
vt 0.5834961 0.52685547
vt 0.625 0.5805664
vt 0.5834961 0.5805664
vt 0.625 0.63378906
vt 0.5834961 0.63378906
vt 0.625 0.6875
vt 0.5834961 0.6875
vt 0.578125 0.7084961
vt 0.5 0.84375
vt 0.65625 0.84375
vt 0.421875 0.7084961
vt 0.578125 0.9790039
vt 0.34375 0.84375
vt 0.421875 0.9790039
vt 0.65625 0.15625
vt 0.5 0.15625
vt 0.578125 0.2915039
vt 0.578125 0.020935059
vt 0.421875 0.2915039
vt 0.421875 0.020935059
vt 0.34375 0.15625
vn -0 0.2076416 -0.97802734
vn -0 0.17138672 -0.98535156
vn -0 0.2076416 -0.97802734
vn -0 0.17138672 -0.98535156
vn -0 0.10601807 -0.9941406
vn -0 0.10601807 -0.9941406
vn -0 0.03869629 -0.99902344
vn -0 0.03869629 -0.99902344
vn -0 -0.03869629 -0.99902344
vn -0 -0.03869629 -0.99902344
vn -0 -0.10601807 -0.9941406
vn -0 -0.10601807 -0.9941406
vn -0 -0.17138672 -0.98535156
vn -0 -0.17138672 -0.98535156
vn -0 -0.2076416 -0.97802734
vn -0 -0.2076416 -0.97802734
vn -0.8618164 0.10546875 -0.4963379
vn -0.86328125 0.0847168 -0.49731445
vn -0.8618164 0.10546875 -0.4963379
vn -0.86328125 0.08831787 -0.49731445
vn -0.8652344 0.05230713 -0.49902344
vn -0.8652344 0.053985596 -0.4987793
vn -0.86572266 0.018936157 -0.5
vn -0.86572266 0.01977539 -0.5
vn -0.86572266 -0.018936157 -0.5
vn -0.86572266 -0.01977539 -0.5
vn -0.8652344 -0.05230713 -0.49902344
vn -0.8652344 -0.053985596 -0.4987793
vn -0.86328125 -0.0847168 -0.49731445
vn -0.86328125 -0.08831787 -0.49731445
vn -0.8618164 -0.10546875 -0.4963379
vn -0.8618164 -0.10546875 -0.4963379
vn -0.8613281 -0.10559082 0.49658203
vn -0.86328125 -0.0847168 0.4975586
vn -0.8613281 -0.10559082 0.49658203
vn -0.86279297 -0.088378906 0.4975586
vn -0.8652344 -0.05227661 0.49902344
vn -0.8647461 -0.053955078 0.49902344
vn -0.86572266 -0.018936157 0.5
vn -0.86572266 -0.01977539 0.5
vn -0.86572266 0.018936157 0.5
vn -0.86572266 0.01977539 0.5
vn -0.8652344 0.05227661 0.49902344
vn -0.8647461 0.053955078 0.49902344
vn -0.86328125 0.0847168 0.4975586
vn -0.86279297 0.088378906 0.4975586
vn -0.8613281 0.10559082 0.49658203
vn -0.8613281 0.10559082 0.49658203
vn -0 -0.20800781 0.97802734
vn -0 -0.17138672 0.98535156
vn -0 -0.20800781 0.97802734
vn -0 -0.17138672 0.98535156
vn -0 -0.10583496 0.9946289
vn -0 -0.10583496 0.9946289
vn -0 -0.03869629 0.99902344
vn -0 -0.03869629 0.99902344
vn -0 0.03869629 0.99902344
vn -0 0.03869629 0.99902344
vn -0 0.10583496 0.9946289
vn -0 0.10583496 0.9946289
vn -0 0.17138672 0.98535156
vn -0 0.17138672 0.98535156
vn -0 0.20800781 0.97802734
vn -0 0.20800781 0.97802734
vn 0.8613281 -0.10559082 0.49658203
vn 0.86279297 -0.088378906 0.4975586
vn 0.8613281 -0.10559082 0.49658203
vn 0.86328125 -0.0847168 0.4975586
vn 0.8647461 -0.053955078 0.49902344
vn 0.8652344 -0.05227661 0.49902344
vn 0.86572266 -0.01977539 0.5
vn 0.86572266 -0.018936157 0.5
vn 0.86572266 0.01977539 0.5
vn 0.86572266 0.018936157 0.5
vn 0.8647461 0.053955078 0.49902344
vn 0.8652344 0.05227661 0.49902344
vn 0.86279297 0.088378906 0.4975586
vn 0.86328125 0.0847168 0.4975586
vn 0.8613281 0.10559082 0.49658203
vn 0.8613281 0.10559082 0.49658203
vn 0.8618164 0.10546875 -0.4963379
vn 0.86328125 0.08831787 -0.49731445
vn 0.8618164 0.10546875 -0.4963379
vn 0.86328125 0.0847168 -0.49731445
vn 0.8652344 0.053985596 -0.4987793
vn 0.8652344 0.05230713 -0.49902344
vn 0.86572266 0.01977539 -0.5
vn 0.86572266 0.018936157 -0.5
vn 0.86572266 -0.01977539 -0.5
vn 0.86572266 -0.018936157 -0.5
vn 0.8652344 -0.053985596 -0.4987793
vn 0.8652344 -0.05230713 -0.49902344
vn 0.86328125 -0.08831787 -0.49731445
vn 0.86328125 -0.0847168 -0.49731445
vn 0.8618164 -0.10546875 -0.4963379
vn 0.8618164 -0.10546875 -0.4963379
vn -0 1 0
vn -0 1 0
vn -0 1 0
vn -0 1 0
vn -0 1 0
vn -0 1 0
vn -0 1 0
vn -0 -1 0
vn -0 -1 0
vn -0 -1 0
vn -0 -1 0
vn -0 -1 0
vn -0 -1 0
vn -0 -1 0
g pCylinder1_0
f 3/3/3 2/2/2 1/1/1
f 2/2/2 4/4/4 1/1/1
f 2/2/2 5/5/5 4/4/4
f 5/5/5 6/6/6 4/4/4
f 5/5/5 7/7/7 6/6/6
f 7/7/7 8/8/8 6/6/6
f 7/7/7 9/9/9 8/8/8
f 9/9/9 10/10/10 8/8/8
f 9/9/9 11/11/11 10/10/10
f 11/11/11 12/12/12 10/10/10
f 11/11/11 13/13/13 12/12/12
f 13/13/13 14/14/14 12/12/12
f 13/13/13 15/15/15 14/14/14
f 15/15/15 16/16/16 14/14/14
f 19/19/19 18/18/18 17/17/17
f 18/18/18 20/20/20 17/17/17
f 18/18/18 21/21/21 20/20/20
f 21/21/21 22/22/22 20/20/20
f 21/21/21 23/23/23 22/22/22
f 23/23/23 24/24/24 22/22/22
f 23/23/23 25/25/25 24/24/24
f 25/25/25 26/26/26 24/24/24
f 25/25/25 27/27/27 26/26/26
f 27/27/27 28/28/28 26/26/26
f 27/27/27 29/29/29 28/28/28
f 29/29/29 30/30/30 28/28/28
f 29/29/29 31/31/31 30/30/30
f 31/31/31 32/32/32 30/30/30
f 35/35/35 34/34/34 33/33/33
f 34/34/34 36/36/36 33/33/33
f 34/34/34 37/37/37 36/36/36
f 37/37/37 38/38/38 36/36/36
f 37/37/37 39/39/39 38/38/38
f 39/39/39 40/40/40 38/38/38
f 39/39/39 41/41/41 40/40/40
f 41/41/41 42/42/42 40/40/40
f 41/41/41 43/43/43 42/42/42
f 43/43/43 44/44/44 42/42/42
f 43/43/43 45/45/45 44/44/44
f 45/45/45 46/46/46 44/44/44
f 45/45/45 47/47/47 46/46/46
f 47/47/47 48/48/48 46/46/46
f 51/51/51 50/50/50 49/49/49
f 50/50/50 52/52/52 49/49/49
f 50/50/50 53/53/53 52/52/52
f 53/53/53 54/54/54 52/52/52
f 53/53/53 55/55/55 54/54/54
f 55/55/55 56/56/56 54/54/54
f 55/55/55 57/57/57 56/56/56
f 57/57/57 58/58/58 56/56/56
f 57/57/57 59/59/59 58/58/58
f 59/59/59 60/60/60 58/58/58
f 59/59/59 61/61/61 60/60/60
f 61/61/61 62/62/62 60/60/60
f 61/61/61 63/63/63 62/62/62
f 63/63/63 64/64/64 62/62/62
f 67/67/67 66/66/66 65/65/65
f 66/66/66 68/68/68 65/65/65
f 66/66/66 69/69/69 68/68/68
f 69/69/69 70/70/70 68/68/68
f 69/69/69 71/71/71 70/70/70
f 71/71/71 72/72/72 70/70/70
f 71/71/71 73/73/73 72/72/72
f 73/73/73 74/74/74 72/72/72
f 73/73/73 75/75/75 74/74/74
f 75/75/75 76/76/76 74/74/74
f 75/75/75 77/77/77 76/76/76
f 77/77/77 78/78/78 76/76/76
f 77/77/77 79/79/79 78/78/78
f 79/79/79 80/80/80 78/78/78
f 83/83/83 82/82/82 81/81/81
f 82/82/82 84/84/84 81/81/81
f 82/82/82 85/85/85 84/84/84
f 85/85/85 86/86/86 84/84/84
f 85/85/85 87/87/87 86/86/86
f 87/87/87 88/88/88 86/86/86
f 87/87/87 89/89/89 88/88/88
f 89/89/89 90/90/90 88/88/88
f 89/89/89 91/91/91 90/90/90
f 91/91/91 92/92/92 90/90/90
f 91/91/91 93/93/93 92/92/92
f 93/93/93 94/94/94 92/92/92
f 93/93/93 95/95/95 94/94/94
f 95/95/95 96/96/96 94/94/94
f 99/99/99 98/98/98 97/97/97
f 97/97/97 98/98/98 100/100/100
f 101/101/101 98/98/98 99/99/99
f 100/100/100 98/98/98 102/102/102
f 103/103/103 98/98/98 101/101/101
f 102/102/102 98/98/98 103/103/103
f 106/106/106 105/105/105 104/104/104
f 104/104/104 105/105/105 107/107/107
f 108/108/108 105/105/105 106/106/106
f 107/107/107 105/105/105 109/109/109
f 110/110/110 105/105/105 108/108/108
f 109/109/109 105/105/105 110/110/110
