g pCylinder1
v 0.4542556 0.5 -0.33003613
v 0.3918367 1.5 -0.28468615
v 0.14966826 1.5 -0.46063188
v 0.17351016 0.5 -0.5340097
v 0.53532374 -0.5 -0.38893557
v -0.14966841 1.5 -0.46063185
v 0.20447543 -0.5 -0.62931097
v 0.5940695 -1.202344 -0.43161684
v 0.22691432 -1.202344 -0.6983707
v -0.17351031 0.5 -0.53400964
v -0.39183682 1.5 -0.28468606
v -0.20447558 -0.5 -0.62931085
v -0.22691447 -1.202344 -0.69837064
v -0.45425573 0.5 -0.33003604
v -0.48433685 1.5 1.0324067E-08
v -0.53532386 -0.5 -0.38893545
v -0.5940696 -1.202344 -0.43161672
v -0.56149095 0.5 2.1463586E-08
v -0.3918367 1.5 0.28468615
v -0.6616966 -0.5 3.5931322E-08
v -0.7343104 -1.202344 4.3144848E-08
v -0.45425564 0.5 0.33003616
v -0.14966834 1.5 0.46063176
v -0.53532374 -0.5 0.3889355
v -0.5940695 -1.202344 0.4316168
v -0.17351022 0.5 0.5340096
v 0.14966829 1.5 0.46063176
v -0.20447546 -0.5 0.62931085
v -0.22691435 -1.202344 0.69837064
v 0.1735102 0.5 0.5340096
v 0.3918367 1.5 0.28468603
v 0.20447548 -0.5 0.62931085
v 0.22691436 -1.202344 0.6983706
v 0.4542556 0.5 0.33003604
v 0.48433673 1.5 -1.8544652E-08
v 0.53532374 -0.5 0.38893545
v 0.5940695 -1.202344 0.43161672
v 0.56149083 0.5 -1.2003869E-08
v 0.3918367 1.5 -0.28468615
v 0.4542556 0.5 -0.33003613
v 0.6616965 -0.5 -3.5088656E-09
v 0.73431027 -1.202344 -6.234544E-10
v 0.53532374 -0.5 -0.38893557
v 0.5940695 -1.202344 -0.43161684
v 0.5940695 -1.202344 -0.43161684
v 0.22691432 -1.202344 -0.6983707
v 0.17382784 -1.5 -0.5349873
v 0.45508727 -1.5 -0.33064035
v 0.45508727 -1.5 -0.33064035
v 0.5625188 -1.5 -7.449832E-09
v 0.73431027 -1.202344 -6.234544E-10
v 0.5940695 -1.202344 -0.43161684
v 0.22691432 -1.202344 -0.6983707
v -0.22691447 -1.202344 -0.69837064
v -0.17382795 -1.5 -0.5349873
v 0.17382784 -1.5 -0.5349873
v -0.22691447 -1.202344 -0.69837064
v -0.5940696 -1.202344 -0.43161672
v -0.4550874 -1.5 -0.33064026
v -0.17382795 -1.5 -0.5349873
v -0.5940696 -1.202344 -0.43161672
v -0.7343104 -1.202344 4.3144848E-08
v -0.5625189 -1.5 2.1775252E-08
v -0.4550874 -1.5 -0.33064026
v -0.7343104 -1.202344 4.3144848E-08
v -0.5940695 -1.202344 0.4316168
v -0.45508727 -1.5 0.33064032
v -0.5625189 -1.5 2.1775252E-08
v -0.5940695 -1.202344 0.4316168
v -0.22691435 -1.202344 0.69837064
v -0.17382786 -1.5 0.5349872
v -0.45508727 -1.5 0.33064032
v -0.22691435 -1.202344 0.69837064
v 0.22691436 -1.202344 0.6983706
v 0.17382787 -1.5 0.5349872
v -0.17382786 -1.5 0.5349872
v 0.22691436 -1.202344 0.6983706
v 0.5940695 -1.202344 0.43161672
v 0.45508727 -1.5 0.33064026
v 0.17382787 -1.5 0.5349872
v 0.5940695 -1.202344 0.43161672
v 0.73431027 -1.202344 -6.234544E-10
v 0.5625188 -1.5 -7.449832E-09
v 0.45508727 -1.5 0.33064026
v 0.5625188 -1.5 -7.449832E-09
v -0 -1.5 0
v 0.45508727 -1.5 0.33064026
v 0.45508727 -1.5 -0.33064035
v 0.17382787 -1.5 0.5349872
v 0.17382784 -1.5 -0.5349873
v -0.17382786 -1.5 0.5349872
v -0.17382795 -1.5 -0.5349873
v -0.45508727 -1.5 0.33064032
v -0.4550874 -1.5 -0.33064026
v -0.5625189 -1.5 2.1775252E-08
v 0.3918367 1.5 0.28468603
v -1.498137E-08 1.5 -1.2003869E-08
v 0.48433673 1.5 -1.8544652E-08
v 0.14966829 1.5 0.46063176
v 0.3918367 1.5 -0.28468615
v -0.14966834 1.5 0.46063176
v 0.14966826 1.5 -0.46063188
v -0.3918367 1.5 0.28468615
v -0.14966841 1.5 -0.46063185
v -0.48433685 1.5 1.0324067E-08
v -0.39183682 1.5 -0.28468606
vt 0.375 0.5625
vt 0.375 0.6875
vt 0.39990234 0.6875
vt 0.39990234 0.5625
vt 0.375 0.4375
vt 0.42504883 0.6875
vt 0.39990234 0.4375
vt 0.375 0.3347168
vt 0.39990234 0.3347168
vt 0.42504883 0.5625
vt 0.44995117 0.6875
vt 0.42504883 0.4375
vt 0.42504883 0.3347168
vt 0.44995117 0.5625
vt 0.47509766 0.6875
vt 0.44995117 0.4375
vt 0.44995117 0.3347168
vt 0.47509766 0.5625
vt 0.5 0.6875
vt 0.47509766 0.4375
vt 0.47509766 0.3347168
vt 0.5 0.5625
vt 0.52490234 0.6875
vt 0.5 0.4375
vt 0.5 0.3347168
vt 0.52490234 0.5625
vt 0.5498047 0.6875
vt 0.52490234 0.4375
vt 0.52490234 0.3347168
vt 0.5498047 0.5625
vt 0.5751953 0.6875
vt 0.5498047 0.4375
vt 0.5498047 0.3347168
vt 0.5751953 0.5625
vt 0.60009766 0.6875
vt 0.5751953 0.4375
vt 0.5751953 0.3347168
vt 0.60009766 0.5625
vt 0.625 0.6875
vt 0.625 0.5625
vt 0.60009766 0.4375
vt 0.60009766 0.3347168
vt 0.625 0.4375
vt 0.625 0.3347168
vt 0.375 0.3347168
vt 0.39990234 0.3347168
vt 0.39697266 0.31445312
vt 0.37817383 0.31445312
vt 0.6220703 0.31445312
vt 0.60302734 0.31445312
vt 0.60009766 0.3347168
vt 0.625 0.3347168
vt 0.39990234 0.3347168
vt 0.42504883 0.3347168
vt 0.421875 0.31445312
vt 0.40307617 0.31445312
vt 0.42504883 0.3347168
vt 0.44995117 0.3347168
vt 0.44677734 0.31445312
vt 0.42822266 0.31445312
vt 0.44995117 0.3347168
vt 0.47509766 0.3347168
vt 0.47192383 0.31445312
vt 0.453125 0.31445312
vt 0.47509766 0.3347168
vt 0.5 0.3347168
vt 0.49682617 0.31445312
vt 0.47802734 0.31445312
vt 0.5 0.3347168
vt 0.52490234 0.3347168
vt 0.52197266 0.31445312
vt 0.5029297 0.31445312
vt 0.52490234 0.3347168
vt 0.5498047 0.3347168
vt 0.546875 0.31445312
vt 0.5283203 0.31445312
vt 0.5498047 0.3347168
vt 0.5751953 0.3347168
vt 0.57177734 0.31445312
vt 0.55322266 0.31445312
vt 0.5751953 0.3347168
vt 0.60009766 0.3347168
vt 0.5966797 0.31445312
vt 0.578125 0.31445312
vt 0.6171875 0.15625
vt 0.5 0.15625
vt 0.59472656 0.22509766
vt 0.59472656 0.08734131
vt 0.5361328 0.26782227
vt 0.5361328 0.044799805
vt 0.4638672 0.26782227
vt 0.4638672 0.044799805
vt 0.40527344 0.22509766
vt 0.40527344 0.08734131
vt 0.3828125 0.15625
vt 0.62646484 0.7519531
vt 0.5 0.84375
vt 0.65625 0.84375
vt 0.54833984 0.6953125
vt 0.62646484 0.9355469
vt 0.45166016 0.6953125
vt 0.54833984 0.9921875
vt 0.37353516 0.7519531
vt 0.45166016 0.9921875
vt 0.34375 0.84375
vt 0.37353516 0.9355469
vn 0.80566406 0.089416504 -0.5854492
vn 0.8066406 0.0769043 -0.5859375
vn 0.30810547 0.0769043 -0.9482422
vn 0.30786133 0.089416504 -0.9472656
vn 0.8046875 0.101135254 -0.58496094
vn -0.30810547 0.0769043 -0.9482422
vn 0.30737305 0.101135254 -0.94628906
vn 0.8046875 0.10284424 -0.58447266
vn 0.30737305 0.10284424 -0.9458008
vn -0.30786133 0.089416504 -0.9472656
vn -0.8066406 0.0769043 -0.5859375
vn -0.30737305 0.101135254 -0.94628906
vn -0.30737305 0.10284424 -0.9458008
vn -0.80566406 0.089416504 -0.5854492
vn -0.9970703 0.0769043 0
vn -0.8046875 0.101135254 -0.58496094
vn -0.8046875 0.10284424 -0.58447266
vn -0.99609375 0.089416504 0
vn -0.8066406 0.0769043 0.5859375
vn -0.9946289 0.101135254 0
vn -0.9946289 0.10284424 0
vn -0.80566406 0.089416504 0.5854492
vn -0.30810547 0.0769043 0.9482422
vn -0.8046875 0.101135254 0.58496094
vn -0.8046875 0.10284424 0.58447266
vn -0.30786133 0.089416504 0.9472656
vn 0.30810547 0.0769043 0.9482422
vn -0.30737305 0.101135254 0.94628906
vn -0.30737305 0.10284424 0.9458008
vn 0.30786133 0.089416504 0.9472656
vn 0.8066406 0.0769043 0.5859375
vn 0.30737305 0.101135254 0.94628906
vn 0.30737305 0.10284424 0.9458008
vn 0.80566406 0.089416504 0.5854492
vn 0.9970703 0.0769043 0
vn 0.8046875 0.101135254 0.58496094
vn 0.8046875 0.10284424 0.58447266
vn 0.99609375 0.089416504 0
vn 0.8066406 0.0769043 -0.5859375
vn 0.80566406 0.089416504 -0.5854492
vn 0.9946289 0.101135254 0
vn 0.9946289 0.10284424 0
vn 0.8046875 0.101135254 -0.58496094
vn 0.8046875 0.10284424 -0.58447266
vn 0.7006836 -0.49975586 -0.50927734
vn 0.26757812 -0.49975586 -0.82373047
vn 0.26757812 -0.49975586 -0.82373047
vn 0.7006836 -0.49975586 -0.50927734
vn 0.7006836 -0.49975586 -0.50927734
vn 0.86621094 -0.49975586 0
vn 0.86621094 -0.49975586 0
vn 0.7006836 -0.49975586 -0.50927734
vn 0.26757812 -0.49975586 -0.82373047
vn -0.26757812 -0.49975586 -0.82373047
vn -0.26757812 -0.49975586 -0.82373047
vn 0.26757812 -0.49975586 -0.82373047
vn -0.26757812 -0.49975586 -0.82373047
vn -0.7006836 -0.49975586 -0.50927734
vn -0.7006836 -0.49975586 -0.50927734
vn -0.26757812 -0.49975586 -0.82373047
vn -0.7006836 -0.49975586 -0.50927734
vn -0.86621094 -0.49975586 0
vn -0.86621094 -0.49975586 0
vn -0.7006836 -0.49975586 -0.50927734
vn -0.86621094 -0.49975586 0
vn -0.7006836 -0.49975586 0.50927734
vn -0.7006836 -0.49975586 0.50927734
vn -0.86621094 -0.49975586 0
vn -0.7006836 -0.49975586 0.50927734
vn -0.26757812 -0.49975586 0.82373047
vn -0.26757812 -0.49975586 0.82373047
vn -0.7006836 -0.49975586 0.50927734
vn -0.26757812 -0.49975586 0.82373047
vn 0.26757812 -0.49975586 0.82373047
vn 0.26757812 -0.49975586 0.82373047
vn -0.26757812 -0.49975586 0.82373047
vn 0.26757812 -0.49975586 0.82373047
vn 0.7006836 -0.49975586 0.50927734
vn 0.7006836 -0.49975586 0.50927734
vn 0.26757812 -0.49975586 0.82373047
vn 0.7006836 -0.49975586 0.50927734
vn 0.86621094 -0.49975586 0
vn 0.86621094 -0.49975586 0
vn 0.7006836 -0.49975586 0.50927734
vn -0 -1 0
vn -0 -1 0
vn -0 -1 0
vn -0 -1 0
vn -0 -1 0
vn -0 -1 0
vn -0 -1 0
vn -0 -1 0
vn -0 -1 0
vn -0 -1 0
vn -0 -1 0
vn -0 1 0
vn -0 1 0
vn -0 1 0
vn -0 1 0
vn -0 1 0
vn -0 1 0
vn -0 1 0
vn -0 1 0
vn -0 1 0
vn -0 1 0
vn -0 1 0
g pCylinder1_0
f 3/3/3 2/2/2 1/1/1
f 4/4/4 3/3/3 1/1/1
f 4/4/4 1/1/1 5/5/5
f 6/6/6 3/3/3 4/4/4
f 7/7/7 4/4/4 5/5/5
f 7/7/7 5/5/5 8/8/8
f 9/9/9 7/7/7 8/8/8
f 10/10/10 6/6/6 4/4/4
f 10/10/10 4/4/4 7/7/7
f 11/11/11 6/6/6 10/10/10
f 12/12/12 7/7/7 9/9/9
f 12/12/12 10/10/10 7/7/7
f 13/13/13 12/12/12 9/9/9
f 14/14/14 11/11/11 10/10/10
f 14/14/14 10/10/10 12/12/12
f 15/15/15 11/11/11 14/14/14
f 16/16/16 12/12/12 13/13/13
f 16/16/16 14/14/14 12/12/12
f 17/17/17 16/16/16 13/13/13
f 18/18/18 15/15/15 14/14/14
f 18/18/18 14/14/14 16/16/16
f 19/19/19 15/15/15 18/18/18
f 20/20/20 16/16/16 17/17/17
f 20/20/20 18/18/18 16/16/16
f 21/21/21 20/20/20 17/17/17
f 22/22/22 19/19/19 18/18/18
f 22/22/22 18/18/18 20/20/20
f 23/23/23 19/19/19 22/22/22
f 24/24/24 20/20/20 21/21/21
f 24/24/24 22/22/22 20/20/20
f 25/25/25 24/24/24 21/21/21
f 26/26/26 23/23/23 22/22/22
f 26/26/26 22/22/22 24/24/24
f 27/27/27 23/23/23 26/26/26
f 28/28/28 24/24/24 25/25/25
f 28/28/28 26/26/26 24/24/24
f 29/29/29 28/28/28 25/25/25
f 30/30/30 27/27/27 26/26/26
f 30/30/30 26/26/26 28/28/28
f 31/31/31 27/27/27 30/30/30
f 32/32/32 28/28/28 29/29/29
f 32/32/32 30/30/30 28/28/28
f 33/33/33 32/32/32 29/29/29
f 34/34/34 31/31/31 30/30/30
f 34/34/34 30/30/30 32/32/32
f 35/35/35 31/31/31 34/34/34
f 36/36/36 32/32/32 33/33/33
f 36/36/36 34/34/34 32/32/32
f 37/37/37 36/36/36 33/33/33
f 38/38/38 35/35/35 34/34/34
f 38/38/38 34/34/34 36/36/36
f 39/39/39 35/35/35 38/38/38
f 40/40/40 39/39/39 38/38/38
f 41/41/41 36/36/36 37/37/37
f 41/41/41 38/38/38 36/36/36
f 40/40/40 38/38/38 41/41/41
f 42/42/42 41/41/41 37/37/37
f 43/43/43 40/40/40 41/41/41
f 43/43/43 41/41/41 42/42/42
f 44/44/44 43/43/43 42/42/42
f 47/47/47 46/46/46 45/45/45
f 48/48/48 47/47/47 45/45/45
f 51/51/51 50/50/50 49/49/49
f 52/52/52 51/51/51 49/49/49
f 55/55/55 54/54/54 53/53/53
f 56/56/56 55/55/55 53/53/53
f 59/59/59 58/58/58 57/57/57
f 60/60/60 59/59/59 57/57/57
f 63/63/63 62/62/62 61/61/61
f 64/64/64 63/63/63 61/61/61
f 67/67/67 66/66/66 65/65/65
f 68/68/68 67/67/67 65/65/65
f 71/71/71 70/70/70 69/69/69
f 72/72/72 71/71/71 69/69/69
f 75/75/75 74/74/74 73/73/73
f 76/76/76 75/75/75 73/73/73
f 79/79/79 78/78/78 77/77/77
f 80/80/80 79/79/79 77/77/77
f 83/83/83 82/82/82 81/81/81
f 84/84/84 83/83/83 81/81/81
f 87/87/87 86/86/86 85/85/85
f 85/85/85 86/86/86 88/88/88
f 89/89/89 86/86/86 87/87/87
f 88/88/88 86/86/86 90/90/90
f 91/91/91 86/86/86 89/89/89
f 90/90/90 86/86/86 92/92/92
f 93/93/93 86/86/86 91/91/91
f 92/92/92 86/86/86 94/94/94
f 95/95/95 86/86/86 93/93/93
f 94/94/94 86/86/86 95/95/95
f 98/98/98 97/97/97 96/96/96
f 96/96/96 97/97/97 99/99/99
f 100/100/100 97/97/97 98/98/98
f 99/99/99 97/97/97 101/101/101
f 102/102/102 97/97/97 100/100/100
f 101/101/101 97/97/97 103/103/103
f 104/104/104 97/97/97 102/102/102
f 103/103/103 97/97/97 105/105/105
f 106/106/106 97/97/97 104/104/104
f 105/105/105 97/97/97 106/106/106
