g pCylinder1
v -10.112716 -0.49999994 -7.3473177
v -11.888209 -0.49994993 -3.8627133
v 11.888214 -0.49999994 -3.8627148
v 11.888214 -0.49999994 -3.8627148
v 11.888214 0.9999232 -3.8627148
v 10.7040615 0.9999232 -6.1867456
v 10.11272 -0.49994993 -7.34732
v 9.350925 0.5 -8.109115
v 7.34732 -0.49999994 -10.112719
v 7.7153077 0.5 -9.744731
v 7.34732 5E-05 -10.112719
v 6.809234 1.0653632 -10.386887
v 3.8627143 -0.49999994 -11.888213
v 3.8627143 1.0653632 -11.888213
v -0 1.0653632 -12.500006
v -0 -0.49999994 -12.500006
v -3.8627143 1.0653632 -11.888212
v -3.8627143 -0.49999994 -11.888212
v -7.3473186 1.0653632 -10.112717
v -7.3473186 -0.49999994 -10.112717
v -9.158976 0.5 -8.301058
v -8.301059 1.0653632 -9.158976
v -10.112716 0.5 -7.3473177
v -10.112716 -0.49999994 -7.3473177
v -11.325209 0.5 -4.9676642
v -11.888209 -0.49994993 -3.8627133
v -12.156029 0.9999232 -2.171768
v -12.500003 0.9999232 0
v -12.500003 -0.49999994 0
v -11.888209 0.9999232 3.8627133
v -11.888209 -0.49999994 3.8627133
v -10.112715 0.9999232 7.347317
v -10.112715 -0.49999994 7.347317
v -7.347317 0.9999232 10.112714
v -7.347317 -0.49999994 10.112714
v -3.8627133 0.9999232 11.888208
v -3.8627133 -0.49999994 11.888208
v -3.7252903E-07 0.9999232 12.500002
v -3.7252903E-07 -0.49999994 12.500002
v 3.8627121 0.9999232 11.888207
v 3.8627121 -0.49999994 11.888207
v 7.347316 0.9999232 10.112713
v 7.347316 -0.49999994 10.112713
v 10.112713 0.9999232 7.3473163
v 10.112713 -0.49999994 7.3473163
v 11.8882065 0.9999232 3.8627126
v 11.8882065 -0.49999994 3.8627126
v 12.5 0.9999232 0
v 12.5 -0.49999994 0
v 11.888214 0.9999232 -3.8627148
v 11.888214 -0.49999994 -3.8627148
v 3.8627143 -0.49999994 -11.888213
v -0 -0.49999994 -12.500006
v -3.8627143 -0.49999994 -11.888212
v 7.34732 -0.49999994 -10.112719
v -7.3473186 -0.49999994 -10.112717
v 10.11272 -0.49994993 -7.34732
v -10.112716 -0.49999994 -7.3473177
v 11.888214 -0.49999994 -3.8627148
v -11.888209 -0.49994993 -3.8627133
v 12.5 -0.49999994 0
v 11.888214 -0.49999994 -3.8627148
v -12.500003 -0.49999994 0
v 11.8882065 -0.49999994 3.8627126
v -11.888209 -0.49999994 3.8627133
v 10.112713 -0.49999994 7.3473163
v -10.112715 -0.49999994 7.347317
v 7.347316 -0.49999994 10.112713
v -7.347317 -0.49999994 10.112714
v 3.8627121 -0.49999994 11.888207
v -3.8627133 -0.49999994 11.888208
v -3.7252903E-07 -0.49999994 12.500002
v 6.124324 0.5 -0.56034756
v 2.4415529 0.5 2.9272044
v -9.048902 0.5 -0.44872996
v 2.4415529 0.5 2.9272044
v -6.0430374 0.5 2.2376132
v -9.048902 0.5 -0.44872996
v 2.4415529 0.5 2.9272044
v -1.4954116 0.5 3.8241627
v -6.0430374 0.5 2.2376132
v -11.325209 0.5 -4.9676642
v -10.664287 0.9999232 0.789644
v -12.156029 0.9999232 -2.171768
v -9.048902 0.5 -0.44872996
v -7.0782986 0.9999232 3.9944448
v -6.0430374 0.5 2.2376132
v -6.0430374 0.5 2.2376132
v -1.6115243 0.9999232 5.9016614
v -7.0782986 0.9999232 3.9944448
v -1.4954116 0.5 3.8241627
v 3.419305 0.9999232 4.755488
v 2.4415529 0.5 2.9272044
v 7.8003006 0.9999232 0.60672355
v 6.124324 0.5 -0.56034756
v 10.7040615 0.9999232 -6.1867456
v 9.350925 0.5 -8.109115
v -12.500003 0.9999232 0
v -12.156029 0.9999232 -2.171768
v -10.664287 0.9999232 0.789644
v -11.888209 0.9999232 3.8627133
v -7.0782986 0.9999232 3.9944448
v -10.112715 0.9999232 7.347317
v -7.0782986 0.9999232 3.9944448
v -1.6115243 0.9999232 5.9016614
v -10.112715 0.9999232 7.347317
v 10.112713 0.9999232 7.3473163
v 3.419305 0.9999232 4.755488
v 7.347316 0.9999232 10.112713
v 11.8882065 0.9999232 3.8627126
v -7.347317 0.9999232 10.112714
v 3.8627121 0.9999232 11.888207
v -3.8627133 0.9999232 11.888208
v -3.7252903E-07 0.9999232 12.500002
v 7.8003006 0.9999232 0.60672355
v 12.5 0.9999232 0
v 11.888214 0.9999232 -3.8627148
v 10.7040615 0.9999232 -6.1867456
v 7.7153077 0.5 -9.744731
v 3.4244525 1.0653632 -8.519979
v 6.809234 1.0653632 -10.386887
v 3.7354548 0.5 -7.5496054
v -1.6536067 1.0653632 -7.9268827
v -1.6874759 0.5 -6.91623
v -8.301059 1.0653632 -9.158976
v -9.158976 0.5 -8.301058
v 3.4244525 1.0653632 -8.519979
v 3.8627143 1.0653632 -11.888213
v 6.809234 1.0653632 -10.386887
v -3.8627143 1.0653632 -11.888212
v -0 1.0653632 -12.500006
v -1.6536067 1.0653632 -7.9268827
v -8.301059 1.0653632 -9.158976
v -7.3473186 1.0653632 -10.112717
v -10.112716 0.5 -7.3473177
v -9.158976 0.5 -8.301058
v -1.6874759 0.5 -6.91623
v -11.325209 0.5 -4.9676642
v 6.124324 0.5 -0.56034756
v -9.048902 0.5 -0.44872996
v 3.7354548 0.5 -7.5496054
v 9.350925 0.5 -8.109115
v 7.7153077 0.5 -9.744731
vt 0.46240234 0.3125
vt 0.47509766 0.3125
vt 0.625 0.3125
vt 0.375 0.3125
vt 0.375 0.6875
vt 0.38330078 0.6875
vt 0.38745117 0.3125
vt 0.39086914 0.6875
vt 0.39990234 0.3125
vt 0.3984375 0.6875
vt 0.39990234 0.5
vt 0.40185547 0.6875
vt 0.41259766 0.3125
vt 0.41259766 0.6875
vt 0.42504883 0.6875
vt 0.42504883 0.3125
vt 0.4375 0.6875
vt 0.4375 0.3125
vt 0.44995117 0.6875
vt 0.44995117 0.3125
vt 0.45825195 0.6875
vt 0.4543457 0.6875
vt 0.46240234 0.6875
vt 0.46240234 0.3125
vt 0.47094727 0.6875
vt 0.47509766 0.3125
vt 0.48046875 0.6875
vt 0.48754883 0.6875
vt 0.48754883 0.3125
vt 0.5 0.6875
vt 0.5 0.3125
vt 0.5126953 0.6875
vt 0.5126953 0.3125
vt 0.52490234 0.6875
vt 0.52490234 0.3125
vt 0.53759766 0.6875
vt 0.53759766 0.3125
vt 0.5498047 0.6875
vt 0.5498047 0.3125
vt 0.5625 0.6875
vt 0.5625 0.3125
vt 0.5751953 0.6875
vt 0.5751953 0.3125
vt 0.58740234 0.6875
vt 0.58740234 0.3125
vt 0.60009766 0.6875
vt 0.60009766 0.3125
vt 0.6123047 0.6875
vt 0.6123047 0.3125
vt 0.625 0.6875
vt 0.625 0.3125
vt 0.41259766 0.3125
vt 0.42504883 0.3125
vt 0.4375 0.3125
vt 0.39990234 0.3125
vt 0.44995117 0.3125
vt 0.38745117 0.3125
vt 0.46240234 0.3125
vt 0.625 0.3125
vt 0.47509766 0.3125
vt 0.6123047 0.3125
vt 0.625 0.3125
vt 0.48754883 0.3125
vt 0.60009766 0.3125
vt 0.5 0.3125
vt 0.58740234 0.3125
vt 0.5126953 0.3125
vt 0.5751953 0.3125
vt 0.52490234 0.3125
vt 0.5625 0.3125
vt 0.53759766 0.3125
vt 0.5498047 0.3125
vt 0.42016602 0.6875
vt 0.45507812 0.6875
vt 0.47460938 0.6875
vt 0.45507812 0.6875
vt 0.47436523 0.6875
vt 0.47460938 0.6875
vt 0.45507812 0.6875
vt 0.46972656 0.6875
vt 0.47436523 0.6875
vt 0.47094727 0.6875
vt 0.4831543 0.6875
vt 0.48046875 0.6875
vt 0.47460938 0.6875
vt 0.48413086 0.6875
vt 0.47436523 0.6875
vt 0.47436523 0.6875
vt 0.48242188 0.6875
vt 0.48413086 0.6875
vt 0.46972656 0.6875
vt 0.4716797 0.6875
vt 0.45507812 0.6875
vt 0.44726562 0.6875
vt 0.42016602 0.6875
vt 0.38330078 0.6875
vt 0.39086914 0.6875
vt 0.48754883 0.6875
vt 0.48046875 0.6875
vt 0.4831543 0.6875
vt 0.5 0.6875
vt 0.48413086 0.6875
vt 0.5126953 0.6875
vt 0.48413086 0.6875
vt 0.48242188 0.6875
vt 0.5126953 0.6875
vt 0.58740234 0.6875
vt 0.4716797 0.6875
vt 0.5751953 0.6875
vt 0.60009766 0.6875
vt 0.52490234 0.6875
vt 0.5625 0.6875
vt 0.53759766 0.6875
vt 0.5498047 0.6875
vt 0.44726562 0.6875
vt 0.6123047 0.6875
vt 0.375 0.6875
vt 0.38330078 0.6875
vt 0.3984375 0.6875
vt 0.41992188 0.6875
vt 0.40185547 0.6875
vt 0.42041016 0.6875
vt 0.43676758 0.6875
vt 0.4387207 0.6875
vt 0.4543457 0.6875
vt 0.45825195 0.6875
vt 0.41992188 0.6875
vt 0.41259766 0.6875
vt 0.40185547 0.6875
vt 0.4375 0.6875
vt 0.42504883 0.6875
vt 0.43676758 0.6875
vt 0.4543457 0.6875
vt 0.44995117 0.6875
vt 0.46240234 0.6875
vt 0.45825195 0.6875
vt 0.4387207 0.6875
vt 0.47094727 0.6875
vt 0.42016602 0.6875
vt 0.47460938 0.6875
vt 0.42041016 0.6875
vt 0.39086914 0.6875
vt 0.3984375 0.6875
vn -0 -1 0
vn -0 -1 0
vn -0 -1 0
vn 0.9555664 0 -0.29541016
vn 0.9555664 0 -0.29541016
vn 0.8847656 0.011756897 -0.46606445
vn 0.82421875 0.03765869 -0.5649414
vn 0.7216797 0.022994995 -0.69189453
vn 0.55078125 0 -0.83447266
vn 0.70214844 0.0073509216 -0.71191406
vn 0.54589844 0.0027389526 -0.8378906
vn 0.45776367 0.00233078 -0.88916016
vn 0.30493164 0 -0.95214844
vn 0.30493164 0 -0.95214844
vn -0 0 -1
vn -0 0 -1
vn -0.30908203 0 -0.9511719
vn -0.30908203 0 -0.9511719
vn -0.5751953 0 -0.8183594
vn -0.5751953 0 -0.8183594
vn -0.70703125 0 -0.70703125
vn -0.70703125 0 -0.70703125
vn -0.7890625 0 -0.6142578
vn -0.7890625 0 -0.6142578
vn -0.9013672 0.02949524 -0.43237305
vn -0.95410156 0.066101074 -0.2919922
vn -0.98535156 0.015258789 -0.16955566
vn -1 0 0.019454956
vn -1 0 0.019454956
vn -0.9511719 0 0.30908203
vn -0.9511719 0 0.30908203
vn -0.80908203 0 0.5878906
vn -0.80908203 0 0.5878906
vn -0.5878906 0 0.80908203
vn -0.5878906 0 0.80908203
vn -0.30908203 0 0.9511719
vn -0.30908203 0 0.9511719
vn -0 0 1
vn -0 0 1
vn 0.30908203 0 0.9511719
vn 0.30908203 0 0.9511719
vn 0.5878906 0 0.80908203
vn 0.5878906 0 0.80908203
vn 0.80908203 0 0.5878906
vn 0.80908203 0 0.5878906
vn 0.9511719 0 0.30908203
vn 0.9511719 0 0.30908203
vn 1 0 0
vn 1 0 0
vn 0.9555664 0 -0.29541016
vn 0.9555664 0 -0.29541016
vn -0 -1 0
vn -0 -1 0
vn -0 -1 0
vn -0 -1 0
vn -0 -1 0
vn -0 -1 0
vn -0 -1 0
vn -0 -1 0
vn -0 -1 0
vn -0 -1 0
vn -0 -1 0
vn -0 -1 0
vn -0 -1 0
vn -0 -1 0
vn -0 -1 0
vn -0 -1 0
vn -0 -1 0
vn -0 -1 0
vn -0 -1 0
vn -0 -1 0
vn -0 -1 0
vn -0 1 0
vn -0 1 0
vn -0 1 0
vn -0 1 0
vn -0 1 0
vn -0 1 0
vn -0 1 0
vn -0 1 0
vn -0 1 0
vn 0.21655273 0.97021484 -0.10913086
vn 0.18859863 0.9711914 -0.14611816
vn 0.21655273 0.97021484 -0.10913086
vn 0.18859863 0.9711914 -0.14611816
vn 0.1171875 0.9711914 -0.20727539
vn 0.1171875 0.9711914 -0.20727539
vn 0.1171875 0.9711914 -0.20727539
vn 0.017807007 0.97216797 -0.23303223
vn 0.1171875 0.9711914 -0.20727539
vn 0.017807007 0.97216797 -0.23303223
vn -0.11584473 0.97216797 -0.20385742
vn -0.11584473 0.97216797 -0.20385742
vn -0.1998291 0.9711914 -0.12902832
vn -0.1998291 0.9711914 -0.12902832
vn -0.22302246 0.97021484 -0.095336914
vn -0.22302246 0.97021484 -0.095336914
vn -0 1 0
vn -0 1 0
vn -0 1 0
vn -0 1 0
vn -0 1 0
vn -0 1 0
vn -0 1 0
vn -0 1 0
vn -0 1 0
vn -0 1 0
vn -0 1 0
vn -0 1 0
vn -0 1 0
vn -0 1 0
vn -0 1 0
vn -0 1 0
vn -0 1 0
vn -0 1 0
vn -0 1 0
vn -0 1 0
vn -0 1 0
vn 0.2376709 0.87060547 0.4309082
vn 0.13769531 0.8745117 0.46533203
vn 0.2376709 0.87060547 0.4309082
vn 0.13769531 0.8745117 0.46533203
vn -0.027526855 0.8725586 0.4873047
vn -0.027526855 0.8725586 0.4873047
vn -0.08972168 0.87060547 0.48388672
vn -0.08972168 0.87060547 0.48388672
vn -0 1 0
vn -0 1 0
vn -0 1 0
vn -0 1 0
vn -0 1 0
vn -0 1 0
vn -0 1 0
vn -0 1 0
vn -0 1 0
vn -0 1 0
vn -0 1 0
vn -0 1 0
vn -0 1 0
vn -0 1 0
vn -0 1 0
vn -0 1 0
vn -0 1 0
g pCylinder1_0
f 3/3/3 2/2/2 1/1/1
f 6/6/6 5/5/5 4/4/4
f 7/7/7 6/6/6 4/4/4
f 7/7/7 8/8/8 6/6/6
f 8/8/8 7/7/7 9/9/9
f 9/9/9 10/10/10 8/8/8
f 9/9/9 11/11/11 10/10/10
f 11/11/11 12/12/12 10/10/10
f 11/11/11 9/9/9 13/13/13
f 13/13/13 12/12/12 11/11/11
f 13/13/13 14/14/14 12/12/12
f 15/15/15 14/14/14 13/13/13
f 16/16/16 15/15/15 13/13/13
f 17/17/17 15/15/15 16/16/16
f 18/18/18 17/17/17 16/16/16
f 19/19/19 17/17/17 18/18/18
f 20/20/20 19/19/19 18/18/18
f 21/21/21 19/19/19 20/20/20
f 21/21/21 22/22/22 19/19/19
f 23/23/23 21/21/21 20/20/20
f 20/20/20 24/24/24 23/23/23
f 25/25/25 23/23/23 24/24/24
f 26/26/26 25/25/25 24/24/24
f 26/26/26 27/27/27 25/25/25
f 28/28/28 27/27/27 26/26/26
f 29/29/29 28/28/28 26/26/26
f 30/30/30 28/28/28 29/29/29
f 31/31/31 30/30/30 29/29/29
f 32/32/32 30/30/30 31/31/31
f 33/33/33 32/32/32 31/31/31
f 34/34/34 32/32/32 33/33/33
f 35/35/35 34/34/34 33/33/33
f 36/36/36 34/34/34 35/35/35
f 37/37/37 36/36/36 35/35/35
f 38/38/38 36/36/36 37/37/37
f 39/39/39 38/38/38 37/37/37
f 40/40/40 38/38/38 39/39/39
f 41/41/41 40/40/40 39/39/39
f 42/42/42 40/40/40 41/41/41
f 43/43/43 42/42/42 41/41/41
f 44/44/44 42/42/42 43/43/43
f 45/45/45 44/44/44 43/43/43
f 46/46/46 44/44/44 45/45/45
f 47/47/47 46/46/46 45/45/45
f 48/48/48 46/46/46 47/47/47
f 49/49/49 48/48/48 47/47/47
f 50/50/50 48/48/48 49/49/49
f 51/51/51 50/50/50 49/49/49
f 54/54/54 53/53/53 52/52/52
f 52/52/52 55/55/55 54/54/54
f 55/55/55 56/56/56 54/54/54
f 55/55/55 57/57/57 56/56/56
f 57/57/57 58/58/58 56/56/56
f 57/57/57 59/59/59 58/58/58
f 62/62/62 61/61/61 60/60/60
f 61/61/61 63/63/63 60/60/60
f 61/61/61 64/64/64 63/63/63
f 64/64/64 65/65/65 63/63/63
f 64/64/64 66/66/66 65/65/65
f 66/66/66 67/67/67 65/65/65
f 66/66/66 68/68/68 67/67/67
f 68/68/68 69/69/69 67/67/67
f 68/68/68 70/70/70 69/69/69
f 70/70/70 71/71/71 69/69/69
f 70/70/70 72/72/72 71/71/71
g pCylinder1_1
f 75/75/75 74/74/74 73/73/73
f 78/78/78 77/77/77 76/76/76
f 81/81/81 80/80/80 79/79/79
f 84/84/84 83/83/83 82/82/82
f 83/83/83 85/85/85 82/82/82
f 83/83/83 86/86/86 85/85/85
f 86/86/86 87/87/87 85/85/85
f 90/90/90 89/89/89 88/88/88
f 89/89/89 91/91/91 88/88/88
f 89/89/89 92/92/92 91/91/91
f 92/92/92 93/93/93 91/91/91
f 92/92/92 94/94/94 93/93/93
f 94/94/94 95/95/95 93/93/93
f 94/94/94 96/96/96 95/95/95
f 96/96/96 97/97/97 95/95/95
f 100/100/100 99/99/99 98/98/98
f 98/98/98 101/101/101 100/100/100
f 101/101/101 102/102/102 100/100/100
f 101/101/101 103/103/103 102/102/102
f 106/106/106 105/105/105 104/104/104
f 106/106/106 107/107/107 105/105/105
f 108/108/108 105/105/105 107/107/107
f 106/106/106 109/109/109 107/107/107
f 108/108/108 107/107/107 110/110/110
f 106/106/106 111/111/111 109/109/109
f 111/111/111 112/112/112 109/109/109
f 111/111/111 113/113/113 112/112/112
f 113/113/113 114/114/114 112/112/112
f 115/115/115 108/108/108 110/110/110
f 115/115/115 110/110/110 116/116/116
f 115/115/115 116/116/116 117/117/117
f 117/117/117 118/118/118 115/115/115
f 121/121/121 120/120/120 119/119/119
f 120/120/120 122/122/122 119/119/119
f 120/120/120 123/123/123 122/122/122
f 123/123/123 124/124/124 122/122/122
f 123/123/123 125/125/125 124/124/124
f 125/125/125 126/126/126 124/124/124
f 129/129/129 128/128/128 127/127/127
f 130/130/130 127/127/127 128/128/128
f 128/128/128 131/131/131 130/130/130
f 130/130/130 132/132/132 127/127/127
f 132/132/132 130/130/130 133/133/133
f 130/130/130 134/134/134 133/133/133
f 137/137/137 136/136/136 135/135/135
f 135/135/135 138/138/138 137/137/137
f 137/137/137 138/138/138 139/139/139
f 138/138/138 140/140/140 139/139/139
f 141/141/141 137/137/137 139/139/139
f 141/141/141 139/139/139 142/142/142
f 142/142/142 143/143/143 141/141/141
