g pCylinder2
v 1.0085734 0.5529355 -0.15
v 1.0085734 0.5529354 0.14999998
v 0.96354353 0.79601336 0.14999998
v 0.96354353 0.79601336 -0.14999998
v 0.78423584 0.96619964 0.14999998
v 0.78423584 0.96619964 -0.14999998
v 0.5391401 0.99848884 0.14999998
v 0.5391401 0.9984889 -0.15
v 0.32187426 0.88054764 0.15
v 0.32187426 0.88054764 -0.15
v 0.9021257 0.32981336 -0.15
v 0.9021257 0.32981336 0.15
v 1.0085734 0.5529354 0.14999998
v 1.0085734 0.5529355 -0.15
v 0.32187426 0.88054764 -0.15
v 0.612 0.6051805 -0.15
v 0.5391401 0.9984889 -0.15
v 0.78423584 0.96619964 -0.14999998
v 0.96354353 0.79601336 -0.14999998
v 1.0085734 0.5529355 -0.15
v 0.9021257 0.32981336 -0.15
v 0.5391401 0.99848884 0.14999998
v 0.612 0.6051805 0.15
v 0.32187426 0.88054764 0.15
v 0.78423584 0.96619964 0.14999998
v 0.96354353 0.79601336 0.14999998
v 1.0085734 0.5529354 0.14999998
v 0.9021257 0.32981336 0.15
vt 0.375 0.3125
vt 0.375 0.6875
vt 0.39990234 0.6875
vt 0.39990234 0.3125
vt 0.42504883 0.6875
vt 0.42504883 0.3125
vt 0.44995117 0.6875
vt 0.44995117 0.3125
vt 0.47509766 0.6875
vt 0.47509766 0.3125
vt 0.60009766 0.3125
vt 0.60009766 0.6875
vt 0.625 0.6875
vt 0.625 0.3125
vt 0.34375 0.15625
vt 0.5 0.15625
vt 0.37353516 0.06439209
vt 0.45166016 0.007648468
vt 0.54833984 0.007648468
vt 0.62646484 0.06439209
vt 0.65625 0.15625
vt 0.37353516 0.9355469
vt 0.5 0.84375
vt 0.34375 0.84375
vt 0.45166016 0.9921875
vt 0.54833984 0.9921875
vt 0.62646484 0.9355469
vt 0.65625 0.84375
vn 0.99121094 -0.13061523 0
vn 0.99121094 -0.13061523 0
vn 0.87890625 0.47705078 0
vn 0.87890625 0.47705078 0
vn 0.43066406 0.90234375 0
vn 0.43066406 0.90234375 0
vn -0.1821289 0.98339844 0
vn -0.1821289 0.98339844 0
vn -0.47705078 0.87890625 0
vn -0.47705078 0.87890625 0
vn 0.90234375 -0.43066406 0
vn 0.90234375 -0.43066406 0
vn 0.99121094 -0.13061523 0
vn 0.99121094 -0.13061523 0
vn -0 0 -1
vn -0 0 -1
vn -0 0 -1
vn -0 0 -1
vn -0 0 -1
vn -0 0 -1
vn -0 0 -1
vn -0 0 1
vn -0 0 1
vn -0 0 1
vn -0 0 1
vn -0 0 1
vn -0 0 1
vn -0 0 1
g pCylinder2_0
f 3/3/3 2/2/2 1/1/1
f 4/4/4 3/3/3 1/1/1
f 5/5/5 3/3/3 4/4/4
f 6/6/6 5/5/5 4/4/4
f 7/7/7 5/5/5 6/6/6
f 8/8/8 7/7/7 6/6/6
f 9/9/9 7/7/7 8/8/8
f 10/10/10 9/9/9 8/8/8
f 13/13/13 12/12/12 11/11/11
f 14/14/14 13/13/13 11/11/11
f 17/17/17 16/16/16 15/15/15
f 18/18/18 16/16/16 17/17/17
f 19/19/19 16/16/16 18/18/18
f 20/20/20 16/16/16 19/19/19
f 21/21/21 16/16/16 20/20/20
f 24/24/24 23/23/23 22/22/22
f 22/22/22 23/23/23 25/25/25
f 25/25/25 23/23/23 26/26/26
f 26/26/26 23/23/23 27/27/27
f 27/27/27 23/23/23 28/28/28
