g pCylinder1
v 1.1244061 -1 -0.816929
v 0.809017 -0.5 -0.5877854
v 0.30901694 -0.5 -0.9510567
v 0.4294848 -1 -1.3218188
v 0.4294848 -1 -1.3218188
v 0.30901694 -0.5 -0.9510567
v -0.3090171 -0.5 -0.9510566
v -0.42948505 -1 -1.3218186
v -0.42948505 -1 -1.3218186
v -0.3090171 -0.5 -0.9510566
v -0.8090173 -0.5 -0.5877851
v -1.1244061 -1 -0.8169287
v -1.1244061 -1 -0.8169287
v -0.8090173 -0.5 -0.5877851
v -1.0000001 -0.5 1.0430813E-07
v -1.3898424 -1 1.0607745E-07
v -1.3898424 -1 1.0607745E-07
v -1.0000001 -0.5 1.0430813E-07
v -0.80901706 -0.5 0.5877854
v -1.1244061 -1 0.8169289
v -1.1244061 -1 0.8169289
v -0.80901706 -0.5 0.5877854
v -0.30901706 -0.5 0.9510566
v -0.42948484 -1 1.3218187
v -0.42948484 -1 1.3218187
v -0.30901706 -0.5 0.9510566
v 0.30901694 -0.5 0.95105654
v 0.42948493 -1 1.3218186
v 0.42948493 -1 1.3218186
v 0.30901694 -0.5 0.95105654
v 0.80901694 -0.5 0.5877852
v 1.124406 -1 0.8169288
v 1.124406 -1 0.8169288
v 0.80901694 -0.5 0.5877852
v 1 -0.5 -1.4901161E-08
v 1.3898422 -1 2.3236403E-08
v 1.3898422 -1 2.3236403E-08
v 1 -0.5 -1.4901161E-08
v 0.809017 -0.5 -0.5877854
v 1.1244061 -1 -0.816929
v 1 -0.5 -1.4901161E-08
v 0.91271806 1 -5.2024083E-09
v 0.73840445 1 -0.5364824
v 0.809017 -0.5 -0.5877854
v 0.80901694 -0.5 0.5877852
v 0.73840445 1 0.5364822
v 0.91271806 1 -5.2024083E-09
v 1 -0.5 -1.4901161E-08
v 0.30901694 -0.5 0.95105654
v 0.28204542 1 0.86804646
v 0.73840445 1 0.5364822
v 0.80901694 -0.5 0.5877852
v -0.30901706 -0.5 0.9510566
v -0.28204536 1 0.8680465
v 0.28204542 1 0.86804646
v 0.30901694 -0.5 0.95105654
v -0.80901706 -0.5 0.5877854
v -0.7384045 1 0.53648233
v -0.28204536 1 0.8680465
v -0.30901706 -0.5 0.9510566
v -1.0000001 -0.5 1.0430813E-07
v -0.9127182 1 4.9199826E-08
v -0.7384045 1 0.53648233
v -0.80901706 -0.5 0.5877854
v -0.8090173 -0.5 -0.5877851
v -0.7384046 1 -0.5364822
v -0.9127182 1 4.9199826E-08
v -1.0000001 -0.5 1.0430813E-07
v -0.3090171 -0.5 -0.9510566
v -0.28204554 1 -0.8680465
v -0.7384046 1 -0.5364822
v -0.8090173 -0.5 -0.5877851
v 0.30901694 -0.5 -0.9510567
v 0.28204533 1 -0.86804664
v -0.28204554 1 -0.8680465
v -0.3090171 -0.5 -0.9510566
v 0.809017 -0.5 -0.5877854
v 0.73840445 1 -0.5364824
v 0.28204533 1 -0.86804664
v 0.30901694 -0.5 -0.9510567
v 1.3898422 -1 2.3236403E-08
v -0 -1 0
v 1.124406 -1 0.8169288
v 1.1244061 -1 -0.816929
v 0.42948493 -1 1.3218186
v 0.4294848 -1 -1.3218188
v -0.42948484 -1 1.3218187
v -0.42948505 -1 -1.3218186
v -1.1244061 -1 0.8169289
v -1.1244061 -1 -0.8169287
v -1.3898424 -1 1.0607745E-07
v 0.73840445 1 0.5364822
v -0 1 0
v 0.91271806 1 -5.2024083E-09
v 0.28204542 1 0.86804646
v 0.73840445 1 -0.5364824
v -0.28204536 1 0.8680465
v 0.28204533 1 -0.86804664
v -0.7384045 1 0.53648233
v -0.28204554 1 -0.8680465
v -0.9127182 1 4.9199826E-08
v -0.7384046 1 -0.5364822
vt 0.375 0.3125
vt 0.375 0.40625
vt 0.39990234 0.40625
vt 0.39990234 0.3125
vt 0.39990234 0.3125
vt 0.39990234 0.40625
vt 0.42504883 0.40625
vt 0.42504883 0.3125
vt 0.42504883 0.3125
vt 0.42504883 0.40625
vt 0.44995117 0.40625
vt 0.44995117 0.3125
vt 0.44995117 0.3125
vt 0.44995117 0.40625
vt 0.47509766 0.40625
vt 0.47509766 0.3125
vt 0.47509766 0.3125
vt 0.47509766 0.40625
vt 0.5 0.40625
vt 0.5 0.3125
vt 0.5 0.3125
vt 0.5 0.40625
vt 0.52490234 0.40625
vt 0.52490234 0.3125
vt 0.52490234 0.3125
vt 0.52490234 0.40625
vt 0.5498047 0.40625
vt 0.5498047 0.3125
vt 0.5498047 0.3125
vt 0.5498047 0.40625
vt 0.5751953 0.40625
vt 0.5751953 0.3125
vt 0.5751953 0.3125
vt 0.5751953 0.40625
vt 0.60009766 0.40625
vt 0.60009766 0.3125
vt 0.60009766 0.3125
vt 0.60009766 0.40625
vt 0.625 0.40625
vt 0.625 0.3125
vt 0.60009766 0.40625
vt 0.60009766 0.6875
vt 0.625 0.6875
vt 0.625 0.40625
vt 0.5751953 0.40625
vt 0.5751953 0.6875
vt 0.60009766 0.6875
vt 0.60009766 0.40625
vt 0.5498047 0.40625
vt 0.5498047 0.6875
vt 0.5751953 0.6875
vt 0.5751953 0.40625
vt 0.52490234 0.40625
vt 0.52490234 0.6875
vt 0.5498047 0.6875
vt 0.5498047 0.40625
vt 0.5 0.40625
vt 0.5 0.6875
vt 0.52490234 0.6875
vt 0.52490234 0.40625
vt 0.47509766 0.40625
vt 0.47509766 0.6875
vt 0.5 0.6875
vt 0.5 0.40625
vt 0.44995117 0.40625
vt 0.44995117 0.6875
vt 0.47509766 0.6875
vt 0.47509766 0.40625
vt 0.42504883 0.40625
vt 0.42504883 0.6875
vt 0.44995117 0.6875
vt 0.44995117 0.40625
vt 0.39990234 0.40625
vt 0.39990234 0.6875
vt 0.42504883 0.6875
vt 0.42504883 0.40625
vt 0.375 0.40625
vt 0.375 0.6875
vt 0.39990234 0.6875
vt 0.39990234 0.40625
vt 0.65625 0.15625
vt 0.5 0.15625
vt 0.62646484 0.24804688
vt 0.62646484 0.06439209
vt 0.54833984 0.30493164
vt 0.54833984 0.007648468
vt 0.45166016 0.30493164
vt 0.45166016 0.007648468
vt 0.37353516 0.24804688
vt 0.37353516 0.06439209
vt 0.34375 0.15625
vt 0.62646484 0.7519531
vt 0.5 0.84375
vt 0.65625 0.84375
vt 0.54833984 0.6953125
vt 0.62646484 0.9355469
vt 0.45166016 0.6953125
vt 0.54833984 0.9921875
vt 0.37353516 0.7519531
vt 0.45166016 0.9921875
vt 0.34375 0.84375
vt 0.37353516 0.9355469
vn 0.47216797 0.5957031 -0.64990234
vn 0.47216797 0.5957031 -0.64990234
vn 0.47216797 0.5957031 -0.64990234
vn 0.47216797 0.5957031 -0.64990234
vn -0 0.5957031 -0.80322266
vn -0 0.5957031 -0.80322266
vn -0 0.5957031 -0.80322266
vn -0 0.5957031 -0.80322266
vn -0.47216797 0.5957031 -0.64990234
vn -0.47216797 0.5957031 -0.64990234
vn -0.47216797 0.5957031 -0.64990234
vn -0.47216797 0.5957031 -0.64990234
vn -0.76416016 0.5957031 -0.24816895
vn -0.76416016 0.5957031 -0.24816895
vn -0.76416016 0.5957031 -0.24816895
vn -0.76416016 0.5957031 -0.24816895
vn -0.76416016 0.5957031 0.24816895
vn -0.76416016 0.5957031 0.24816895
vn -0.76416016 0.5957031 0.24816895
vn -0.76416016 0.5957031 0.24816895
vn -0.47216797 0.5957031 0.64990234
vn -0.47216797 0.5957031 0.64990234
vn -0.47216797 0.5957031 0.64990234
vn -0.47216797 0.5957031 0.64990234
vn -0 0.5957031 0.80322266
vn -0 0.5957031 0.80322266
vn -0 0.5957031 0.80322266
vn -0 0.5957031 0.80322266
vn 0.47216797 0.5957031 0.64990234
vn 0.47216797 0.5957031 0.64990234
vn 0.47216797 0.5957031 0.64990234
vn 0.47216797 0.5957031 0.64990234
vn 0.76416016 0.5957031 0.24816895
vn 0.76416016 0.5957031 0.24816895
vn 0.76416016 0.5957031 0.24816895
vn 0.76416016 0.5957031 0.24816895
vn 0.76416016 0.5957031 -0.24816895
vn 0.76416016 0.5957031 -0.24816895
vn 0.76416016 0.5957031 -0.24816895
vn 0.76416016 0.5957031 -0.24816895
vn 0.94970703 0.055267334 -0.30859375
vn 0.94970703 0.055267334 -0.30859375
vn 0.94970703 0.055267334 -0.30859375
vn 0.94970703 0.055267334 -0.30859375
vn 0.94970703 0.055267334 0.30859375
vn 0.94970703 0.055267334 0.30859375
vn 0.94970703 0.055267334 0.30859375
vn 0.94970703 0.055267334 0.30859375
vn 0.58691406 0.055267334 0.8076172
vn 0.58691406 0.055267334 0.8076172
vn 0.58691406 0.055267334 0.8076172
vn 0.58691406 0.055267334 0.8076172
vn -0 0.055267334 0.99853516
vn -0 0.055267334 0.99853516
vn -0 0.055267334 0.99853516
vn -0 0.055267334 0.99853516
vn -0.58691406 0.055267334 0.8076172
vn -0.58691406 0.055267334 0.8076172
vn -0.58691406 0.055267334 0.8076172
vn -0.58691406 0.055267334 0.8076172
vn -0.94970703 0.055267334 0.30859375
vn -0.94970703 0.055267334 0.30859375
vn -0.94970703 0.055267334 0.30859375
vn -0.94970703 0.055267334 0.30859375
vn -0.94970703 0.055267334 -0.30859375
vn -0.94970703 0.055267334 -0.30859375
vn -0.94970703 0.055267334 -0.30859375
vn -0.94970703 0.055267334 -0.30859375
vn -0.58691406 0.055267334 -0.8076172
vn -0.58691406 0.055267334 -0.8076172
vn -0.58691406 0.055267334 -0.8076172
vn -0.58691406 0.055267334 -0.8076172
vn -0 0.055267334 -0.99853516
vn -0 0.055267334 -0.99853516
vn -0 0.055267334 -0.99853516
vn -0 0.055267334 -0.99853516
vn 0.58691406 0.055267334 -0.8076172
vn 0.58691406 0.055267334 -0.8076172
vn 0.58691406 0.055267334 -0.8076172
vn 0.58691406 0.055267334 -0.8076172
vn -0 -1 0
vn -0 -1 0
vn -0 -1 0
vn -0 -1 0
vn -0 -1 0
vn -0 -1 0
vn -0 -1 0
vn -0 -1 0
vn -0 -1 0
vn -0 -1 0
vn -0 -1 0
vn -0 1 0
vn -0 1 0
vn -0 1 0
vn -0 1 0
vn -0 1 0
vn -0 1 0
vn -0 1 0
vn -0 1 0
vn -0 1 0
vn -0 1 0
vn -0 1 0
g pCylinder1_0
f 3/3/3 2/2/2 1/1/1
f 4/4/4 3/3/3 1/1/1
f 7/7/7 6/6/6 5/5/5
f 8/8/8 7/7/7 5/5/5
f 11/11/11 10/10/10 9/9/9
f 12/12/12 11/11/11 9/9/9
f 15/15/15 14/14/14 13/13/13
f 16/16/16 15/15/15 13/13/13
f 19/19/19 18/18/18 17/17/17
f 20/20/20 19/19/19 17/17/17
f 23/23/23 22/22/22 21/21/21
f 24/24/24 23/23/23 21/21/21
f 27/27/27 26/26/26 25/25/25
f 28/28/28 27/27/27 25/25/25
f 31/31/31 30/30/30 29/29/29
f 32/32/32 31/31/31 29/29/29
f 35/35/35 34/34/34 33/33/33
f 36/36/36 35/35/35 33/33/33
f 39/39/39 38/38/38 37/37/37
f 40/40/40 39/39/39 37/37/37
f 43/43/43 42/42/42 41/41/41
f 44/44/44 43/43/43 41/41/41
f 47/47/47 46/46/46 45/45/45
f 48/48/48 47/47/47 45/45/45
f 51/51/51 50/50/50 49/49/49
f 52/52/52 51/51/51 49/49/49
f 55/55/55 54/54/54 53/53/53
f 56/56/56 55/55/55 53/53/53
f 59/59/59 58/58/58 57/57/57
f 60/60/60 59/59/59 57/57/57
f 63/63/63 62/62/62 61/61/61
f 64/64/64 63/63/63 61/61/61
f 67/67/67 66/66/66 65/65/65
f 68/68/68 67/67/67 65/65/65
f 71/71/71 70/70/70 69/69/69
f 72/72/72 71/71/71 69/69/69
f 75/75/75 74/74/74 73/73/73
f 76/76/76 75/75/75 73/73/73
f 79/79/79 78/78/78 77/77/77
f 80/80/80 79/79/79 77/77/77
f 83/83/83 82/82/82 81/81/81
f 81/81/81 82/82/82 84/84/84
f 85/85/85 82/82/82 83/83/83
f 84/84/84 82/82/82 86/86/86
f 87/87/87 82/82/82 85/85/85
f 86/86/86 82/82/82 88/88/88
f 89/89/89 82/82/82 87/87/87
f 88/88/88 82/82/82 90/90/90
f 91/91/91 82/82/82 89/89/89
f 90/90/90 82/82/82 91/91/91
g pCylinder1_1
f 94/94/94 93/93/93 92/92/92
f 92/92/92 93/93/93 95/95/95
f 96/96/96 93/93/93 94/94/94
f 95/95/95 93/93/93 97/97/97
f 98/98/98 93/93/93 96/96/96
f 97/97/97 93/93/93 99/99/99
f 100/100/100 93/93/93 98/98/98
f 99/99/99 93/93/93 101/101/101
f 102/102/102 93/93/93 100/100/100
f 101/101/101 93/93/93 102/102/102
