g pCylinder1
v 0.81371415 -7.5 -0.26439175
v 0.81371415 7.5 -0.26439175
v 0.80901754 7.5 -0.5877856
v 0.80901754 -7.5 -0.5877856
v 0.80901754 -7.5 -0.5877856
v 0.80901754 7.5 -0.5877856
v 0.502903 7.5 -0.6921866
v 0.502903 -7.5 -0.6921866
v 0.502903 -7.5 -0.6921866
v 0.502903 7.5 -0.6921866
v 0.30901715 7.5 -0.951057
v 0.30901715 -7.5 -0.951057
v 0.30901715 -7.5 -0.951057
v 0.30901715 7.5 -0.951057
v 2.5822683E-08 7.5 -0.8555895
v 2.5822683E-08 -7.5 -0.8555895
v 2.5822683E-08 -7.5 -0.8555895
v 2.5822683E-08 7.5 -0.8555895
v -0.30901715 7.5 -0.95105696
v -0.30901715 -7.5 -0.95105696
v -0.30901715 -7.5 -0.95105696
v -0.30901715 7.5 -0.95105696
v -0.5029028 7.5 -0.6921864
v -0.5029028 -7.5 -0.6921864
v -0.5029028 -7.5 -0.6921864
v -0.5029028 7.5 -0.6921864
v -0.80901724 7.5 -0.5877854
v -0.80901724 -7.5 -0.5877854
v -0.80901724 -7.5 -0.5877854
v -0.80901724 7.5 -0.5877854
v -0.8137138 7.5 -0.26439166
v -0.8137138 -7.5 -0.26439166
v -0.8137138 -7.5 -0.26439166
v -0.8137138 7.5 -0.26439166
v -1.0000002 7.5 0
v -1.0000002 -7.5 0
v -1.0000002 -7.5 0
v -1.0000002 7.5 0
v -0.8137138 7.5 0.2643916
v -0.8137138 -7.5 0.2643916
v -0.8137138 -7.5 0.2643916
v -0.8137138 7.5 0.2643916
v -0.8090172 7.5 0.58778536
v -0.8090172 -7.5 0.58778536
v -0.8090172 -7.5 0.58778536
v -0.8090172 7.5 0.58778536
v -0.50290275 7.5 0.69218624
v -0.50290275 -7.5 0.69218624
v -0.50290275 -7.5 0.69218624
v -0.50290275 7.5 0.69218624
v -0.30901706 7.5 0.95105666
v -0.30901706 -7.5 0.95105666
v -0.30901706 -7.5 0.95105666
v -0.30901706 7.5 0.95105666
v 3.2413539E-10 7.5 0.85558915
v 3.2413539E-10 -7.5 0.85558915
v 3.2413539E-10 -7.5 0.85558915
v 3.2413539E-10 7.5 0.85558915
v 0.30901697 7.5 0.9510566
v 0.30901697 -7.5 0.9510566
v 0.30901697 -7.5 0.9510566
v 0.30901697 7.5 0.9510566
v 0.5029027 7.5 0.6921862
v 0.5029027 -7.5 0.6921862
v 0.5029027 -7.5 0.6921862
v 0.5029027 7.5 0.6921862
v 0.809017 7.5 0.5877853
v 0.809017 -7.5 0.5877853
v 0.809017 -7.5 0.5877853
v 0.809017 7.5 0.5877853
v 0.81371367 7.5 0.26439154
v 0.81371367 -7.5 0.26439154
v 0.81371367 -7.5 0.26439154
v 0.81371367 7.5 0.26439154
v 1 7.5 0
v 1 -7.5 0
v 1 -7.5 0
v 1 7.5 0
v 0.81371415 7.5 -0.26439175
v 0.81371415 -7.5 -0.26439175
v 0.81371367 7.5 0.26439154
v -0 7.5 0
v 1 7.5 0
v 0.809017 7.5 0.5877853
v 0.81371415 7.5 -0.26439175
v 0.5029027 7.5 0.6921862
v 0.80901754 7.5 -0.5877856
v 0.30901697 7.5 0.9510566
v 0.502903 7.5 -0.6921866
v 3.2413539E-10 7.5 0.85558915
v 0.30901715 7.5 -0.951057
v -0.30901706 7.5 0.95105666
v 2.5822683E-08 7.5 -0.8555895
v -0.50290275 7.5 0.69218624
v -0.30901715 7.5 -0.95105696
v -0.8090172 7.5 0.58778536
v -0.5029028 7.5 -0.6921864
v -0.8137138 7.5 0.2643916
v -0.80901724 7.5 -0.5877854
v -1.0000002 7.5 0
v -0.8137138 7.5 -0.26439166
v 1 -7.5 0
v -0 -7.5 0
v 0.81371367 -7.5 0.26439154
v 0.81371415 -7.5 -0.26439175
v 0.809017 -7.5 0.5877853
v 0.80901754 -7.5 -0.5877856
v 0.5029027 -7.5 0.6921862
v 0.502903 -7.5 -0.6921866
v 0.30901697 -7.5 0.9510566
v 0.30901715 -7.5 -0.951057
v 3.2413539E-10 -7.5 0.85558915
v 2.5822683E-08 -7.5 -0.8555895
v -0.30901706 -7.5 0.95105666
v -0.30901715 -7.5 -0.95105696
v -0.50290275 -7.5 0.69218624
v -0.5029028 -7.5 -0.6921864
v -0.8090172 -7.5 0.58778536
v -0.80901724 -7.5 -0.5877854
v -0.8137138 -7.5 0.2643916
v -0.8137138 -7.5 -0.26439166
v -1.0000002 -7.5 0
vt 0.375 0.3125
vt 0.375 0.6875
vt 0.38745117 0.6875
vt 0.38745117 0.3125
vt 0.38745117 0.3125
vt 0.38745117 0.6875
vt 0.39990234 0.6875
vt 0.39990234 0.3125
vt 0.39990234 0.3125
vt 0.39990234 0.6875
vt 0.41259766 0.6875
vt 0.41259766 0.3125
vt 0.41259766 0.3125
vt 0.41259766 0.6875
vt 0.42504883 0.6875
vt 0.42504883 0.3125
vt 0.42504883 0.3125
vt 0.42504883 0.6875
vt 0.4375 0.6875
vt 0.4375 0.3125
vt 0.4375 0.3125
vt 0.4375 0.6875
vt 0.44995117 0.6875
vt 0.44995117 0.3125
vt 0.44995117 0.3125
vt 0.44995117 0.6875
vt 0.46240234 0.6875
vt 0.46240234 0.3125
vt 0.46240234 0.3125
vt 0.46240234 0.6875
vt 0.47509766 0.6875
vt 0.47509766 0.3125
vt 0.47509766 0.3125
vt 0.47509766 0.6875
vt 0.48754883 0.6875
vt 0.48754883 0.3125
vt 0.48754883 0.3125
vt 0.48754883 0.6875
vt 0.5 0.6875
vt 0.5 0.3125
vt 0.5 0.3125
vt 0.5 0.6875
vt 0.5126953 0.6875
vt 0.5126953 0.3125
vt 0.5126953 0.3125
vt 0.5126953 0.6875
vt 0.52490234 0.6875
vt 0.52490234 0.3125
vt 0.52490234 0.3125
vt 0.52490234 0.6875
vt 0.53759766 0.6875
vt 0.53759766 0.3125
vt 0.53759766 0.3125
vt 0.53759766 0.6875
vt 0.5498047 0.6875
vt 0.5498047 0.3125
vt 0.5498047 0.3125
vt 0.5498047 0.6875
vt 0.5625 0.6875
vt 0.5625 0.3125
vt 0.5625 0.3125
vt 0.5625 0.6875
vt 0.5751953 0.6875
vt 0.5751953 0.3125
vt 0.5751953 0.3125
vt 0.5751953 0.6875
vt 0.58740234 0.6875
vt 0.58740234 0.3125
vt 0.58740234 0.3125
vt 0.58740234 0.6875
vt 0.60009766 0.6875
vt 0.60009766 0.3125
vt 0.60009766 0.3125
vt 0.60009766 0.6875
vt 0.6123047 0.6875
vt 0.6123047 0.3125
vt 0.6123047 0.3125
vt 0.6123047 0.6875
vt 0.625 0.6875
vt 0.625 0.3125
vt 0.6484375 0.79541016
vt 0.5 0.84375
vt 0.65625 0.84375
vt 0.62646484 0.7519531
vt 0.6484375 0.89208984
vt 0.5917969 0.71728516
vt 0.62646484 0.9355469
vt 0.54833984 0.6953125
vt 0.5917969 0.97021484
vt 0.5 0.6875
vt 0.54833984 0.9921875
vt 0.45166016 0.6953125
vt 0.5 1
vt 0.40820312 0.71728516
vt 0.45166016 0.9921875
vt 0.37353516 0.7519531
vt 0.40820312 0.97021484
vt 0.35131836 0.79541016
vt 0.37353516 0.9355469
vt 0.34375 0.84375
vt 0.35131836 0.89208984
vt 0.65625 0.15625
vt 0.5 0.15625
vt 0.6484375 0.20458984
vt 0.6484375 0.10797119
vt 0.62646484 0.24804688
vt 0.62646484 0.06439209
vt 0.5917969 0.28271484
vt 0.5917969 0.029846191
vt 0.54833984 0.30493164
vt 0.54833984 0.007648468
vt 0.5 0.3125
vt 0.5 -5.9604645E-08
vt 0.45166016 0.30493164
vt 0.45166016 0.007648468
vt 0.40820312 0.28271484
vt 0.40820312 0.029846191
vt 0.37353516 0.24804688
vt 0.37353516 0.06439209
vt 0.35131836 0.20458984
vt 0.35131836 0.10797119
vt 0.34375 0.15625
vn 1 0 -0.014518738
vn 1 0 -0.014518738
vn 1 0 -0.014518738
vn 1 0 -0.014518738
vn 0.3227539 0 -0.94628906
vn 0.3227539 0 -0.94628906
vn 0.3227539 0 -0.94628906
vn 0.3227539 0 -0.94628906
vn 0.80029297 0 -0.5996094
vn 0.80029297 0 -0.5996094
vn 0.80029297 0 -0.5996094
vn 0.80029297 0 -0.5996094
vn -0.29516602 0 -0.9555664
vn -0.29516602 0 -0.9555664
vn -0.29516602 0 -0.9555664
vn -0.29516602 0 -0.9555664
vn 0.29516602 0 -0.9555664
vn 0.29516602 0 -0.9555664
vn 0.29516602 0 -0.9555664
vn 0.29516602 0 -0.9555664
vn -0.80029297 0 -0.5996094
vn -0.80029297 0 -0.5996094
vn -0.80029297 0 -0.5996094
vn -0.80029297 0 -0.5996094
vn -0.3227539 0 -0.94628906
vn -0.3227539 0 -0.94628906
vn -0.3227539 0 -0.94628906
vn -0.3227539 0 -0.94628906
vn -1 0 -0.014518738
vn -1 0 -0.014518738
vn -1 0 -0.014518738
vn -1 0 -0.014518738
vn -0.8173828 0 -0.5761719
vn -0.8173828 0 -0.5761719
vn -0.8173828 0 -0.5761719
vn -0.8173828 0 -0.5761719
vn -0.8173828 0 0.5761719
vn -0.8173828 0 0.5761719
vn -0.8173828 0 0.5761719
vn -0.8173828 0 0.5761719
vn -1 0 0.014518738
vn -1 0 0.014518738
vn -1 0 0.014518738
vn -1 0 0.014518738
vn -0.3227539 0 0.94628906
vn -0.3227539 0 0.94628906
vn -0.3227539 0 0.94628906
vn -0.3227539 0 0.94628906
vn -0.80029297 0 0.5996094
vn -0.80029297 0 0.5996094
vn -0.80029297 0 0.5996094
vn -0.80029297 0 0.5996094
vn 0.29516602 0 0.9555664
vn 0.29516602 0 0.9555664
vn 0.29516602 0 0.9555664
vn 0.29516602 0 0.9555664
vn -0.29516602 0 0.9555664
vn -0.29516602 0 0.9555664
vn -0.29516602 0 0.9555664
vn -0.29516602 0 0.9555664
vn 0.80029297 0 0.5996094
vn 0.80029297 0 0.5996094
vn 0.80029297 0 0.5996094
vn 0.80029297 0 0.5996094
vn 0.3227539 0 0.94628906
vn 0.3227539 0 0.94628906
vn 0.3227539 0 0.94628906
vn 0.3227539 0 0.94628906
vn 1 0 0.014518738
vn 1 0 0.014518738
vn 1 0 0.014518738
vn 1 0 0.014518738
vn 0.8173828 0 0.5761719
vn 0.8173828 0 0.5761719
vn 0.8173828 0 0.5761719
vn 0.8173828 0 0.5761719
vn 0.8173828 0 -0.5761719
vn 0.8173828 0 -0.5761719
vn 0.8173828 0 -0.5761719
vn 0.8173828 0 -0.5761719
vn -0 1 0
vn -0 1 0
vn -0 1 0
vn -0 1 0
vn -0 1 0
vn -0 1 0
vn -0 1 0
vn -0 1 0
vn -0 1 0
vn -0 1 0
vn -0 1 0
vn -0 1 0
vn -0 1 0
vn -0 1 0
vn -0 1 0
vn -0 1 0
vn -0 1 0
vn -0 1 0
vn -0 1 0
vn -0 1 0
vn -0 1 0
vn -0 -1 0
vn -0 -1 0
vn -0 -1 0
vn -0 -1 0
vn -0 -1 0
vn -0 -1 0
vn -0 -1 0
vn -0 -1 0
vn -0 -1 0
vn -0 -1 0
vn -0 -1 0
vn -0 -1 0
vn -0 -1 0
vn -0 -1 0
vn -0 -1 0
vn -0 -1 0
vn -0 -1 0
vn -0 -1 0
vn -0 -1 0
vn -0 -1 0
vn -0 -1 0
g pCylinder1_0
f 3/3/3 2/2/2 1/1/1
f 4/4/4 3/3/3 1/1/1
f 7/7/7 6/6/6 5/5/5
f 8/8/8 7/7/7 5/5/5
f 11/11/11 10/10/10 9/9/9
f 12/12/12 11/11/11 9/9/9
f 15/15/15 14/14/14 13/13/13
f 16/16/16 15/15/15 13/13/13
f 19/19/19 18/18/18 17/17/17
f 20/20/20 19/19/19 17/17/17
f 23/23/23 22/22/22 21/21/21
f 24/24/24 23/23/23 21/21/21
f 27/27/27 26/26/26 25/25/25
f 28/28/28 27/27/27 25/25/25
f 31/31/31 30/30/30 29/29/29
f 32/32/32 31/31/31 29/29/29
f 35/35/35 34/34/34 33/33/33
f 36/36/36 35/35/35 33/33/33
f 39/39/39 38/38/38 37/37/37
f 40/40/40 39/39/39 37/37/37
f 43/43/43 42/42/42 41/41/41
f 44/44/44 43/43/43 41/41/41
f 47/47/47 46/46/46 45/45/45
f 48/48/48 47/47/47 45/45/45
f 51/51/51 50/50/50 49/49/49
f 52/52/52 51/51/51 49/49/49
f 55/55/55 54/54/54 53/53/53
f 56/56/56 55/55/55 53/53/53
f 59/59/59 58/58/58 57/57/57
f 60/60/60 59/59/59 57/57/57
f 63/63/63 62/62/62 61/61/61
f 64/64/64 63/63/63 61/61/61
f 67/67/67 66/66/66 65/65/65
f 68/68/68 67/67/67 65/65/65
f 71/71/71 70/70/70 69/69/69
f 72/72/72 71/71/71 69/69/69
f 75/75/75 74/74/74 73/73/73
f 76/76/76 75/75/75 73/73/73
f 79/79/79 78/78/78 77/77/77
f 80/80/80 79/79/79 77/77/77
f 83/83/83 82/82/82 81/81/81
f 81/81/81 82/82/82 84/84/84
f 85/85/85 82/82/82 83/83/83
f 84/84/84 82/82/82 86/86/86
f 87/87/87 82/82/82 85/85/85
f 86/86/86 82/82/82 88/88/88
f 89/89/89 82/82/82 87/87/87
f 88/88/88 82/82/82 90/90/90
f 91/91/91 82/82/82 89/89/89
f 90/90/90 82/82/82 92/92/92
f 93/93/93 82/82/82 91/91/91
f 92/92/92 82/82/82 94/94/94
f 95/95/95 82/82/82 93/93/93
f 94/94/94 82/82/82 96/96/96
f 97/97/97 82/82/82 95/95/95
f 96/96/96 82/82/82 98/98/98
f 99/99/99 82/82/82 97/97/97
f 98/98/98 82/82/82 100/100/100
f 101/101/101 82/82/82 99/99/99
f 100/100/100 82/82/82 101/101/101
f 104/104/104 103/103/103 102/102/102
f 102/102/102 103/103/103 105/105/105
f 106/106/106 103/103/103 104/104/104
f 105/105/105 103/103/103 107/107/107
f 108/108/108 103/103/103 106/106/106
f 107/107/107 103/103/103 109/109/109
f 110/110/110 103/103/103 108/108/108
f 109/109/109 103/103/103 111/111/111
f 112/112/112 103/103/103 110/110/110
f 111/111/111 103/103/103 113/113/113
f 114/114/114 103/103/103 112/112/112
f 113/113/113 103/103/103 115/115/115
f 116/116/116 103/103/103 114/114/114
f 115/115/115 103/103/103 117/117/117
f 118/118/118 103/103/103 116/116/116
f 117/117/117 103/103/103 119/119/119
f 120/120/120 103/103/103 118/118/118
f 119/119/119 103/103/103 121/121/121
f 122/122/122 103/103/103 120/120/120
f 121/121/121 103/103/103 122/122/122
