g pCylinder1
v 0.100000046 -0.1 -0.17320506
v 0.100000046 0.1 -0.17320506
v -0.09999997 0.1 -0.1732051
v -0.09999997 -0.1 -0.1732051
v -0.09999997 -0.1 -0.1732051
v -0.09999997 0.1 -0.1732051
v -0.2 0.1 -2.9802322E-08
v -0.2 -0.1 -2.9802322E-08
v -0.2 -0.1 -2.9802322E-08
v -0.2 0.1 -2.9802322E-08
v -0.100000024 0.1 0.17320508
v -0.100000024 -0.1 0.17320508
v -0.100000024 -0.1 0.17320508
v -0.100000024 0.1 0.17320508
v 0.099999994 0.1 0.17320509
v 0.099999994 -0.1 0.17320509
v 0.099999994 -0.1 0.17320509
v 0.099999994 0.1 0.17320509
v 0.2 0.1 0
v 0.2 -0.1 0
v 0.2 -0.1 0
v 0.2 0.1 0
v 0.100000046 0.1 -0.17320506
v 0.100000046 -0.1 -0.17320506
v 0.099999994 0.1 0.17320509
v -0 0.1 0
v 0.2 0.1 0
v -0.100000024 0.1 0.17320508
v 0.100000046 0.1 -0.17320506
v -0.2 0.1 -2.9802322E-08
v -0.09999997 0.1 -0.1732051
v 0.2 -0.1 0
v -0 -0.1 0
v 0.099999994 -0.1 0.17320509
v 0.100000046 -0.1 -0.17320506
v -0.100000024 -0.1 0.17320508
v -0.09999997 -0.1 -0.1732051
v -0.2 -0.1 -2.9802322E-08
vt 0.375 0.3125
vt 0.375 0.6875
vt 0.41674805 0.6875
vt 0.41674805 0.3125
vt 0.41674805 0.3125
vt 0.41674805 0.6875
vt 0.45825195 0.6875
vt 0.45825195 0.3125
vt 0.45825195 0.3125
vt 0.45825195 0.6875
vt 0.5 0.6875
vt 0.5 0.3125
vt 0.5 0.3125
vt 0.5 0.6875
vt 0.5415039 0.6875
vt 0.5415039 0.3125
vt 0.5415039 0.3125
vt 0.5415039 0.6875
vt 0.5834961 0.6875
vt 0.5834961 0.3125
vt 0.5834961 0.3125
vt 0.5834961 0.6875
vt 0.625 0.6875
vt 0.625 0.3125
vt 0.578125 0.7084961
vt 0.5 0.84375
vt 0.65625 0.84375
vt 0.421875 0.7084961
vt 0.578125 0.9790039
vt 0.34375 0.84375
vt 0.421875 0.9790039
vt 0.65625 0.15625
vt 0.5 0.15625
vt 0.578125 0.2915039
vt 0.578125 0.020935059
vt 0.421875 0.2915039
vt 0.421875 0.020935059
vt 0.34375 0.15625
vn -0 0 -1
vn -0 0 -1
vn -0 0 -1
vn -0 0 -1
vn -0.86621094 0 -0.5
vn -0.86621094 0 -0.5
vn -0.86621094 0 -0.5
vn -0.86621094 0 -0.5
vn -0.86621094 0 0.5
vn -0.86621094 0 0.5
vn -0.86621094 0 0.5
vn -0.86621094 0 0.5
vn -0 0 1
vn -0 0 1
vn -0 0 1
vn -0 0 1
vn 0.86621094 0 0.5
vn 0.86621094 0 0.5
vn 0.86621094 0 0.5
vn 0.86621094 0 0.5
vn 0.86621094 0 -0.5
vn 0.86621094 0 -0.5
vn 0.86621094 0 -0.5
vn 0.86621094 0 -0.5
vn -0 1 0
vn -0 1 0
vn -0 1 0
vn -0 1 0
vn -0 1 0
vn -0 1 0
vn -0 1 0
vn -0 -1 0
vn -0 -1 0
vn -0 -1 0
vn -0 -1 0
vn -0 -1 0
vn -0 -1 0
vn -0 -1 0
g pCylinder1_0
f 3/3/3 2/2/2 1/1/1
f 4/4/4 3/3/3 1/1/1
f 7/7/7 6/6/6 5/5/5
f 8/8/8 7/7/7 5/5/5
f 11/11/11 10/10/10 9/9/9
f 12/12/12 11/11/11 9/9/9
f 15/15/15 14/14/14 13/13/13
f 16/16/16 15/15/15 13/13/13
f 19/19/19 18/18/18 17/17/17
f 20/20/20 19/19/19 17/17/17
f 23/23/23 22/22/22 21/21/21
f 24/24/24 23/23/23 21/21/21
f 27/27/27 26/26/26 25/25/25
f 25/25/25 26/26/26 28/28/28
f 29/29/29 26/26/26 27/27/27
f 28/28/28 26/26/26 30/30/30
f 31/31/31 26/26/26 29/29/29
f 30/30/30 26/26/26 31/31/31
f 34/34/34 33/33/33 32/32/32
f 32/32/32 33/33/33 35/35/35
f 36/36/36 33/33/33 34/34/34
f 35/35/35 33/33/33 37/37/37
f 38/38/38 33/33/33 36/36/36
f 37/37/37 33/33/33 38/38/38
