g pCylinder1
v -6.0216517 0.87040186 0.94378823
v -11.22267 0.8704028 2.8820288
v -11.562193 0.8704028 0.75811565
v -0.07771917 1.0654178 5.979062
v 1.6611875 0.7193389 9.195492
v -1.8807428 0.7193394 7.995034
v 1.4078726 1.0654178 6.48257
v 2.9281 1.0654178 5.626252
v 5.0882754 0.7193389 7.265072
v 6.8793187 0.7193394 9.440031
v 0.0167749 0.7193394 11.6807
v 3.625491 0.7193394 11.103829
v 9.459751 0.7193394 6.852176
v 10.459554 0.7193394 4.882965
v 6.036851 0.7193389 3.3925042
v 2.9281 1.0654178 5.626252
v 6.78907 0.7193389 2.1546648
v 8.92097 0.88338137 0.18735728
v 11.363762 0.88338184 2.0031042
v 11.680706 0.88338184 -0.016774908
v 6.6345277 0.88338137 -3.468154
v 11.103827 0.88338184 -3.6254904
v 9.440028 0.88338184 -6.8793173
v 4.9525304 0.88338137 -7.5788593
v 6.8521743 0.88338184 -9.459748
v 5.0056696 0.88338184 -10.397251
v 4.08843 0.7193389 -2.163056
v 2.0912375 0.7193389 -7.0440807
v 2.172182 0.7193394 -11.337229
v 0.51994276 0.7193389 -6.230912
v 3.1112728 0.7193389 1.025633
v 2.8992658 0.7193389 -0.22673815
v -3.6254895 0.7193394 -11.103825
v -0.016774904 0.7193394 -11.680703
v -0.843634 0.7193389 -9.00402
v 3.244663 1.0654178 4.333882
v -0.8165066 1.0654178 4.4023485
v -0.07771917 1.0654178 5.979062
v -1.8807428 0.7193394 7.995034
v 2.1213293 1.0654178 3.4250748
v -1.2044083 0.7193389 0.5822697
v 0.007222303 1.0654178 3.2078862
v -3.6752656 0.7193389 4.1651793
v -3.6898599 0.71933746 0.89089173
v -0.1028693 0.7193389 -0.9505589
v -6.205472 0.71933794 -1.1193382
v -9.440025 0.7193394 6.8793144
v -10.756518 0.7193394 4.3046985
v -6.091972 0.7193389 2.9928694
v -11.22267 0.8704028 2.8820288
v -6.8224626 0.87040234 1.6445408
v -6.852173 0.7193394 9.459745
v 1.6611875 0.7193389 9.195492
v -3.5935812 0.7193394 11.114191
v -2.1026082 0.5663986 -7.462966
v -1.4145008 0.5663986 -6.0635614
v -5.0463204 0.5663986 -7.235087
v -3.4685056 0.5663986 -7.8207593
v -6.2182336 0.7193389 -8.730517
v -3.5626342 0.7193389 -9.716254
v -6.879316 0.7193394 -9.440027
v -9.459746 0.7193394 -6.8521733
v -1.4145008 0.5663986 -6.0635614
v -0.4078865 0.7193389 -3.0569959
v 1.5882969 0.7193389 -3.8499684
v -0.1028693 0.7193389 -0.9505589
v -1.9304936 0.5663986 -4.2984543
v -1.4145008 0.5663986 -6.0635614
v -5.883295 0.5663986 -6.007867
v -5.0463204 0.5663986 -7.235087
v -5.926865 0.5663986 -4.8782067
v -5.228543 0.5663986 -3.6965847
v -7.7569547 0.7193389 -4.4177737
v -7.6650367 0.7193389 -6.605812
v -6.2182336 0.7193389 -8.730517
v -9.459746 0.7193394 -6.8521733
v -11.114192 0.7193394 -3.593582
v -9.459746 0.7193394 -6.8521733
v -7.7569547 0.7193389 -4.4177737
v -6.3113627 0.71933746 -1.9717054
v -5.926865 0.5663986 -4.8782067
v -11.561731 0.7193394 -0.7414215
v -5.228543 0.5663986 -3.6965847
v -2.9861221 0.7193389 -1.6912571
v -3.363624 0.5663986 -3.5392988
v -1.9304936 0.5663986 -4.2984543
v -0.4078865 0.7193389 -3.0569959
v -0.1028693 0.7193389 -0.9505589
v -6.205472 0.71933794 -1.1193382
v -6.6871657 0.87040186 0.4098709
v -11.562193 0.8704028 0.75811565
v -6.0216517 0.87040186 0.94378823
v -3.6898599 0.71933746 0.89089173
v -6.8224626 0.87040234 1.6445408
v -11.22267 0.8704028 2.8820288
v -6.091972 0.7193389 2.9928694
v -3.6752656 0.7193389 4.1651793
v 4.08843 0.7193389 -2.163056
v 1.5882969 0.7193389 -3.8499684
v 0.51994276 0.7193389 -6.230912
v 2.8992658 0.7193389 -0.22673815
v 6.78907 0.7193389 2.1546648
v 1.8883753 0.8137381 -1.1315968
v 1.4513276 0.8137381 -2.339501
v -0.1028693 0.7193389 -0.9505589
v 0.8875304 0.8137381 -1.3729024
vt 0.4909668 0.6875
vt 0.5600586 0.6875
vt 0.5527344 0.6875
vt 0.42333984 0.6875
vt 0.43481445 0.6875
vt 0.4724121 0.6875
vt 0.40771484 0.6875
vt 0.40307617 0.6875
vt 0.3935547 0.6875
vt 0.38745117 0.6875
vt 0.6123047 0.6875
vt 0.375 0.6875
vt 0.39990234 0.6875
vt 0.4074707 0.6875
vt 0.4086914 0.6875
vt 0.40307617 0.6875
vt 0.41503906 0.6875
vt 0.42358398 0.6875
vt 0.41796875 0.6875
vt 0.42504883 0.6875
vt 0.43945312 0.6875
vt 0.4375 0.6875
vt 0.44995117 0.6875
vt 0.46069336 0.6875
vt 0.46240234 0.6875
vt 0.46948242 0.6875
vt 0.4375 0.6875
vt 0.46484375 0.6875
vt 0.47998047 0.6875
vt 0.4650879 0.6875
vt 0.42236328 0.6875
vt 0.43310547 0.6875
vt 0.5 0.6875
vt 0.48754883 0.6875
vt 0.4802246 0.6875
vt 0.40673828 0.6875
vt 0.43041992 0.6875
vt 0.42333984 0.6875
vt 0.4724121 0.6875
vt 0.41625977 0.6875
vt 0.44213867 0.6875
vt 0.4284668 0.6875
vt 0.46044922 0.6875
vt 0.46484375 0.6875
vt 0.4416504 0.6875
vt 0.49267578 0.6875
vt 0.5751953 0.6875
vt 0.5649414 0.6875
vt 0.4951172 0.6875
vt 0.5600586 0.6875
vt 0.50097656 0.6875
vt 0.58740234 0.6875
vt 0.43481445 0.6875
vt 0.60009766 0.6875
vt 0.47924805 0.6875
vt 0.47045898 0.6875
vt 0.49365234 0.6875
vt 0.4868164 0.6875
vt 0.5058594 0.6875
vt 0.49438477 0.6875
vt 0.5126953 0.6875
vt 0.52490234 0.6875
vt 0.47045898 0.6875
vt 0.45410156 0.6875
vt 0.44677734 0.6875
vt 0.4416504 0.6875
vt 0.4658203 0.6875
vt 0.47045898 0.6875
vt 0.4958496 0.6875
vt 0.49365234 0.6875
vt 0.49291992 0.6875
vt 0.484375 0.6875
vt 0.5073242 0.6875
vt 0.5107422 0.6875
vt 0.5058594 0.6875
vt 0.52490234 0.6875
vt 0.53759766 0.6875
vt 0.52490234 0.6875
vt 0.5073242 0.6875
vt 0.49267578 0.6875
vt 0.49291992 0.6875
vt 0.5473633 0.6875
vt 0.484375 0.6875
vt 0.4621582 0.6875
vt 0.47045898 0.6875
vt 0.4658203 0.6875
vt 0.45410156 0.6875
vt 0.4416504 0.6875
vt 0.49267578 0.6875
vt 0.4987793 0.6875
vt 0.5527344 0.6875
vt 0.4909668 0.6875
vt 0.46484375 0.6875
vt 0.50097656 0.6875
vt 0.5600586 0.6875
vt 0.4951172 0.6875
vt 0.46044922 0.6875
vt 0.4375 0.6875
vt 0.44677734 0.6875
vt 0.4650879 0.6875
vt 0.43310547 0.6875
vt 0.41503906 0.6875
vt 0.43774414 0.6875
vt 0.44262695 0.6875
vt 0.4416504 0.6875
vt 0.44067383 0.6875
vn 0.036743164 0.9995117 0.00017309189
vn 0.01285553 0.99902344 0.045715332
vn -0.0034484863 0.99902344 -0.048583984
vn -0.048828125 0.9975586 0.0519104
vn 0.00063943863 1 0.0058937073
vn -0.0062408447 1 0.0066375732
vn 0.007621765 0.9975586 0.07019043
vn 0.05557251 0.9975586 0.043426514
vn 0.0046958923 1 0.0036697388
vn -0 1 0
vn -0 1 0
vn -0 1 0
vn -0 1 0
vn -0.001791954 1 0.0024108887
vn 0.005001068 1 -0.0016498566
vn 0.05557251 0.9975586 0.043426514
vn -0.0033740997 1 0.00299263
vn -0.0118255615 1 0.010482788
vn -0.011123657 1 0.014961243
vn -0 1 0
vn -0.014129639 1 0.007217407
vn -0 1 0
vn -0 1 0
vn -0.015510559 1 0.003414154
vn -0 1 0
vn -0.017211914 1 -0.0003244877
vn -0.0045280457 1 0.002313614
vn -0.00434494 1 0.00095653534
vn -0.0029392242 1 -5.543232E-05
vn -0.0018634796 1 0.00012421608
vn 0.0023155212 1 -0.006164551
vn 0.0006504059 1 0.00037932396
vn -0 1 0
vn -0 1 0
vn -0.0013933182 1 0.0016307831
vn 0.066467285 0.9975586 -0.021911621
vn -0.07299805 0.9975586 -0.005458832
vn -0.048828125 0.9975586 0.0519104
vn -0.0062408447 1 0.0066375732
vn 0.024749756 0.9975586 -0.06585693
vn -0.0024204254 1 -0.005718231
vn -0.0289917 0.9970703 -0.068481445
vn -0.0042648315 1 -0.00031876564
vn 0.0014152527 1 0
vn -0.00052785873 1 0.00019109249
vn 0.00047516823 1 -0.0034828186
vn -0 1 0
vn 0.0015258789 1 0.0054244995
vn 0.0013933182 1 0.003194809
vn 0.01285553 0.99902344 0.045715332
vn 0.01776123 0.99902344 0.04071045
vn -0 1 0
vn 0.00063943863 1 0.0058937073
vn -0 1 0
vn -0.01612854 0.9995117 0.018875122
vn -0.025726318 0.9995117 0.0017166138
vn 0.013664246 0.9995117 0.018096924
vn 0.0013809204 0.9995117 0.022903442
vn 0.0013093948 1 0.0017328262
vn 0.00013315678 1 0.002210617
vn -0 1 0
vn -0 1 0
vn -0.025726318 0.9995117 0.0017166138
vn -0.0032348633 1 -0.0024986267
vn 4.553795E-05 1 -0.00018882751
vn -0.00052785873 1 0.00019109249
vn -0.020553589 0.9995117 -0.01586914
vn -0.025726318 0.9995117 0.0017166138
vn 0.018737793 1 0.0067825317
vn 0.013664246 0.9995117 0.018096924
vn 0.01953125 1 -0.0056533813
vn 0.012802124 0.9995117 -0.023101807
vn 0.005279541 1 -0.0015268326
vn 0.0017795563 1 0.000647068
vn 0.0013093948 1 0.0017328262
vn -0 1 0
vn -0 1 0
vn -0 1 0
vn 0.005279541 1 -0.0015268326
vn 0.0008068085 1 -0.001455307
vn 0.01953125 1 -0.0056533813
vn -0.0004479885 1 -0.006313324
vn 0.012802124 0.9995117 -0.023101807
vn -0.00044679642 1 -0.0024375916
vn -0.0044174194 0.9995117 -0.02407837
vn -0.020553589 0.9995117 -0.01586914
vn -0.0032348633 1 -0.0024986267
vn -0.00052785873 1 0.00019109249
vn 0.00047516823 1 -0.0034828186
vn 0.006526947 0.99902344 -0.048309326
vn -0.0034484863 0.99902344 -0.048583984
vn 0.036743164 0.9995117 0.00017309189
vn 0.0014152527 1 0
vn 0.01776123 0.99902344 0.04071045
vn 0.01285553 0.99902344 0.045715332
vn 0.0013933182 1 0.003194809
vn -0.0042648315 1 -0.00031876564
vn -0.0045280457 1 0.002313614
vn 4.553795E-05 1 -0.00018882751
vn -0.0018634796 1 0.00012421608
vn 0.0006504059 1 0.00037932396
vn -0.0033740997 1 0.00299263
vn 0.057250977 0.9975586 0.03338623
vn 0.013916016 0.9980469 -0.05770874
vn -0.00052785873 1 0.00019109249
vn -0.074645996 0.9970703 0.027023315
g pCylinder1_0
f 3/3/3 2/2/2 1/1/1
f 6/6/6 5/5/5 4/4/4
f 5/5/5 7/7/7 4/4/4
f 4/4/4 7/7/7 8/8/8
f 9/9/9 8/8/8 7/7/7
f 5/5/5 9/9/9 7/7/7
f 9/9/9 5/5/5 10/10/10
f 11/11/11 10/10/10 5/5/5
f 11/11/11 12/12/12 10/10/10
f 9/9/9 10/10/10 13/13/13
f 9/9/9 13/13/13 14/14/14
f 15/15/15 9/9/9 14/14/14
f 9/9/9 15/15/15 16/16/16
f 15/15/15 14/14/14 17/17/17
f 18/18/18 17/17/17 14/14/14
f 19/19/19 18/18/18 14/14/14
f 18/18/18 19/19/19 20/20/20
f 21/21/21 18/18/18 20/20/20
f 18/18/18 21/21/21 17/17/17
f 21/21/21 20/20/20 22/22/22
f 21/21/21 22/22/22 23/23/23
f 24/24/24 21/21/21 23/23/23
f 24/24/24 23/23/23 25/25/25
f 25/25/25 26/26/26 24/24/24
f 21/21/21 27/27/27 17/17/17
f 21/21/21 24/24/24 27/27/27
f 24/24/24 26/26/26 28/28/28
f 24/24/24 28/28/28 27/27/27
f 26/26/26 29/29/29 28/28/28
f 30/30/30 27/27/27 28/28/28
f 31/31/31 15/15/15 17/17/17
f 32/32/32 31/31/31 17/17/17
f 33/33/33 28/28/28 29/29/29
f 29/29/29 34/34/34 33/33/33
f 33/33/33 35/35/35 28/28/28
f 35/35/35 30/30/30 28/28/28
f 15/15/15 31/31/31 36/36/36
f 15/15/15 36/36/36 16/16/16
f 37/37/37 16/16/16 36/36/36
f 37/37/37 38/38/38 16/16/16
f 38/38/38 37/37/37 39/39/39
f 31/31/31 40/40/40 36/36/36
f 37/37/37 36/36/36 40/40/40
f 32/32/32 41/41/41 31/31/31
f 31/31/31 41/41/41 40/40/40
f 40/40/40 42/42/42 37/37/37
f 41/41/41 42/42/42 40/40/40
f 43/43/43 37/37/37 42/42/42
f 41/41/41 43/43/43 42/42/42
f 37/37/37 43/43/43 39/39/39
f 44/44/44 41/41/41 32/32/32
f 44/44/44 43/43/43 41/41/41
f 44/44/44 32/32/32 45/45/45
f 46/46/46 44/44/44 45/45/45
f 39/39/39 43/43/43 47/47/47
f 48/48/48 47/47/47 43/43/43
f 49/49/49 48/48/48 43/43/43
f 50/50/50 48/48/48 49/49/49
f 51/51/51 50/50/50 49/49/49
f 47/47/47 52/52/52 39/39/39
f 52/52/52 11/11/11 39/39/39
f 53/53/53 39/39/39 11/11/11
f 52/52/52 54/54/54 11/11/11
f 57/57/57 56/56/56 55/55/55
f 55/55/55 58/58/58 57/57/57
f 57/57/57 58/58/58 59/59/59
f 58/58/58 55/55/55 60/60/60
f 58/58/58 60/60/60 59/59/59
f 61/61/61 59/59/59 60/60/60
f 61/61/61 62/62/62 59/59/59
f 60/60/60 33/33/33 61/61/61
f 33/33/33 60/60/60 35/35/35
f 55/55/55 35/35/35 60/60/60
f 55/55/55 63/63/63 35/35/35
f 63/63/63 30/30/30 35/35/35
f 65/65/65 30/30/30 64/64/64
f 66/66/66 65/65/65 64/64/64
f 67/67/67 64/64/64 30/30/30
f 68/68/68 67/67/67 30/30/30
f 69/69/69 67/67/67 68/68/68
f 70/70/70 69/69/69 68/68/68
f 69/69/69 71/71/71 67/67/67
f 71/71/71 72/72/72 67/67/67
f 71/71/71 69/69/69 73/73/73
f 69/69/69 70/70/70 74/74/74
f 69/69/69 74/74/74 73/73/73
f 70/70/70 75/75/75 74/74/74
f 76/76/76 73/73/73 74/74/74
f 76/76/76 74/74/74 75/75/75
f 79/79/79 78/78/78 77/77/77
f 80/80/80 79/79/79 77/77/77
f 79/79/79 80/80/80 81/81/81
f 80/80/80 77/77/77 82/82/82
f 80/80/80 83/83/83 81/81/81
f 83/83/83 80/80/80 84/84/84
f 82/82/82 84/84/84 80/80/80
f 85/85/85 83/83/83 84/84/84
f 83/83/83 85/85/85 86/86/86
f 86/86/86 85/85/85 87/87/87
f 85/85/85 84/84/84 87/87/87
f 88/88/88 87/87/87 84/84/84
f 84/84/84 89/89/89 88/88/88
f 82/82/82 89/89/89 84/84/84
f 90/90/90 89/89/89 82/82/82
f 91/91/91 90/90/90 82/82/82
f 92/92/92 90/90/90 91/91/91
f 90/90/90 92/92/92 89/89/89
f 92/92/92 93/93/93 89/89/89
f 92/92/92 94/94/94 93/93/93
f 95/95/95 94/94/94 92/92/92
f 94/94/94 96/96/96 93/93/93
f 93/93/93 96/96/96 97/97/97
f 100/100/100 99/99/99 98/98/98
f 99/99/99 101/101/101 98/98/98
f 101/101/101 102/102/102 98/98/98
f 103/103/103 101/101/101 99/99/99
f 104/104/104 103/103/103 99/99/99
f 99/99/99 105/105/105 104/104/104
f 106/106/106 105/105/105 101/101/101
f 103/103/103 106/106/106 101/101/101
f 105/105/105 106/106/106 104/104/104
f 106/106/106 103/103/103 104/104/104
