g pCylinder2
v 0.50000024 -0.250025 -0.8660253
v -0.49999985 -0.250025 -0.8660255
v -0.35567677 -0.5 -0.6160505
v 0.35567707 -0.5 -0.61605036
v 0.35567707 -0.5 -0.61605036
v 0.7113537 -0.5 -2.4921935E-08
v 1 -0.250025 0
v 0.50000024 -0.250025 -0.8660253
v -0.49999985 -0.250025 -0.8660255
v -1 -0.250025 -1.4901161E-07
v -0.7113537 -0.5 -1.0258386E-07
v -0.35567677 -0.5 -0.6160505
v -1 -0.250025 -1.4901161E-07
v -0.5000001 -0.250025 0.8660254
v -0.35567695 -0.5 0.6160504
v -0.7113537 -0.5 -1.0258386E-07
v -0.5000001 -0.250025 0.8660254
v 0.49999997 -0.250025 0.86602545
v 0.35567683 -0.5 0.6160504
v -0.35567695 -0.5 0.6160504
v 0.49999997 -0.250025 0.86602545
v 1 -0.250025 0
v 0.7113537 -0.5 -2.4921935E-08
v 0.35567683 -0.5 0.6160504
v 0.50000024 -0.250025 -0.8660253
v 0.50000024 0.250025 -0.8660253
v -0.49999985 0.250025 -0.8660255
v -0.49999985 -0.250025 -0.8660255
v -0.49999985 -0.250025 -0.8660255
v -0.49999985 0.250025 -0.8660255
v -1 0.250025 -1.4901161E-07
v -1 -0.250025 -1.4901161E-07
v -1 -0.250025 -1.4901161E-07
v -1 0.250025 -1.4901161E-07
v -0.5000001 0.250025 0.8660254
v -0.5000001 -0.250025 0.8660254
v -0.5000001 -0.250025 0.8660254
v -0.5000001 0.250025 0.8660254
v 0.49999997 0.250025 0.86602545
v 0.49999997 -0.250025 0.86602545
v 0.49999997 -0.250025 0.86602545
v 0.49999997 0.250025 0.86602545
v 1 0.250025 0
v 1 -0.250025 0
v 1 -0.250025 0
v 1 0.250025 0
v 0.50000024 0.250025 -0.8660253
v 0.50000024 -0.250025 -0.8660253
v 0.7113537 -0.5 -2.4921935E-08
v -0 -0.5 0
v 0.35567683 -0.5 0.6160504
v 0.35567707 -0.5 -0.61605036
v -0.35567695 -0.5 0.6160504
v -0.35567677 -0.5 -0.6160505
v -0.7113537 -0.5 -1.0258386E-07
v 0.50000024 0.250025 -0.8660253
v 1 0.250025 0
v 0.7113537 0.5 -2.4921935E-08
v 0.35567707 0.5 -0.61605036
v 0.35567707 0.5 -0.61605036
v -0.35567677 0.5 -0.6160505
v -0.49999985 0.250025 -0.8660255
v 0.50000024 0.250025 -0.8660253
v -0.35567677 0.5 -0.6160505
v -0.7113537 0.5 -1.0258386E-07
v -1 0.250025 -1.4901161E-07
v -0.49999985 0.250025 -0.8660255
v -0.7113537 0.5 -1.0258386E-07
v -0.35567695 0.5 0.6160504
v -0.5000001 0.250025 0.8660254
v -1 0.250025 -1.4901161E-07
v -0.35567695 0.5 0.6160504
v 0.35567683 0.5 0.6160504
v 0.49999997 0.250025 0.86602545
v -0.5000001 0.250025 0.8660254
v 0.35567683 0.5 0.6160504
v 0.7113537 0.5 -2.4921935E-08
v 1 0.250025 0
v 0.49999997 0.250025 0.86602545
v 0.35567683 0.5 0.6160504
v -0 0.5 0
v 0.7113537 0.5 -2.4921935E-08
v -0.35567695 0.5 0.6160504
v 0.35567707 0.5 -0.61605036
v -0.7113537 0.5 -1.0258386E-07
v -0.35567677 0.5 -0.6160505
vt 0.375 0.40625
vt 0.41674805 0.40625
vt 0.41064453 0.3125
vt 0.38110352 0.3125
vt 0.6191406 0.3125
vt 0.58935547 0.3125
vt 0.5834961 0.40625
vt 0.625 0.40625
vt 0.41674805 0.40625
vt 0.45825195 0.40625
vt 0.45239258 0.3125
vt 0.42260742 0.3125
vt 0.45825195 0.40625
vt 0.5 0.40625
vt 0.49389648 0.3125
vt 0.46435547 0.3125
vt 0.5 0.40625
vt 0.5415039 0.40625
vt 0.53564453 0.3125
vt 0.5058594 0.3125
vt 0.5415039 0.40625
vt 0.5834961 0.40625
vt 0.57714844 0.3125
vt 0.54785156 0.3125
vt 0.375 0.40625
vt 0.375 0.59375
vt 0.41674805 0.59375
vt 0.41674805 0.40625
vt 0.41674805 0.40625
vt 0.41674805 0.59375
vt 0.45825195 0.59375
vt 0.45825195 0.40625
vt 0.45825195 0.40625
vt 0.45825195 0.59375
vt 0.5 0.59375
vt 0.5 0.40625
vt 0.5 0.40625
vt 0.5 0.59375
vt 0.5415039 0.59375
vt 0.5415039 0.40625
vt 0.5415039 0.40625
vt 0.5415039 0.59375
vt 0.5834961 0.59375
vt 0.5834961 0.40625
vt 0.5834961 0.40625
vt 0.5834961 0.59375
vt 0.625 0.59375
vt 0.625 0.40625
vt 0.6113281 0.15625
vt 0.5 0.15625
vt 0.55566406 0.2524414
vt 0.55566406 0.05999756
vt 0.44433594 0.2524414
vt 0.44433594 0.05999756
vt 0.38891602 0.15625
vt 0.625 0.59375
vt 0.5834961 0.59375
vt 0.58935547 0.6875
vt 0.6191406 0.6875
vt 0.38110352 0.6875
vt 0.41064453 0.6875
vt 0.41674805 0.59375
vt 0.375 0.59375
vt 0.42260742 0.6875
vt 0.45239258 0.6875
vt 0.45825195 0.59375
vt 0.41674805 0.59375
vt 0.46435547 0.6875
vt 0.49389648 0.6875
vt 0.5 0.59375
vt 0.45825195 0.59375
vt 0.5058594 0.6875
vt 0.53564453 0.6875
vt 0.5415039 0.59375
vt 0.5 0.59375
vt 0.54785156 0.6875
vt 0.57714844 0.6875
vt 0.5834961 0.59375
vt 0.5415039 0.59375
vt 0.55566406 0.7475586
vt 0.5 0.84375
vt 0.6113281 0.84375
vt 0.44433594 0.7475586
vt 0.55566406 0.9399414
vt 0.38891602 0.84375
vt 0.44433594 0.9399414
vn -0 -0.70703125 -0.70703125
vn -0 -0.70703125 -0.70703125
vn -0 -0.70703125 -0.70703125
vn -0 -0.70703125 -0.70703125
vn 0.6123047 -0.70703125 -0.35351562
vn 0.6123047 -0.70703125 -0.35351562
vn 0.6123047 -0.70703125 -0.35351562
vn 0.6123047 -0.70703125 -0.35351562
vn -0.6123047 -0.70703125 -0.35351562
vn -0.6123047 -0.70703125 -0.35351562
vn -0.6123047 -0.70703125 -0.35351562
vn -0.6123047 -0.70703125 -0.35351562
vn -0.6123047 -0.70703125 0.35351562
vn -0.6123047 -0.70703125 0.35351562
vn -0.6123047 -0.70703125 0.35351562
vn -0.6123047 -0.70703125 0.35351562
vn -0 -0.70703125 0.70703125
vn -0 -0.70703125 0.70703125
vn -0 -0.70703125 0.70703125
vn -0 -0.70703125 0.70703125
vn 0.6123047 -0.70703125 0.35351562
vn 0.6123047 -0.70703125 0.35351562
vn 0.6123047 -0.70703125 0.35351562
vn 0.6123047 -0.70703125 0.35351562
vn -0 0 -1
vn -0 0 -1
vn -0 0 -1
vn -0 0 -1
vn -0.86621094 0 -0.5
vn -0.86621094 0 -0.5
vn -0.86621094 0 -0.5
vn -0.86621094 0 -0.5
vn -0.86621094 0 0.5
vn -0.86621094 0 0.5
vn -0.86621094 0 0.5
vn -0.86621094 0 0.5
vn -0 0 1
vn -0 0 1
vn -0 0 1
vn -0 0 1
vn 0.86621094 0 0.5
vn 0.86621094 0 0.5
vn 0.86621094 0 0.5
vn 0.86621094 0 0.5
vn 0.86621094 0 -0.5
vn 0.86621094 0 -0.5
vn 0.86621094 0 -0.5
vn 0.86621094 0 -0.5
vn -0 -1 0
vn -0 -1 0
vn -0 -1 0
vn -0 -1 0
vn -0 -1 0
vn -0 -1 0
vn -0 -1 0
vn 0.6123047 0.70703125 -0.35351562
vn 0.6123047 0.70703125 -0.35351562
vn 0.6123047 0.70703125 -0.35351562
vn 0.6123047 0.70703125 -0.35351562
vn -0 0.70703125 -0.70703125
vn -0 0.70703125 -0.70703125
vn -0 0.70703125 -0.70703125
vn -0 0.70703125 -0.70703125
vn -0.6123047 0.70703125 -0.35351562
vn -0.6123047 0.70703125 -0.35351562
vn -0.6123047 0.70703125 -0.35351562
vn -0.6123047 0.70703125 -0.35351562
vn -0.6123047 0.70703125 0.35351562
vn -0.6123047 0.70703125 0.35351562
vn -0.6123047 0.70703125 0.35351562
vn -0.6123047 0.70703125 0.35351562
vn -0 0.70703125 0.70703125
vn -0 0.70703125 0.70703125
vn -0 0.70703125 0.70703125
vn -0 0.70703125 0.70703125
vn 0.6123047 0.70703125 0.35351562
vn 0.6123047 0.70703125 0.35351562
vn 0.6123047 0.70703125 0.35351562
vn 0.6123047 0.70703125 0.35351562
vn -0 1 0
vn -0 1 0
vn -0 1 0
vn -0 1 0
vn -0 1 0
vn -0 1 0
vn -0 1 0
g pCylinder2_0
f 3/3/3 2/2/2 1/1/1
f 4/4/4 3/3/3 1/1/1
f 7/7/7 6/6/6 5/5/5
f 8/8/8 7/7/7 5/5/5
f 11/11/11 10/10/10 9/9/9
f 12/12/12 11/11/11 9/9/9
f 15/15/15 14/14/14 13/13/13
f 16/16/16 15/15/15 13/13/13
f 19/19/19 18/18/18 17/17/17
f 20/20/20 19/19/19 17/17/17
f 23/23/23 22/22/22 21/21/21
f 24/24/24 23/23/23 21/21/21
f 27/27/27 26/26/26 25/25/25
f 28/28/28 27/27/27 25/25/25
f 31/31/31 30/30/30 29/29/29
f 32/32/32 31/31/31 29/29/29
f 35/35/35 34/34/34 33/33/33
f 36/36/36 35/35/35 33/33/33
f 39/39/39 38/38/38 37/37/37
f 40/40/40 39/39/39 37/37/37
f 43/43/43 42/42/42 41/41/41
f 44/44/44 43/43/43 41/41/41
f 47/47/47 46/46/46 45/45/45
f 48/48/48 47/47/47 45/45/45
f 51/51/51 50/50/50 49/49/49
f 49/49/49 50/50/50 52/52/52
f 53/53/53 50/50/50 51/51/51
f 52/52/52 50/50/50 54/54/54
f 55/55/55 50/50/50 53/53/53
f 54/54/54 50/50/50 55/55/55
g pCylinder2_1
f 58/58/58 57/57/57 56/56/56
f 59/59/59 58/58/58 56/56/56
f 62/62/62 61/61/61 60/60/60
f 63/63/63 62/62/62 60/60/60
f 66/66/66 65/65/65 64/64/64
f 67/67/67 66/66/66 64/64/64
f 70/70/70 69/69/69 68/68/68
f 71/71/71 70/70/70 68/68/68
f 74/74/74 73/73/73 72/72/72
f 75/75/75 74/74/74 72/72/72
f 78/78/78 77/77/77 76/76/76
f 79/79/79 78/78/78 76/76/76
f 82/82/82 81/81/81 80/80/80
f 80/80/80 81/81/81 83/83/83
f 84/84/84 81/81/81 82/82/82
f 83/83/83 81/81/81 85/85/85
f 86/86/86 81/81/81 84/84/84
f 85/85/85 81/81/81 86/86/86
