g pCylinder1
v 6.028606 0.5 -1.3978463
v 5.7165093 0.8842583 -2.378043
v 5.944107 5E-05 -1.9313574
v -0.27389324 1.1275389 -3.0514083
v 1.2920318 1.1275389 -3.1002014
v 0.40330523 1.1275389 -1.7389814
v 5.944107 5E-05 -1.9313574
v 5.7165093 0.8842583 -2.378043
v 5.05636 0.8842583 -3.67366
v 5.944107 -0.5 -1.9313574
v 5.05636 -0.5 -3.67366
v 3.67366 0.8842583 -5.0563593
v 3.67366 -0.5 -5.0563593
v 1.9313571 0.8842583 -5.9441066
v 1.9313571 -0.5 -5.9441066
v -0 0.8842583 -6.250003
v -0 -0.5 -6.250003
v -1.9313571 0.8842583 -5.944106
v -1.9313571 -0.5 -5.944106
v -3.6736593 0.8842583 -5.0563583
v -3.6736593 -0.5 -5.0563583
v -5.056358 0.8842583 -3.6736588
v -5.056358 -0.5 -3.6736588
v -5.9441047 0.19219835 -1.9313567
v -5.629893 0.8842583 -2.548032
v -6.057499 0.5240195 -1.215413
v -5.9441047 -0.5 -1.9313567
v -6.2500014 0.5240195 0
v -6.2500014 -0.5 0
v -5.9441047 0.5240195 1.9313567
v -5.9441047 -0.5 1.9313567
v -5.0563574 0.5240195 3.6736586
v -5.0563574 -0.5 3.6736586
v -4.197344 0.5240195 4.532672
v -3.6736586 -0.5 5.056357
v -3.6736586 0.19219835 5.056357
v -3.0562599 0.8842583 5.3709373
v -1.9313567 -0.5 5.944104
v -1.9313567 0.8842583 5.944104
v -0.49473268 0.8842583 6.1716433
v -1.8626451E-07 -0.5 6.250001
v -1.8626451E-07 5E-05 6.250001
v 0.5308267 0.5 6.165926
v 1.9313561 -0.5 5.9441037
v 1.9313561 0.5 5.9441037
v 3.673658 0.5 5.0563564
v 3.673658 -0.5 5.0563564
v 5.0563564 0.5 3.6736581
v 5.0563564 -0.5 3.6736581
v 5.9441032 0.5 1.9313563
v 5.9441032 -0.5 1.9313563
v 6.25 0.5 0
v 6.25 -0.5 0
v 5.944107 5E-05 -1.9313574
v 5.944107 -0.5 -1.9313574
v 6.028606 0.5 -1.3978463
v 1.9313571 -0.5 -5.9441066
v -0 -0.5 -6.250003
v -1.9313571 -0.5 -5.944106
v 3.67366 -0.5 -5.0563593
v -3.6736593 -0.5 -5.0563583
v 5.05636 -0.5 -3.67366
v -5.056358 -0.5 -3.6736588
v 5.944107 -0.5 -1.9313574
v -5.9441047 -0.5 -1.9313567
v 6.25 -0.5 0
v -6.2500014 -0.5 0
v 5.9441032 -0.5 1.9313563
v -5.9441047 -0.5 1.9313567
v 5.0563564 -0.5 3.6736581
v -5.0563574 -0.5 3.6736586
v 3.673658 -0.5 5.0563564
v -3.6736586 -0.5 5.056357
v 1.9313561 -0.5 5.9441037
v -1.9313567 -0.5 5.944104
v -1.8626451E-07 -0.5 6.250001
v -0.49473268 0.8842583 6.1716433
v 1.2184724 0.5 3.071368
v 0.5308267 0.5 6.165926
v 0.29196164 0.8842583 2.631344
v 3.5666556 0.5 0.0959472
v 2.8936043 0.8842583 -0.6652392
v 6.028606 0.5 -1.3978463
v 5.7165093 0.8842583 -2.378043
v 3.5666556 0.5 0.0959472
v 6.028606 0.5 -1.3978463
v 6.25 0.5 0
v 5.9441032 0.5 1.9313563
v 1.2184724 0.5 3.071368
v 5.0563564 0.5 3.6736581
v 0.5308267 0.5 6.165926
v 3.673658 0.5 5.0563564
v 1.9313561 0.5 5.9441037
v -4.197344 0.5240195 4.532672
v -1.6117743 0.88425803 2.1478364
v -3.0562599 0.8842583 5.3709373
v -3.0972214 0.52401924 2.0779536
v -2.7172847 0.884258 -1.1082686
v -3.8438654 0.52401924 -0.121167384
v -5.629893 0.8842583 -2.548032
v -6.057499 0.5240195 -1.215413
v -6.2500014 0.5240195 0
v -6.057499 0.5240195 -1.215413
v -3.8438654 0.52401924 -0.121167384
v -3.0972214 0.52401924 2.0779536
v -5.9441047 0.5240195 1.9313567
v -5.0563574 0.5240195 3.6736586
v -4.197344 0.5240195 4.532672
v 0.3126791 0.8842579 0.03564751
v -1.6117743 0.88425803 2.1478364
v -2.7172847 0.884258 -1.1082686
v -5.629893 0.8842583 -2.548032
v -5.056358 0.8842583 -3.6736588
v -1.7186452 0.8842579 -3.9011083
v -3.6736593 0.8842583 -5.0563583
v -1.9313571 0.8842583 -5.944106
v -0 0.8842583 -6.250003
v 1.9313571 0.8842583 -5.9441066
v 3.67366 0.8842583 -5.0563593
v 2.978503 0.884258 -4.047469
v 5.05636 0.8842583 -3.67366
v 0.3126791 0.8842579 0.03564751
v 5.7165093 0.8842583 -2.378043
v 2.8936043 0.8842583 -0.6652392
v 0.3126791 0.8842579 0.03564751
v 0.29196164 0.8842583 2.631344
v -1.6117743 0.88425803 2.1478364
v -3.0562599 0.8842583 5.3709373
v -0.49473268 0.8842583 6.1716433
v -1.9313567 0.8842583 5.944104
v 0.3126791 0.8842579 0.03564751
v -1.7186452 0.8842579 -3.9011083
v -0.27389324 1.1275389 -3.0514083
v 0.40330523 1.1275389 -1.7389814
v 1.2920318 1.1275389 -3.1002014
v 2.978503 0.884258 -4.047469
vt 0.44067383 0.6875
vt 0.37817383 0.6875
vt 0.375 0.5
vt 0.42797852 0.6875
vt 0.4206543 0.6875
vt 0.42700195 0.6875
vt 0.375 0.5
vt 0.37817383 0.6875
vt 0.38745117 0.6875
vt 0.375 0.3125
vt 0.38745117 0.3125
vt 0.39990234 0.6875
vt 0.39990234 0.3125
vt 0.41259766 0.6875
vt 0.41259766 0.3125
vt 0.42504883 0.6875
vt 0.42504883 0.3125
vt 0.4375 0.6875
vt 0.4375 0.3125
vt 0.44995117 0.6875
vt 0.44995117 0.3125
vt 0.46240234 0.6875
vt 0.46240234 0.3125
vt 0.47509766 0.5
vt 0.47045898 0.6875
vt 0.47973633 0.6875
vt 0.47509766 0.3125
vt 0.48754883 0.6875
vt 0.48754883 0.3125
vt 0.5 0.6875
vt 0.5 0.3125
vt 0.5126953 0.6875
vt 0.5126953 0.3125
vt 0.5205078 0.6875
vt 0.52490234 0.3125
vt 0.52490234 0.5
vt 0.5292969 0.6875
vt 0.53759766 0.3125
vt 0.53759766 0.6875
vt 0.546875 0.6875
vt 0.5498047 0.3125
vt 0.5498047 0.5
vt 0.55322266 0.6875
vt 0.5625 0.3125
vt 0.5625 0.6875
vt 0.5751953 0.6875
vt 0.5751953 0.3125
vt 0.58740234 0.6875
vt 0.58740234 0.3125
vt 0.60009766 0.6875
vt 0.60009766 0.3125
vt 0.6123047 0.6875
vt 0.6123047 0.3125
vt 0.625 0.5
vt 0.625 0.3125
vt 0.62158203 0.6875
vt 0.41259766 0.3125
vt 0.42504883 0.3125
vt 0.4375 0.3125
vt 0.39990234 0.3125
vt 0.44995117 0.3125
vt 0.38745117 0.3125
vt 0.46240234 0.3125
vt 0.625 0.3125
vt 0.47509766 0.3125
vt 0.6123047 0.3125
vt 0.48754883 0.3125
vt 0.60009766 0.3125
vt 0.5 0.3125
vt 0.58740234 0.3125
vt 0.5126953 0.3125
vt 0.5751953 0.3125
vt 0.52490234 0.3125
vt 0.5625 0.3125
vt 0.53759766 0.3125
vt 0.5498047 0.3125
vt 0.546875 0.6875
vt 0.4885254 0.6875
vt 0.55322266 0.6875
vt 0.4753418 0.6875
vt 0.44067383 0.6875
vt 0.41430664 0.6875
vt 0.44067383 0.6875
vt 0.37817383 0.6875
vt 0.44067383 0.6875
vt 0.44067383 0.6875
vt 0.6123047 0.6875
vt 0.60009766 0.6875
vt 0.4885254 0.6875
vt 0.58740234 0.6875
vt 0.55322266 0.6875
vt 0.5751953 0.6875
vt 0.5625 0.6875
vt 0.5205078 0.6875
vt 0.4802246 0.6875
vt 0.5292969 0.6875
vt 0.48754883 0.6875
vt 0.46191406 0.6875
vt 0.4741211 0.6875
vt 0.47045898 0.6875
vt 0.47973633 0.6875
vt 0.48754883 0.6875
vt 0.47973633 0.6875
vt 0.4741211 0.6875
vt 0.48754883 0.6875
vt 0.5 0.6875
vt 0.5126953 0.6875
vt 0.5205078 0.6875
vt 0.43481445 0.6875
vt 0.4802246 0.6875
vt 0.46191406 0.6875
vt 0.47045898 0.6875
vt 0.46240234 0.6875
vt 0.43286133 0.6875
vt 0.44995117 0.6875
vt 0.4375 0.6875
vt 0.42504883 0.6875
vt 0.41259766 0.6875
vt 0.39990234 0.6875
vt 0.41064453 0.6875
vt 0.38745117 0.6875
vt 0.43481445 0.6875
vt 0.37817383 0.6875
vt 0.41430664 0.6875
vt 0.43481445 0.6875
vt 0.4753418 0.6875
vt 0.4802246 0.6875
vt 0.5292969 0.6875
vt 0.546875 0.6875
vt 0.53759766 0.6875
vt 0.43481445 0.6875
vt 0.43286133 0.6875
vt 0.42797852 0.6875
vt 0.42700195 0.6875
vt 0.4206543 0.6875
vt 0.41064453 0.6875
vn 0.9863281 0.009788513 -0.16540527
vn 0.8955078 0.005443573 -0.4453125
vn 0.94140625 0.0049858093 -0.33789062
vn -0 1 0
vn -0 1 0
vn -0 1 0
vn 0.94140625 0.0049858093 -0.33789062
vn 0.8955078 0.005443573 -0.4453125
vn 0.8051758 0 -0.5932617
vn 0.9433594 0 -0.3322754
vn 0.8051758 0 -0.5932617
vn 0.5878906 0 -0.80908203
vn 0.5878906 0 -0.80908203
vn 0.30908203 0 -0.9511719
vn 0.30908203 0 -0.9511719
vn -0 0 -1
vn -0 0 -1
vn -0.30908203 0 -0.9511719
vn -0.30908203 0 -0.9511719
vn -0.5878906 0 -0.80908203
vn -0.5878906 0 -0.80908203
vn -0.8046875 0 -0.59375
vn -0.8046875 0 -0.59375
vn -0.94189453 0.014465332 -0.33520508
vn -0.89404297 0.0071029663 -0.4477539
vn -0.9868164 0.010093689 -0.16101074
vn -0.94433594 0 -0.32910156
vn -1 0 0.004901886
vn -1 0 0.004901886
vn -0.9511719 0 0.30908203
vn -0.9511719 0 0.30908203
vn -0.8120117 0 0.5834961
vn -0.8120117 0 0.5834961
vn -0.7036133 0.010147095 0.7104492
vn -0.5703125 0 0.82128906
vn -0.5649414 0.01486969 0.82470703
vn -0.46044922 0.007293701 0.8876953
vn -0.3083496 0 0.9511719
vn -0.3083496 0 0.9511719
vn -0.14697266 0.005405426 0.9892578
vn -0.024429321 0 0.9995117
vn -0.03036499 0.0049438477 0.9995117
vn 0.14746094 0.009765625 0.9892578
vn 0.31445312 0 0.94921875
vn 0.31445312 0 0.94921875
vn 0.5878906 0 0.80908203
vn 0.5878906 0 0.80908203
vn 0.80908203 0 0.5878906
vn 0.80908203 0 0.5878906
vn 0.9511719 0 0.30908203
vn 0.9511719 0 0.30908203
vn 1 0 0.0056648254
vn 1 0 0.0056648254
vn 0.94140625 0.0049858093 -0.33789062
vn 0.9433594 0 -0.3322754
vn 0.9863281 0.009788513 -0.16540527
vn -0 -1 0
vn -0 -1 0
vn -0 -1 0
vn -0 -1 0
vn -0 -1 0
vn -0 -1 0
vn -0 -1 0
vn -0 -1 0
vn -0 -1 0
vn -0 -1 0
vn -0 -1 0
vn -0 -1 0
vn -0 -1 0
vn -0 -1 0
vn -0 -1 0
vn -0 -1 0
vn -0 -1 0
vn -0 -1 0
vn -0 -1 0
vn -0 -1 0
vn 0.35009766 0.93359375 0.077819824
vn 0.31420898 0.93652344 0.15637207
vn 0.35009766 0.93359375 0.077819824
vn 0.31420898 0.93652344 0.15637207
vn 0.24035645 0.9355469 0.25952148
vn 0.24035645 0.9355469 0.25952148
vn 0.18603516 0.93359375 0.30664062
vn 0.18603516 0.93359375 0.30664062
vn -0 1 0
vn -0 1 0
vn -0 1 0
vn -0 1 0
vn -0 1 0
vn -0 1 0
vn -0 1 0
vn -0 1 0
vn -0 1 0
vn -0.2298584 0.96777344 -0.103027344
vn -0.23498535 0.9716797 -0.01461792
vn -0.2298584 0.96777344 -0.103027344
vn -0.23498535 0.9716797 -0.01461792
vn -0.17614746 0.97216797 0.1538086
vn -0.17614746 0.97216797 0.1538086
vn -0.1116333 0.96777344 0.22583008
vn -0.1116333 0.96777344 0.22583008
vn -0 1 0
vn -0 1 0
vn -0 1 0
vn -0 1 0
vn -0 1 0
vn -0 1 0
vn -0 1 0
vn -0 1 0
vn -0 1 0
vn -0 1 0
vn -0 1 0
vn -0 1 0
vn -0 1 0
vn -0 1 0
vn -0 1 0
vn -0 1 0
vn -0 1 0
vn -0 1 0
vn -0 1 0
vn -0 1 0
vn -0 1 0
vn -0 1 0
vn -0 1 0
vn -0 1 0
vn -0 1 0
vn -0 1 0
vn -0 1 0
vn -0 1 0
vn -0 1 0
vn 0.0042381287 0.99072266 0.13598633
vn -0.12042236 0.9897461 -0.07861328
vn -0.12042236 0.9897461 -0.07861328
vn 0.0042381287 0.99072266 0.13598633
vn 0.110961914 0.9921875 -0.057250977
vn 0.110961914 0.9921875 -0.057250977
g pCylinder1_0
f 3/3/3 2/2/2 1/1/1
f 6/6/6 5/5/5 4/4/4
f 9/9/9 8/8/8 7/7/7
f 9/9/9 7/7/7 10/10/10
f 10/10/10 11/11/11 9/9/9
f 12/12/12 9/9/9 11/11/11
f 13/13/13 12/12/12 11/11/11
f 14/14/14 12/12/12 13/13/13
f 15/15/15 14/14/14 13/13/13
f 16/16/16 14/14/14 15/15/15
f 17/17/17 16/16/16 15/15/15
f 18/18/18 16/16/16 17/17/17
f 19/19/19 18/18/18 17/17/17
f 20/20/20 18/18/18 19/19/19
f 21/21/21 20/20/20 19/19/19
f 22/22/22 20/20/20 21/21/21
f 23/23/23 22/22/22 21/21/21
f 24/24/24 22/22/22 23/23/23
f 24/24/24 25/25/25 22/22/22
f 24/24/24 26/26/26 25/25/25
f 23/23/23 27/27/27 24/24/24
f 28/28/28 26/26/26 24/24/24
f 28/28/28 24/24/24 27/27/27
f 27/27/27 29/29/29 28/28/28
f 30/30/30 28/28/28 29/29/29
f 31/31/31 30/30/30 29/29/29
f 32/32/32 30/30/30 31/31/31
f 33/33/33 32/32/32 31/31/31
f 34/34/34 32/32/32 33/33/33
f 34/34/34 33/33/33 35/35/35
f 35/35/35 36/36/36 34/34/34
f 36/36/36 37/37/37 34/34/34
f 37/37/37 36/36/36 35/35/35
f 37/37/37 35/35/35 38/38/38
f 38/38/38 39/39/39 37/37/37
f 40/40/40 39/39/39 38/38/38
f 40/40/40 38/38/38 41/41/41
f 41/41/41 42/42/42 40/40/40
f 42/42/42 43/43/43 40/40/40
f 43/43/43 42/42/42 41/41/41
f 43/43/43 41/41/41 44/44/44
f 44/44/44 45/45/45 43/43/43
f 46/46/46 45/45/45 44/44/44
f 47/47/47 46/46/46 44/44/44
f 48/48/48 46/46/46 47/47/47
f 49/49/49 48/48/48 47/47/47
f 50/50/50 48/48/48 49/49/49
f 51/51/51 50/50/50 49/49/49
f 52/52/52 50/50/50 51/51/51
f 53/53/53 52/52/52 51/51/51
f 54/54/54 52/52/52 53/53/53
f 53/53/53 55/55/55 54/54/54
f 54/54/54 56/56/56 52/52/52
f 59/59/59 58/58/58 57/57/57
f 57/57/57 60/60/60 59/59/59
f 60/60/60 61/61/61 59/59/59
f 60/60/60 62/62/62 61/61/61
f 62/62/62 63/63/63 61/61/61
f 62/62/62 64/64/64 63/63/63
f 64/64/64 65/65/65 63/63/63
f 64/64/64 66/66/66 65/65/65
f 66/66/66 67/67/67 65/65/65
f 66/66/66 68/68/68 67/67/67
f 68/68/68 69/69/69 67/67/67
f 68/68/68 70/70/70 69/69/69
f 70/70/70 71/71/71 69/69/69
f 70/70/70 72/72/72 71/71/71
f 72/72/72 73/73/73 71/71/71
f 72/72/72 74/74/74 73/73/73
f 74/74/74 75/75/75 73/73/73
f 74/74/74 76/76/76 75/75/75
f 79/79/79 78/78/78 77/77/77
f 78/78/78 80/80/80 77/77/77
f 78/78/78 81/81/81 80/80/80
f 81/81/81 82/82/82 80/80/80
f 81/81/81 83/83/83 82/82/82
f 83/83/83 84/84/84 82/82/82
f 87/87/87 86/86/86 85/85/85
f 85/85/85 88/88/88 87/87/87
f 85/85/85 89/89/89 88/88/88
f 89/89/89 90/90/90 88/88/88
f 89/89/89 91/91/91 90/90/90
f 91/91/91 92/92/92 90/90/90
f 91/91/91 93/93/93 92/92/92
f 96/96/96 95/95/95 94/94/94
f 95/95/95 97/97/97 94/94/94
f 95/95/95 98/98/98 97/97/97
f 98/98/98 99/99/99 97/97/97
f 98/98/98 100/100/100 99/99/99
f 100/100/100 101/101/101 99/99/99
f 104/104/104 103/103/103 102/102/102
f 102/102/102 105/105/105 104/104/104
f 102/102/102 106/106/106 105/105/105
f 106/106/106 107/107/107 105/105/105
f 107/107/107 108/108/108 105/105/105
f 111/111/111 110/110/110 109/109/109
f 112/112/112 111/111/111 109/109/109
f 113/113/113 112/112/112 109/109/109
f 113/113/113 109/109/109 114/114/114
f 115/115/115 113/113/113 114/114/114
f 116/116/116 115/115/115 114/114/114
f 114/114/114 117/117/117 116/116/116
f 118/118/118 117/117/117 114/114/114
f 114/114/114 119/119/119 118/118/118
f 114/114/114 120/120/120 119/119/119
f 121/121/121 119/119/119 120/120/120
f 120/120/120 122/122/122 121/121/121
f 122/122/122 123/123/123 121/121/121
f 122/122/122 124/124/124 123/123/123
f 126/126/126 124/124/124 125/125/125
f 125/125/125 127/127/127 126/126/126
f 127/127/127 128/128/128 126/126/126
f 128/128/128 129/129/129 126/126/126
f 128/128/128 130/130/130 129/129/129
f 133/133/133 132/132/132 131/131/131
f 134/134/134 133/133/133 131/131/131
f 132/132/132 133/133/133 135/135/135
f 131/131/131 136/136/136 134/134/134
f 136/136/136 135/135/135 134/134/134
f 136/136/136 132/132/132 135/135/135
