g pDisc1
v -0.3090169 0 0.9510565
v -0.3090169 0.25 0.9510565
v 0.18660995 0.25 0.48707736
v 0.18660995 0 0.48707736
v 0.80901706 0 0.5877852
v 0.80901706 0.25 0.5877852
v 0.5404925 0.25 -6.753471E-08
v 0.5404925 0 -6.753471E-08
v 0.80901694 0 -0.58778536
v 0.80901694 0.25 -0.58778536
v 0.18660988 0.25 -0.48707741
v 0.18660988 0 -0.48707741
v -0.30901712 0 -0.9510565
v -0.30901712 0.25 -0.9510565
v -0.38598406 0.25 -0.30103028
v -0.38598406 0 -0.30103028
v -1 0 2.0861626E-07
v -1 0.25 2.0861626E-07
v -0.38598394 0.25 0.3010305
v -0.38598394 0 0.3010305
v -0.38598406 0 -0.30103028
v -0.38598406 0.25 -0.30103028
v -1 0.25 2.0861626E-07
v -1 0 2.0861626E-07
v -0.38598394 0 0.3010305
v -0.38598394 0.25 0.3010305
v -0.3090169 0.25 0.9510565
v -0.3090169 0 0.9510565
v 0.18660995 0 0.48707736
v 0.18660995 0.25 0.48707736
v 0.80901706 0.25 0.5877852
v 0.80901706 0 0.5877852
v 0.5404925 0 -6.753471E-08
v 0.5404925 0.25 -6.753471E-08
v 0.80901694 0.25 -0.58778536
v 0.80901694 0 -0.58778536
v 0.18660988 0 -0.48707741
v 0.18660988 0.25 -0.48707741
v -0.30901712 0.25 -0.9510565
v -0.30901712 0 -0.9510565
v -1 0.25 2.0861626E-07
v -3.9538087E-08 0.25 -5.954907E-09
v -0.38598394 0.25 0.3010305
v -0.38598406 0.25 -0.30103028
v -0.3090169 0.25 0.9510565
v -0.30901712 0.25 -0.9510565
v 0.18660995 0.25 0.48707736
v 0.18660988 0.25 -0.48707741
v 0.80901706 0.25 0.5877852
v 0.80901694 0.25 -0.58778536
v 0.5404925 0.25 -6.753471E-08
v 0.80901694 0 -0.58778536
v 0.18660988 0 -0.48707741
v -3.9538087E-08 0 -5.954907E-09
v 0.5404925 0 -6.753471E-08
v -0.30901712 0 -0.9510565
v 0.80901706 0 0.5877852
v -0.38598406 0 -0.30103028
v 0.18660995 0 0.48707736
v -1 0 2.0861626E-07
v -0.3090169 0 0.9510565
v -0.38598394 0 0.3010305
vt 0.19104004 0
vt 0.19104004 0
vt 0.5 0
vt 0.5 0
vt 0.80908203 5.9604645E-08
vt 0.80908203 5.9604645E-08
vt 0.9042969 0.2939453
vt 0.9042969 0.2939453
vt 1 0.5878906
vt 1 0.5878906
vt 0.75 0.76953125
vt 0.75 0.76953125
vt 0.5 0.9511719
vt 0.5 0.9511719
vt 0.25 0.76953125
vt 0.25 0.76953125
vt 0 0.5878906
vt 0 0.5878906
vt 0.09552002 0.2939453
vt 0.09552002 0.2939453
vt 0.25 0.76953125
vt 0.25 0.76953125
vt 0 0.5878906
vt 0 0.5878906
vt 0.09552002 0.2939453
vt 0.09552002 0.2939453
vt 0.19104004 0
vt 0.19104004 0
vt 0.5 0
vt 0.5 0
vt 0.80908203 5.9604645E-08
vt 0.80908203 5.9604645E-08
vt 0.9042969 0.2939453
vt 0.9042969 0.2939453
vt 1 0.5878906
vt 1 0.5878906
vt 0.75 0.76953125
vt 0.75 0.76953125
vt 0.5 0.9511719
vt 0.5 0.9511719
vt 0 0.5878906
vt 0.5 0.42529297
vt 0.09552002 0.2939453
vt 0.25 0.76953125
vt 0.19104004 0
vt 0.5 0.9511719
vt 0.5 0
vt 0.75 0.76953125
vt 0.80908203 5.9604645E-08
vt 1 0.5878906
vt 0.9042969 0.2939453
vt 1 0.5878906
vt 0.75 0.76953125
vt 0.5 0.42529297
vt 0.9042969 0.2939453
vt 0.5 0.9511719
vt 0.80908203 5.9604645E-08
vt 0.25 0.76953125
vt 0.5 0
vt 0 0.5878906
vt 0.19104004 0
vt 0.09552002 0.2939453
vn 0.68359375 0 0.72998047
vn 0.68359375 0 0.72998047
vn 0.68359375 0 0.72998047
vn 0.68359375 0 0.72998047
vn 0.90966797 0 -0.41552734
vn 0.90966797 0 -0.41552734
vn 0.90966797 0 -0.41552734
vn 0.90966797 0 -0.41552734
vn -0.15966797 0 -0.9873047
vn -0.15966797 0 -0.9873047
vn -0.15966797 0 -0.9873047
vn -0.15966797 0 -0.9873047
vn -0.99316406 0 -0.117614746
vn -0.99316406 0 -0.117614746
vn -0.99316406 0 -0.117614746
vn -0.99316406 0 -0.117614746
vn -0.44018555 0 0.8979492
vn -0.44018555 0 0.8979492
vn -0.44018555 0 0.8979492
vn -0.44018555 0 0.8979492
vn -0.44018555 0 -0.8979492
vn -0.44018555 0 -0.8979492
vn -0.44018555 0 -0.8979492
vn -0.44018555 0 -0.8979492
vn -0.99316406 0 0.117614746
vn -0.99316406 0 0.117614746
vn -0.99316406 0 0.117614746
vn -0.99316406 0 0.117614746
vn -0.15966797 0 0.9873047
vn -0.15966797 0 0.9873047
vn -0.15966797 0 0.9873047
vn -0.15966797 0 0.9873047
vn 0.90966797 0 0.41552734
vn 0.90966797 0 0.41552734
vn 0.90966797 0 0.41552734
vn 0.90966797 0 0.41552734
vn 0.68359375 0 -0.72998047
vn 0.68359375 0 -0.72998047
vn 0.68359375 0 -0.72998047
vn 0.68359375 0 -0.72998047
vn -0 1 0
vn -0 1 0
vn -0 1 0
vn -0 1 0
vn -0 1 0
vn -0 1 0
vn -0 1 0
vn -0 1 0
vn -0 1 0
vn -0 1 0
vn -0 1 0
vn -0 -1 0
vn -0 -1 0
vn -0 -1 0
vn -0 -1 0
vn -0 -1 0
vn -0 -1 0
vn -0 -1 0
vn -0 -1 0
vn -0 -1 0
vn -0 -1 0
vn -0 -1 0
g pDisc1_0
f 3/3/3 2/2/2 1/1/1
f 4/4/4 3/3/3 1/1/1
f 7/7/7 6/6/6 5/5/5
f 8/8/8 7/7/7 5/5/5
f 11/11/11 10/10/10 9/9/9
f 12/12/12 11/11/11 9/9/9
f 15/15/15 14/14/14 13/13/13
f 16/16/16 15/15/15 13/13/13
f 19/19/19 18/18/18 17/17/17
f 20/20/20 19/19/19 17/17/17
f 23/23/23 22/22/22 21/21/21
f 24/24/24 23/23/23 21/21/21
f 27/27/27 26/26/26 25/25/25
f 28/28/28 27/27/27 25/25/25
f 31/31/31 30/30/30 29/29/29
f 32/32/32 31/31/31 29/29/29
f 35/35/35 34/34/34 33/33/33
f 36/36/36 35/35/35 33/33/33
f 39/39/39 38/38/38 37/37/37
f 40/40/40 39/39/39 37/37/37
f 43/43/43 42/42/42 41/41/41
f 44/44/44 41/41/41 42/42/42
f 43/43/43 45/45/45 42/42/42
f 44/44/44 42/42/42 46/46/46
f 47/47/47 42/42/42 45/45/45
f 48/48/48 46/46/46 42/42/42
f 47/47/47 49/49/49 42/42/42
f 48/48/48 42/42/42 50/50/50
f 51/51/51 42/42/42 49/49/49
f 51/51/51 50/50/50 42/42/42
f 54/54/54 53/53/53 52/52/52
f 52/52/52 55/55/55 54/54/54
f 56/56/56 53/53/53 54/54/54
f 54/54/54 55/55/55 57/57/57
f 54/54/54 58/58/58 56/56/56
f 57/57/57 59/59/59 54/54/54
f 60/60/60 58/58/58 54/54/54
f 54/54/54 59/59/59 61/61/61
f 54/54/54 62/62/62 60/60/60
f 61/61/61 62/62/62 54/54/54
