g polySurface1
v -2.5 -0.125 -2.5
v -2.5 0.125 -2.5
v -2.5 0.125 2.5
v -2.5 -0.125 2.5
v -2.5 0.125 -2.5
v -2.5 -0.125 -2.5
v 2.5 -0.125 -2.5
v 2.5 0.125 -2.5
v -1.5 -0.125 1.5
v -1.5 0.125 1.5
v -1.5 0.125 0.5
v -1.5 -0.125 0.5
v -0.5 0.125 0.5
v -0.5 -0.125 0.5
v -1.5 -0.125 0.5
v -1.5 0.125 0.5
v -0.5 -0.125 1.5
v -0.5 0.125 1.5
v -1.5 0.125 1.5
v -1.5 -0.125 1.5
v -0.5 -0.125 0.5
v -0.5 0.125 0.5
v -0.5 0.125 1.5
v -0.5 -0.125 1.5
v -2.5 -0.125 2.5
v -2.5 0.125 2.5
v 2.5 0.125 2.5
v 2.5 -0.125 2.5
v 2.5 -0.125 2.5
v 2.5 0.125 2.5
v 2.5 0.125 -2.5
v 2.5 -0.125 -2.5
v 2.5 -0.125 2.5
v 2.5 -0.125 -2.5
v -2.5 -0.125 -2.5
v -0.5 -0.125 0.5
v -1.5 -0.125 0.5
v -0.5 -0.125 1.5
v -2.5 -0.125 2.5
v -1.5 -0.125 1.5
v -2.5 0.125 -2.5
v 2.5 0.125 -2.5
v -1.5 0.125 0.5
v -2.5 0.125 2.5
v -0.5 0.125 0.5
v -1.5 0.125 1.5
v 2.5 0.125 2.5
v -0.5 0.125 1.5
vt 0.125 0
vt 0.125 0.25
vt 0.375 0.25
vt 0.375 0
vt 0.375 0.5
vt 0.375 0.75
vt 0.625 0.75
vt 0.625 0.5
vt 0.375 0.118774414
vt 0.375 0.18127441
vt 0.125 0.18127441
vt 0.125 0.118774414
vt 0.625 0.56884766
vt 0.625 0.63134766
vt 0.375 0.63134766
vt 0.375 0.56884766
vt 0.625 0.118774414
vt 0.625 0.18127441
vt 0.375 0.18127441
vt 0.375 0.118774414
vt 0.875 0.118774414
vt 0.875 0.18127441
vt 0.625 0.18127441
vt 0.625 0.118774414
vt 0.375 0
vt 0.375 0.25
vt 0.625 0.25
vt 0.625 0
vt 0.625 0
vt 0.625 0.25
vt 0.875 0.25
vt 0.875 0
vt 0.625 1
vt 0.625 0.75
vt 0.375 0.75
vt 0.47509766 0.89990234
vt 0.42504883 0.89990234
vt 0.47509766 0.9501953
vt 0.375 1
vt 0.42504883 0.9501953
vt 0.375 0.5
vt 0.625 0.5
vt 0.42504883 0.35009766
vt 0.375 0.25
vt 0.47509766 0.35009766
vt 0.42504883 0.30004883
vt 0.625 0.25
vt 0.47509766 0.30004883
vn -1 0 0
vn -1 0 0
vn -1 0 0
vn -1 0 0
vn -0 0 -1
vn -0 0 -1
vn -0 0 -1
vn -0 0 -1
vn 1 0 0
vn 1 0 0
vn 1 0 0
vn 1 0 0
vn -0 0 1
vn -0 0 1
vn -0 0 1
vn -0 0 1
vn -0 0 -1
vn -0 0 -1
vn -0 0 -1
vn -0 0 -1
vn -1 0 0
vn -1 0 0
vn -1 0 0
vn -1 0 0
vn -0 0 1
vn -0 0 1
vn -0 0 1
vn -0 0 1
vn 1 0 0
vn 1 0 0
vn 1 0 0
vn 1 0 0
vn -0 -1 0
vn -0 -1 0
vn -0 -1 0
vn -0 -1 0
vn -0 -1 0
vn -0 -1 0
vn -0 -1 0
vn -0 -1 0
vn -0 1 0
vn -0 1 0
vn -0 1 0
vn -0 1 0
vn -0 1 0
vn -0 1 0
vn -0 1 0
vn -0 1 0
g polySurface1_0
f 3/3/3 2/2/2 1/1/1
f 4/4/4 3/3/3 1/1/1
f 7/7/7 6/6/6 5/5/5
f 8/8/8 7/7/7 5/5/5
f 11/11/11 10/10/10 9/9/9
f 12/12/12 11/11/11 9/9/9
f 15/15/15 14/14/14 13/13/13
f 16/16/16 15/15/15 13/13/13
f 19/19/19 18/18/18 17/17/17
f 20/20/20 19/19/19 17/17/17
f 23/23/23 22/22/22 21/21/21
f 24/24/24 23/23/23 21/21/21
f 27/27/27 26/26/26 25/25/25
f 28/28/28 27/27/27 25/25/25
f 31/31/31 30/30/30 29/29/29
f 32/32/32 31/31/31 29/29/29
f 35/35/35 34/34/34 33/33/33
f 33/33/33 36/36/36 35/35/35
f 35/35/35 36/36/36 37/37/37
f 33/33/33 38/38/38 36/36/36
f 39/39/39 35/35/35 37/37/37
f 40/40/40 38/38/38 33/33/33
f 37/37/37 40/40/40 39/39/39
f 40/40/40 33/33/33 39/39/39
f 43/43/43 42/42/42 41/41/41
f 41/41/41 44/44/44 43/43/43
f 42/42/42 43/43/43 45/45/45
f 46/46/46 43/43/43 44/44/44
f 45/45/45 47/47/47 42/42/42
f 44/44/44 48/48/48 46/46/46
f 44/44/44 47/47/47 48/48/48
f 45/45/45 48/48/48 47/47/47
