g polySurface1
v 0.5 0.5 0.7750594
v 0.5 -0.4958949 2.5
v 0.5 0.5 2.5
v -1.5 0.5 2.5
v -1.5 0.5 -2.5
v 1.5 0.5 -2.5
v 0.5 0.5 0.7750594
v 1.5 0.5 0.7750594
v 0.5 0.5 2.5
v 1.5 0.5 -2.5
v 1.5 -0.5 -2.5
v 1.5 -0.5 2.5
v 1.5 -0.4958949 2.5
v 1.5 0.5 0.7750594
v 1.5 0.5 0.7750594
v 1.5 -0.4958949 2.5
v 0.5 -0.4958949 2.5
v 0.5 0.5 0.7750594
v -1.5 0.5 2.5
v 0.5 0.5 2.5
v 0.5 -0.4958949 2.5
v -1.5 -0.5 2.5
v 1.5 -0.5 2.5
v 1.5 -0.4958949 2.5
v -1.5 -0.5 -2.5
v -1.5 -0.5 2.5
v 1.5 -0.5 2.5
v 1.5 -0.5 -2.5
v -1.5 -0.5 -2.5
v -1.5 0.5 -2.5
v -1.5 0.5 2.5
v -1.5 -0.5 2.5
v -1.5 0.5 -2.5
v -1.5 -0.5 -2.5
v 1.5 -0.5 -2.5
v 1.5 0.5 -2.5
vt 0.23730469 -0
vt 0.3618164 0
vt 0.3305664 0.21557617
vt 0.375 0.25
vt 0.375 0.5
vt 0.625 0.5
vt 0.5415039 0.33618164
vt 0.625 0.33618164
vt 0.5415039 0.25
vt 0.875 0.25
vt 0.875 0
vt 0.625 0
vt 0.625 0.0010261536
vt 0.7114258 0.25
vt 0.625 0.8623047
vt 0.625 0.9868164
vt 0.375 0.9868164
vt 0.375 0.8623047
vt 0.375 0.25
vt 0.5415039 0.25
vt 0.5415039 0.0010261536
vt 0.375 0
vt 0.625 0
vt 0.625 0.0010261536
vt 0.375 0.75
vt 0.375 1
vt 0.625 1
vt 0.625 0.75
vt 0.125 0
vt 0.125 0.25
vt 0.375 0.25
vt 0.375 0
vt 0.375 0.5
vt 0.375 0.75
vt 0.625 0.75
vt 0.625 0.5
vn 1 0 0
vn 1 0 0
vn 1 0 0
vn -0 1 0
vn -0 1 0
vn -0 1 0
vn -0 1 0
vn -0 1 0
vn -0 1 0
vn 1 0 0
vn 1 0 0
vn 1 0 0
vn 1 0 0
vn 1 0 0
vn -0 0.86621094 0.5
vn -0 0.86621094 0.5
vn -0 0.86621094 0.5
vn -0 0.86621094 0.5
vn -0 0 1
vn -0 0 1
vn -0 0 1
vn -0 0 1
vn -0 0 1
vn -0 0 1
vn -0 -1 0
vn -0 -1 0
vn -0 -1 0
vn -0 -1 0
vn -1 0 0
vn -1 0 0
vn -1 0 0
vn -1 0 0
vn -0 0 -1
vn -0 0 -1
vn -0 0 -1
vn -0 0 -1
g polySurface1_0
f 3/3/3 2/2/2 1/1/1
f 6/6/6 5/5/5 4/4/4
f 4/4/4 7/7/7 6/6/6
f 6/6/6 7/7/7 8/8/8
f 4/4/4 9/9/9 7/7/7
f 12/12/12 11/11/11 10/10/10
f 10/10/10 13/13/13 12/12/12
f 10/10/10 14/14/14 13/13/13
f 17/17/17 16/16/16 15/15/15
f 18/18/18 17/17/17 15/15/15
f 21/21/21 20/20/20 19/19/19
f 21/21/21 19/19/19 22/22/22
f 21/21/21 22/22/22 23/23/23
f 23/23/23 24/24/24 21/21/21
f 27/27/27 26/26/26 25/25/25
f 28/28/28 27/27/27 25/25/25
f 31/31/31 30/30/30 29/29/29
f 32/32/32 31/31/31 29/29/29
f 35/35/35 34/34/34 33/33/33
f 36/36/36 35/35/35 33/33/33
