g polySurface4
v -2.4613986 0.49444473 0.46277416
v -3.4951081 0.26671854 0.18132196
v -3.5015192 0.2653062 -0.16974944
v -2.4461718 0.49779922 -0.49434325
v -1.2864308 0.51514196 0.46263194
v -1.2575898 0.51514196 -0.45990163
v -0.23093772 0.3 0.192138
v -0.22962594 0.3 -0.18368421
v -2.3968563 0.2014698 0.46277416
v -3.4369767 -0.02766867 -0.16974944
v -3.4305658 -0.026256366 0.18132196
v -2.3816295 0.20482431 -0.49434325
v -1.2864308 0.21514195 0.46263194
v -1.2575898 0.21514195 -0.45990163
v -0.23093772 0 0.192138
v -0.22962594 0 -0.18368421
v -2.3816295 0.20482431 -0.49434325
v -3.5015192 0.2653062 -0.16974944
v -3.4369767 -0.02766867 -0.16974944
v -2.4461718 0.49779922 -0.49434325
v -1.2575898 0.21514195 -0.45990163
v -1.2575898 0.51514196 -0.45990163
v -0.22962594 0 -0.18368421
v -0.22962594 0.3 -0.18368421
v -3.4369767 -0.02766867 -0.16974944
v -3.5015192 0.2653062 -0.16974944
v -3.4951081 0.26671854 0.18132196
v -3.4305658 -0.026256366 0.18132196
v -3.4305658 -0.026256366 0.18132196
v -3.4951081 0.26671854 0.18132196
v -2.4613986 0.49444473 0.46277416
v -2.3968563 0.2014698 0.46277416
v -1.2864308 0.51514196 0.46263194
v -1.2864308 0.21514195 0.46263194
v -0.23093772 0.3 0.192138
v -0.23093772 0 0.192138
v -0.23093772 0 0.192138
v -0.23093772 0.3 0.192138
v -0.22962594 0.3 -0.18368421
v -0.22962594 0 -0.18368421
vt 0.009239197 0.63378906
vt 0.08380127 0.9921875
vt 0.19396973 1
vt 0.2722168 0.63378906
vt 0 0.3317871
vt 0.24401855 0.32348633
vt 0.06732178 0
vt 0.18554688 0
vt 0.009239197 0.63378906
vt 0.19396973 1
vt 0.08380127 0.9921875
vt 0.2722168 0.63378906
vt 0 0.3317871
vt 0.24401855 0.32348633
vt 0.06732178 0
vt 0.18554688 0
vt 0.2722168 0.63378906
vt 0.19396973 1
vt 0.19396973 1
vt 0.2722168 0.63378906
vt 0.24401855 0.32348633
vt 0.24401855 0.32348633
vt 0.18554688 0
vt 0.18554688 0
vt 0.19396973 1
vt 0.19396973 1
vt 0.08380127 0.9921875
vt 0.08380127 0.9921875
vt 0.08380127 0.9921875
vt 0.08380127 0.9921875
vt 0.009239197 0.63378906
vt 0.009239197 0.63378906
vt 0 0.3317871
vt 0 0.3317871
vt 0.06732178 0
vt 0.06732178 0
vt 0.06732178 0
vt 0.06732178 0
vt 0.18554688 0
vt 0.18554688 0
vn -0.08605957 0.99609375 0.00091934204
vn -0.21508789 0.9765625 0
vn -0.21508789 0.9765625 0
vn -0.083740234 0.99658203 0.0009355545
vn 0.057159424 0.99853516 0.0025196075
vn 0.06008911 0.9980469 0.0025634766
vn 0.20227051 0.9794922 0.0046958923
vn 0.20227051 0.9794922 0.0046958923
vn 0.08526611 -0.99658203 -0.0009813309
vn 0.21508789 -0.9765625 0
vn 0.21508789 -0.9765625 0
vn 0.08288574 -0.99658203 -0.0009994507
vn -0.06347656 -0.9980469 -0.0026435852
vn -0.06628418 -0.9975586 -0.0026855469
vn -0.20227051 -0.9794922 -0.0046958923
vn -0.20227051 -0.9794922 -0.0046958923
vn -0.11633301 -0.027420044 -0.9926758
vn -0.28100586 -0.06188965 -0.95751953
vn -0.28100586 -0.06188965 -0.95751953
vn -0.13696289 -0.03173828 -0.9902344
vn 0.14794922 0.0015954971 -0.98876953
vn 0.13415527 0.0017910004 -0.99072266
vn 0.25952148 0 -0.9658203
vn 0.25952148 0 -0.9658203
vn -0.9765625 -0.21508789 0.018692017
vn -0.9765625 -0.21508789 0.018692017
vn -0.9765625 -0.21508789 0.018692017
vn -0.9765625 -0.21508789 0.018692017
vn -0.25097656 -0.05529785 0.9663086
vn -0.25097656 -0.05529785 0.9663086
vn -0.13305664 -0.029312134 0.99072266
vn -0.11669922 -0.02571106 0.9926758
vn 0.115234375 0 0.99316406
vn 0.12963867 0 0.9916992
vn 0.24829102 0 0.96875
vn 0.24829102 0 0.96875
vn 1 0 0.003490448
vn 1 0 0.003490448
vn 1 0 0.003490448
vn 1 0 0.003490448
g polySurface4_0
f 3/3/3 2/2/2 1/1/1
f 4/4/4 3/3/3 1/1/1
f 4/4/4 1/1/1 5/5/5
f 6/6/6 4/4/4 5/5/5
f 6/6/6 5/5/5 7/7/7
f 8/8/8 6/6/6 7/7/7
f 11/11/11 10/10/10 9/9/9
f 10/10/10 12/12/12 9/9/9
f 9/9/9 12/12/12 13/13/13
f 12/12/12 14/14/14 13/13/13
f 13/13/13 14/14/14 15/15/15
f 14/14/14 16/16/16 15/15/15
f 19/19/19 18/18/18 17/17/17
f 18/18/18 20/20/20 17/17/17
f 17/17/17 20/20/20 21/21/21
f 20/20/20 22/22/22 21/21/21
f 21/21/21 22/22/22 23/23/23
f 22/22/22 24/24/24 23/23/23
f 27/27/27 26/26/26 25/25/25
f 28/28/28 27/27/27 25/25/25
f 31/31/31 30/30/30 29/29/29
f 32/32/32 31/31/31 29/29/29
f 33/33/33 31/31/31 32/32/32
f 34/34/34 33/33/33 32/32/32
f 35/35/35 33/33/33 34/34/34
f 36/36/36 35/35/35 34/34/34
f 39/39/39 38/38/38 37/37/37
f 40/40/40 39/39/39 37/37/37
