g polySurface1
v 0.64721406 -1 -0.4702285
v 0.7608457 1 -0.24721375
v 0.7608457 -1 -0.24721375
v 0.64721406 1 -0.4702285
v 0.4702285 -1 -0.647214
v 0.4702285 1 -0.647214
v 0.24721372 -1 -0.7608456
v 0.24721372 1 -0.7608456
v -0 -1 -0.80000037
v -0 1 -0.80000037
v -0.24721372 -1 -0.7608456
v -0.24721372 1 -0.7608456
v -0.4702284 -1 -0.6472139
v -0.4702284 1 -0.6472139
v -0.6472138 -1 -0.47022834
v -0.6472138 1 -0.47022834
v -0.7608454 -1 -0.24721365
v -0.7608454 1 -0.24721365
v -0.8000002 -1 0
v -0.8000002 1 0
v -0.7608454 -1 0.24721365
v -0.7608454 1 0.24721365
v -0.64721376 -1 0.47022828
v -0.64721376 1 0.47022828
v -0.47022828 -1 0.6472137
v -0.47022828 1 0.6472137
v -0.24721365 -1 0.76084536
v -0.24721365 1 0.76084536
v -2.3841858E-08 -1 0.80000013
v -2.3841858E-08 1 0.80000013
v 0.24721359 -1 0.7608453
v 0.24721359 1 0.7608453
v 0.4702282 -1 0.64721364
v 0.4702282 1 0.64721364
v 0.64721364 -1 0.47022825
v 0.64721364 1 0.47022825
v 0.76084524 -1 0.2472136
v 0.76084524 1 0.2472136
v 0.8 -1 0
v 0.8 1 0
v 0.7608457 -1 -0.24721375
v 0.7608457 1 -0.24721375
v 0.95105714 -1 -0.30901718
v 0.95105714 1 -0.30901718
v 0.80901754 1 -0.5877856
v 0.80901754 -1 -0.5877856
v 0.5877856 1 -0.8090175
v 0.5877856 -1 -0.8090175
v 0.30901715 1 -0.951057
v 0.30901715 -1 -0.951057
v -0 1 -1.0000005
v -0 -1 -1.0000005
v -0.30901715 1 -0.95105696
v -0.30901715 -1 -0.95105696
v -0.5877855 1 -0.8090173
v -0.5877855 -1 -0.8090173
v -0.80901724 1 -0.5877854
v -0.80901724 -1 -0.5877854
v -0.9510568 1 -0.30901706
v -0.9510568 -1 -0.30901706
v -1.0000002 1 0
v -1.0000002 -1 0
v -0.9510568 1 0.30901706
v -0.9510568 -1 0.30901706
v -0.8090172 1 0.58778536
v -0.8090172 -1 0.58778536
v -0.58778536 1 0.8090171
v -0.58778536 -1 0.8090171
v -0.30901706 1 0.95105666
v -0.30901706 -1 0.95105666
v -2.9802322E-08 1 1.0000001
v -2.9802322E-08 -1 1.0000001
v 0.30901697 1 0.9510566
v 0.30901697 -1 0.9510566
v 0.58778524 1 0.80901706
v 0.58778524 -1 0.80901706
v 0.809017 1 0.5877853
v 0.809017 -1 0.5877853
v 0.95105654 1 0.309017
v 0.95105654 -1 0.309017
v 1 1 0
v 1 -1 0
v 0.95105714 1 -0.30901718
v 0.95105714 -1 -0.30901718
v -0.4702284 -1 -0.6472139
v -0.30901715 -1 -0.95105696
v -0.5877855 -1 -0.8090173
v -0.24721372 -1 -0.7608456
v -0.6472138 -1 -0.47022834
v -0 -1 -1.0000005
v -0.80901724 -1 -0.5877854
v -0 -1 -0.80000037
v -0.7608454 -1 -0.24721365
v 0.30901715 -1 -0.951057
v -0.9510568 -1 -0.30901706
v 0.24721372 -1 -0.7608456
v -0.8000002 -1 0
v 0.5877856 -1 -0.8090175
v -1.0000002 -1 0
v 0.4702285 -1 -0.647214
v -0.7608454 -1 0.24721365
v 0.80901754 -1 -0.5877856
v -0.9510568 -1 0.30901706
v 0.64721406 -1 -0.4702285
v -0.64721376 -1 0.47022828
v 0.95105714 -1 -0.30901718
v -0.8090172 -1 0.58778536
v 0.7608457 -1 -0.24721375
v -0.47022828 -1 0.6472137
v 1 -1 0
v -0.58778536 -1 0.8090171
v 0.8 -1 0
v -0.24721365 -1 0.76084536
v 0.95105654 -1 0.309017
v -0.30901706 -1 0.95105666
v 0.76084524 -1 0.2472136
v -2.3841858E-08 -1 0.80000013
v 0.809017 -1 0.5877853
v -2.9802322E-08 -1 1.0000001
v 0.64721364 -1 0.47022825
v 0.24721359 -1 0.7608453
v 0.58778524 -1 0.80901706
v 0.30901697 -1 0.9510566
v 0.4702282 -1 0.64721364
v 0.24721359 1 0.7608453
v 0.4702282 1 0.64721364
v 0.58778524 1 0.80901706
v 0.30901697 1 0.9510566
v 0.809017 1 0.5877853
v -2.3841858E-08 1 0.80000013
v 0.64721364 1 0.47022825
v -2.9802322E-08 1 1.0000001
v 0.95105654 1 0.309017
v -0.24721365 1 0.76084536
v 0.76084524 1 0.2472136
v -0.30901706 1 0.95105666
v 1 1 0
v -0.47022828 1 0.6472137
v 0.8 1 0
v -0.58778536 1 0.8090171
v 0.95105714 1 -0.30901718
v -0.64721376 1 0.47022828
v 0.7608457 1 -0.24721375
v -0.8090172 1 0.58778536
v 0.80901754 1 -0.5877856
v -0.7608454 1 0.24721365
v 0.64721406 1 -0.4702285
v -0.9510568 1 0.30901706
v 0.5877856 1 -0.8090175
v -0.8000002 1 0
v 0.4702285 1 -0.647214
v -1.0000002 1 0
v 0.30901715 1 -0.951057
v -0.7608454 1 -0.24721365
v 0.24721372 1 -0.7608456
v -0.9510568 1 -0.30901706
v -0 1 -1.0000005
v -0.6472138 1 -0.47022834
v -0 1 -0.80000037
v -0.80901724 1 -0.5877854
v -0.30901715 1 -0.95105696
v -0.4702284 1 -0.6472139
v -0.24721372 1 -0.7608456
v -0.5877855 1 -0.8090173
vt 0.38745117 0.32958984
vt 0.375 0.67041016
vt 0.375 0.32958984
vt 0.38745117 0.67041016
vt 0.39990234 0.32958984
vt 0.39990234 0.67041016
vt 0.41259766 0.32958984
vt 0.41259766 0.67041016
vt 0.42504883 0.32958984
vt 0.42504883 0.67041016
vt 0.4375 0.32958984
vt 0.4375 0.67041016
vt 0.44995117 0.32958984
vt 0.44995117 0.67041016
vt 0.46240234 0.32958984
vt 0.46240234 0.67041016
vt 0.47509766 0.32958984
vt 0.47509766 0.67041016
vt 0.48754883 0.32958984
vt 0.48754883 0.67041016
vt 0.5 0.32958984
vt 0.5 0.67041016
vt 0.5126953 0.32958984
vt 0.5126953 0.67041016
vt 0.52490234 0.32958984
vt 0.52490234 0.67041016
vt 0.53759766 0.32958984
vt 0.53759766 0.67041016
vt 0.5498047 0.32958984
vt 0.5498047 0.67041016
vt 0.5625 0.32958984
vt 0.5625 0.67041016
vt 0.5751953 0.32958984
vt 0.5751953 0.67041016
vt 0.58740234 0.32958984
vt 0.58740234 0.67041016
vt 0.60009766 0.32958984
vt 0.60009766 0.67041016
vt 0.6123047 0.32958984
vt 0.6123047 0.67041016
vt 0.625 0.32958984
vt 0.625 0.67041016
vt 0.375 0.3125
vt 0.375 0.6875
vt 0.38745117 0.6875
vt 0.38745117 0.3125
vt 0.39990234 0.6875
vt 0.39990234 0.3125
vt 0.41259766 0.6875
vt 0.41259766 0.3125
vt 0.42504883 0.6875
vt 0.42504883 0.3125
vt 0.4375 0.6875
vt 0.4375 0.3125
vt 0.44995117 0.6875
vt 0.44995117 0.3125
vt 0.46240234 0.6875
vt 0.46240234 0.3125
vt 0.47509766 0.6875
vt 0.47509766 0.3125
vt 0.48754883 0.6875
vt 0.48754883 0.3125
vt 0.5 0.6875
vt 0.5 0.3125
vt 0.5126953 0.6875
vt 0.5126953 0.3125
vt 0.52490234 0.6875
vt 0.52490234 0.3125
vt 0.53759766 0.6875
vt 0.53759766 0.3125
vt 0.5498047 0.6875
vt 0.5498047 0.3125
vt 0.5625 0.6875
vt 0.5625 0.3125
vt 0.5751953 0.6875
vt 0.5751953 0.3125
vt 0.58740234 0.6875
vt 0.58740234 0.3125
vt 0.60009766 0.6875
vt 0.60009766 0.3125
vt 0.6123047 0.6875
vt 0.6123047 0.3125
vt 0.625 0.6875
vt 0.625 0.3125
vt 0.42651367 0.055114746
vt 0.45166016 0.007648468
vt 0.40820312 0.029846191
vt 0.46142578 0.037353516
vt 0.39892578 0.08276367
vt 0.5 -5.9604645E-08
vt 0.37353516 0.06439209
vt 0.5 0.03125
vt 0.38110352 0.117614746
vt 0.54833984 0.007648468
vt 0.35131836 0.10797119
vt 0.5385742 0.037353516
vt 0.375 0.15625
vt 0.5917969 0.029846191
vt 0.34375 0.15625
vt 0.5732422 0.055114746
vt 0.38110352 0.19482422
vt 0.62646484 0.06439209
vt 0.35131836 0.20458984
vt 0.6010742 0.08276367
vt 0.39892578 0.22973633
vt 0.6484375 0.10797119
vt 0.37353516 0.24804688
vt 0.61865234 0.117614746
vt 0.42651367 0.25732422
vt 0.65625 0.15625
vt 0.40820312 0.28271484
vt 0.625 0.15625
vt 0.46142578 0.27514648
vt 0.6484375 0.20458984
vt 0.45166016 0.30493164
vt 0.61865234 0.19482422
vt 0.5 0.28125
vt 0.62646484 0.24804688
vt 0.5 0.3125
vt 0.6010742 0.22973633
vt 0.5385742 0.27514648
vt 0.5917969 0.28271484
vt 0.54833984 0.30493164
vt 0.5732422 0.25732422
vt 0.5385742 0.72509766
vt 0.5732422 0.7426758
vt 0.5917969 0.71728516
vt 0.54833984 0.6953125
vt 0.62646484 0.7519531
vt 0.5 0.71875
vt 0.6010742 0.7705078
vt 0.5 0.6875
vt 0.6484375 0.79541016
vt 0.46142578 0.72509766
vt 0.61865234 0.8051758
vt 0.45166016 0.6953125
vt 0.65625 0.84375
vt 0.42651367 0.7426758
vt 0.625 0.84375
vt 0.40820312 0.71728516
vt 0.6484375 0.89208984
vt 0.39892578 0.7705078
vt 0.61865234 0.8823242
vt 0.37353516 0.7519531
vt 0.62646484 0.9355469
vt 0.38110352 0.8051758
vt 0.6010742 0.9169922
vt 0.35131836 0.79541016
vt 0.5917969 0.97021484
vt 0.375 0.84375
vt 0.5732422 0.9448242
vt 0.34375 0.84375
vt 0.54833984 0.9921875
vt 0.38110352 0.8823242
vt 0.5385742 0.96240234
vt 0.35131836 0.89208984
vt 0.5 1
vt 0.39892578 0.9169922
vt 0.5 0.96875
vt 0.37353516 0.9355469
vt 0.45166016 0.9921875
vt 0.42651367 0.9448242
vt 0.46142578 0.96240234
vt 0.40820312 0.97021484
vn -0.80908203 0 0.5878906
vn -0.9511719 0 0.30908203
vn -0.9511719 0 0.30908203
vn -0.80908203 0 0.5878906
vn -0.5878906 0 0.80908203
vn -0.5878906 0 0.80908203
vn -0.30908203 0 0.9511719
vn -0.30908203 0 0.9511719
vn -0 0 1
vn -0 0 1
vn 0.30908203 0 0.9511719
vn 0.30908203 0 0.9511719
vn 0.5878906 0 0.80908203
vn 0.5878906 0 0.80908203
vn 0.80908203 0 0.5878906
vn 0.80908203 0 0.5878906
vn 0.9511719 0 0.30908203
vn 0.9511719 0 0.30908203
vn 1 0 0
vn 1 0 0
vn 0.9511719 0 -0.30908203
vn 0.9511719 0 -0.30908203
vn 0.80908203 0 -0.5878906
vn 0.80908203 0 -0.5878906
vn 0.5878906 0 -0.80908203
vn 0.5878906 0 -0.80908203
vn 0.30908203 0 -0.9511719
vn 0.30908203 0 -0.9511719
vn -0 0 -1
vn -0 0 -1
vn -0.30908203 0 -0.9511719
vn -0.30908203 0 -0.9511719
vn -0.5878906 0 -0.80908203
vn -0.5878906 0 -0.80908203
vn -0.80908203 0 -0.5878906
vn -0.80908203 0 -0.5878906
vn -0.9511719 0 -0.30908203
vn -0.9511719 0 -0.30908203
vn -1 0 0
vn -1 0 0
vn -0.9511719 0 0.30908203
vn -0.9511719 0 0.30908203
vn 0.9511719 0 -0.30908203
vn 0.9511719 0 -0.30908203
vn 0.80908203 0 -0.5878906
vn 0.80908203 0 -0.5878906
vn 0.5878906 0 -0.80908203
vn 0.5878906 0 -0.80908203
vn 0.30908203 0 -0.9511719
vn 0.30908203 0 -0.9511719
vn -0 0 -1
vn -0 0 -1
vn -0.30908203 0 -0.9511719
vn -0.30908203 0 -0.9511719
vn -0.5878906 0 -0.80908203
vn -0.5878906 0 -0.80908203
vn -0.80908203 0 -0.5878906
vn -0.80908203 0 -0.5878906
vn -0.9511719 0 -0.30908203
vn -0.9511719 0 -0.30908203
vn -1 0 0
vn -1 0 0
vn -0.9511719 0 0.30908203
vn -0.9511719 0 0.30908203
vn -0.80908203 0 0.5878906
vn -0.80908203 0 0.5878906
vn -0.5878906 0 0.80908203
vn -0.5878906 0 0.80908203
vn -0.30908203 0 0.9511719
vn -0.30908203 0 0.9511719
vn -0 0 1
vn -0 0 1
vn 0.30908203 0 0.9511719
vn 0.30908203 0 0.9511719
vn 0.5878906 0 0.80908203
vn 0.5878906 0 0.80908203
vn 0.80908203 0 0.5878906
vn 0.80908203 0 0.5878906
vn 0.9511719 0 0.30908203
vn 0.9511719 0 0.30908203
vn 1 0 0
vn 1 0 0
vn 0.9511719 0 -0.30908203
vn 0.9511719 0 -0.30908203
vn -0 -1 0
vn -0 -1 0
vn -0 -1 0
vn -0 -1 0
vn -0 -1 0
vn -0 -1 0
vn -0 -1 0
vn -0 -1 0
vn -0 -1 0
vn -0 -1 0
vn -0 -1 0
vn -0 -1 0
vn -0 -1 0
vn -0 -1 0
vn -0 -1 0
vn -0 -1 0
vn -0 -1 0
vn -0 -1 0
vn -0 -1 0
vn -0 -1 0
vn -0 -1 0
vn -0 -1 0
vn -0 -1 0
vn -0 -1 0
vn -0 -1 0
vn -0 -1 0
vn -0 -1 0
vn -0 -1 0
vn -0 -1 0
vn -0 -1 0
vn -0 -1 0
vn -0 -1 0
vn -0 -1 0
vn -0 -1 0
vn -0 -1 0
vn -0 -1 0
vn -0 -1 0
vn -0 -1 0
vn -0 -1 0
vn -0 -1 0
vn -0 1 0
vn -0 1 0
vn -0 1 0
vn -0 1 0
vn -0 1 0
vn -0 1 0
vn -0 1 0
vn -0 1 0
vn -0 1 0
vn -0 1 0
vn -0 1 0
vn -0 1 0
vn -0 1 0
vn -0 1 0
vn -0 1 0
vn -0 1 0
vn -0 1 0
vn -0 1 0
vn -0 1 0
vn -0 1 0
vn -0 1 0
vn -0 1 0
vn -0 1 0
vn -0 1 0
vn -0 1 0
vn -0 1 0
vn -0 1 0
vn -0 1 0
vn -0 1 0
vn -0 1 0
vn -0 1 0
vn -0 1 0
vn -0 1 0
vn -0 1 0
vn -0 1 0
vn -0 1 0
vn -0 1 0
vn -0 1 0
vn -0 1 0
vn -0 1 0
g polySurface1_0
f 3/3/3 2/2/2 1/1/1
f 2/2/2 4/4/4 1/1/1
f 1/1/1 4/4/4 5/5/5
f 4/4/4 6/6/6 5/5/5
f 5/5/5 6/6/6 7/7/7
f 6/6/6 8/8/8 7/7/7
f 7/7/7 8/8/8 9/9/9
f 8/8/8 10/10/10 9/9/9
f 9/9/9 10/10/10 11/11/11
f 10/10/10 12/12/12 11/11/11
f 11/11/11 12/12/12 13/13/13
f 12/12/12 14/14/14 13/13/13
f 13/13/13 14/14/14 15/15/15
f 14/14/14 16/16/16 15/15/15
f 15/15/15 16/16/16 17/17/17
f 16/16/16 18/18/18 17/17/17
f 17/17/17 18/18/18 19/19/19
f 18/18/18 20/20/20 19/19/19
f 19/19/19 20/20/20 21/21/21
f 20/20/20 22/22/22 21/21/21
f 21/21/21 22/22/22 23/23/23
f 22/22/22 24/24/24 23/23/23
f 23/23/23 24/24/24 25/25/25
f 24/24/24 26/26/26 25/25/25
f 25/25/25 26/26/26 27/27/27
f 26/26/26 28/28/28 27/27/27
f 27/27/27 28/28/28 29/29/29
f 28/28/28 30/30/30 29/29/29
f 29/29/29 30/30/30 31/31/31
f 30/30/30 32/32/32 31/31/31
f 31/31/31 32/32/32 33/33/33
f 32/32/32 34/34/34 33/33/33
f 33/33/33 34/34/34 35/35/35
f 34/34/34 36/36/36 35/35/35
f 35/35/35 36/36/36 37/37/37
f 36/36/36 38/38/38 37/37/37
f 37/37/37 38/38/38 39/39/39
f 38/38/38 40/40/40 39/39/39
f 39/39/39 40/40/40 41/41/41
f 40/40/40 42/42/42 41/41/41
f 45/45/45 44/44/44 43/43/43
f 46/46/46 45/45/45 43/43/43
f 47/47/47 45/45/45 46/46/46
f 48/48/48 47/47/47 46/46/46
f 49/49/49 47/47/47 48/48/48
f 50/50/50 49/49/49 48/48/48
f 51/51/51 49/49/49 50/50/50
f 52/52/52 51/51/51 50/50/50
f 53/53/53 51/51/51 52/52/52
f 54/54/54 53/53/53 52/52/52
f 55/55/55 53/53/53 54/54/54
f 56/56/56 55/55/55 54/54/54
f 57/57/57 55/55/55 56/56/56
f 58/58/58 57/57/57 56/56/56
f 59/59/59 57/57/57 58/58/58
f 60/60/60 59/59/59 58/58/58
f 61/61/61 59/59/59 60/60/60
f 62/62/62 61/61/61 60/60/60
f 63/63/63 61/61/61 62/62/62
f 64/64/64 63/63/63 62/62/62
f 65/65/65 63/63/63 64/64/64
f 66/66/66 65/65/65 64/64/64
f 67/67/67 65/65/65 66/66/66
f 68/68/68 67/67/67 66/66/66
f 69/69/69 67/67/67 68/68/68
f 70/70/70 69/69/69 68/68/68
f 71/71/71 69/69/69 70/70/70
f 72/72/72 71/71/71 70/70/70
f 73/73/73 71/71/71 72/72/72
f 74/74/74 73/73/73 72/72/72
f 75/75/75 73/73/73 74/74/74
f 76/76/76 75/75/75 74/74/74
f 77/77/77 75/75/75 76/76/76
f 78/78/78 77/77/77 76/76/76
f 79/79/79 77/77/77 78/78/78
f 80/80/80 79/79/79 78/78/78
f 81/81/81 79/79/79 80/80/80
f 82/82/82 81/81/81 80/80/80
f 83/83/83 81/81/81 82/82/82
f 84/84/84 83/83/83 82/82/82
f 87/87/87 86/86/86 85/85/85
f 86/86/86 88/88/88 85/85/85
f 87/87/87 85/85/85 89/89/89
f 86/86/86 90/90/90 88/88/88
f 91/91/91 87/87/87 89/89/89
f 90/90/90 92/92/92 88/88/88
f 91/91/91 89/89/89 93/93/93
f 90/90/90 94/94/94 92/92/92
f 95/95/95 91/91/91 93/93/93
f 94/94/94 96/96/96 92/92/92
f 95/95/95 93/93/93 97/97/97
f 94/94/94 98/98/98 96/96/96
f 99/99/99 95/95/95 97/97/97
f 98/98/98 100/100/100 96/96/96
f 99/99/99 97/97/97 101/101/101
f 98/98/98 102/102/102 100/100/100
f 103/103/103 99/99/99 101/101/101
f 102/102/102 104/104/104 100/100/100
f 103/103/103 101/101/101 105/105/105
f 102/102/102 106/106/106 104/104/104
f 107/107/107 103/103/103 105/105/105
f 106/106/106 108/108/108 104/104/104
f 107/107/107 105/105/105 109/109/109
f 106/106/106 110/110/110 108/108/108
f 111/111/111 107/107/107 109/109/109
f 110/110/110 112/112/112 108/108/108
f 111/111/111 109/109/109 113/113/113
f 110/110/110 114/114/114 112/112/112
f 115/115/115 111/111/111 113/113/113
f 114/114/114 116/116/116 112/112/112
f 115/115/115 113/113/113 117/117/117
f 114/114/114 118/118/118 116/116/116
f 119/119/119 115/115/115 117/117/117
f 118/118/118 120/120/120 116/116/116
f 119/119/119 117/117/117 121/121/121
f 118/118/118 122/122/122 120/120/120
f 123/123/123 119/119/119 121/121/121
f 122/122/122 124/124/124 120/120/120
f 123/123/123 121/121/121 124/124/124
f 122/122/122 123/123/123 124/124/124
f 127/127/127 126/126/126 125/125/125
f 128/128/128 127/127/127 125/125/125
f 127/127/127 129/129/129 126/126/126
f 128/128/128 125/125/125 130/130/130
f 129/129/129 131/131/131 126/126/126
f 132/132/132 128/128/128 130/130/130
f 129/129/129 133/133/133 131/131/131
f 132/132/132 130/130/130 134/134/134
f 133/133/133 135/135/135 131/131/131
f 136/136/136 132/132/132 134/134/134
f 133/133/133 137/137/137 135/135/135
f 136/136/136 134/134/134 138/138/138
f 137/137/137 139/139/139 135/135/135
f 140/140/140 136/136/136 138/138/138
f 137/137/137 141/141/141 139/139/139
f 140/140/140 138/138/138 142/142/142
f 141/141/141 143/143/143 139/139/139
f 144/144/144 140/140/140 142/142/142
f 141/141/141 145/145/145 143/143/143
f 144/144/144 142/142/142 146/146/146
f 145/145/145 147/147/147 143/143/143
f 148/148/148 144/144/144 146/146/146
f 145/145/145 149/149/149 147/147/147
f 148/148/148 146/146/146 150/150/150
f 149/149/149 151/151/151 147/147/147
f 152/152/152 148/148/148 150/150/150
f 149/149/149 153/153/153 151/151/151
f 152/152/152 150/150/150 154/154/154
f 153/153/153 155/155/155 151/151/151
f 156/156/156 152/152/152 154/154/154
f 153/153/153 157/157/157 155/155/155
f 156/156/156 154/154/154 158/158/158
f 157/157/157 159/159/159 155/155/155
f 160/160/160 156/156/156 158/158/158
f 157/157/157 161/161/161 159/159/159
f 160/160/160 158/158/158 162/162/162
f 161/161/161 163/163/163 159/159/159
f 164/164/164 160/160/160 162/162/162
f 164/164/164 162/162/162 163/163/163
f 161/161/161 164/164/164 163/163/163
