g polySurface4
v -0.48141205 -0.53734386 -0.9899038
v -0.098132014 -0.2636404 -0.98990375
v -0.10521865 0.16795146 -0.9899038
v -0.23957026 0.31234634 -0.9899038
v -0.3717698 0.32406962 -0.98990375
v -0.6109983 0.42031968 -0.98990375
v -0.7539917 -0.48126543 -0.98990375
v -0.90709865 -0.67335904 -0.98990387
v -1.1362125 -0.44467306 -0.9899038
v -1.1088458 -0.6367519 -0.9899037
v -1.1816088 -0.55836785 -0.9899037
v -0.9019214 0.16630375 -0.98990387
v -1.2727972 0.780095 -0.9899037
v -1.3764893 0.44811165 -0.9899038
v -1.4001881 0.66915023 -0.9899038
v -0.85093915 -0.18603957 -0.98990375
v -1.1372687 -0.38775265 -0.9899037
v -1.2125129 -0.06698048 -0.9899038
v -1.2182018 -0.09514809 -0.9899039
v -1.2699915 -0.2806443 -0.9899038
v -1.284526 -0.15609229 -0.9899038
v -1.287676 0.29834569 -0.9899039
v -1.3323323 0.098294854 -0.9899039
v -1.3669626 0.20928514 -0.9899037
v -0.10521865 0.16795146 -0.9274038
v -0.098132014 -0.2636404 -0.92740375
v -0.48141205 -0.53734386 -0.9274038
v -0.23957026 0.31234634 -0.9274038
v -0.3717698 0.32406962 -0.92740375
v -0.6109983 0.42031968 -0.92740375
v -0.7539917 -0.48126543 -0.92740375
v -0.90709865 -0.67335904 -0.92740387
v -1.1362125 -0.44467306 -0.9274038
v -1.1088458 -0.6367519 -0.9274037
v -1.1816088 -0.55836785 -0.9274037
v -0.9019214 0.16630375 -0.92740387
v -1.2727972 0.780095 -0.9274037
v -1.3764893 0.44811165 -0.9274038
v -1.4001881 0.66915023 -0.9274038
v -0.85093915 -0.18603957 -0.92740375
v -1.1372687 -0.38775265 -0.9274037
v -1.2125129 -0.06698048 -0.9274038
v -1.2182018 -0.09514809 -0.9274039
v -1.2699915 -0.2806443 -0.9274038
v -1.284526 -0.15609229 -0.9274038
v -1.287676 0.29834569 -0.9274039
v -1.3323323 0.098294854 -0.9274039
v -1.3669626 0.20928514 -0.9274037
v -0.098132014 -0.2636404 -0.92740375
v -0.10521865 0.16795146 -0.9274038
v -0.10521865 0.16795146 -0.9899038
v -0.098132014 -0.2636404 -0.98990375
v -0.23957026 0.31234634 -0.9899038
v -0.23957026 0.31234634 -0.9274038
v -0.3717698 0.32406962 -0.92740375
v -0.3717698 0.32406962 -0.98990375
v -0.6109983 0.42031968 -0.98990375
v -0.6109983 0.42031968 -0.92740375
v -1.2727972 0.780095 -0.9899037
v -1.2727972 0.780095 -0.9274037
v -1.2727972 0.780095 -0.9274037
v -1.4001881 0.66915023 -0.9274038
v -1.4001881 0.66915023 -0.9899038
v -1.2727972 0.780095 -0.9899037
v -1.4001881 0.66915023 -0.9274038
v -1.3764893 0.44811165 -0.9274038
v -1.3764893 0.44811165 -0.9899038
v -1.4001881 0.66915023 -0.9899038
v -1.3764893 0.44811165 -0.9274038
v -0.9019214 0.16630375 -0.92740387
v -0.9019214 0.16630375 -0.98990387
v -1.3764893 0.44811165 -0.9899038
v -0.9019214 0.16630375 -0.92740387
v -1.287676 0.29834569 -0.9274039
v -1.287676 0.29834569 -0.9899039
v -0.9019214 0.16630375 -0.98990387
v -1.287676 0.29834569 -0.9274039
v -1.3669626 0.20928514 -0.9274037
v -1.3669626 0.20928514 -0.9899037
v -1.287676 0.29834569 -0.9899039
v -1.3669626 0.20928514 -0.9274037
v -1.3323323 0.098294854 -0.9899039
v -1.3669626 0.20928514 -0.9899037
v -1.3323323 0.098294854 -0.9274039
v -1.2125129 -0.06698048 -0.9899038
v -1.2125129 -0.06698048 -0.9274038
v -0.85093915 -0.18603957 -0.98990375
v -0.85093915 -0.18603957 -0.92740375
v -0.85093915 -0.18603957 -0.92740375
v -1.2182018 -0.09514809 -0.9274039
v -1.2182018 -0.09514809 -0.9899039
v -0.85093915 -0.18603957 -0.98990375
v -1.2182018 -0.09514809 -0.9274039
v -1.284526 -0.15609229 -0.9274038
v -1.284526 -0.15609229 -0.9899038
v -1.2182018 -0.09514809 -0.9899039
v -1.284526 -0.15609229 -0.9274038
v -1.2699915 -0.2806443 -0.9274038
v -1.2699915 -0.2806443 -0.9899038
v -1.284526 -0.15609229 -0.9899038
v -1.2699915 -0.2806443 -0.9274038
v -1.1372687 -0.38775265 -0.9899037
v -1.2699915 -0.2806443 -0.9899038
v -1.1372687 -0.38775265 -0.9274037
v -0.7539917 -0.48126543 -0.98990375
v -0.7539917 -0.48126543 -0.92740375
v -0.7539917 -0.48126543 -0.92740375
v -1.1362125 -0.44467306 -0.9274038
v -1.1362125 -0.44467306 -0.9899038
v -0.7539917 -0.48126543 -0.98990375
v -1.1362125 -0.44467306 -0.9274038
v -1.1816088 -0.55836785 -0.9274037
v -1.1816088 -0.55836785 -0.9899037
v -1.1362125 -0.44467306 -0.9899038
v -1.1816088 -0.55836785 -0.9274037
v -1.1088458 -0.6367519 -0.9274037
v -1.1088458 -0.6367519 -0.9899037
v -1.1816088 -0.55836785 -0.9899037
v -1.1088458 -0.6367519 -0.9274037
v -0.90709865 -0.67335904 -0.98990387
v -1.1088458 -0.6367519 -0.9899037
v -0.90709865 -0.67335904 -0.92740387
v -0.48141205 -0.53734386 -0.9899038
v -0.48141205 -0.53734386 -0.9274038
v -0.098132014 -0.2636404 -0.98990375
v -0.098132014 -0.2636404 -0.92740375
v -0.10521865 0.16795146 -0.9274038
v -0.23957026 0.31234634 -0.9274038
v -0.23957026 0.31234634 -0.9899038
v -0.10521865 0.16795146 -0.9899038
vt 0.10827637 0.29492188
vt 0.3059082 0
vt 0.58447266 0
vt 0.6791992 0.08514404
vt 0.6879883 0.17028809
vt 0.75341797 0.37890625
vt 0.1998291 0.63134766
vt 0.02418518 0.6357422
vt 0.13989258 0.95751953
vt 0 0.8964844
vt 0.047821045 1
vt 0.55566406 0.60839844
vt 0.97802734 0.7402344
vt 0.74365234 0.7607422
vt 0.88671875 0.7739258
vt 0.39404297 0.6191406
vt 0.24633789 0.8330078
vt 0.44555664 0.77197266
vt 0.40112305 0.88916016
vt 0.30810547 0.96875
vt 0.37280273 0.96875
vt 0.61279297 0.79541016
vt 0.51953125 0.88964844
vt 0.6040039 0.90527344
vt 0.58447266 0
vt 0.3059082 0
vt 0.10827637 0.29492188
vt 0.6791992 0.08514404
vt 0.6879883 0.17028809
vt 0.75341797 0.37890625
vt 0.1998291 0.63134766
vt 0.02418518 0.6357422
vt 0.13989258 0.95751953
vt 0 0.8964844
vt 0.047821045 1
vt 0.55566406 0.60839844
vt 0.97802734 0.7402344
vt 0.74365234 0.7607422
vt 0.88671875 0.7739258
vt 0.39404297 0.6191406
vt 0.24633789 0.8330078
vt 0.44555664 0.77197266
vt 0.40112305 0.88916016
vt 0.30810547 0.96875
vt 0.37280273 0.96875
vt 0.61279297 0.79541016
vt 0.51953125 0.88964844
vt 0.6040039 0.90527344
vt 0.3059082 0
vt 0.58447266 0
vt 0.58447266 0
vt 0.3059082 0
vt 0.6791992 0.08514404
vt 0.6791992 0.08514404
vt 0.6879883 0.17028809
vt 0.6879883 0.17028809
vt 0.75341797 0.37890625
vt 0.75341797 0.37890625
vt 0.97802734 0.7402344
vt 0.97802734 0.7402344
vt 0.97802734 0.7402344
vt 0.88671875 0.7739258
vt 0.88671875 0.7739258
vt 0.97802734 0.7402344
vt 0.88671875 0.7739258
vt 0.74365234 0.7607422
vt 0.74365234 0.7607422
vt 0.88671875 0.7739258
vt 0.74365234 0.7607422
vt 0.55566406 0.60839844
vt 0.55566406 0.60839844
vt 0.74365234 0.7607422
vt 0.55566406 0.60839844
vt 0.61279297 0.79541016
vt 0.61279297 0.79541016
vt 0.55566406 0.60839844
vt 0.61279297 0.79541016
vt 0.6040039 0.90527344
vt 0.6040039 0.90527344
vt 0.61279297 0.79541016
vt 0.6040039 0.90527344
vt 0.51953125 0.88964844
vt 0.6040039 0.90527344
vt 0.51953125 0.88964844
vt 0.44555664 0.77197266
vt 0.44555664 0.77197266
vt 0.39404297 0.6191406
vt 0.39404297 0.6191406
vt 0.39404297 0.6191406
vt 0.40112305 0.88916016
vt 0.40112305 0.88916016
vt 0.39404297 0.6191406
vt 0.40112305 0.88916016
vt 0.37280273 0.96875
vt 0.37280273 0.96875
vt 0.40112305 0.88916016
vt 0.37280273 0.96875
vt 0.30810547 0.96875
vt 0.30810547 0.96875
vt 0.37280273 0.96875
vt 0.30810547 0.96875
vt 0.24633789 0.8330078
vt 0.30810547 0.96875
vt 0.24633789 0.8330078
vt 0.1998291 0.63134766
vt 0.1998291 0.63134766
vt 0.1998291 0.63134766
vt 0.13989258 0.95751953
vt 0.13989258 0.95751953
vt 0.1998291 0.63134766
vt 0.13989258 0.95751953
vt 0.047821045 1
vt 0.047821045 1
vt 0.13989258 0.95751953
vt 0.047821045 1
vt 0 0.8964844
vt 0 0.8964844
vt 0.047821045 1
vt 0 0.8964844
vt 0.02418518 0.6357422
vt 0 0.8964844
vt 0.02418518 0.6357422
vt 0.10827637 0.29492188
vt 0.10827637 0.29492188
vt 0.3059082 0
vt 0.3059082 0
vt 0.58447266 0
vt 0.6791992 0.08514404
vt 0.6791992 0.08514404
vt 0.58447266 0
vn -0 0 -1
vn -0 0 -1
vn -0 0 -1
vn -0 0 -1
vn -0 0 -1
vn -0 0 -1
vn -0 0 -1
vn -0 0 -1
vn -0 0 -1
vn -0 0 -1
vn -0 0 -1
vn -0 0 -1
vn -0 0 -1
vn -0 0 -1
vn -0 0 -1
vn -0 0 -1
vn -0 0 -1
vn -0 0 -1
vn -0 0 -1
vn -0 0 -1
vn -0 0 -1
vn -0 0 -1
vn -0 0 -1
vn -0 0 -1
vn -0 0 1
vn -0 0 1
vn -0 0 1
vn -0 0 1
vn -0 0 1
vn -0 0 1
vn -0 0 1
vn -0 0 1
vn -0 0 1
vn -0 0 1
vn -0 0 1
vn -0 0 1
vn -0 0 1
vn -0 0 1
vn -0 0 1
vn -0 0 1
vn -0 0 1
vn -0 0 1
vn -0 0 1
vn -0 0 1
vn -0 0 1
vn -0 0 1
vn -0 0 1
vn -0 0 1
vn 1 0.016418457 0
vn 1 0.016418457 0
vn 1 0.016418457 0
vn 1 0.016418457 0
vn 0.08831787 0.99609375 0
vn 0.08831787 0.99609375 0
vn 0.27905273 0.9604492 0
vn 0.27905273 0.9604492 0
vn 0.45166016 0.89208984 0
vn 0.45166016 0.89208984 0
vn 0.47753906 0.87841797 0
vn 0.47753906 0.87841797 0
vn -0.6567383 0.75390625 0
vn -0.6567383 0.75390625 0
vn -0.6567383 0.75390625 0
vn -0.6567383 0.75390625 0
vn -0.9941406 -0.10662842 0
vn -0.9941406 -0.10662842 0
vn -0.9941406 -0.10662842 0
vn -0.9941406 -0.10662842 0
vn -0.5107422 -0.8598633 0
vn -0.5107422 -0.8598633 0
vn -0.5107422 -0.8598633 0
vn -0.5107422 -0.8598633 0
vn 0.32373047 0.94628906 0
vn 0.32373047 0.94628906 0
vn 0.32373047 0.94628906 0
vn 0.32373047 0.94628906 0
vn -0.7470703 0.66503906 0
vn -0.7470703 0.66503906 0
vn -0.7470703 0.66503906 0
vn -0.7470703 0.66503906 0
vn -0.95458984 -0.29785156 0
vn -0.8730469 -0.4880371 0
vn -0.95458984 -0.29785156 0
vn -0.8730469 -0.4880371 0
vn -0.50878906 -0.86083984 0
vn -0.50878906 -0.86083984 0
vn -0.31274414 -0.94970703 0
vn -0.31274414 -0.94970703 0
vn 0.24023438 0.9707031 0
vn 0.24023438 0.9707031 0
vn 0.24023438 0.9707031 0
vn 0.24023438 0.9707031 0
vn -0.6767578 0.7363281 0
vn -0.6767578 0.7363281 0
vn -0.6767578 0.7363281 0
vn -0.6767578 0.7363281 0
vn -0.99316406 -0.11590576 0
vn -0.99316406 -0.11590576 0
vn -0.99316406 -0.11590576 0
vn -0.99316406 -0.11590576 0
vn -0.6279297 -0.7783203 0
vn -0.3623047 -0.9321289 0
vn -0.6279297 -0.7783203 0
vn -0.3623047 -0.9321289 0
vn -0.23706055 -0.9716797 0
vn -0.23706055 -0.9716797 0
vn 0.09527588 0.99560547 0
vn 0.09527588 0.99560547 0
vn 0.09527588 0.99560547 0
vn 0.09527588 0.99560547 0
vn -0.92871094 0.3708496 0
vn -0.92871094 0.3708496 0
vn -0.92871094 0.3708496 0
vn -0.92871094 0.3708496 0
vn -0.73291016 -0.6801758 0
vn -0.73291016 -0.6801758 0
vn -0.73291016 -0.6801758 0
vn -0.73291016 -0.6801758 0
vn -0.17858887 -0.9838867 0
vn 0.15649414 -0.98779297 0
vn -0.17858887 -0.9838867 0
vn 0.15649414 -0.98779297 0
vn 0.4519043 -0.89208984 0
vn 0.4519043 -0.89208984 0
vn 0.5810547 -0.81396484 0
vn 0.5810547 -0.81396484 0
vn 0.7319336 0.68115234 0
vn 0.7319336 0.68115234 0
vn 0.7319336 0.68115234 0
vn 0.7319336 0.68115234 0
g polySurface4_0
f 3/3/3 2/2/2 1/1/1
f 1/1/1 4/4/4 3/3/3
f 1/1/1 5/5/5 4/4/4
f 1/1/1 6/6/6 5/5/5
f 1/1/1 7/7/7 6/6/6
f 1/1/1 8/8/8 7/7/7
f 8/8/8 9/9/9 7/7/7
f 8/8/8 10/10/10 9/9/9
f 10/10/10 11/11/11 9/9/9
f 6/6/6 7/7/7 12/12/12
f 12/12/12 13/13/13 6/6/6
f 12/12/12 14/14/14 13/13/13
f 14/14/14 15/15/15 13/13/13
f 7/7/7 16/16/16 12/12/12
f 16/16/16 7/7/7 17/17/17
f 12/12/12 16/16/16 18/18/18
f 17/17/17 19/19/19 16/16/16
f 17/17/17 20/20/20 19/19/19
f 20/20/20 21/21/21 19/19/19
f 18/18/18 22/22/22 12/12/12
f 18/18/18 23/23/23 22/22/22
f 23/23/23 24/24/24 22/22/22
f 27/27/27 26/26/26 25/25/25
f 25/25/25 28/28/28 27/27/27
f 28/28/28 29/29/29 27/27/27
f 29/29/29 30/30/30 27/27/27
f 30/30/30 31/31/31 27/27/27
f 31/31/31 32/32/32 27/27/27
f 31/31/31 33/33/33 32/32/32
f 33/33/33 34/34/34 32/32/32
f 33/33/33 35/35/35 34/34/34
f 36/36/36 31/31/31 30/30/30
f 30/30/30 37/37/37 36/36/36
f 37/37/37 38/38/38 36/36/36
f 37/37/37 39/39/39 38/38/38
f 36/36/36 40/40/40 31/31/31
f 41/41/41 31/31/31 40/40/40
f 42/42/42 40/40/40 36/36/36
f 40/40/40 43/43/43 41/41/41
f 43/43/43 44/44/44 41/41/41
f 43/43/43 45/45/45 44/44/44
f 36/36/36 46/46/46 42/42/42
f 46/46/46 47/47/47 42/42/42
f 46/46/46 48/48/48 47/47/47
f 51/51/51 50/50/50 49/49/49
f 52/52/52 51/51/51 49/49/49
f 55/55/55 54/54/54 53/53/53
f 56/56/56 55/55/55 53/53/53
f 56/56/56 57/57/57 55/55/55
f 57/57/57 58/58/58 55/55/55
f 57/57/57 59/59/59 58/58/58
f 59/59/59 60/60/60 58/58/58
f 63/63/63 62/62/62 61/61/61
f 64/64/64 63/63/63 61/61/61
f 67/67/67 66/66/66 65/65/65
f 68/68/68 67/67/67 65/65/65
f 71/71/71 70/70/70 69/69/69
f 72/72/72 71/71/71 69/69/69
f 75/75/75 74/74/74 73/73/73
f 76/76/76 75/75/75 73/73/73
f 79/79/79 78/78/78 77/77/77
f 80/80/80 79/79/79 77/77/77
f 83/83/83 82/82/82 81/81/81
f 82/82/82 84/84/84 81/81/81
f 82/82/82 85/85/85 84/84/84
f 85/85/85 86/86/86 84/84/84
f 85/85/85 87/87/87 86/86/86
f 87/87/87 88/88/88 86/86/86
f 91/91/91 90/90/90 89/89/89
f 92/92/92 91/91/91 89/89/89
f 95/95/95 94/94/94 93/93/93
f 96/96/96 95/95/95 93/93/93
f 99/99/99 98/98/98 97/97/97
f 100/100/100 99/99/99 97/97/97
f 103/103/103 102/102/102 101/101/101
f 102/102/102 104/104/104 101/101/101
f 102/102/102 105/105/105 104/104/104
f 105/105/105 106/106/106 104/104/104
f 109/109/109 108/108/108 107/107/107
f 110/110/110 109/109/109 107/107/107
f 113/113/113 112/112/112 111/111/111
f 114/114/114 113/113/113 111/111/111
f 117/117/117 116/116/116 115/115/115
f 118/118/118 117/117/117 115/115/115
f 121/121/121 120/120/120 119/119/119
f 120/120/120 122/122/122 119/119/119
f 120/120/120 123/123/123 122/122/122
f 123/123/123 124/124/124 122/122/122
f 123/123/123 125/125/125 124/124/124
f 125/125/125 126/126/126 124/124/124
f 129/129/129 128/128/128 127/127/127
f 130/130/130 129/129/129 127/127/127
