g polySurface1
v -1.3500003 -2.3382685 -1
v -2.6999998 3.5987358E-07 -1
v -3 3.5987358E-07 -1
v -1.5000004 -2.598076 -1
v 1.3499999 -2.3382688 -1
v 1.4999999 -2.5980763 -1
v 2.6999998 -1.1696358E-07 -1
v 3 -1.1696358E-07 -1
v 1.3500006 2.3382683 -1
v 1.5000007 2.5980759 -1
v -1.4999995 2.5980763 -1
v -1.3499995 2.3382688 -1
v -2.6999998 3.5987358E-07 -1
v -1.3499995 2.3382688 -1
v -3 3.5987358E-07 -1
v -3 3.5987358E-07 1
v -1.5000004 -2.598076 1
v -1.5000004 -2.598076 -1
v -1.5000004 -2.598076 -1
v -1.5000004 -2.598076 1
v 1.4999999 -2.5980763 1
v 1.4999999 -2.5980763 -1
v -2.6999998 3.5987358E-07 1
v -1.3500003 -2.3382685 1
v -1.5000004 -2.598076 1
v -3 3.5987358E-07 1
v -1.4999995 2.5980763 1
v -1.3499995 2.3382688 1
v 1.3500006 2.3382683 1
v 1.5000007 2.5980759 1
v 2.6999998 -1.1696358E-07 1
v 1.3500006 2.3382683 1
v 3 -1.1696358E-07 1
v 1.3499999 -2.3382688 1
v -1.3500003 -2.3382685 1
v 1.4999999 -2.5980763 1
v 1.3499999 -2.3382688 -1
v 1.3499999 -2.3382688 1
v -1.3500003 -2.3382685 1
v -1.3500003 -2.3382685 -1
v -1.4999995 2.5980763 -1
v -1.4999995 2.5980763 1
v -3 3.5987358E-07 1
v -3 3.5987358E-07 -1
v 2.6999998 -1.1696358E-07 -1
v 2.6999998 -1.1696358E-07 1
v 1.3499999 -2.3382688 1
v 1.3499999 -2.3382688 -1
v 1.4999999 -2.5980763 -1
v 1.4999999 -2.5980763 1
v 3 -1.1696358E-07 1
v 3 -1.1696358E-07 -1
v -1.3499995 2.3382688 -1
v -1.3499995 2.3382688 1
v 1.3500006 2.3382683 1
v 1.3500006 2.3382683 -1
v 1.5000007 2.5980759 -1
v 1.5000007 2.5980759 1
v -1.4999995 2.5980763 1
v -1.4999995 2.5980763 -1
v -2.6999998 3.5987358E-07 -1
v -1.3500003 -2.3382685 -1
v -1.3500003 -2.3382685 1
v -2.6999998 3.5987358E-07 1
v 3 -1.1696358E-07 -1
v 3 -1.1696358E-07 1
v 1.5000007 2.5980759 1
v 1.5000007 2.5980759 -1
v -1.3499995 2.3382688 -1
v -2.6999998 3.5987358E-07 -1
v -2.6999998 3.5987358E-07 1
v -1.3499995 2.3382688 1
v 1.3500006 2.3382683 1
v 2.6999998 -1.1696358E-07 1
v 2.6999998 -1.1696358E-07 -1
v 1.3500006 2.3382683 -1
vt 0.4296875 0.27807617
vt 0.359375 0.15625
vt 0.34375 0.15625
vt 0.421875 0.2915039
vt 0.5703125 0.27807617
vt 0.578125 0.2915039
vt 0.640625 0.15625
vt 0.65625 0.15625
vt 0.5703125 0.034454346
vt 0.578125 0.020935059
vt 0.421875 0.020935059
vt 0.4296875 0.034454346
vt 0.359375 0.15625
vt 0.4296875 0.034454346
vt 0.45825195 0.3125
vt 0.45825195 0.6875
vt 0.5 0.6875
vt 0.5 0.3125
vt 0.5 0.3125
vt 0.5 0.6875
vt 0.5415039 0.6875
vt 0.5415039 0.3125
vt 0.359375 0.84375
vt 0.4296875 0.72216797
vt 0.421875 0.7084961
vt 0.34375 0.84375
vt 0.421875 0.9790039
vt 0.4296875 0.96533203
vt 0.5703125 0.96533203
vt 0.578125 0.9790039
vt 0.640625 0.84375
vt 0.5703125 0.96533203
vt 0.65625 0.84375
vt 0.5703125 0.72216797
vt 0.4296875 0.72216797
vt 0.578125 0.7084961
vt 0.5415039 0.32958984
vt 0.5415039 0.67041016
vt 0.5 0.67041016
vt 0.5 0.32958984
vt 0.41674805 0.3125
vt 0.41674805 0.6875
vt 0.45825195 0.6875
vt 0.45825195 0.3125
vt 0.5834961 0.32958984
vt 0.5834961 0.67041016
vt 0.5415039 0.67041016
vt 0.5415039 0.32958984
vt 0.5415039 0.3125
vt 0.5415039 0.6875
vt 0.5834961 0.6875
vt 0.5834961 0.3125
vt 0.41674805 0.32958984
vt 0.41674805 0.67041016
vt 0.375 0.67041016
vt 0.375 0.32958984
vt 0.375 0.3125
vt 0.375 0.6875
vt 0.41674805 0.6875
vt 0.41674805 0.3125
vt 0.45825195 0.32958984
vt 0.5 0.32958984
vt 0.5 0.67041016
vt 0.45825195 0.67041016
vt 0.5834961 0.3125
vt 0.5834961 0.6875
vt 0.625 0.6875
vt 0.625 0.3125
vt 0.41674805 0.32958984
vt 0.45825195 0.32958984
vt 0.45825195 0.67041016
vt 0.41674805 0.67041016
vt 0.625 0.67041016
vt 0.5834961 0.67041016
vt 0.5834961 0.32958984
vt 0.625 0.32958984
vn -0 0 -1
vn -0 0 -1
vn -0 0 -1
vn -0 0 -1
vn -0 0 -1
vn -0 0 -1
vn -0 0 -1
vn -0 0 -1
vn -0 0 -1
vn -0 0 -1
vn -0 0 -1
vn -0 1 0
vn -0 1 0
vn -0 0 -1
vn -0.86621094 -0.5 0
vn -0.86621094 -0.5 0
vn -0.86621094 -0.5 0
vn -0.86621094 -0.5 0
vn -0 -1 0
vn -0 -1 0
vn -0 -1 0
vn -0 -1 0
vn -0 0 1
vn -0 0 1
vn -0 0 1
vn -0 0 1
vn -0 0 1
vn -0 0 1
vn -0 1 0
vn -0 0 1
vn -0 0 1
vn -0 0 1
vn -0 0 1
vn -0 0 1
vn -0 1 0
vn -0 0 1
vn -0 1 0
vn -0 1 0
vn -0 1 0
vn -0 1 0
vn -0.86621094 0.5 0
vn -0.86621094 0.5 0
vn -0.86621094 0.5 0
vn -0.86621094 0.5 0
vn -0.86621094 0.5 0
vn -0.86621094 0.5 0
vn -0.86621094 0.5 0
vn -0.86621094 0.5 0
vn 0.86621094 -0.5 0
vn 0.86621094 -0.5 0
vn 0.86621094 -0.5 0
vn 0.86621094 -0.5 0
vn -0 -1 0
vn -0 -1 0
vn -0 -1 0
vn -0 -1 0
vn -0 1 0
vn -0 1 0
vn -0 1 0
vn -0 1 0
vn -0 1 0
vn -0 1 0
vn -0 1 0
vn -0 1 0
vn 0.86621094 0.5 0
vn 0.86621094 0.5 0
vn 0.86621094 0.5 0
vn 0.86621094 0.5 0
vn -0 1 0
vn 0.86621094 -0.5 0
vn 0.86621094 -0.5 0
vn -0 1 0
vn -0 1 0
vn -0.86621094 -0.5 0
vn -0.86621094 -0.5 0
vn -0 1 0
g polySurface1_0
f 3/3/3 2/2/2 1/1/1
f 4/4/4 3/3/3 1/1/1
f 4/4/4 1/1/1 5/5/5
f 5/5/5 6/6/6 4/4/4
f 6/6/6 5/5/5 7/7/7
f 8/8/8 6/6/6 7/7/7
f 8/8/8 7/7/7 9/9/9
f 10/10/10 8/8/8 9/9/9
f 11/11/11 10/10/10 9/9/9
f 9/9/9 12/12/12 11/11/11
f 13/13/13 3/3/3 11/11/11
f 11/11/11 14/14/14 13/13/13
f 17/17/17 16/16/16 15/15/15
f 18/18/18 17/17/17 15/15/15
f 21/21/21 20/20/20 19/19/19
f 22/22/22 21/21/21 19/19/19
f 25/25/25 24/24/24 23/23/23
f 26/26/26 25/25/25 23/23/23
f 27/27/27 26/26/26 23/23/23
f 23/23/23 28/28/28 27/27/27
f 27/27/27 28/28/28 29/29/29
f 29/29/29 30/30/30 27/27/27
f 30/30/30 32/32/32 31/31/31
f 33/33/33 30/30/30 31/31/31
f 33/33/33 31/31/31 34/34/34
f 34/34/34 35/35/35 25/25/25
f 36/36/36 33/33/33 34/34/34
f 25/25/25 36/36/36 34/34/34
f 39/39/39 38/38/38 37/37/37
f 40/40/40 39/39/39 37/37/37
f 43/43/43 42/42/42 41/41/41
f 44/44/44 43/43/43 41/41/41
f 47/47/47 46/46/46 45/45/45
f 48/48/48 47/47/47 45/45/45
f 51/51/51 50/50/50 49/49/49
f 52/52/52 51/51/51 49/49/49
f 55/55/55 54/54/54 53/53/53
f 56/56/56 55/55/55 53/53/53
f 59/59/59 58/58/58 57/57/57
f 60/60/60 59/59/59 57/57/57
f 63/63/63 62/62/62 61/61/61
f 61/61/61 64/64/64 63/63/63
f 67/67/67 66/66/66 65/65/65
f 68/68/68 67/67/67 65/65/65
f 71/71/71 70/70/70 69/69/69
f 69/69/69 72/72/72 71/71/71
f 75/75/75 74/74/74 73/73/73
f 73/73/73 76/76/76 75/75/75
