g pSphere1
v 0.057294894 -0.7372558 -0.17633562
v -0 -0.72961897 0
v 0.15000002 -0.7372558 -0.108981416
v 0.10955624 -0.62457246 -0.3371796
v 0.28682205 -0.62457246 -0.20838846
v 0.15566441 -0.47383806 -0.47908598
v 0.40753484 -0.47383806 -0.29609144
v 0.18919538 -0.31873187 -0.58228374
v 0.49532008 -0.31873187 -0.35987118
v 0.20109321 -0.15014884 -0.6189015
v 0.526469 -0.15014884 -0.38250217
v 0.18926679 0.038617924 -0.5825035
v 0.49550703 0.038617924 -0.360007
v 0.15695065 0.21393144 -0.48304465
v 0.41090226 0.21393144 -0.29853803
v 0.11100245 0.35496095 -0.34163055
v 0.29060826 0.35496095 -0.2111393
v 0.057430368 0.44501135 -0.17675257
v 0.1503547 0.44501135 -0.1092391
v -0 0.47508276 0
v -0.057430405 0.44501135 -0.17675255
v -0 0.47508276 0
v -0.11100253 0.35496095 -0.3416305
v -0.15695077 0.21393144 -0.4830446
v -0.18926692 0.038617924 -0.58250344
v -0.15035471 0.44501135 -0.109239064
v -0 0.47508276 0
v -0.2906083 0.35496095 -0.21113925
v -0.20109333 -0.15014884 -0.61890143
v -0.41090232 0.21393144 -0.29853797
v -0.18584862 0.44501135 1.1147907E-08
v -0 0.47508276 0
v -0.35921156 0.35496095 2.196337E-08
v -0.4955071 0.038617924 -0.36000687
v -0.18919551 -0.31873187 -0.5822837
v -0.1503547 0.44501135 0.10923909
v -0 0.47508276 0
v -0.50790316 0.21393144 3.165436E-08
v -0.52646905 -0.15014884 -0.38250205
v -0.15566452 -0.47383806 -0.47908592
v -0.29060826 0.35496095 0.21113929
v -0.61248034 0.038617924 3.8692168E-08
v -0.49532014 -0.31873187 -0.35987106
v -0.10955632 -0.62457246 -0.33717954
v -0.05743037 0.44501135 0.17675255
v -0 0.47508276 0
v -0.41090226 0.21393144 0.298538
v -0.6507515 -0.15014884 4.1308656E-08
v -0.4075349 -0.47383806 -0.29609138
v -0.05729493 -0.7372558 -0.1763356
v -0 -0.72961897 0
v -0.11100247 0.35496095 0.3416305
v -0.495507 0.038617924 0.360007
v -0.6122493 -0.31873187 3.8666325E-08
v -0.28682208 -0.62457246 -0.2083884
v 0.057430383 0.44501135 0.17675254
v -0 0.47508276 0
v -0.15695068 0.21393144 0.4830446
v -0.526469 -0.15014884 0.38250217
v -0.5037408 -0.47383806 3.1150712E-08
v -0.15000004 -0.7372558 -0.10898138
v -0 -0.72961897 0
v 0.11100249 0.35496095 0.3416305
v -0.1892668 0.038617924 0.58250344
v -0.49532008 -0.31873187 0.35987115
v -0.35453156 -0.62457246 2.1288937E-08
v 0.15035468 0.44501135 0.109239064
v -0 0.47508276 0
v 0.15695071 0.21393144 0.48304456
v -0.20109323 -0.15014884 0.61890143
v -0.40753484 -0.47383806 0.2960914
v -0.18541022 -0.7372558 1.1051309E-08
v -0 -0.72961897 0
v 0.29060823 0.35496095 0.21113925
v 0.18926685 0.038617924 0.5825034
v -0.1891954 -0.31873187 0.5822837
v -0.28682205 -0.62457246 0.20838845
v 0.18584861 0.44501135 7.046713E-11
v -0 0.47508276 0
v 0.41090223 0.21393144 0.29853797
v 0.20109327 -0.15014884 0.6189014
v -0.15566443 -0.47383806 0.47908592
v -0.15000002 -0.7372558 0.1089814
v -0 -0.72961897 0
v 0.35921153 0.35496095 5.526936E-10
v 0.495507 0.038617924 0.36000687
v 0.18919544 -0.31873187 0.5822836
v -0.10955626 -0.62457246 0.33717954
v 0.1503547 0.44501135 -0.1092391
v -0 0.47508276 0
v 0.29060826 0.35496095 -0.2111393
v 0.5079031 0.21393144 1.3809769E-09
v 0.41090226 0.21393144 -0.29853803
v 0.6124803 0.038617924 2.185497E-09
v 0.49550703 0.038617924 -0.360007
v 0.52646893 -0.15014884 0.38250205
v 0.6507514 -0.15014884 2.5208493E-09
v 0.526469 -0.15014884 -0.38250217
v 0.49532005 -0.31873187 0.35987106
v 0.61224926 -0.31873187 2.173429E-09
v 0.49532008 -0.31873187 -0.35987118
v 0.15566446 -0.47383806 0.47908592
v 0.4075348 -0.47383806 0.29609138
v 0.5037407 -0.47383806 1.125424E-09
v 0.40753484 -0.47383806 -0.29609144
v 0.10955628 -0.62457246 0.33717954
v 0.28682202 -0.62457246 0.2083884
v 0.35453153 -0.62457246 1.5721076E-10
v 0.28682205 -0.62457246 -0.20838846
v -0.057294898 -0.7372558 0.1763356
v -0 -0.72961897 0
v 0.05729491 -0.7372558 0.17633559
v -0 -0.72961897 0
v 0.15 -0.7372558 0.10898138
v -0 -0.72961897 0
v 0.1854102 -0.7372558 0
v -0 -0.72961897 0
v 0.15000002 -0.7372558 -0.108981416
v -0 -0.72961897 0
vt 0.099975586 0.099975586
vt 0.049987793 0
vt 0 0.099975586
vt 0.099975586 0.19995117
vt 0 0.19995117
vt 0.099975586 0.30004883
vt 0 0.30004883
vt 0.099975586 0.39990234
vt 0 0.39990234
vt 0.099975586 0.5
vt 0 0.5
vt 0.099975586 0.60009766
vt 0 0.60009766
vt 0.099975586 0.7001953
vt 0 0.7001953
vt 0.099975586 0.7998047
vt 0 0.7998047
vt 0.099975586 0.89990234
vt 0 0.89990234
vt 0.049987793 1
vt 0.19995117 0.89990234
vt 0.15002441 1
vt 0.19995117 0.7998047
vt 0.19995117 0.7001953
vt 0.19995117 0.60009766
vt 0.30004883 0.89990234
vt 0.25 1
vt 0.30004883 0.7998047
vt 0.19995117 0.5
vt 0.30004883 0.7001953
vt 0.39990234 0.89990234
vt 0.35009766 1
vt 0.39990234 0.7998047
vt 0.30004883 0.60009766
vt 0.19995117 0.39990234
vt 0.5 0.89990234
vt 0.44995117 1
vt 0.39990234 0.7001953
vt 0.30004883 0.5
vt 0.19995117 0.30004883
vt 0.5 0.7998047
vt 0.39990234 0.60009766
vt 0.30004883 0.39990234
vt 0.19995117 0.19995117
vt 0.60009766 0.89990234
vt 0.5498047 1
vt 0.5 0.7001953
vt 0.39990234 0.5
vt 0.30004883 0.30004883
vt 0.19995117 0.099975586
vt 0.15002441 0
vt 0.60009766 0.7998047
vt 0.5 0.60009766
vt 0.39990234 0.39990234
vt 0.30004883 0.19995117
vt 0.7001953 0.89990234
vt 0.64990234 1
vt 0.60009766 0.7001953
vt 0.5 0.5
vt 0.39990234 0.30004883
vt 0.30004883 0.099975586
vt 0.25 0
vt 0.7001953 0.7998047
vt 0.60009766 0.60009766
vt 0.5 0.39990234
vt 0.39990234 0.19995117
vt 0.7998047 0.89990234
vt 0.75 1
vt 0.7001953 0.7001953
vt 0.60009766 0.5
vt 0.5 0.30004883
vt 0.39990234 0.099975586
vt 0.35009766 0
vt 0.7998047 0.7998047
vt 0.7001953 0.60009766
vt 0.60009766 0.39990234
vt 0.5 0.19995117
vt 0.89990234 0.89990234
vt 0.85009766 1
vt 0.7998047 0.7001953
vt 0.7001953 0.5
vt 0.60009766 0.30004883
vt 0.5 0.099975586
vt 0.44995117 0
vt 0.89990234 0.7998047
vt 0.7998047 0.60009766
vt 0.7001953 0.39990234
vt 0.60009766 0.19995117
vt 1 0.89990234
vt 0.9501953 1
vt 1 0.7998047
vt 0.89990234 0.7001953
vt 1 0.7001953
vt 0.89990234 0.60009766
vt 1 0.60009766
vt 0.7998047 0.5
vt 0.89990234 0.5
vt 1 0.5
vt 0.7998047 0.39990234
vt 0.89990234 0.39990234
vt 1 0.39990234
vt 0.7001953 0.30004883
vt 0.7998047 0.30004883
vt 0.89990234 0.30004883
vt 1 0.30004883
vt 0.7001953 0.19995117
vt 0.7998047 0.19995117
vt 0.89990234 0.19995117
vt 1 0.19995117
vt 0.60009766 0.099975586
vt 0.5498047 0
vt 0.7001953 0.099975586
vt 0.64990234 0
vt 0.7998047 0.099975586
vt 0.75 0
vt 0.89990234 0.099975586
vt 0.85009766 0
vt 1 0.099975586
vt 0.9501953 0
vn 0.14282227 -0.88671875 -0.43945312
vn -0 -1 0
vn 0.3737793 -0.88671875 -0.27148438
vn 0.20568848 -0.74609375 -0.6333008
vn 0.5385742 -0.74609375 -0.39135742
vn 0.24060059 -0.6274414 -0.74072266
vn 0.6298828 -0.6274414 -0.45776367
vn 0.2849121 -0.38793945 -0.87646484
vn 0.74560547 -0.38793945 -0.5419922
vn 0.30908203 -9.775162E-05 -0.9511719
vn 0.80908203 -9.769201E-05 -0.5878906
vn 0.29003906 0.34423828 -0.8930664
vn 0.7597656 0.34423828 -0.5517578
vn 0.24768066 0.59765625 -0.76220703
vn 0.6484375 0.59765625 -0.4711914
vn 0.19311523 0.7807617 -0.5942383
vn 0.5053711 0.7807617 -0.3671875
vn 0.12634277 0.91259766 -0.38891602
vn 0.33081055 0.91259766 -0.24035645
vn -0 1 0
vn -0.12634277 0.91259766 -0.38891602
vn -0 1 0
vn -0.19311523 0.7807617 -0.5942383
vn -0.24768066 0.59765625 -0.76220703
vn -0.29003906 0.34423828 -0.8930664
vn -0.33081055 0.91259766 -0.24035645
vn -0 1 0
vn -0.5053711 0.7807617 -0.3671875
vn -0.30908203 -9.775162E-05 -0.9511719
vn -0.6484375 0.59765625 -0.4711914
vn -0.40893555 0.91259766 0
vn -0 1 0
vn -0.625 0.7807617 0
vn -0.7597656 0.34423828 -0.5517578
vn -0.2849121 -0.38793945 -0.87646484
vn -0.33081055 0.91259766 0.24035645
vn -0 1 0
vn -0.8017578 0.59765625 0
vn -0.80908203 -9.769201E-05 -0.5878906
vn -0.24060059 -0.6274414 -0.74072266
vn -0.5053711 0.7807617 0.3671875
vn -0.93896484 0.34423828 0
vn -0.74560547 -0.38793945 -0.5419922
vn -0.20568848 -0.74609375 -0.6333008
vn -0.12634277 0.91259766 0.38891602
vn -0 1 0
vn -0.6484375 0.59765625 0.4711914
vn -1 -9.769201E-05 0
vn -0.6298828 -0.6274414 -0.45776367
vn -0.14282227 -0.88671875 -0.43945312
vn -0 -1 0
vn -0.19311523 0.7807617 0.5942383
vn -0.7597656 0.34423828 0.5517578
vn -0.921875 -0.38793945 0
vn -0.5385742 -0.74609375 -0.39135742
vn 0.12634277 0.91259766 0.38891602
vn -0 1 0
vn -0.24768066 0.59765625 0.76220703
vn -0.80908203 -9.769201E-05 0.5878906
vn -0.7788086 -0.6274414 0
vn -0.3737793 -0.88671875 -0.27148438
vn -0 -1 0
vn 0.19311523 0.7807617 0.5942383
vn -0.29003906 0.34423828 0.8930664
vn -0.74560547 -0.38793945 0.5419922
vn -0.66552734 -0.74609375 0
vn 0.33081055 0.91259766 0.24035645
vn -0 1 0
vn 0.24768066 0.59765625 0.76220703
vn -0.30908203 -9.769201E-05 0.9511719
vn -0.6298828 -0.6274414 0.45776367
vn -0.4621582 -0.88671875 0
vn -0 -1 0
vn 0.5053711 0.7807617 0.3671875
vn 0.29003906 0.34423828 0.8930664
vn -0.2849121 -0.38793945 0.87646484
vn -0.5385742 -0.74609375 0.39135742
vn 0.40893555 0.91259766 0
vn -0 1 0
vn 0.6484375 0.59765625 0.4711914
vn 0.30908203 -9.775162E-05 0.9511719
vn -0.24060059 -0.6274414 0.74072266
vn -0.3737793 -0.88671875 0.27148438
vn -0 -1 0
vn 0.625 0.7807617 0
vn 0.7597656 0.34423828 0.5517578
vn 0.2849121 -0.38793945 0.87646484
vn -0.20568848 -0.74609375 0.6333008
vn 0.33081055 0.91259766 -0.24035645
vn -0 1 0
vn 0.5053711 0.7807617 -0.3671875
vn 0.8017578 0.59765625 0
vn 0.6484375 0.59765625 -0.4711914
vn 0.93896484 0.34423828 0
vn 0.7597656 0.34423828 -0.5517578
vn 0.80908203 -9.775162E-05 0.5878906
vn 1 -9.769201E-05 0
vn 0.80908203 -9.769201E-05 -0.5878906
vn 0.74560547 -0.38793945 0.5419922
vn 0.921875 -0.38793945 0
vn 0.74560547 -0.38793945 -0.5419922
vn 0.24060059 -0.6274414 0.74072266
vn 0.6298828 -0.6274414 0.45776367
vn 0.7788086 -0.6274414 0
vn 0.6298828 -0.6274414 -0.45776367
vn 0.20568848 -0.74609375 0.6333008
vn 0.5385742 -0.74609375 0.39135742
vn 0.66552734 -0.74609375 0
vn 0.5385742 -0.74609375 -0.39135742
vn -0.14282227 -0.88671875 0.43945312
vn -0 -1 0
vn 0.14282227 -0.88671875 0.43945312
vn -0 -1 0
vn 0.3737793 -0.88671875 0.27148438
vn -0 -1 0
vn 0.4621582 -0.88671875 0
vn -0 -1 0
vn 0.3737793 -0.88671875 -0.27148438
vn -0 -1 0
g pSphere1_0
f 3/3/3 2/2/2 1/1/1
f 1/1/1 4/4/4 3/3/3
f 4/4/4 5/5/5 3/3/3
f 4/4/4 6/6/6 5/5/5
f 6/6/6 7/7/7 5/5/5
f 6/6/6 8/8/8 7/7/7
f 8/8/8 9/9/9 7/7/7
f 8/8/8 10/10/10 9/9/9
f 10/10/10 11/11/11 9/9/9
f 10/10/10 12/12/12 11/11/11
f 12/12/12 13/13/13 11/11/11
f 12/12/12 14/14/14 13/13/13
f 14/14/14 15/15/15 13/13/13
f 14/14/14 16/16/16 15/15/15
f 16/16/16 17/17/17 15/15/15
f 16/16/16 18/18/18 17/17/17
f 18/18/18 19/19/19 17/17/17
f 18/18/18 20/20/20 19/19/19
f 21/21/21 18/18/18 16/16/16
f 21/21/21 22/22/22 18/18/18
f 23/23/23 16/16/16 14/14/14
f 23/23/23 21/21/21 16/16/16
f 24/24/24 14/14/14 12/12/12
f 24/24/24 23/23/23 14/14/14
f 25/25/25 12/12/12 10/10/10
f 25/25/25 24/24/24 12/12/12
f 26/26/26 21/21/21 23/23/23
f 26/26/26 27/27/27 21/21/21
f 28/28/28 23/23/23 24/24/24
f 28/28/28 26/26/26 23/23/23
f 29/29/29 25/25/25 10/10/10
f 29/29/29 10/10/10 8/8/8
f 30/30/30 24/24/24 25/25/25
f 30/30/30 28/28/28 24/24/24
f 31/31/31 26/26/26 28/28/28
f 31/31/31 32/32/32 26/26/26
f 33/33/33 31/31/31 28/28/28
f 33/33/33 28/28/28 30/30/30
f 34/34/34 30/30/30 25/25/25
f 34/34/34 25/25/25 29/29/29
f 35/35/35 29/29/29 8/8/8
f 35/35/35 8/8/8 6/6/6
f 36/36/36 31/31/31 33/33/33
f 36/36/36 37/37/37 31/31/31
f 38/38/38 33/33/33 30/30/30
f 38/38/38 30/30/30 34/34/34
f 39/39/39 34/34/34 29/29/29
f 39/39/39 29/29/29 35/35/35
f 40/40/40 35/35/35 6/6/6
f 40/40/40 6/6/6 4/4/4
f 41/41/41 36/36/36 33/33/33
f 41/41/41 33/33/33 38/38/38
f 42/42/42 38/38/38 34/34/34
f 42/42/42 34/34/34 39/39/39
f 43/43/43 39/39/39 35/35/35
f 43/43/43 35/35/35 40/40/40
f 44/44/44 40/40/40 4/4/4
f 44/44/44 4/4/4 1/1/1
f 45/45/45 36/36/36 41/41/41
f 45/45/45 46/46/46 36/36/36
f 47/47/47 41/41/41 38/38/38
f 47/47/47 38/38/38 42/42/42
f 48/48/48 42/42/42 39/39/39
f 48/48/48 39/39/39 43/43/43
f 49/49/49 43/43/43 40/40/40
f 49/49/49 40/40/40 44/44/44
f 50/50/50 44/44/44 1/1/1
f 1/1/1 51/51/51 50/50/50
f 52/52/52 45/45/45 41/41/41
f 52/52/52 41/41/41 47/47/47
f 53/53/53 47/47/47 42/42/42
f 53/53/53 42/42/42 48/48/48
f 54/54/54 48/48/48 43/43/43
f 54/54/54 43/43/43 49/49/49
f 55/55/55 44/44/44 50/50/50
f 55/55/55 49/49/49 44/44/44
f 56/56/56 45/45/45 52/52/52
f 56/56/56 57/57/57 45/45/45
f 58/58/58 52/52/52 47/47/47
f 58/58/58 47/47/47 53/53/53
f 59/59/59 53/53/53 48/48/48
f 59/59/59 48/48/48 54/54/54
f 60/60/60 54/54/54 49/49/49
f 60/60/60 49/49/49 55/55/55
f 61/61/61 55/55/55 50/50/50
f 50/50/50 62/62/62 61/61/61
f 63/63/63 56/56/56 52/52/52
f 63/63/63 52/52/52 58/58/58
f 64/64/64 58/58/58 53/53/53
f 64/64/64 53/53/53 59/59/59
f 65/65/65 59/59/59 54/54/54
f 65/65/65 54/54/54 60/60/60
f 66/66/66 55/55/55 61/61/61
f 66/66/66 60/60/60 55/55/55
f 67/67/67 56/56/56 63/63/63
f 67/67/67 68/68/68 56/56/56
f 69/69/69 63/63/63 58/58/58
f 69/69/69 58/58/58 64/64/64
f 70/70/70 64/64/64 59/59/59
f 70/70/70 59/59/59 65/65/65
f 71/71/71 65/65/65 60/60/60
f 71/71/71 60/60/60 66/66/66
f 72/72/72 66/66/66 61/61/61
f 61/61/61 73/73/73 72/72/72
f 74/74/74 67/67/67 63/63/63
f 74/74/74 63/63/63 69/69/69
f 75/75/75 69/69/69 64/64/64
f 75/75/75 64/64/64 70/70/70
f 76/76/76 70/70/70 65/65/65
f 76/76/76 65/65/65 71/71/71
f 77/77/77 66/66/66 72/72/72
f 77/77/77 71/71/71 66/66/66
f 78/78/78 67/67/67 74/74/74
f 78/78/78 79/79/79 67/67/67
f 80/80/80 74/74/74 69/69/69
f 80/80/80 69/69/69 75/75/75
f 81/81/81 75/75/75 70/70/70
f 81/81/81 70/70/70 76/76/76
f 82/82/82 76/76/76 71/71/71
f 82/82/82 71/71/71 77/77/77
f 83/83/83 77/77/77 72/72/72
f 72/72/72 84/84/84 83/83/83
f 85/85/85 78/78/78 74/74/74
f 85/85/85 74/74/74 80/80/80
f 86/86/86 80/80/80 75/75/75
f 86/86/86 75/75/75 81/81/81
f 87/87/87 81/81/81 76/76/76
f 87/87/87 76/76/76 82/82/82
f 88/88/88 77/77/77 83/83/83
f 88/88/88 82/82/82 77/77/77
f 89/89/89 78/78/78 85/85/85
f 89/89/89 90/90/90 78/78/78
f 91/91/91 89/89/89 85/85/85
f 92/92/92 85/85/85 80/80/80
f 91/91/91 85/85/85 92/92/92
f 92/92/92 80/80/80 86/86/86
f 93/93/93 91/91/91 92/92/92
f 93/93/93 92/92/92 94/94/94
f 94/94/94 92/92/92 86/86/86
f 95/95/95 93/93/93 94/94/94
f 94/94/94 86/86/86 96/96/96
f 96/96/96 86/86/86 81/81/81
f 96/96/96 81/81/81 87/87/87
f 95/95/95 94/94/94 97/97/97
f 97/97/97 94/94/94 96/96/96
f 98/98/98 95/95/95 97/97/97
f 99/99/99 96/96/96 87/87/87
f 97/97/97 96/96/96 99/99/99
f 98/98/98 97/97/97 100/100/100
f 100/100/100 97/97/97 99/99/99
f 101/101/101 98/98/98 100/100/100
f 99/99/99 87/87/87 102/102/102
f 102/102/102 87/87/87 82/82/82
f 102/102/102 82/82/82 88/88/88
f 100/100/100 99/99/99 103/103/103
f 103/103/103 99/99/99 102/102/102
f 101/101/101 100/100/100 104/104/104
f 104/104/104 100/100/100 103/103/103
f 105/105/105 101/101/101 104/104/104
f 106/106/106 102/102/102 88/88/88
f 103/103/103 102/102/102 106/106/106
f 104/104/104 103/103/103 107/107/107
f 107/107/107 103/103/103 106/106/106
f 105/105/105 104/104/104 108/108/108
f 108/108/108 104/104/104 107/107/107
f 109/109/109 105/105/105 108/108/108
f 106/106/106 88/88/88 110/110/110
f 110/110/110 88/88/88 83/83/83
f 83/83/83 111/111/111 110/110/110
f 112/112/112 106/106/106 110/110/110
f 107/107/107 106/106/106 112/112/112
f 110/110/110 113/113/113 112/112/112
f 114/114/114 107/107/107 112/112/112
f 108/108/108 107/107/107 114/114/114
f 112/112/112 115/115/115 114/114/114
f 109/109/109 108/108/108 116/116/116
f 116/116/116 108/108/108 114/114/114
f 114/114/114 117/117/117 116/116/116
f 118/118/118 109/109/109 116/116/116
f 116/116/116 119/119/119 118/118/118
