g pSphere3
v -0.3316785 -1.0306963 -0.9801214
v -0.112471394 -1.3797472 -0.09509504
v 0.25000012 -1.0866482 -1.035552
v -0.9256234 -1.3862236 -0.0065922155
v -0.112471394 -1.3797472 -0.09509504
v -0.3316785 -1.0306963 -0.9801214
v -0.63387775 -1.3527981 0.7250013
v -0.112471394 -1.3797472 -0.09509504
v -0.9256234 -1.3862236 -0.0065922155
v 0.06320824 -1.193271 0.5737257
v -0.112471394 -1.3797472 -0.09509504
v -0.63387775 -1.3527981 0.7250013
v 0.5 -1.0866482 -0.33328405
v -0.112471394 -1.3797472 -0.09509504
v 0.06320824 -1.193271 0.5737257
v 0.25000012 -1.0866482 -1.035552
v -0.112471394 -1.3797472 -0.09509504
v 0.5 -1.0866482 -0.33328405
v 0.25000012 0.7806185 -0.9364561
v -0 0.9145931 -0.2956524
v -0.27343684 0.7806185 -0.9184669
v -0.27343684 0.7806185 -0.9184669
v -0 0.9145931 -0.2956524
v -0.60821986 0.8160392 -0.09993306
v -0.60821986 0.8160392 -0.09993306
v -0 0.9145931 -0.2956524
v -0.35666618 0.8229041 0.4488303
v -0.35666618 0.8229041 0.4488303
v -0 0.9145931 -0.2956524
v 0.22949997 0.8120431 0.34174204
v 0.22949997 0.8120431 0.34174204
v -0 0.9145931 -0.2956524
v 0.5 0.8062026 -0.22008635
v 0.5 0.8062026 -0.22008635
v -0 0.9145931 -0.2956524
v 0.25000012 0.7806185 -0.9364561
v 0.25000012 -1.0866482 -1.035552
v 0.43301293 -0.6180812 -1.5673382
v -0.4330126 -0.55449486 -1.5673385
v -0.3316785 -1.0306963 -0.9801214
v -0.3316785 -1.0306963 -0.9801214
v -0.4330126 -0.55449486 -1.5673385
v -1.4740673 -0.94119453 0.16336046
v -0.9256234 -1.3862236 -0.0065922155
v -0.9256234 -1.3862236 -0.0065922155
v -1.4740673 -0.94119453 0.16336046
v -1.0410547 -0.94119453 1.3132393
v -0.63387775 -1.3527981 0.7250013
v -0.63387775 -1.3527981 0.7250013
v -1.0410547 -0.94119453 1.3132393
v 0.23765841 -0.5952901 0.9964766
v 0.06320824 -1.193271 0.5737257
v 0.06320824 -1.193271 0.5737257
v 0.23765841 -0.5952901 0.9964766
v 0.86602545 -0.65443385 -0.3033486
v 0.5 -1.0866482 -0.33328405
v 0.5 -1.0866482 -0.33328405
v 0.86602545 -0.65443385 -0.3033486
v 0.43301293 -0.6180812 -1.5673382
v 0.25000012 -1.0866482 -1.035552
v 0.43301293 -0.6180812 -1.5673382
v 0.50000024 -0.02314773 -1.6833637
v -0.49999985 -0.0021757446 -1.6833638
v -0.4330126 -0.55449486 -1.5673385
v -0.4330126 -0.55449486 -1.5673385
v -0.49999985 -0.0021757446 -1.6833638
v -1.6080419 -0.30168676 0.2953156
v -1.4740673 -0.94119453 0.16336046
v -1.4740673 -0.94119453 0.16336046
v -1.6080419 -0.30168676 0.2953156
v -1.108042 -0.30433682 1.4704624
v -1.0410547 -0.94119453 1.3132393
v -1.0410547 -0.94119453 1.3132393
v -1.108042 -0.30433682 1.4704624
v 0.38359344 0 1.0931025
v 0.23765841 -0.5952901 0.9964766
v 0.23765841 -0.5952901 0.9964766
v 0.38359344 0 1.0931025
v 1 -0.04393167 -0.18380567
v 0.86602545 -0.65443385 -0.3033486
v 0.86602545 -0.65443385 -0.3033486
v 1 -0.04393167 -0.18380567
v 0.50000024 -0.02314773 -1.6833637
v 0.43301293 -0.6180812 -1.5673382
v 0.50000024 -0.02314773 -1.6833637
v 0.43301293 0.46961343 -1.4550216
v -0.4330126 0.47061303 -1.4512527
v -0.49999985 -0.0021757446 -1.6833638
v -0.49999985 -0.0021757446 -1.6833638
v -0.4330126 0.47061303 -1.4512527
v -1.2892923 0.4226616 0.22295563
v -1.6080419 -0.30168676 0.2953156
v -1.6080419 -0.30168676 0.2953156
v -1.2892923 0.4226616 0.22295563
v -0.8591747 0.42359182 1.2148331
v -1.108042 -0.30433682 1.4704624
v -1.108042 -0.30433682 1.4704624
v -0.8591747 0.42359182 1.2148331
v 0.34921807 0.49095112 0.91792744
v 0.38359344 0 1.0931025
v 0.38359344 0 1.0931025
v 0.34921807 0.49095112 0.91792744
v 0.86602545 0.47388488 -0.20039223
v 1 -0.04393167 -0.18380567
v 1 -0.04393167 -0.18380567
v 0.86602545 0.47388488 -0.20039223
v 0.43301293 0.46961343 -1.4550216
v 0.50000024 -0.02314773 -1.6833637
v 0.43301293 0.46961343 -1.4550216
v 0.25000012 0.7806185 -0.9364561
v -0.27343684 0.7806185 -0.9184669
v -0.4330126 0.47061303 -1.4512527
v -0.4330126 0.47061303 -1.4512527
v -0.27343684 0.7806185 -0.9184669
v -0.60821986 0.8160392 -0.09993306
v -1.2892923 0.4226616 0.22295563
v -1.2892923 0.4226616 0.22295563
v -0.60821986 0.8160392 -0.09993306
v -0.35666618 0.8229041 0.4488303
v -0.8591747 0.42359182 1.2148331
v -0.8591747 0.42359182 1.2148331
v -0.35666618 0.8229041 0.4488303
v 0.22949997 0.8120431 0.34174204
v 0.34921807 0.49095112 0.91792744
v 0.34921807 0.49095112 0.91792744
v 0.22949997 0.8120431 0.34174204
v 0.5 0.8062026 -0.22008635
v 0.86602545 0.47388488 -0.20039223
v 0.86602545 0.47388488 -0.20039223
v 0.5 0.8062026 -0.22008635
v 0.25000012 0.7806185 -0.9364561
v 0.43301293 0.46961343 -1.4550216
vt 0.16662598 0.16662598
vt 0.08331299 0
vt 0 0.16662598
vt 0.33325195 0.16662598
vt 0.25 0
vt 0.16662598 0.16662598
vt 0.5 0.16662598
vt 0.41674805 0
vt 0.33325195 0.16662598
vt 0.6665039 0.16662598
vt 0.5834961 0
vt 0.5 0.16662598
vt 0.8334961 0.16662598
vt 0.75 0
vt 0.6665039 0.16662598
vt 1 0.16662598
vt 0.9165039 0
vt 0.8334961 0.16662598
vt 0 0.8334961
vt 0.08331299 1
vt 0.16662598 0.8334961
vt 0.16662598 0.8334961
vt 0.25 1
vt 0.33325195 0.8334961
vt 0.33325195 0.8334961
vt 0.41674805 1
vt 0.5 0.8334961
vt 0.5 0.8334961
vt 0.5834961 1
vt 0.6665039 0.8334961
vt 0.6665039 0.8334961
vt 0.75 1
vt 0.8334961 0.8334961
vt 0.8334961 0.8334961
vt 0.9165039 1
vt 1 0.8334961
vt 0 0.16662598
vt 0 0.33325195
vt 0.16662598 0.33325195
vt 0.16662598 0.16662598
vt 0.16662598 0.16662598
vt 0.16662598 0.33325195
vt 0.33325195 0.33325195
vt 0.33325195 0.16662598
vt 0.33325195 0.16662598
vt 0.33325195 0.33325195
vt 0.5 0.33325195
vt 0.5 0.16662598
vt 0.5 0.16662598
vt 0.5 0.33325195
vt 0.6665039 0.33325195
vt 0.6665039 0.16662598
vt 0.6665039 0.16662598
vt 0.6665039 0.33325195
vt 0.8334961 0.33325195
vt 0.8334961 0.16662598
vt 0.8334961 0.16662598
vt 0.8334961 0.33325195
vt 1 0.33325195
vt 1 0.16662598
vt 0 0.33325195
vt 0 0.5
vt 0.16662598 0.5
vt 0.16662598 0.33325195
vt 0.16662598 0.33325195
vt 0.16662598 0.5
vt 0.33325195 0.5
vt 0.33325195 0.33325195
vt 0.33325195 0.33325195
vt 0.33325195 0.5
vt 0.5 0.5
vt 0.5 0.33325195
vt 0.5 0.33325195
vt 0.5 0.5
vt 0.6665039 0.5
vt 0.6665039 0.33325195
vt 0.6665039 0.33325195
vt 0.6665039 0.5
vt 0.8334961 0.5
vt 0.8334961 0.33325195
vt 0.8334961 0.33325195
vt 0.8334961 0.5
vt 1 0.5
vt 1 0.33325195
vt 0 0.5
vt 0 0.6665039
vt 0.16662598 0.6665039
vt 0.16662598 0.5
vt 0.16662598 0.5
vt 0.16662598 0.6665039
vt 0.33325195 0.6665039
vt 0.33325195 0.5
vt 0.33325195 0.5
vt 0.33325195 0.6665039
vt 0.5 0.6665039
vt 0.5 0.5
vt 0.5 0.5
vt 0.5 0.6665039
vt 0.6665039 0.6665039
vt 0.6665039 0.5
vt 0.6665039 0.5
vt 0.6665039 0.6665039
vt 0.8334961 0.6665039
vt 0.8334961 0.5
vt 0.8334961 0.5
vt 0.8334961 0.6665039
vt 1 0.6665039
vt 1 0.5
vt 0 0.6665039
vt 0 0.8334961
vt 0.16662598 0.8334961
vt 0.16662598 0.6665039
vt 0.16662598 0.6665039
vt 0.16662598 0.8334961
vt 0.33325195 0.8334961
vt 0.33325195 0.6665039
vt 0.33325195 0.6665039
vt 0.33325195 0.8334961
vt 0.5 0.8334961
vt 0.5 0.6665039
vt 0.5 0.6665039
vt 0.5 0.8334961
vt 0.6665039 0.8334961
vt 0.6665039 0.6665039
vt 0.6665039 0.6665039
vt 0.6665039 0.8334961
vt 0.8334961 0.8334961
vt 0.8334961 0.6665039
vt 0.8334961 0.6665039
vt 0.8334961 0.8334961
vt 1 0.8334961
vt 1 0.6665039
vn -0.12194824 -0.93310547 -0.33789062
vn -0.12194824 -0.93310547 -0.33789062
vn -0.12194824 -0.93310547 -0.33789062
vn -0.03173828 -0.9326172 -0.35986328
vn -0.03173828 -0.9326172 -0.35986328
vn -0.03173828 -0.9326172 -0.35986328
vn 0.012390137 -0.99902344 0.04071045
vn 0.012390137 -0.99902344 0.04071045
vn 0.012390137 -0.99902344 0.04071045
vn 0.2590332 -0.9458008 0.19567871
vn 0.2590332 -0.9458008 0.19567871
vn 0.2590332 -0.9458008 0.19567871
vn 0.46655273 -0.87597656 0.1217041
vn 0.46655273 -0.87597656 0.1217041
vn 0.46655273 -0.87597656 0.1217041
vn 0.38378906 -0.91308594 -0.13659668
vn 0.38378906 -0.91308594 -0.13659668
vn 0.38378906 -0.91308594 -0.13659668
vn -0.0071258545 0.97802734 -0.20727539
vn -0.0071258545 0.97802734 -0.20727539
vn -0.0071258545 0.97802734 -0.20727539
vn -0.19714355 0.97265625 -0.122680664
vn -0.19714355 0.97265625 -0.122680664
vn -0.19714355 0.97265625 -0.122680664
vn -0.1430664 0.98828125 0.05319214
vn -0.1430664 0.98828125 0.05319214
vn -0.1430664 0.98828125 0.05319214
vn 0.04446411 0.98876953 0.1430664
vn 0.04446411 0.98876953 0.1430664
vn 0.04446411 0.98876953 0.1430664
vn 0.19873047 0.9760742 0.085510254
vn 0.19873047 0.9760742 0.085510254
vn 0.19873047 0.9760742 0.085510254
vn 0.22692871 0.96728516 -0.113708496
vn 0.22692871 0.96728516 -0.113708496
vn 0.22692871 0.96728516 -0.113708496
vn -0.08734131 -0.7578125 -0.6464844
vn -0.08734131 -0.7578125 -0.6464844
vn -0.08734131 -0.7578125 -0.6464844
vn -0.08734131 -0.7578125 -0.6464844
vn -0.5698242 -0.63720703 -0.51904297
vn -0.5698242 -0.63720703 -0.51904297
vn -0.5698242 -0.63720703 -0.51904297
vn -0.5698242 -0.63720703 -0.51904297
vn -0.54541016 -0.8076172 0.2244873
vn -0.54541016 -0.8076172 0.2244873
vn -0.54541016 -0.8076172 0.2244873
vn -0.54541016 -0.8076172 0.2244873
vn 0.32788086 -0.6298828 0.70410156
vn 0.32788086 -0.6298828 0.70410156
vn 0.32788086 -0.6298828 0.70410156
vn 0.32788086 -0.6298828 0.70410156
vn 0.7558594 -0.5517578 0.35302734
vn 0.7558594 -0.5517578 0.35302734
vn 0.7558594 -0.5517578 0.35302734
vn 0.7558594 -0.5517578 0.35302734
vn 0.7475586 -0.6064453 -0.27075195
vn 0.7475586 -0.6064453 -0.27075195
vn 0.7475586 -0.6064453 -0.27075195
vn 0.7475586 -0.6064453 -0.27075195
vn -0.008979797 -0.19824219 -0.97998047
vn -0.008979797 -0.19824219 -0.97998047
vn -0.008979797 -0.19824219 -0.97998047
vn -0.008979797 -0.19824219 -0.97998047
vn -0.8461914 -0.13574219 -0.5151367
vn -0.8461914 -0.13574219 -0.5151367
vn -0.8461914 -0.13574219 -0.5151367
vn -0.8461914 -0.13574219 -0.5151367
vn -0.9042969 -0.22460938 0.36279297
vn -0.9042969 -0.22460938 0.36279297
vn -0.9042969 -0.22460938 0.36279297
vn -0.9042969 -0.22460938 0.36279297
vn 0.28393555 -0.2109375 0.9355469
vn 0.28393555 -0.2109375 0.9355469
vn 0.28393555 -0.2109375 0.9355469
vn 0.28393555 -0.2109375 0.9355469
vn 0.86083984 -0.2763672 0.42700195
vn 0.86083984 -0.2763672 0.42700195
vn 0.86083984 -0.2763672 0.42700195
vn 0.86083984 -0.2763672 0.42700195
vn 0.9350586 -0.15490723 -0.31884766
vn 0.9350586 -0.15490723 -0.31884766
vn 0.9350586 -0.15490723 -0.31884766
vn 0.9350586 -0.15490723 -0.31884766
vn 0.0032444 0.43041992 -0.90283203
vn 0.0032444 0.43041992 -0.90283203
vn 0.0032444 0.43041992 -0.90283203
vn 0.0032444 0.43041992 -0.90283203
vn -0.84472656 0.32861328 -0.42285156
vn -0.84472656 0.32861328 -0.42285156
vn -0.84472656 0.32861328 -0.42285156
vn -0.84472656 0.32861328 -0.42285156
vn -0.8383789 0.40893555 0.36010742
vn -0.8383789 0.40893555 0.36010742
vn -0.8383789 0.40893555 0.36010742
vn -0.8383789 0.40893555 0.36010742
vn 0.19274902 0.29663086 0.9355469
vn 0.19274902 0.29663086 0.9355469
vn 0.19274902 0.29663086 0.9355469
vn 0.19274902 0.29663086 0.9355469
vn 0.8828125 0.22558594 0.41186523
vn 0.8828125 0.22558594 0.41186523
vn 0.8828125 0.22558594 0.41186523
vn 0.8828125 0.22558594 0.41186523
vn 0.91796875 0.24743652 -0.3095703
vn 0.91796875 0.24743652 -0.3095703
vn 0.91796875 0.24743652 -0.3095703
vn 0.91796875 0.24743652 -0.3095703
vn -0.007347107 0.86083984 -0.50878906
vn -0.007347107 0.86083984 -0.50878906
vn -0.007347107 0.86083984 -0.50878906
vn -0.007347107 0.86083984 -0.50878906
vn -0.57666016 0.7705078 -0.27172852
vn -0.57666016 0.7705078 -0.27172852
vn -0.57666016 0.7705078 -0.27172852
vn -0.57666016 0.7705078 -0.27172852
vn -0.4248047 0.88623047 0.18347168
vn -0.4248047 0.88623047 0.18347168
vn -0.4248047 0.88623047 0.18347168
vn -0.4248047 0.88623047 0.18347168
vn 0.08288574 0.86816406 0.48950195
vn 0.08288574 0.86816406 0.48950195
vn 0.08288574 0.86816406 0.48950195
vn 0.08288574 0.86816406 0.48950195
vn 0.6269531 0.72509766 0.28393555
vn 0.6269531 0.72509766 0.28393555
vn 0.6269531 0.72509766 0.28393555
vn 0.6269531 0.72509766 0.28393555
vn 0.6425781 0.7294922 -0.23376465
vn 0.6425781 0.7294922 -0.23376465
vn 0.6425781 0.7294922 -0.23376465
vn 0.6425781 0.7294922 -0.23376465
g pSphere3_0
f 3/3/3 2/2/2 1/1/1
f 6/6/6 5/5/5 4/4/4
f 9/9/9 8/8/8 7/7/7
f 12/12/12 11/11/11 10/10/10
f 15/15/15 14/14/14 13/13/13
f 18/18/18 17/17/17 16/16/16
f 21/21/21 20/20/20 19/19/19
f 24/24/24 23/23/23 22/22/22
f 27/27/27 26/26/26 25/25/25
f 30/30/30 29/29/29 28/28/28
f 33/33/33 32/32/32 31/31/31
f 36/36/36 35/35/35 34/34/34
f 39/39/39 38/38/38 37/37/37
f 40/40/40 39/39/39 37/37/37
f 43/43/43 42/42/42 41/41/41
f 44/44/44 43/43/43 41/41/41
f 47/47/47 46/46/46 45/45/45
f 48/48/48 47/47/47 45/45/45
f 51/51/51 50/50/50 49/49/49
f 52/52/52 51/51/51 49/49/49
f 55/55/55 54/54/54 53/53/53
f 56/56/56 55/55/55 53/53/53
f 59/59/59 58/58/58 57/57/57
f 60/60/60 59/59/59 57/57/57
f 63/63/63 62/62/62 61/61/61
f 64/64/64 63/63/63 61/61/61
f 67/67/67 66/66/66 65/65/65
f 68/68/68 67/67/67 65/65/65
f 71/71/71 70/70/70 69/69/69
f 72/72/72 71/71/71 69/69/69
f 75/75/75 74/74/74 73/73/73
f 76/76/76 75/75/75 73/73/73
f 79/79/79 78/78/78 77/77/77
f 80/80/80 79/79/79 77/77/77
f 83/83/83 82/82/82 81/81/81
f 84/84/84 83/83/83 81/81/81
f 87/87/87 86/86/86 85/85/85
f 88/88/88 87/87/87 85/85/85
f 91/91/91 90/90/90 89/89/89
f 92/92/92 91/91/91 89/89/89
f 95/95/95 94/94/94 93/93/93
f 96/96/96 95/95/95 93/93/93
f 99/99/99 98/98/98 97/97/97
f 100/100/100 99/99/99 97/97/97
f 103/103/103 102/102/102 101/101/101
f 104/104/104 103/103/103 101/101/101
f 107/107/107 106/106/106 105/105/105
f 108/108/108 107/107/107 105/105/105
f 111/111/111 110/110/110 109/109/109
f 112/112/112 111/111/111 109/109/109
f 115/115/115 114/114/114 113/113/113
f 116/116/116 115/115/115 113/113/113
f 119/119/119 118/118/118 117/117/117
f 120/120/120 119/119/119 117/117/117
f 123/123/123 122/122/122 121/121/121
f 124/124/124 123/123/123 121/121/121
f 127/127/127 126/126/126 125/125/125
f 128/128/128 127/127/127 125/125/125
f 131/131/131 130/130/130 129/129/129
f 132/132/132 131/131/131 129/129/129
