g pSphere1
v 2.5958865 -0.11277518 3.55176E-08
v 1.9515597 0.45551687 -1.4178914
v 2.1001165 -0.11277518 -1.5258242
v 2.41226 0.45551687 3.2429735E-08
v 2.1001163 -0.11277518 1.5258238
v 1.1040065 1.0627953 -0.80210793
v 1.9515595 0.45551687 1.4178909
v 0.80217314 -0.11277518 2.4688349
v 1.3646271 1.0627953 -7.303298E-09
v 0.9453316 1.618034 -0.68682367
v 0.7454295 0.45551687 2.294196
v -0.80217296 -0.11277518 2.4688349
v 1.1040065 1.0627953 0.8021077
v 1.168494 1.618034 -3.587995E-10
v 0.50000006 1.9021131 -0.3632714
v -0.7454293 0.45551687 2.294196
v -2.1001163 -0.11277518 1.5258241
v 0.421693 1.0627953 1.2978375
v 0.9453315 1.618034 0.6868235
v 0.618034 1.9021131 0
v -0 2 0
v -1.9515595 0.45551687 1.4178913
v -2.5958867 -0.11277518 1.9024449E-07
v -0.42169294 1.0627953 1.2978376
v 0.36108452 1.618034 1.1113038
v 0.5 1.9021131 0.36327127
v -0 2 0
v -2.4122605 0.45551687 1.7621164E-07
v -2.1001167 -0.11277518 -1.5258237
v -1.1040065 1.0627953 0.8021079
v -0.36108446 1.618034 1.1113039
v 0.19098303 1.9021131 0.5877853
v -0 2 0
v -1.9515599 0.45551687 -1.4178909
v -0.8021734 -0.11277518 -2.4688349
v -1.3646274 1.0627953 7.403481E-08
v -0.9453316 1.618034 0.6868236
v -0.190983 1.9021131 0.5877853
v -0 2 0
v -0.74542964 0.45551687 -2.294196
v 0.8021729 -0.11277518 -2.4688354
v -1.1040068 1.0627953 -0.8021077
v -1.1684941 1.618034 6.9288866E-08
v -0.50000006 1.9021131 0.36327136
v -0 2 0
v 0.7454293 0.45551687 -2.2941961
v 2.1001165 -0.11277518 -1.5258242
v 1.9515597 0.45551687 -1.4178914
v -0.4216932 1.0627953 -1.2978377
v 0.42169285 1.0627953 -1.2978377
v 1.1040065 1.0627953 -0.80210793
v -0.9453317 1.618034 -0.68682355
v -0.61803406 1.9021131 3.6837697E-08
v -0 2 0
v 0.36108443 1.618034 -1.111304
v 0.9453316 1.618034 -0.68682367
v -0.36108467 1.618034 -1.1113039
v -0.5000001 1.9021131 -0.36327127
v -0 2 0
v -0.1909831 1.9021131 -0.5877853
v -0 2 0
v 0.19098298 1.9021131 -0.5877854
v -0 2 0
v 0.50000006 1.9021131 -0.3632714
v -0 2 0
v 2.1001165 -0.11277518 -1.5258242
v 0.8021729 -0.11277518 -2.4688354
v -0.8021734 -0.11277518 -2.4688349
v -2.1001167 -0.11277518 -1.5258237
v 2.5958865 -0.11277518 3.55176E-08
v -2.5958867 -0.11277518 1.9024449E-07
v 2.1001163 -0.11277518 1.5258238
v -2.1001163 -0.11277518 1.5258241
v 0.80217314 -0.11277518 2.4688349
v -0.80217296 -0.11277518 2.4688349
vt 0.89990234 0.5
vt 1 0.60009766
vt 1 0.5
vt 0.89990234 0.60009766
vt 0.7998047 0.5
vt 1 0.7001953
vt 0.7998047 0.60009766
vt 0.7001953 0.5
vt 0.89990234 0.7001953
vt 1 0.7998047
vt 0.7001953 0.60009766
vt 0.60009766 0.5
vt 0.7998047 0.7001953
vt 0.89990234 0.7998047
vt 1 0.89990234
vt 0.60009766 0.60009766
vt 0.5 0.5
vt 0.7001953 0.7001953
vt 0.7998047 0.7998047
vt 0.89990234 0.89990234
vt 0.9501953 1
vt 0.5 0.60009766
vt 0.39990234 0.5
vt 0.60009766 0.7001953
vt 0.7001953 0.7998047
vt 0.7998047 0.89990234
vt 0.85009766 1
vt 0.39990234 0.60009766
vt 0.30004883 0.5
vt 0.5 0.7001953
vt 0.60009766 0.7998047
vt 0.7001953 0.89990234
vt 0.75 1
vt 0.30004883 0.60009766
vt 0.19995117 0.5
vt 0.39990234 0.7001953
vt 0.5 0.7998047
vt 0.60009766 0.89990234
vt 0.64990234 1
vt 0.19995117 0.60009766
vt 0.099975586 0.5
vt 0.30004883 0.7001953
vt 0.39990234 0.7998047
vt 0.5 0.89990234
vt 0.5498047 1
vt 0.099975586 0.60009766
vt 0 0.5
vt 0 0.60009766
vt 0.19995117 0.7001953
vt 0.099975586 0.7001953
vt 0 0.7001953
vt 0.30004883 0.7998047
vt 0.39990234 0.89990234
vt 0.44995117 1
vt 0.099975586 0.7998047
vt 0 0.7998047
vt 0.19995117 0.7998047
vt 0.30004883 0.89990234
vt 0.35009766 1
vt 0.19995117 0.89990234
vt 0.25 1
vt 0.099975586 0.89990234
vt 0.15002441 1
vt 0 0.89990234
vt 0.049987793 1
vt 1 0.5
vt 0.099975586 0.5
vt 0.19995117 0.5
vt 0.30004883 0.5
vt 0.89990234 0.5
vt 0.39990234 0.5
vt 0.7998047 0.5
vt 0.5 0.5
vt 0.7001953 0.5
vt 0.60009766 0.5
vn 0.95166016 0.30737305 0
vn 0.6118164 0.6538086 -0.44458008
vn 0.77001953 0.30737305 -0.55908203
vn 0.75634766 0.6538086 0
vn 0.77001953 0.30737305 0.55908203
vn 0.49926758 0.7866211 -0.36279297
vn 0.6118164 0.6538086 0.44458008
vn 0.2939453 0.30737305 0.90478516
vn 0.6171875 0.7866211 0
vn 0.66308594 0.5727539 -0.4819336
vn 0.23376465 0.6538086 0.71972656
vn -0.2939453 0.30737305 0.90478516
vn 0.49926758 0.7866211 0.36279297
vn 0.8198242 0.5727539 0
vn 0.32666016 0.91503906 -0.23730469
vn -0.23376465 0.6538086 0.71972656
vn -0.77001953 0.30737305 0.55908203
vn 0.19067383 0.7866211 0.58691406
vn 0.66308594 0.5727539 0.4819336
vn 0.40356445 0.91503906 0
vn -0 1 0
vn -0.6118164 0.6538086 0.44458008
vn -0.95166016 0.30737305 0
vn -0.19067383 0.7866211 0.58691406
vn 0.25341797 0.5727539 0.77978516
vn 0.32666016 0.91503906 0.23730469
vn -0 1 0
vn -0.75634766 0.6538086 0
vn -0.77001953 0.30737305 -0.55908203
vn -0.49926758 0.7866211 0.36279297
vn -0.25341797 0.5727539 0.77978516
vn 0.12475586 0.91503906 0.38378906
vn -0 1 0
vn -0.6118164 0.6538086 -0.44458008
vn -0.2939453 0.30737305 -0.90478516
vn -0.6171875 0.7866211 0
vn -0.66308594 0.5727539 0.4819336
vn -0.12475586 0.91503906 0.38378906
vn -0 1 0
vn -0.23376465 0.6538086 -0.71972656
vn 0.2939453 0.30737305 -0.90478516
vn -0.49926758 0.7866211 -0.36279297
vn -0.8198242 0.5727539 0
vn -0.32666016 0.91503906 0.23730469
vn -0 1 0
vn 0.23376465 0.6538086 -0.71972656
vn 0.77001953 0.30737305 -0.55908203
vn 0.6118164 0.6538086 -0.44458008
vn -0.19067383 0.7866211 -0.58691406
vn 0.19067383 0.7866211 -0.58691406
vn 0.49926758 0.7866211 -0.36279297
vn -0.66308594 0.5727539 -0.4819336
vn -0.40356445 0.91503906 0
vn -0 1 0
vn 0.25341797 0.5727539 -0.77978516
vn 0.66308594 0.5727539 -0.4819336
vn -0.25341797 0.5727539 -0.77978516
vn -0.32666016 0.91503906 -0.23730469
vn -0 1 0
vn -0.12475586 0.91503906 -0.38378906
vn -0 1 0
vn 0.12475586 0.91503906 -0.38378906
vn -0 1 0
vn 0.32666016 0.91503906 -0.23730469
vn -0 1 0
vn -0 -1 0
vn -0 -1 0
vn -0 -1 0
vn -0 -1 0
vn -0 -1 0
vn -0 -1 0
vn -0 -1 0
vn -0 -1 0
vn -0 -1 0
vn -0 -1 0
g pSphere1_0
f 3/3/3 2/2/2 1/1/1
f 2/2/2 4/4/4 1/1/1
f 1/1/1 4/4/4 5/5/5
f 2/2/2 6/6/6 4/4/4
f 4/4/4 7/7/7 5/5/5
f 5/5/5 7/7/7 8/8/8
f 6/6/6 9/9/9 4/4/4
f 4/4/4 9/9/9 7/7/7
f 6/6/6 10/10/10 9/9/9
f 7/7/7 11/11/11 8/8/8
f 8/8/8 11/11/11 12/12/12
f 9/9/9 13/13/13 7/7/7
f 7/7/7 13/13/13 11/11/11
f 10/10/10 14/14/14 9/9/9
f 9/9/9 14/14/14 13/13/13
f 10/10/10 15/15/15 14/14/14
f 11/11/11 16/16/16 12/12/12
f 12/12/12 16/16/16 17/17/17
f 13/13/13 18/18/18 11/11/11
f 11/11/11 18/18/18 16/16/16
f 14/14/14 19/19/19 13/13/13
f 13/13/13 19/19/19 18/18/18
f 15/15/15 20/20/20 14/14/14
f 14/14/14 20/20/20 19/19/19
f 15/15/15 21/21/21 20/20/20
f 16/16/16 22/22/22 17/17/17
f 17/17/17 22/22/22 23/23/23
f 18/18/18 24/24/24 16/16/16
f 16/16/16 24/24/24 22/22/22
f 19/19/19 25/25/25 18/18/18
f 18/18/18 25/25/25 24/24/24
f 20/20/20 26/26/26 19/19/19
f 19/19/19 26/26/26 25/25/25
f 20/20/20 27/27/27 26/26/26
f 22/22/22 28/28/28 23/23/23
f 23/23/23 28/28/28 29/29/29
f 24/24/24 30/30/30 22/22/22
f 22/22/22 30/30/30 28/28/28
f 25/25/25 31/31/31 24/24/24
f 24/24/24 31/31/31 30/30/30
f 26/26/26 32/32/32 25/25/25
f 25/25/25 32/32/32 31/31/31
f 26/26/26 33/33/33 32/32/32
f 28/28/28 34/34/34 29/29/29
f 29/29/29 34/34/34 35/35/35
f 30/30/30 36/36/36 28/28/28
f 28/28/28 36/36/36 34/34/34
f 31/31/31 37/37/37 30/30/30
f 30/30/30 37/37/37 36/36/36
f 32/32/32 38/38/38 31/31/31
f 31/31/31 38/38/38 37/37/37
f 32/32/32 39/39/39 38/38/38
f 34/34/34 40/40/40 35/35/35
f 35/35/35 40/40/40 41/41/41
f 36/36/36 42/42/42 34/34/34
f 34/34/34 42/42/42 40/40/40
f 37/37/37 43/43/43 36/36/36
f 36/36/36 43/43/43 42/42/42
f 38/38/38 44/44/44 37/37/37
f 37/37/37 44/44/44 43/43/43
f 38/38/38 45/45/45 44/44/44
f 40/40/40 46/46/46 41/41/41
f 41/41/41 46/46/46 47/47/47
f 46/46/46 48/48/48 47/47/47
f 42/42/42 49/49/49 40/40/40
f 40/40/40 49/49/49 46/46/46
f 46/46/46 50/50/50 48/48/48
f 49/49/49 50/50/50 46/46/46
f 50/50/50 51/51/51 48/48/48
f 43/43/43 52/52/52 42/42/42
f 42/42/42 52/52/52 49/49/49
f 44/44/44 53/53/53 43/43/43
f 43/43/43 53/53/53 52/52/52
f 44/44/44 54/54/54 53/53/53
f 50/50/50 55/55/55 51/51/51
f 55/55/55 56/56/56 51/51/51
f 49/49/49 57/57/57 50/50/50
f 52/52/52 57/57/57 49/49/49
f 57/57/57 55/55/55 50/50/50
f 53/53/53 58/58/58 52/52/52
f 52/52/52 58/58/58 57/57/57
f 53/53/53 59/59/59 58/58/58
f 58/58/58 60/60/60 57/57/57
f 57/57/57 60/60/60 55/55/55
f 58/58/58 61/61/61 60/60/60
f 55/55/55 62/62/62 56/56/56
f 60/60/60 62/62/62 55/55/55
f 60/60/60 63/63/63 62/62/62
f 62/62/62 64/64/64 56/56/56
f 62/62/62 65/65/65 64/64/64
f 68/68/68 67/67/67 66/66/66
f 66/66/66 69/69/69 68/68/68
f 66/66/66 70/70/70 69/69/69
f 70/70/70 71/71/71 69/69/69
f 70/70/70 72/72/72 71/71/71
f 72/72/72 73/73/73 71/71/71
f 72/72/72 74/74/74 73/73/73
f 74/74/74 75/75/75 73/73/73
