g pSphere1
v -0.24999993 -0.8660254 -0.43301275
v -0 -1 0
v 0.25000012 -0.8660254 -0.43301266
v -0.4330126 -0.49999997 -0.7500001
v 0.43301293 -0.49999997 -0.75
v -0.49999985 0 -0.8660255
v 0.50000024 0 -0.8660253
v -0.4330126 0.49999997 -0.7500001
v 0.43301293 0.49999997 -0.75
v -0.24999993 0.8660254 -0.43301275
v 0.25000012 0.8660254 -0.43301266
v -0 1 0
v -0.5 0.8660254 -7.4505806E-08
v -0 1 0
v -0.86602545 0.49999997 -1.2904785E-07
v -1 0 -1.4901161E-07
v -0.86602545 -0.49999997 -1.2904785E-07
v -0.25000006 0.8660254 0.4330127
v -0 1 0
v -0.4330128 0.49999997 0.75
v -0.5 -0.8660254 -7.4505806E-08
v -0 -1 0
v -0.5000001 0 0.8660254
v 0.24999999 0.8660254 0.43301272
v -0 1 0
v -0.4330128 -0.49999997 0.75
v 0.4330127 0.49999997 0.75000006
v -0.25000006 -0.8660254 0.4330127
v -0 -1 0
v 0.49999997 0 0.86602545
v 0.5 0.8660254 0
v -0 1 0
v 0.4330127 -0.49999997 0.75000006
v 0.86602545 0.49999997 0
v 0.25000012 0.8660254 -0.43301266
v -0 1 0
v 0.43301293 0.49999997 -0.75
v 1 0 0
v 0.50000024 0 -0.8660253
v 0.86602545 -0.49999997 0
v 0.43301293 -0.49999997 -0.75
v 0.24999999 -0.8660254 0.43301272
v -0 -1 0
v 0.5 -0.8660254 0
v -0 -1 0
v 0.25000012 -0.8660254 -0.43301266
v -0 -1 0
vt 0.16662598 0.16662598
vt 0.08331299 0
vt 0 0.16662598
vt 0.16662598 0.33325195
vt 0 0.33325195
vt 0.16662598 0.5
vt 0 0.5
vt 0.16662598 0.6665039
vt 0 0.6665039
vt 0.16662598 0.8334961
vt 0 0.8334961
vt 0.08331299 1
vt 0.33325195 0.8334961
vt 0.25 1
vt 0.33325195 0.6665039
vt 0.33325195 0.5
vt 0.33325195 0.33325195
vt 0.5 0.8334961
vt 0.41674805 1
vt 0.5 0.6665039
vt 0.33325195 0.16662598
vt 0.25 0
vt 0.5 0.5
vt 0.6665039 0.8334961
vt 0.5834961 1
vt 0.5 0.33325195
vt 0.6665039 0.6665039
vt 0.5 0.16662598
vt 0.41674805 0
vt 0.6665039 0.5
vt 0.8334961 0.8334961
vt 0.75 1
vt 0.6665039 0.33325195
vt 0.8334961 0.6665039
vt 1 0.8334961
vt 0.9165039 1
vt 1 0.6665039
vt 0.8334961 0.5
vt 1 0.5
vt 0.8334961 0.33325195
vt 1 0.33325195
vt 0.6665039 0.16662598
vt 0.5834961 0
vt 0.8334961 0.16662598
vt 0.75 0
vt 1 0.16662598
vt 0.9165039 0
vn -0.32202148 -0.7651367 -0.5576172
vn -0 -1 0
vn 0.32202148 -0.7651367 -0.5576172
vn -0.45263672 -0.42529297 -0.7836914
vn 0.45263672 -0.42529297 -0.7836914
vn -0.5 0 -0.86621094
vn 0.5 0 -0.86621094
vn -0.45263672 0.42529297 -0.7836914
vn 0.45263672 0.42529297 -0.7836914
vn -0.32202148 0.7651367 -0.5576172
vn 0.32202148 0.7651367 -0.5576172
vn -0 1 0
vn -0.64404297 0.7651367 0
vn -0 1 0
vn -0.90527344 0.42529297 0
vn -1 0 0
vn -0.90527344 -0.42529297 0
vn -0.32202148 0.7651367 0.5576172
vn -0 1 0
vn -0.45263672 0.42529297 0.7836914
vn -0.64404297 -0.7651367 0
vn -0 -1 0
vn -0.5 0 0.86621094
vn 0.32202148 0.7651367 0.5576172
vn -0 1 0
vn -0.45263672 -0.42529297 0.7836914
vn 0.45263672 0.42529297 0.7836914
vn -0.32202148 -0.7651367 0.5576172
vn -0 -1 0
vn 0.5 0 0.86621094
vn 0.64404297 0.7651367 0
vn -0 1 0
vn 0.45263672 -0.42529297 0.7836914
vn 0.90527344 0.42529297 0
vn 0.32202148 0.7651367 -0.5576172
vn -0 1 0
vn 0.45263672 0.42529297 -0.7836914
vn 1 0 0
vn 0.5 0 -0.86621094
vn 0.90527344 -0.42529297 0
vn 0.45263672 -0.42529297 -0.7836914
vn 0.32202148 -0.7651367 0.5576172
vn -0 -1 0
vn 0.64404297 -0.7651367 0
vn -0 -1 0
vn 0.32202148 -0.7651367 -0.5576172
vn -0 -1 0
g pSphere1_0
f 3/3/3 2/2/2 1/1/1
f 1/1/1 4/4/4 3/3/3
f 4/4/4 5/5/5 3/3/3
f 4/4/4 6/6/6 5/5/5
f 6/6/6 7/7/7 5/5/5
f 6/6/6 8/8/8 7/7/7
f 8/8/8 9/9/9 7/7/7
f 8/8/8 10/10/10 9/9/9
f 10/10/10 11/11/11 9/9/9
f 10/10/10 12/12/12 11/11/11
f 13/13/13 10/10/10 8/8/8
f 13/13/13 14/14/14 10/10/10
f 15/15/15 8/8/8 6/6/6
f 15/15/15 13/13/13 8/8/8
f 16/16/16 6/6/6 4/4/4
f 16/16/16 15/15/15 6/6/6
f 17/17/17 4/4/4 1/1/1
f 17/17/17 16/16/16 4/4/4
f 18/18/18 13/13/13 15/15/15
f 18/18/18 19/19/19 13/13/13
f 20/20/20 15/15/15 16/16/16
f 20/20/20 18/18/18 15/15/15
f 21/21/21 17/17/17 1/1/1
f 1/1/1 22/22/22 21/21/21
f 23/23/23 16/16/16 17/17/17
f 23/23/23 20/20/20 16/16/16
f 24/24/24 18/18/18 20/20/20
f 24/24/24 25/25/25 18/18/18
f 26/26/26 17/17/17 21/21/21
f 26/26/26 23/23/23 17/17/17
f 27/27/27 20/20/20 23/23/23
f 27/27/27 24/24/24 20/20/20
f 28/28/28 26/26/26 21/21/21
f 21/21/21 29/29/29 28/28/28
f 30/30/30 23/23/23 26/26/26
f 30/30/30 27/27/27 23/23/23
f 31/31/31 24/24/24 27/27/27
f 31/31/31 32/32/32 24/24/24
f 33/33/33 26/26/26 28/28/28
f 33/33/33 30/30/30 26/26/26
f 34/34/34 27/27/27 30/30/30
f 34/34/34 31/31/31 27/27/27
f 35/35/35 31/31/31 34/34/34
f 35/35/35 36/36/36 31/31/31
f 37/37/37 35/35/35 34/34/34
f 38/38/38 34/34/34 30/30/30
f 37/37/37 34/34/34 38/38/38
f 38/38/38 30/30/30 33/33/33
f 39/39/39 37/37/37 38/38/38
f 39/39/39 38/38/38 40/40/40
f 40/40/40 38/38/38 33/33/33
f 41/41/41 39/39/39 40/40/40
f 42/42/42 33/33/33 28/28/28
f 40/40/40 33/33/33 42/42/42
f 28/28/28 43/43/43 42/42/42
f 41/41/41 40/40/40 44/44/44
f 44/44/44 40/40/40 42/42/42
f 42/42/42 45/45/45 44/44/44
f 46/46/46 41/41/41 44/44/44
f 44/44/44 47/47/47 46/46/46
