g pSphere1
v 0.11489191 -0.7803128 -0.41827995
v -0 -0.7961973 0
v 0.28699625 -0.77321535 -0.2822231
v 0.19142303 -0.719298 -0.84023046
v 0.52371436 -0.6947437 -0.55416214
v 0.2509907 -0.570313 -1.236116
v 0.7026946 -0.5412624 -0.80645585
v 0.2938926 -0.30901697 -1.5239868
v 0.8137933 -0.3011446 -0.9880373
v 0.30901694 0 -1.6299522
v 0.85157305 0 -1.0544804
v 0.2938926 0.30901697 -1.5239868
v 0.8137933 0.30114457 -0.9880373
v 0.2509907 0.570313 -1.236116
v 0.7026946 0.5412624 -0.80645585
v 0.19142303 0.719298 -0.84023046
v 0.52371436 0.6947437 -0.55416214
v 0.11489191 0.7803128 -0.41827995
v 0.28699625 0.77321535 -0.2822231
v -0 0.7961973 0
v -0.11489197 0.7803128 -0.4182799
v -0 0.7961973 0
v -0.19142315 0.719298 -0.8402304
v -0.25099087 0.570313 -1.2361159
v -0.29389277 0.30901697 -1.5239866
v -0.28699625 0.77321535 -0.28222305
v -0 0.7961973 0
v -0.5237144 0.6947437 -0.554162
v -0.30901715 0 -1.6299522
v -0.7026947 0.5412624 -0.80645573
v -0.3572031 0.7650909 1.8418849E-08
v -0 0.7961973 0
v -0.67269856 0.66891634 3.503473E-08
v -0.8137934 0.30114457 -0.9880371
v -0.29389277 -0.30901697 -1.5239866
v -0.28699622 0.77321535 0.28222314
v -0 0.7961973 0
v -0.92985827 0.5033657 4.822117E-08
v -0.85157317 0 -1.0544803
v -0.25099087 -0.570313 -1.2361159
v -0.52371436 0.6947437 0.5541621
v -1.0999638 0.27167624 5.6687387E-08
v -0.8137934 -0.3011446 -0.9880371
v -0.19142315 -0.719298 -0.8402304
v -0.11489192 0.7803128 0.4182799
v -0 0.7961973 0
v -0.7026946 0.5412624 0.80645585
v -1.159873 9.313226E-10 5.9604645E-08
v -0.7026947 -0.5412624 -0.80645573
v -0.11489197 -0.7803128 -0.4182799
v -0 -0.7961973 0
v -0.19142304 0.719298 0.8402304
v -0.8137933 0.30114457 0.9880372
v -1.0999638 -0.27167624 5.6687387E-08
v -0.5237144 -0.6947437 -0.554162
v 0.11489193 0.7803128 0.4182799
v -0 0.7961973 0
v -0.25099072 0.570313 1.2361159
v -0.85157305 0 1.0544803
v -0.92985827 -0.5033657 4.822117E-08
v -0.28699625 -0.77321535 -0.28222305
v -0 -0.7961973 0
v 0.19142307 0.719298 0.84023035
v -0.29389262 0.30901697 1.5239866
v -0.8137933 -0.3011446 0.9880372
v -0.67269856 -0.66891634 3.503473E-08
v 0.28699622 0.77321535 0.2822231
v -0 0.7961973 0
v 0.25099078 0.570313 1.2361159
v -0.30901697 0 1.6299522
v -0.7026946 -0.5412624 0.80645585
v -0.3572031 -0.7650908 1.8418849E-08
v -0 -0.7961973 0
v 0.5237143 0.6947437 0.554162
v 0.29389268 0.30901697 1.5239866
v -0.29389262 -0.30901697 1.5239866
v -0.52371436 -0.6947437 0.5541621
v 0.35720307 0.7650909 0
v -0 0.7961973 0
v 0.7026946 0.5412624 0.80645573
v 0.30901703 0 1.6299521
v -0.25099072 -0.570313 1.2361159
v -0.28699622 -0.77321535 0.28222314
v -0 -0.7961973 0
v 0.6726985 0.66891634 0
v 0.81379324 0.30114457 0.9880371
v 0.29389268 -0.30901697 1.5239866
v -0.19142304 -0.719298 0.8402304
v 0.28699625 0.77321535 -0.2822231
v -0 0.7961973 0
v 0.52371436 0.6947437 -0.55416214
v 0.92985815 0.5033657 0
v 0.7026946 0.5412624 -0.80645585
v 1.0999637 0.27167624 0
v 0.8137933 0.30114457 -0.9880373
v 0.851573 0 1.0544803
v 1.159873 9.313226E-10 0
v 0.85157305 0 -1.0544804
v 0.81379324 -0.3011446 0.9880371
v 1.0999637 -0.27167624 0
v 0.8137933 -0.3011446 -0.9880373
v 0.25099078 -0.570313 1.2361159
v 0.7026946 -0.5412624 0.80645573
v 0.92985815 -0.5033657 0
v 0.7026946 -0.5412624 -0.80645585
v 0.19142307 -0.719298 0.84023035
v 0.5237143 -0.6947437 0.554162
v 0.6726985 -0.66891634 0
v 0.52371436 -0.6947437 -0.55416214
v -0.11489192 -0.7803128 0.4182799
v -0 -0.7961973 0
v 0.11489193 -0.7803128 0.4182799
v -0 -0.7961973 0
v 0.28699622 -0.77321535 0.2822231
v -0 -0.7961973 0
v 0.35720307 -0.7650908 0
v -0 -0.7961973 0
v 0.28699625 -0.77321535 -0.2822231
v -0 -0.7961973 0
vt 0.099975586 0.099975586
vt 0.049987793 0
vt 0 0.099975586
vt 0.099975586 0.19995117
vt 0 0.19995117
vt 0.099975586 0.30004883
vt 0 0.30004883
vt 0.099975586 0.39990234
vt 0 0.39990234
vt 0.099975586 0.5
vt 0 0.5
vt 0.099975586 0.60009766
vt 0 0.60009766
vt 0.099975586 0.7001953
vt 0 0.7001953
vt 0.099975586 0.7998047
vt 0 0.7998047
vt 0.099975586 0.89990234
vt 0 0.89990234
vt 0.049987793 1
vt 0.19995117 0.89990234
vt 0.15002441 1
vt 0.19995117 0.7998047
vt 0.19995117 0.7001953
vt 0.19995117 0.60009766
vt 0.30004883 0.89990234
vt 0.25 1
vt 0.30004883 0.7998047
vt 0.19995117 0.5
vt 0.30004883 0.7001953
vt 0.39990234 0.89990234
vt 0.35009766 1
vt 0.39990234 0.7998047
vt 0.30004883 0.60009766
vt 0.19995117 0.39990234
vt 0.5 0.89990234
vt 0.44995117 1
vt 0.39990234 0.7001953
vt 0.30004883 0.5
vt 0.19995117 0.30004883
vt 0.5 0.7998047
vt 0.39990234 0.60009766
vt 0.30004883 0.39990234
vt 0.19995117 0.19995117
vt 0.60009766 0.89990234
vt 0.5498047 1
vt 0.5 0.7001953
vt 0.39990234 0.5
vt 0.30004883 0.30004883
vt 0.19995117 0.099975586
vt 0.15002441 0
vt 0.60009766 0.7998047
vt 0.5 0.60009766
vt 0.39990234 0.39990234
vt 0.30004883 0.19995117
vt 0.7001953 0.89990234
vt 0.64990234 1
vt 0.60009766 0.7001953
vt 0.5 0.5
vt 0.39990234 0.30004883
vt 0.30004883 0.099975586
vt 0.25 0
vt 0.7001953 0.7998047
vt 0.60009766 0.60009766
vt 0.5 0.39990234
vt 0.39990234 0.19995117
vt 0.7998047 0.89990234
vt 0.75 1
vt 0.7001953 0.7001953
vt 0.60009766 0.5
vt 0.5 0.30004883
vt 0.39990234 0.099975586
vt 0.35009766 0
vt 0.7998047 0.7998047
vt 0.7001953 0.60009766
vt 0.60009766 0.39990234
vt 0.5 0.19995117
vt 0.89990234 0.89990234
vt 0.85009766 1
vt 0.7998047 0.7001953
vt 0.7001953 0.5
vt 0.60009766 0.30004883
vt 0.5 0.099975586
vt 0.44995117 0
vt 0.89990234 0.7998047
vt 0.7998047 0.60009766
vt 0.7001953 0.39990234
vt 0.60009766 0.19995117
vt 1 0.89990234
vt 0.9501953 1
vt 1 0.7998047
vt 0.89990234 0.7001953
vt 1 0.7001953
vt 0.89990234 0.60009766
vt 1 0.60009766
vt 0.7998047 0.5
vt 0.89990234 0.5
vt 1 0.5
vt 0.7998047 0.39990234
vt 0.89990234 0.39990234
vt 1 0.39990234
vt 0.7001953 0.30004883
vt 0.7998047 0.30004883
vt 0.89990234 0.30004883
vt 1 0.30004883
vt 0.7001953 0.19995117
vt 0.7998047 0.19995117
vt 0.89990234 0.19995117
vt 1 0.19995117
vt 0.60009766 0.099975586
vt 0.5498047 0
vt 0.7001953 0.099975586
vt 0.64990234 0
vt 0.7998047 0.099975586
vt 0.75 0
vt 0.89990234 0.099975586
vt 0.85009766 0
vt 1 0.099975586
vt 0.9501953 0
vn 0.07501221 -0.99072266 -0.113342285
vn -0 -1 0
vn 0.20581055 -0.9765625 -0.059448242
vn 0.15026855 -0.9511719 -0.26879883
vn 0.39111328 -0.90722656 -0.15612793
vn 0.2578125 -0.8149414 -0.51953125
vn 0.6176758 -0.7265625 -0.30126953
vn 0.36767578 -0.50878906 -0.7783203
vn 0.8017578 -0.41064453 -0.4345703
vn 0.41723633 0 -0.9086914
vn 0.87353516 0 -0.48706055
vn 0.36767578 0.50878906 -0.7783203
vn 0.8017578 0.41064453 -0.4345703
vn 0.2578125 0.8149414 -0.51953125
vn 0.6176758 0.7265625 -0.30126953
vn 0.15026855 0.9511719 -0.26879883
vn 0.39111328 0.90722656 -0.15612793
vn 0.07501221 0.99072266 -0.113342285
vn 0.20581055 0.9765625 -0.059448242
vn -0 1 0
vn -0.07501221 0.99072266 -0.113342285
vn -0 1 0
vn -0.15026855 0.9511719 -0.26879883
vn -0.2578125 0.8149414 -0.51953125
vn -0.36767578 0.50878906 -0.7783203
vn -0.20581055 0.9765625 -0.059448242
vn -0 1 0
vn -0.39111328 0.90722656 -0.15612793
vn -0.41723633 0 -0.9086914
vn -0.6176758 0.7265625 -0.30126953
vn -0.24377441 0.96972656 0
vn -0 1 0
vn -0.46704102 0.88427734 0
vn -0.8017578 0.41064453 -0.4345703
vn -0.36767578 -0.50878906 -0.7783203
vn -0.20581055 0.9765625 0.059448242
vn -0 1 0
vn -0.7324219 0.68066406 0
vn -0.87353516 0 -0.48706055
vn -0.2578125 -0.8149414 -0.51953125
vn -0.39111328 0.90722656 0.15612793
vn -0.9316406 0.36376953 0
vn -0.8017578 -0.41064453 -0.4345703
vn -0.15026855 -0.9511719 -0.26879883
vn -0.07501221 0.99072266 0.113342285
vn -0 1 0
vn -0.6176758 0.7265625 0.30126953
vn -1 0 0
vn -0.6176758 -0.7265625 -0.30126953
vn -0.07501221 -0.99072266 -0.113342285
vn -0 -1 0
vn -0.15026855 0.9511719 0.26879883
vn -0.8017578 0.41064453 0.4345703
vn -0.9316406 -0.36376953 0
vn -0.39111328 -0.90722656 -0.15612793
vn 0.07501221 0.99072266 0.113342285
vn -0 1 0
vn -0.2578125 0.8149414 0.51953125
vn -0.87353516 0 0.48706055
vn -0.7324219 -0.68066406 0
vn -0.20581055 -0.9765625 -0.059448242
vn -0 -1 0
vn 0.15026855 0.9511719 0.26879883
vn -0.36767578 0.50878906 0.7783203
vn -0.8017578 -0.41064453 0.4345703
vn -0.46704102 -0.88427734 0
vn 0.20581055 0.9765625 0.059448242
vn -0 1 0
vn 0.2578125 0.8149414 0.51953125
vn -0.41723633 0 0.9086914
vn -0.6176758 -0.7265625 0.30126953
vn -0.24377441 -0.96972656 0
vn -0 -1 0
vn 0.39111328 0.90722656 0.15612793
vn 0.36767578 0.50878906 0.7783203
vn -0.36767578 -0.50878906 0.7783203
vn -0.39111328 -0.90722656 0.15612793
vn 0.24377441 0.96972656 0
vn -0 1 0
vn 0.6176758 0.7265625 0.30126953
vn 0.41723633 0 0.9086914
vn -0.2578125 -0.8149414 0.51953125
vn -0.20581055 -0.9765625 0.059448242
vn -0 -1 0
vn 0.46704102 0.88427734 0
vn 0.8017578 0.41064453 0.4345703
vn 0.36767578 -0.50878906 0.7783203
vn -0.15026855 -0.9511719 0.26879883
vn 0.20581055 0.9765625 -0.059448242
vn -0 1 0
vn 0.39111328 0.90722656 -0.15612793
vn 0.7324219 0.68066406 0
vn 0.6176758 0.7265625 -0.30126953
vn 0.9316406 0.36376953 0
vn 0.8017578 0.41064453 -0.4345703
vn 0.87353516 0 0.48706055
vn 1 0 0
vn 0.87353516 0 -0.48706055
vn 0.8017578 -0.41064453 0.4345703
vn 0.9316406 -0.36376953 0
vn 0.8017578 -0.41064453 -0.4345703
vn 0.2578125 -0.8149414 0.51953125
vn 0.6176758 -0.7265625 0.30126953
vn 0.7324219 -0.68066406 0
vn 0.6176758 -0.7265625 -0.30126953
vn 0.15026855 -0.9511719 0.26879883
vn 0.39111328 -0.90722656 0.15612793
vn 0.46704102 -0.88427734 0
vn 0.39111328 -0.90722656 -0.15612793
vn -0.07501221 -0.99072266 0.113342285
vn -0 -1 0
vn 0.07501221 -0.99072266 0.113342285
vn -0 -1 0
vn 0.20581055 -0.9765625 0.059448242
vn -0 -1 0
vn 0.24377441 -0.96972656 0
vn -0 -1 0
vn 0.20581055 -0.9765625 -0.059448242
vn -0 -1 0
g pSphere1_0
f 3/3/3 2/2/2 1/1/1
f 1/1/1 4/4/4 3/3/3
f 4/4/4 5/5/5 3/3/3
f 4/4/4 6/6/6 5/5/5
f 6/6/6 7/7/7 5/5/5
f 6/6/6 8/8/8 7/7/7
f 8/8/8 9/9/9 7/7/7
f 8/8/8 10/10/10 9/9/9
f 10/10/10 11/11/11 9/9/9
f 10/10/10 12/12/12 11/11/11
f 12/12/12 13/13/13 11/11/11
f 12/12/12 14/14/14 13/13/13
f 14/14/14 15/15/15 13/13/13
f 14/14/14 16/16/16 15/15/15
f 16/16/16 17/17/17 15/15/15
f 16/16/16 18/18/18 17/17/17
f 18/18/18 19/19/19 17/17/17
f 18/18/18 20/20/20 19/19/19
f 21/21/21 18/18/18 16/16/16
f 21/21/21 22/22/22 18/18/18
f 23/23/23 16/16/16 14/14/14
f 23/23/23 21/21/21 16/16/16
f 24/24/24 14/14/14 12/12/12
f 24/24/24 23/23/23 14/14/14
f 25/25/25 12/12/12 10/10/10
f 25/25/25 24/24/24 12/12/12
f 26/26/26 21/21/21 23/23/23
f 26/26/26 27/27/27 21/21/21
f 28/28/28 23/23/23 24/24/24
f 28/28/28 26/26/26 23/23/23
f 29/29/29 25/25/25 10/10/10
f 29/29/29 10/10/10 8/8/8
f 30/30/30 24/24/24 25/25/25
f 30/30/30 28/28/28 24/24/24
f 31/31/31 26/26/26 28/28/28
f 31/31/31 32/32/32 26/26/26
f 33/33/33 31/31/31 28/28/28
f 33/33/33 28/28/28 30/30/30
f 34/34/34 30/30/30 25/25/25
f 34/34/34 25/25/25 29/29/29
f 35/35/35 29/29/29 8/8/8
f 35/35/35 8/8/8 6/6/6
f 36/36/36 31/31/31 33/33/33
f 36/36/36 37/37/37 31/31/31
f 38/38/38 33/33/33 30/30/30
f 38/38/38 30/30/30 34/34/34
f 39/39/39 34/34/34 29/29/29
f 39/39/39 29/29/29 35/35/35
f 40/40/40 35/35/35 6/6/6
f 40/40/40 6/6/6 4/4/4
f 41/41/41 36/36/36 33/33/33
f 41/41/41 33/33/33 38/38/38
f 42/42/42 38/38/38 34/34/34
f 42/42/42 34/34/34 39/39/39
f 43/43/43 39/39/39 35/35/35
f 43/43/43 35/35/35 40/40/40
f 44/44/44 40/40/40 4/4/4
f 44/44/44 4/4/4 1/1/1
f 45/45/45 36/36/36 41/41/41
f 45/45/45 46/46/46 36/36/36
f 47/47/47 41/41/41 38/38/38
f 47/47/47 38/38/38 42/42/42
f 48/48/48 42/42/42 39/39/39
f 48/48/48 39/39/39 43/43/43
f 49/49/49 43/43/43 40/40/40
f 49/49/49 40/40/40 44/44/44
f 50/50/50 44/44/44 1/1/1
f 1/1/1 51/51/51 50/50/50
f 52/52/52 45/45/45 41/41/41
f 52/52/52 41/41/41 47/47/47
f 53/53/53 47/47/47 42/42/42
f 53/53/53 42/42/42 48/48/48
f 54/54/54 48/48/48 43/43/43
f 54/54/54 43/43/43 49/49/49
f 55/55/55 44/44/44 50/50/50
f 55/55/55 49/49/49 44/44/44
f 56/56/56 45/45/45 52/52/52
f 56/56/56 57/57/57 45/45/45
f 58/58/58 52/52/52 47/47/47
f 58/58/58 47/47/47 53/53/53
f 59/59/59 53/53/53 48/48/48
f 59/59/59 48/48/48 54/54/54
f 60/60/60 54/54/54 49/49/49
f 60/60/60 49/49/49 55/55/55
f 61/61/61 55/55/55 50/50/50
f 50/50/50 62/62/62 61/61/61
f 63/63/63 56/56/56 52/52/52
f 63/63/63 52/52/52 58/58/58
f 64/64/64 58/58/58 53/53/53
f 64/64/64 53/53/53 59/59/59
f 65/65/65 59/59/59 54/54/54
f 65/65/65 54/54/54 60/60/60
f 66/66/66 55/55/55 61/61/61
f 66/66/66 60/60/60 55/55/55
f 67/67/67 56/56/56 63/63/63
f 67/67/67 68/68/68 56/56/56
f 69/69/69 63/63/63 58/58/58
f 69/69/69 58/58/58 64/64/64
f 70/70/70 64/64/64 59/59/59
f 70/70/70 59/59/59 65/65/65
f 71/71/71 65/65/65 60/60/60
f 71/71/71 60/60/60 66/66/66
f 72/72/72 66/66/66 61/61/61
f 61/61/61 73/73/73 72/72/72
f 74/74/74 67/67/67 63/63/63
f 74/74/74 63/63/63 69/69/69
f 75/75/75 69/69/69 64/64/64
f 75/75/75 64/64/64 70/70/70
f 76/76/76 70/70/70 65/65/65
f 76/76/76 65/65/65 71/71/71
f 77/77/77 66/66/66 72/72/72
f 77/77/77 71/71/71 66/66/66
f 78/78/78 67/67/67 74/74/74
f 78/78/78 79/79/79 67/67/67
f 80/80/80 74/74/74 69/69/69
f 80/80/80 69/69/69 75/75/75
f 81/81/81 75/75/75 70/70/70
f 81/81/81 70/70/70 76/76/76
f 82/82/82 76/76/76 71/71/71
f 82/82/82 71/71/71 77/77/77
f 83/83/83 77/77/77 72/72/72
f 72/72/72 84/84/84 83/83/83
f 85/85/85 78/78/78 74/74/74
f 85/85/85 74/74/74 80/80/80
f 86/86/86 80/80/80 75/75/75
f 86/86/86 75/75/75 81/81/81
f 87/87/87 81/81/81 76/76/76
f 87/87/87 76/76/76 82/82/82
f 88/88/88 77/77/77 83/83/83
f 88/88/88 82/82/82 77/77/77
f 89/89/89 78/78/78 85/85/85
f 89/89/89 90/90/90 78/78/78
f 91/91/91 89/89/89 85/85/85
f 92/92/92 85/85/85 80/80/80
f 91/91/91 85/85/85 92/92/92
f 92/92/92 80/80/80 86/86/86
f 93/93/93 91/91/91 92/92/92
f 93/93/93 92/92/92 94/94/94
f 94/94/94 92/92/92 86/86/86
f 95/95/95 93/93/93 94/94/94
f 94/94/94 86/86/86 96/96/96
f 96/96/96 86/86/86 81/81/81
f 96/96/96 81/81/81 87/87/87
f 95/95/95 94/94/94 97/97/97
f 97/97/97 94/94/94 96/96/96
f 98/98/98 95/95/95 97/97/97
f 99/99/99 96/96/96 87/87/87
f 97/97/97 96/96/96 99/99/99
f 98/98/98 97/97/97 100/100/100
f 100/100/100 97/97/97 99/99/99
f 101/101/101 98/98/98 100/100/100
f 99/99/99 87/87/87 102/102/102
f 102/102/102 87/87/87 82/82/82
f 102/102/102 82/82/82 88/88/88
f 100/100/100 99/99/99 103/103/103
f 103/103/103 99/99/99 102/102/102
f 101/101/101 100/100/100 104/104/104
f 104/104/104 100/100/100 103/103/103
f 105/105/105 101/101/101 104/104/104
f 106/106/106 102/102/102 88/88/88
f 103/103/103 102/102/102 106/106/106
f 104/104/104 103/103/103 107/107/107
f 107/107/107 103/103/103 106/106/106
f 105/105/105 104/104/104 108/108/108
f 108/108/108 104/104/104 107/107/107
f 109/109/109 105/105/105 108/108/108
f 106/106/106 88/88/88 110/110/110
f 110/110/110 88/88/88 83/83/83
f 83/83/83 111/111/111 110/110/110
f 112/112/112 106/106/106 110/110/110
f 107/107/107 106/106/106 112/112/112
f 110/110/110 113/113/113 112/112/112
f 114/114/114 107/107/107 112/112/112
f 108/108/108 107/107/107 114/114/114
f 112/112/112 115/115/115 114/114/114
f 109/109/109 108/108/108 116/116/116
f 116/116/116 108/108/108 114/114/114
f 114/114/114 117/117/117 116/116/116
f 118/118/118 109/109/109 116/116/116
f 116/116/116 119/119/119 118/118/118
