g pSphere1
v -0.51035213 -0.809017 -0.5283149
v -0 -1 0
v 0.14681187 -0.809017 -0.7418404
v -0.47571945 -0.86303663 0.56016576
v -0 -1 0
v -0.51035213 -0.809017 -0.5283149
v 0.18163562 -0.86308384 0.77488333
v -0 -1 0
v -0.47571945 -0.86303663 0.56016576
v 0.5875941 -0.8092999 0.00012594543
v -0 -1 0
v 0.18163562 -0.86308384 0.77488333
v 0.14681187 -0.809017 -0.7418404
v -0 -1 0
v 0.5875941 -0.8092999 0.00012594543
v 0.14681187 0.809017 -0.7418404
v -0 1 0
v -0.51035213 0.809017 -0.5283149
v -0.51035213 0.809017 -0.5283149
v -0 1 0
v -0.47571945 0.7549974 0.56016576
v -0.47571945 0.7549974 0.56016576
v -0 1 0
v 0.18163562 0.75495017 0.77488333
v 0.18163562 0.75495017 0.77488333
v -0 1 0
v 0.5875941 0.8087341 0.00012594543
v 0.5875941 0.8087341 0.00012594543
v -0 1 0
v 0.14681187 0.809017 -0.7418404
v 0.14681187 -0.809017 -0.7418404
v 0.20888858 -0.30901697 -1.350776
v -0.8544251 -0.30901697 -1.0052845
v -0.51035213 -0.809017 -0.5283149
v -0.51035213 -0.809017 -0.5283149
v -0.8544251 -0.30901697 -1.0052845
v -0.769421 -0.4409929 1.0859416
v -0.47571945 -0.86303663 0.56016576
v -0.47571945 -0.86303663 0.56016576
v -0.769421 -0.4409929 1.0859416
v 0.29389262 -0.4409929 1.4314331
v 0.18163562 -0.86308384 0.77488333
v 0.18163562 -0.86308384 0.77488333
v 0.29389262 -0.4409929 1.4314331
v 0.95105654 -0.30901697 0
v 0.5875941 -0.8092999 0.00012594543
v 0.5875941 -0.8092999 0.00012594543
v 0.95105654 -0.30901697 0
v 0.20888858 -0.30901697 -1.350776
v 0.14681187 -0.809017 -0.7418404
v 0.20888858 -0.30901697 -1.350776
v 0.20888858 0.30901697 -1.350776
v -0.8544251 0.30901697 -1.0052845
v -0.8544251 -0.30901697 -1.0052845
v -0.8544251 -0.30901697 -1.0052845
v -0.8544251 0.30901697 -1.0052845
v -0.769421 0.17704107 1.0859416
v -0.769421 -0.4409929 1.0859416
v -0.769421 -0.4409929 1.0859416
v -0.769421 0.17704107 1.0859416
v 0.29389262 0.17704107 1.4314331
v 0.29389262 -0.4409929 1.4314331
v 0.29389262 -0.4409929 1.4314331
v 0.29389262 0.17704107 1.4314331
v 0.95105654 0.30901697 0
v 0.95105654 -0.30901697 0
v 0.95105654 -0.30901697 0
v 0.95105654 0.30901697 0
v 0.20888858 0.30901697 -1.350776
v 0.20888858 -0.30901697 -1.350776
v 0.20888858 0.30901697 -1.350776
v 0.14681187 0.809017 -0.7418404
v -0.51035213 0.809017 -0.5283149
v -0.8544251 0.30901697 -1.0052845
v -0.8544251 0.30901697 -1.0052845
v -0.51035213 0.809017 -0.5283149
v -0.47571945 0.7549974 0.56016576
v -0.769421 0.17704107 1.0859416
v -0.769421 0.17704107 1.0859416
v -0.47571945 0.7549974 0.56016576
v 0.18163562 0.75495017 0.77488333
v 0.29389262 0.17704107 1.4314331
v 0.29389262 0.17704107 1.4314331
v 0.18163562 0.75495017 0.77488333
v 0.5875941 0.8087341 0.00012594543
v 0.95105654 0.30901697 0
v 0.95105654 0.30901697 0
v 0.5875941 0.8087341 0.00012594543
v 0.14681187 0.809017 -0.7418404
v 0.20888858 0.30901697 -1.350776
vt 0.19995117 0.19995117
vt 0.099975586 0
vt 0 0.19995117
vt 0.39990234 0.19995117
vt 0.30004883 0
vt 0.19995117 0.19995117
vt 0.60009766 0.19995117
vt 0.5 0
vt 0.39990234 0.19995117
vt 0.7998047 0.19995117
vt 0.7001953 0
vt 0.60009766 0.19995117
vt 1 0.19995117
vt 0.89990234 0
vt 0.7998047 0.19995117
vt 0 0.7998047
vt 0.099975586 1
vt 0.19995117 0.7998047
vt 0.19995117 0.7998047
vt 0.30004883 1
vt 0.39990234 0.7998047
vt 0.39990234 0.7998047
vt 0.5 1
vt 0.60009766 0.7998047
vt 0.60009766 0.7998047
vt 0.7001953 1
vt 0.7998047 0.7998047
vt 0.7998047 0.7998047
vt 0.89990234 1
vt 1 0.7998047
vt 0 0.19995117
vt 0 0.39990234
vt 0.19995117 0.39990234
vt 0.19995117 0.19995117
vt 0.19995117 0.19995117
vt 0.19995117 0.39990234
vt 0.39990234 0.39990234
vt 0.39990234 0.19995117
vt 0.39990234 0.19995117
vt 0.39990234 0.39990234
vt 0.60009766 0.39990234
vt 0.60009766 0.19995117
vt 0.60009766 0.19995117
vt 0.60009766 0.39990234
vt 0.7998047 0.39990234
vt 0.7998047 0.19995117
vt 0.7998047 0.19995117
vt 0.7998047 0.39990234
vt 1 0.39990234
vt 1 0.19995117
vt 0 0.39990234
vt 0 0.60009766
vt 0.19995117 0.60009766
vt 0.19995117 0.39990234
vt 0.19995117 0.39990234
vt 0.19995117 0.60009766
vt 0.39990234 0.60009766
vt 0.39990234 0.39990234
vt 0.39990234 0.39990234
vt 0.39990234 0.60009766
vt 0.60009766 0.60009766
vt 0.60009766 0.39990234
vt 0.60009766 0.39990234
vt 0.60009766 0.60009766
vt 0.7998047 0.60009766
vt 0.7998047 0.39990234
vt 0.7998047 0.39990234
vt 0.7998047 0.60009766
vt 1 0.60009766
vt 1 0.39990234
vt 0 0.60009766
vt 0 0.7998047
vt 0.19995117 0.7998047
vt 0.19995117 0.60009766
vt 0.19995117 0.60009766
vt 0.19995117 0.7998047
vt 0.39990234 0.7998047
vt 0.39990234 0.60009766
vt 0.39990234 0.60009766
vt 0.39990234 0.7998047
vt 0.60009766 0.7998047
vt 0.60009766 0.60009766
vt 0.60009766 0.60009766
vt 0.60009766 0.7998047
vt 0.7998047 0.7998047
vt 0.7998047 0.60009766
vt 0.7998047 0.60009766
vt 0.7998047 0.7998047
vt 1 0.7998047
vt 1 0.60009766
vn -0.085876465 -0.9604492 -0.2644043
vn -0.085876465 -0.9604492 -0.2644043
vn -0.085876465 -0.9604492 -0.2644043
vn -0.31640625 -0.9477539 -0.036987305
vn -0.31640625 -0.9477539 -0.036987305
vn -0.31640625 -0.9477539 -0.036987305
vn -0.061340332 -0.98046875 0.18762207
vn -0.061340332 -0.98046875 0.18762207
vn -0.061340332 -0.98046875 0.18762207
vn 0.30737305 -0.94677734 0.09527588
vn 0.30737305 -0.94677734 0.09527588
vn 0.30737305 -0.94677734 0.09527588
vn 0.30371094 -0.9355469 -0.18078613
vn 0.30371094 -0.9355469 -0.18078613
vn 0.30371094 -0.9355469 -0.18078613
vn -0.085876465 0.9604492 -0.2644043
vn -0.085876465 0.9604492 -0.2644043
vn -0.085876465 0.9604492 -0.2644043
vn -0.4020996 0.9135742 0.058135986
vn -0.4020996 0.9135742 0.058135986
vn -0.4020996 0.9135742 0.058135986
vn -0.105163574 0.94091797 0.32226562
vn -0.105163574 0.94091797 0.32226562
vn -0.105163574 0.94091797 0.32226562
vn 0.3017578 0.9272461 0.22241211
vn 0.3017578 0.9272461 0.22241211
vn 0.3017578 0.9272461 0.22241211
vn 0.30444336 0.9350586 -0.18054199
vn 0.30444336 0.9350586 -0.18054199
vn 0.30444336 0.9350586 -0.18054199
vn -0.20581055 -0.74609375 -0.6333008
vn -0.20581055 -0.74609375 -0.6333008
vn -0.20581055 -0.74609375 -0.6333008
vn -0.20581055 -0.74609375 -0.6333008
vn -0.8222656 -0.56884766 -0.002325058
vn -0.8222656 -0.56884766 -0.002325058
vn -0.8222656 -0.56884766 -0.002325058
vn -0.8222656 -0.56884766 -0.002325058
vn -0.18005371 -0.81347656 0.55322266
vn -0.18005371 -0.81347656 0.55322266
vn -0.18005371 -0.81347656 0.55322266
vn -0.18005371 -0.81347656 0.55322266
vn 0.7397461 -0.5991211 0.3059082
vn 0.7397461 -0.5991211 0.3059082
vn 0.7397461 -0.5991211 0.3059082
vn 0.7397461 -0.5991211 0.3059082
vn 0.72314453 -0.5566406 -0.40893555
vn 0.72314453 -0.5566406 -0.40893555
vn 0.72314453 -0.5566406 -0.40893555
vn 0.72314453 -0.5566406 -0.40893555
vn -0.30908203 0 -0.9511719
vn -0.30908203 0 -0.9511719
vn -0.30908203 0 -0.9511719
vn -0.30908203 0 -0.9511719
vn -0.99902344 0 0.040618896
vn -0.99902344 0 0.040618896
vn -0.99902344 0 0.040618896
vn -0.99902344 0 0.040618896
vn -0.30908203 0 0.9511719
vn -0.30908203 0 0.9511719
vn -0.30908203 0 0.9511719
vn -0.30908203 0 0.9511719
vn 0.9086914 0 0.41723633
vn 0.9086914 0 0.41723633
vn 0.9086914 0 0.41723633
vn 0.9086914 0 0.41723633
vn 0.87646484 0 -0.4814453
vn 0.87646484 0 -0.4814453
vn 0.87646484 0 -0.4814453
vn 0.87646484 0 -0.4814453
vn -0.20581055 0.74609375 -0.6333008
vn -0.20581055 0.74609375 -0.6333008
vn -0.20581055 0.74609375 -0.6333008
vn -0.20581055 0.74609375 -0.6333008
vn -0.85791016 0.5102539 0.06213379
vn -0.85791016 0.5102539 0.06213379
vn -0.85791016 0.5102539 0.06213379
vn -0.85791016 0.5102539 0.06213379
vn -0.21655273 0.71435547 0.66503906
vn -0.21655273 0.71435547 0.66503906
vn -0.21655273 0.71435547 0.66503906
vn -0.21655273 0.71435547 0.66503906
vn 0.72558594 0.5620117 0.39697266
vn 0.72558594 0.5620117 0.39697266
vn 0.72558594 0.5620117 0.39697266
vn 0.72558594 0.5620117 0.39697266
vn 0.72314453 0.5566406 -0.4086914
vn 0.72314453 0.5566406 -0.4086914
vn 0.72314453 0.5566406 -0.4086914
vn 0.72314453 0.5566406 -0.4086914
g pSphere1_0
f 3/3/3 2/2/2 1/1/1
f 6/6/6 5/5/5 4/4/4
f 9/9/9 8/8/8 7/7/7
f 12/12/12 11/11/11 10/10/10
f 15/15/15 14/14/14 13/13/13
f 18/18/18 17/17/17 16/16/16
f 21/21/21 20/20/20 19/19/19
f 24/24/24 23/23/23 22/22/22
f 27/27/27 26/26/26 25/25/25
f 30/30/30 29/29/29 28/28/28
f 33/33/33 32/32/32 31/31/31
f 34/34/34 33/33/33 31/31/31
f 37/37/37 36/36/36 35/35/35
f 38/38/38 37/37/37 35/35/35
f 41/41/41 40/40/40 39/39/39
f 42/42/42 41/41/41 39/39/39
f 45/45/45 44/44/44 43/43/43
f 46/46/46 45/45/45 43/43/43
f 49/49/49 48/48/48 47/47/47
f 50/50/50 49/49/49 47/47/47
f 53/53/53 52/52/52 51/51/51
f 54/54/54 53/53/53 51/51/51
f 57/57/57 56/56/56 55/55/55
f 58/58/58 57/57/57 55/55/55
f 61/61/61 60/60/60 59/59/59
f 62/62/62 61/61/61 59/59/59
f 65/65/65 64/64/64 63/63/63
f 66/66/66 65/65/65 63/63/63
f 69/69/69 68/68/68 67/67/67
f 70/70/70 69/69/69 67/67/67
f 73/73/73 72/72/72 71/71/71
f 74/74/74 73/73/73 71/71/71
f 77/77/77 76/76/76 75/75/75
f 78/78/78 77/77/77 75/75/75
f 81/81/81 80/80/80 79/79/79
f 82/82/82 81/81/81 79/79/79
f 85/85/85 84/84/84 83/83/83
f 86/86/86 85/85/85 83/83/83
f 89/89/89 88/88/88 87/87/87
f 90/90/90 89/89/89 87/87/87
